<?xml version="1.0" encoding="UTF-8" standalone="no"?>
<svg
   xmlns:dc="http://purl.org/dc/elements/1.1/"
   xmlns:cc="http://creativecommons.org/ns#"
   xmlns:rdf="http://www.w3.org/1999/02/22-rdf-syntax-ns#"
   xmlns:svg="http://www.w3.org/2000/svg"
   xmlns="http://www.w3.org/2000/svg"
   xmlns:xlink="http://www.w3.org/1999/xlink"
   xmlns:sodipodi="http://sodipodi.sourceforge.net/DTD/sodipodi-0.dtd"
   xmlns:inkscape="http://www.inkscape.org/namespaces/inkscape"
   width="360"
   height="500"
   version="1.1"
   viewBox="0 0 95.25 132.29167"
   id="svg371"
   sodipodi:docname="logos.svg"
   inkscape:version="0.92.4 5da689c313, 2019-01-14">
  <metadata
     id="metadata375">
    <rdf:RDF>
      <cc:Work
         rdf:about="">
        <dc:format>image/svg+xml</dc:format>
        <dc:type
           rdf:resource="http://purl.org/dc/dcmitype/StillImage" />
        <dc:title />
      </cc:Work>
    </rdf:RDF>
  </metadata>
  <sodipodi:namedview
     pagecolor="#ffffff"
     bordercolor="#666666"
     borderopacity="1"
     objecttolerance="10"
     gridtolerance="10"
     guidetolerance="10"
     inkscape:pageopacity="0"
     inkscape:pageshadow="2"
     inkscape:window-width="1366"
     inkscape:window-height="708"
     id="namedview373"
     showgrid="false"
     inkscape:zoom="5.2956597"
     inkscape:cx="178.951"
     inkscape:cy="120.41882"
     inkscape:window-x="0"
     inkscape:window-y="32"
     inkscape:window-maximized="1"
     inkscape:current-layer="svg371" />
  <defs
     id="defs37">
    <linearGradient
       id="b"
       x1="1"
       x2="47"
       gradientTransform="matrix(0,-1.1304,1.1304,0,-0.13,48.13)"
       gradientUnits="userSpaceOnUse">
      <stop
         stop-color="#31af54"
         offset="0"
         id="stop2" />
      <stop
         stop-color="#35bf5c"
         offset="1"
         id="stop4" />
    </linearGradient>
    <linearGradient
       id="a"
       x1="1"
       x2="47"
       gradientTransform="matrix(0,-0.26458,0.26458,0,49.509,296.67)"
       gradientUnits="userSpaceOnUse">
      <stop
         stop-color="#c0e1f8"
         offset="0"
         id="stop7" />
      <stop
         stop-color="#d2eafa"
         offset="1"
         id="stop9" />
    </linearGradient>
    <style
       id="current-color-scheme"
       type="text/css">.ColorScheme-Text { color:#565656; } .ColorScheme-Highlight { color:#5294e2; }</style>
    <style
       type="text/css"
       id="style13">.ColorScheme-Text { color:#565656; } .ColorScheme-Highlight { color:#5294e2; }</style>
    <style
       type="text/css"
       id="style15">.ColorScheme-Text { color:#565656; } .ColorScheme-Highlight { color:#5294e2; }</style>
    <style
       type="text/css"
       id="style17">.ColorScheme-Text { color:#565656; } .ColorScheme-Highlight { color:#5294e2; }</style>
    <style
       type="text/css"
       id="style19">.ColorScheme-Text { color:#565656; } .ColorScheme-Highlight { color:#5294e2; }</style>
    <style
       type="text/css"
       id="style21">.ColorScheme-Text { color:#565656; } .ColorScheme-Highlight { color:#5294e2; }</style>
    <style
       type="text/css"
       id="style23">.ColorScheme-Text { color:#565656; } .ColorScheme-Highlight { color:#5294e2; }</style>
    <style
       type="text/css"
       id="style25">.ColorScheme-Text { color:#565656; } .ColorScheme-Highlight { color:#5294e2; }</style>
    <style
       type="text/css"
       id="style27">.ColorScheme-Text { color:#565656; } .ColorScheme-Highlight { color:#5294e2; }</style>
    <style
       type="text/css"
       id="style29" />
    <style
       type="text/css"
       id="style31" />
    <style
       type="text/css"
       id="style33">.ColorScheme-Text { color:#565656; } .ColorScheme-Highlight { color:#5294e2; }</style>
    <style
       type="text/css"
       id="style35">.ColorScheme-Text { color:#565656; } .ColorScheme-Highlight { color:#5294e2; }</style>
    <linearGradient
       inkscape:collect="always"
       xlink:href="#gradient0"
       id="linearGradient3013"
       gradientUnits="userSpaceOnUse"
       x1="79.529999"
       y1="-125.87"
       x2="176.71001"
       y2="-25.68" />
    <linearGradient
       y2="-25.68"
       x2="176.71001"
       y1="-125.87"
       x1="79.529999"
       gradientUnits="userSpaceOnUse"
       id="gradient0">
      <stop
         id="stop1170"
         stop-color="#8d8d8d"
         offset="0" />
      <stop
         id="stop1172"
         stop-color="#ffffff"
         offset="1" />
    </linearGradient>
    <linearGradient
       inkscape:collect="always"
       xlink:href="#gradient2"
       id="linearGradient3017"
       gradientUnits="userSpaceOnUse"
       x1="-75.080002"
       y1="57.639999"
       x2="-66.889999"
       y2="-9.1899996" />
    <linearGradient
       y2="-9.1899996"
       x2="-66.889999"
       y1="57.639999"
       x1="-75.080002"
       gradientUnits="userSpaceOnUse"
       id="gradient2">
      <stop
         id="stop1184"
         stop-color="#c0c0c0"
         offset="0" />
      <stop
         id="stop1186"
         stop-color="#ffffff"
         offset="1" />
    </linearGradient>
    <linearGradient
       inkscape:collect="always"
       xlink:href="#gradient4"
       id="linearGradient3021"
       gradientUnits="userSpaceOnUse"
       x1="10.71"
       y1="-51.220001"
       x2="56.880001"
       y2="-1.04" />
    <linearGradient
       y2="-1.04"
       x2="56.880001"
       y1="-51.220001"
       x1="10.71"
       gradientUnits="userSpaceOnUse"
       id="gradient4">
      <stop
         id="stop1198"
         stop-color="#6a6a6a"
         offset="0" />
      <stop
         id="stop1200"
         stop-color="#ffffff"
         offset="1" />
    </linearGradient>
    <radialGradient
       gradientTransform="matrix(0.9523,-0.3867,0.1312,0.3232,33.1729,29.0624)"
       r="64"
       cy="0"
       cx="0"
       gradientUnits="userSpaceOnUse"
       id="gradient6">
      <stop
         id="stop1214"
         stop-color="#2a8423"
         offset="0" />
      <stop
         id="stop1216"
         stop-color="#a9ff00"
         offset="1" />
    </radialGradient>
    <linearGradient
       inkscape:collect="always"
       xlink:href="#gradient0"
       id="linearGradient4393"
       gradientUnits="userSpaceOnUse"
       x1="79.529999"
       y1="-125.87"
       x2="176.71001"
       y2="-25.68" />
    <linearGradient
       inkscape:collect="always"
       xlink:href="#gradient2"
       id="linearGradient4395"
       gradientUnits="userSpaceOnUse"
       x1="-75.080002"
       y1="57.639999"
       x2="-66.889999"
       y2="-9.1899996" />
    <linearGradient
       inkscape:collect="always"
       xlink:href="#gradient4"
       id="linearGradient4397"
       gradientUnits="userSpaceOnUse"
       x1="10.71"
       y1="-51.220001"
       x2="56.880001"
       y2="-1.04" />
  </defs>
  <g
     id="antergos"
     transform="matrix(1.1429,0,0,1.1764,46.641585,7.8983291)"
     style="stroke-width:0.875">
    <path
       d="m 5.0899,-0.31739 c -1.8455,0 -3.5064,3.5059 -3.691,4.9821 -0.23017,1.8403 2.5836,2.2148 3.691,2.2148 1.1069,0 3.9207,-0.37454 3.6905,-2.2148 -0.18466,-1.4762 -1.8455,-4.9821 -3.6905,-4.9821 z"
       id="path39"
       inkscape:connector-curvature="0"
       style="fill:#7986cb;fill-rule:evenodd" />
    <path
       d="M 5.6114,5.5011 C 6.09004,4.3037 6.18368,2.7558 5.84157,1.6856 5.751596,1.40417 5.71079,1.46956 5.55125,2.14855 5.30958,3.17335 4.75142,4.40525 4.23145,5.06225 4.0876,5.24324 3.98088,5.42476 3.99448,5.46504 4.03999,5.60209 4.60965,5.76478 5.05688,5.76844 L 5.50257,5.7721 Z M 7.277,3.5881 C 7.277,2.98757 7.04579,2.4237 6.643,2.0397 6.46253,1.86708 6.38772,1.82523 6.42225,1.91363 6.65608,2.51416 6.87212,3.35953 6.94169,3.94743 L 7.025387,4.64996 7.150937,4.36068 C 7.236203,4.16608 7.277007,3.91395 7.277007,3.58805 Z M 3.4107,3.84965 C 3.91027,3.47772 4.424,2.96403 4.7436,2.51725 5.20707,1.8686 5.43462,1.34345 5.25206,1.34345 c -0.035048,0 -0.2626,0.14804 -0.5048,0.32956 -0.24272,0.18099 -0.71142,0.4687 -1.041,0.63924 -0.5932,0.30654 -0.60157,0.31439 -0.70358,0.65597 -0.14647,0.49224 -0.12973,1.1262 0.029294,1.1262 0.027725,0 0.19826,-0.10985 0.37873,-0.24481 z"
       id="path41"
       inkscape:connector-curvature="0"
       style="fill:#ffffff" />
  </g>
  <g
     id="archlinux"
     transform="matrix(0.59261,0,0,0.59261,8.0725847,11.839929)">
    <circle
       cx="8.4665003"
       cy="2.8228999e-07"
       r="7.1436"
       style="fill:#138ed3;stroke-width:1.625;paint-order:stroke markers fill"
       id="circle44" />
    <path
       d="m 8.466,-4.6975 c -0.377,0.924 -0.604,1.529 -1.024,2.425 0.257,0.273 0.573,0.59 1.086,0.95 -0.551,-0.227 -0.928,-0.455 -1.209,-0.692 -0.537,1.121 -1.378,2.717 -3.086,5.785 1.342,-0.774 2.383,-1.252 3.352,-1.434 A 2.457,2.457 0 0 1 7.522,1.7615 l 10e-4,-0.043 c 0.022,-0.86 0.469,-1.521 0.999,-1.476 0.53,0.045 0.941,0.779 0.92,1.638 a 2.427,2.427 0 0 1 -0.054,0.462 c 0.959,0.188 1.988,0.664 3.312,1.428 -0.261,-0.48 -0.494,-0.913 -0.717,-1.326 -0.35,-0.272 -0.716,-0.625 -1.461,-1.008 0.512,0.133 0.88,0.287 1.165,0.459 -2.262,-4.212 -2.445,-4.772 -3.221,-6.593 z"
       id="path46"
       inkscape:connector-curvature="0"
       style="fill:#ffffff;fill-rule:evenodd;stroke-width:1.6875" />
  </g>
  <g
     id="chakra"
     transform="matrix(0.59258,0,0,0.59258,21.154585,-159.14007)">
    <g
       transform="matrix(1.0385,0,0,1.0385,-0.32619,-11.098)"
       id="g51"
       style="stroke-width:1.56480002">
      <circle
         cx="8.467"
         cy="288.53"
         r="6.8790002"
         style="fill:#4e7ba0;stroke-width:1.56480002;paint-order:stroke markers fill"
         id="circle49" />
    </g>
    <path
       d="m 8.665,284.42 c -0.944,0.03 2.513,4.66 -0.149,4.365 2.22,0.597 2.728,-2.186 2.275,-3.547 -0.45,-1.348 -0.683,-0.507 -2.021,-0.806 A 0.421,0.421 0 0 0 8.665,284.42 Z m -2.646,0.645 c -1.459,-0.002 -0.707,0.474 -1.414,1.618 -0.675,1.092 5.333,-0.864 4.185,1.58 1.27,-1.866 -1.297,-3.196 -2.77,-3.198 z m 1.027,2.09 c -1.167,-10e-4 -2.342,1.286 -2.67,2.264 -0.454,1.347 0.245,0.8 1.146,1.806 0.861,0.96 0.802,-5.192 2.84,-3.377 -0.403,-0.492 -0.859,-0.691 -1.316,-0.692 z m 5.059,0.219 c -0.725,-0.055 -3.695,3.664 -4.185,1.32 0.1,2.234 2.983,1.844 4.176,1.005 1.182,-0.832 0.286,-0.787 0.165,-2.116 -0.012,-0.139 -0.067,-0.202 -0.156,-0.21 z m -4.28,0.74 c -2.158,0.785 -0.885,3.326 0.306,4.168 1.18,0.835 0.86,0.02 2.123,-0.5 1.207,-0.499 -4.837,-2.346 -2.43,-3.667 z"
       id="path53"
       inkscape:connector-curvature="0"
       style="fill:#ffffff;fill-rule:evenodd;stroke-width:1.6875" />
  </g>
  <g
     id="debian"
     transform="matrix(0.59258,0,0,0.59258,34.237585,-159.14007)">
    <g
       transform="matrix(1.0385,0,0,1.0385,-0.32619,-11.098)"
       id="g58"
       style="stroke-width:1.56480002">
      <circle
         cx="8.467"
         cy="288.53"
         r="6.8790002"
         style="fill:#f6476b;stroke-width:1.56480002;paint-order:stroke markers fill"
         id="circle56" />
    </g>
    <path
       d="m 11.077,287.92 c 0.009,0.229 -0.066,0.34 -0.134,0.536 l -0.122,0.06 c -0.1,0.195 0.01,0.124 -0.062,0.278 -0.156,0.14 -0.474,0.434 -0.575,0.461 -0.074,0 0.05,-0.087 0.066,-0.12 -0.208,0.143 -0.167,0.215 -0.487,0.302 l -0.01,-0.021 c -0.787,0.37 -1.881,-0.364 -1.867,-1.366 -0.008,0.064 -0.024,0.048 -0.041,0.073 -0.04,-0.515 0.238,-1.033 0.708,-1.245 0.46,-0.227 1,-0.134 1.328,0.173 -0.18,-0.237 -0.54,-0.488 -0.967,-0.465 -0.418,0.006 -0.81,0.273 -0.94,0.561 -0.214,0.135 -0.239,0.52 -0.332,0.59 -0.126,0.924 0.236,1.322 0.848,1.791 0.096,0.065 0.027,0.075 0.04,0.125 a 1.66,1.66 0 0 1 -0.543,-0.415 c 0.082,0.119 0.17,0.234 0.283,0.325 -0.192,-0.065 -0.448,-0.465 -0.523,-0.481 0.33,0.592 1.34,1.038 1.87,0.816 -0.245,0.01 -0.556,0.005 -0.831,-0.096 -0.116,-0.06 -0.273,-0.183 -0.245,-0.206 0.722,0.27 1.468,0.204 2.093,-0.296 0.159,-0.124 0.333,-0.335 0.383,-0.338 -0.076,0.114 0.013,0.055 -0.045,0.155 0.158,-0.255 -0.07,-0.104 0.163,-0.44 l 0.086,0.118 c -0.032,-0.213 0.263,-0.47 0.233,-0.805 0.068,-0.103 0.076,0.11 0.004,0.346 0.1,-0.262 0.026,-0.304 0.052,-0.52 0.028,0.073 0.064,0.15 0.083,0.227 -0.065,-0.253 0.066,-0.426 0.099,-0.573 -0.032,-0.014 -0.1,0.112 -0.116,-0.187 0.003,-0.13 0.036,-0.068 0.05,-0.1 -0.026,-0.015 -0.093,-0.114 -0.134,-0.305 0.03,-0.045 0.079,0.116 0.12,0.123 -0.027,-0.152 -0.071,-0.267 -0.073,-0.384 -0.117,-0.245 -0.041,0.033 -0.136,-0.105 -0.125,-0.389 0.103,-0.09 0.119,-0.267 0.188,0.274 0.296,0.698 0.346,0.874 a 3.575,3.575 0 0 0 -0.174,-0.623 c 0.058,0.024 -0.092,-0.44 0.075,-0.133 -0.178,-0.656 -0.764,-1.27 -1.302,-1.558 0.065,0.06 0.149,0.136 0.119,0.148 -0.268,-0.16 -0.221,-0.172 -0.26,-0.24 -0.217,-0.088 -0.232,0.008 -0.376,0 -0.411,-0.218 -0.49,-0.194 -0.87,-0.33 l 0.018,0.08 c -0.272,-0.091 -0.317,0.034 -0.612,0 -0.018,-0.014 0.095,-0.05 0.187,-0.064 -0.263,0.035 -0.251,-0.052 -0.509,0.009 0.064,-0.045 0.13,-0.074 0.199,-0.112 -0.215,0.013 -0.513,0.125 -0.421,0.023 -0.35,0.156 -0.973,0.376 -1.322,0.703 l -0.011,-0.073 c -0.16,0.192 -0.698,0.574 -0.74,0.823 l -0.044,0.01 c -0.083,0.14 -0.137,0.3 -0.203,0.445 -0.109,0.186 -0.16,0.072 -0.144,0.1 -0.214,0.435 -0.32,0.8 -0.412,1.1 0.065,0.097 0,0.589 0.026,0.982 -0.108,1.943 1.363,3.829 2.971,4.264 0.236,0.085 0.586,0.081 0.884,0.09 -0.351,-0.1 -0.397,-0.054 -0.74,-0.173 -0.247,-0.116 -0.3,-0.25 -0.476,-0.401 l 0.07,0.122 c -0.344,-0.121 -0.2,-0.15 -0.48,-0.238 l 0.074,-0.097 c -0.11,-0.008 -0.294,-0.187 -0.344,-0.287 l -0.122,0.005 c -0.146,-0.18 -0.224,-0.31 -0.219,-0.41 l -0.039,0.07 c -0.044,-0.077 -0.538,-0.678 -0.282,-0.538 -0.048,-0.043 -0.11,-0.07 -0.18,-0.195 l 0.053,-0.06 c -0.123,-0.158 -0.227,-0.361 -0.22,-0.43 0.067,0.09 0.112,0.106 0.157,0.121 -0.31,-0.772 -0.328,-0.042 -0.564,-0.785 l 0.05,-0.004 c -0.038,-0.058 -0.062,-0.12 -0.092,-0.182 l 0.021,-0.216 c -0.224,-0.259 -0.062,-1.101 -0.03,-1.563 0.022,-0.188 0.187,-0.388 0.312,-0.702 L 5.82,286.787 c 0.146,-0.254 0.832,-1.02 1.15,-0.981 0.155,-0.194 -0.03,0 -0.06,-0.05 0.338,-0.35 0.445,-0.247 0.673,-0.31 0.246,-0.146 -0.211,0.057 -0.095,-0.056 0.426,-0.109 0.302,-0.247 0.857,-0.302 0.059,0.033 -0.136,0.051 -0.184,0.094 0.354,-0.173 1.122,-0.134 1.62,0.097 0.58,0.27 1.23,1.07 1.255,1.822 l 0.03,0.008 c -0.015,0.299 0.045,0.644 -0.06,0.962 l 0.071,-0.15"
       id="path60"
       inkscape:connector-curvature="0"
       style="fill:#ffffff;stroke-width:1.6875" />
  </g>
  <g
     id="deepin"
     transform="matrix(0.59258,0,0,0.59258,73.483585,-159.14007)">
    <g
       transform="matrix(1.0385,0,0,1.0385,-0.32619,-11.098)"
       id="g65"
       style="stroke-width:1.56480002">
      <circle
         cx="8.467"
         cy="288.53"
         r="6.8790002"
         style="fill:#00bcfb;stroke-width:1.56480002;paint-order:stroke markers fill"
         id="circle63" />
    </g>
    <path
       d="m 8.2,284.83 c -0.451,0.01 -0.42,0.091 -0.611,0.48 -0.308,0.624 -0.523,1.53 -0.479,2.065 0.047,0.571 0.2,0.944 0.497,1.222 0.355,0.338 0.79,0.294 1.156,-0.099 0.329,-0.353 0.45,-0.72 0.48,-1.52 0.017,-0.506 0.027,-0.567 0.065,-0.48 0.146,0.337 0.184,1.128 0.083,1.52 -0.084,0.325 -0.294,0.721 -0.463,0.877 -0.223,0.205 -0.463,0.298 -0.793,0.313 -0.222,0.01 -0.309,0.007 -0.48,-0.049 -0.438,-0.146 -0.979,-0.564 -1.289,-0.975 -0.441,-0.583 -0.88,-1.768 -0.992,-2.71 a 1.904,1.904 0 0 0 -0.065,-0.363 c -0.079,-0.09 -0.383,0.288 -0.479,0.595 -0.062,0.197 -0.066,0.29 -0.066,2.033 v 1.835 l 0.083,0.05 c 0.117,0.075 0.627,0.228 1.043,0.313 0.316,0.065 0.443,0.083 1.19,0.083 0.747,0 0.887,-0.02 1.174,-0.083 0.468,-0.103 0.817,-0.27 1.108,-0.562 0.409,-0.41 0.56,-0.826 0.562,-1.47 0,-0.429 -0.06,-0.771 -0.233,-1.109 -0.061,-0.123 -0.122,-0.224 -0.116,-0.231 0.039,-0.039 0.466,0.471 0.563,0.677 0.612,1.295 0.32,2.351 -0.943,3.404 -0.56,0.467 -1.528,1.108 -2.083,1.388 -0.194,0.097 -0.23,0.134 -0.182,0.182 0.012,0.012 0.978,0.022 2.148,0.016 l 2.133,-0.016 0.182,-0.083 c 0.368,-0.176 0.6,-0.436 0.71,-0.794 0.064,-0.204 0.066,-0.297 0.066,-2.809 0,-2.639 -0.004,-2.866 -0.115,-2.909 -0.026,-0.009 -0.275,0.019 -0.547,0.065 -0.3,0.054 -0.724,0.097 -1.09,0.117 -0.64,0.033 -0.962,0.095 -1.34,0.248 -0.35,0.143 -0.553,0.258 -0.744,0.413 -0.17,0.14 -0.194,0.158 -0.248,0.381 -0.076,0.307 -0.123,0.444 -0.249,0.611 -0.094,0.122 -0.185,0.182 -0.184,0.116 0.005,-0.118 0.112,-0.488 0.216,-0.695 0.307,-0.61 0.707,-1.047 1.488,-1.636 0.24,-0.183 0.446,-0.34 0.446,-0.365 0,-0.036 -0.174,-0.05 -0.96,-0.05 -0.28,0 -0.494,-0.002 -0.644,0 m 0.644,1.556 c 0.05,0 0.051,0.05 -0.016,0.546 -0.072,0.522 -0.26,0.94 -0.497,1.19 -0.167,0.177 -0.348,0.224 -0.478,0.131 a 0.53,0.53 0 0 1 -0.165,-0.313 c 0,-0.042 0.015,-0.044 0.065,-0.016 0.1,0.053 0.142,0.041 0.265,-0.066 0.205,-0.181 0.42,-0.7 0.53,-1.29 0.011,-0.068 0.2,-0.184 0.296,-0.184"
       id="path67"
       inkscape:connector-curvature="0"
       style="fill:#ffffff;stroke-width:1.6875" />
  </g>
  <g
     id="elementary"
     transform="matrix(0.59258,0,0,0.59258,73.483585,-133.18007)">
    <g
       transform="matrix(1.0385,0,0,1.0385,-0.32619,-11.098)"
       id="g72"
       style="stroke-width:1.56480002">
      <circle
         cx="8.467"
         cy="288.53"
         r="6.8790002"
         style="fill:#666666;stroke-width:1.56480002;paint-order:stroke markers fill"
         id="circle70" />
    </g>
    <path
       d="m 8.467,284.3 a 4.2335,4.2335 0 1 0 0,8.467 4.2335,4.2335 0 0 0 0,-8.467 z m 0,0.353 a 3.882,3.882 0 0 1 3.735,2.826 6.733,6.733 0 0 1 -1.645,2.145 c -0.33,0.285 -0.689,0.54 -1.086,0.719 -0.398,0.179 -0.835,0.28 -1.27,0.255 a 2.197,2.197 0 0 1 -0.936,-0.268 7.061,7.061 0 0 0 2.004,-1.616 c 0.368,-0.43 0.69,-0.92 0.813,-1.473 a 2,2 0 0 0 0.015,-0.843 1.558,1.558 0 0 0 -0.38,-0.748 1.526,1.526 0 0 0 -0.705,-0.418 1.854,1.854 0 0 0 -0.823,-0.03 c -0.545,0.1 -1.03,0.416 -1.42,0.809 -0.688,0.692 -1.113,1.67 -1.035,2.642 0.04,0.486 0.202,0.964 0.482,1.364 0.062,0.089 0.13,0.174 0.204,0.255 a 6.348,6.348 0 0 1 -1.255,0.3 3.88,3.88 0 0 1 3.302,-5.92 z m 0.024,0.784 c 0.273,0 0.548,0.083 0.765,0.247 0.197,0.148 0.342,0.36 0.424,0.59 0.083,0.232 0.104,0.484 0.076,0.728 -0.057,0.488 -0.303,0.936 -0.6,1.327 a 5.723,5.723 0 0 1 -2.25,1.75 2.004,2.004 0 0 1 -0.425,-0.521 c -0.231,-0.41 -0.307,-0.897 -0.262,-1.365 0.044,-0.468 0.205,-0.92 0.421,-1.338 0.25,-0.485 0.592,-0.944 1.07,-1.207 0.238,-0.132 0.509,-0.212 0.781,-0.211 z m 3.821,2.577 a 3.88,3.88 0 0 1 -6.837,2.992 c 0.44,-0.1 0.87,-0.243 1.281,-0.426 0.18,0.138 0.38,0.25 0.59,0.331 0.61,0.234 1.3,0.2 1.917,-0.014 0.616,-0.213 1.163,-0.596 1.64,-1.041 a 7.056,7.056 0 0 0 1.41,-1.842 z"
       id="path74"
       inkscape:connector-curvature="0"
       style="fill:#ffffff;stroke-width:2.20050001" />
  </g>
  <g
     id="fedora"
     transform="matrix(0.59258,0,0,0.59258,8.0725847,-120.19007)">
    <g
       transform="matrix(1.0385,0,0,1.0385,-0.32619,-11.098)"
       id="g79"
       style="stroke-width:1.56480002">
      <circle
         cx="8.467"
         cy="288.53"
         r="6.8790002"
         style="fill:#225a84;stroke-width:1.56480002;paint-order:stroke markers fill"
         id="circle77" />
    </g>
    <path
       d="m 8.731,284.04 a 4.234,4.234 0 0 0 -4.233,4.231 v 3.579 c 0,0.364 0.293,0.657 0.657,0.657 H 8.733 A 4.2335001,4.2335001 0 0 0 8.731,284.04 Z m 1.276,0.928 c 0.17,0 0.291,0.02 0.448,0.06 0.23,0.06 0.417,0.249 0.417,0.468 0,0.264 -0.191,0.457 -0.479,0.457 -0.136,0 -0.186,-0.027 -0.386,-0.027 -0.591,0 -1.07,0.48 -1.071,1.07 v 0.926 c 0,0.084 0.067,0.152 0.15,0.152 h 0.705 a 0.4725,0.4725 0 1 1 0,0.945 H 8.936 v 1.081 a 2.03,2.03 0 0 1 -2.03,2.03 c -0.17,0 -0.291,-0.02 -0.448,-0.061 -0.23,-0.06 -0.418,-0.248 -0.418,-0.467 0,-0.265 0.192,-0.457 0.48,-0.457 0.136,0 0.186,0.026 0.386,0.026 0.591,0 1.07,-0.479 1.071,-1.07 v -0.93 A 0.151,0.151 0 0 0 7.826,289.019 H 7.122 a 0.47251,0.47251 0 1 1 0.005,-0.945 h 0.85 v -1.076 a 2.03,2.03 0 0 1 2.03,-2.03 z"
       id="path81"
       inkscape:connector-curvature="0"
       style="fill:#ffffff;stroke-width:1.6875" />
  </g>
  <g
     id="gentoo"
     transform="matrix(0.59258,0,0,0.59258,21.154585,-120.19007)">
    <g
       transform="matrix(1.0385,0,0,1.0385,-0.32619,-11.098)"
       id="g86"
       style="stroke-width:1.56480002">
      <circle
         cx="8.467"
         cy="288.53"
         r="6.8790002"
         style="fill:#b6057c;stroke-width:1.56480002;paint-order:stroke markers fill"
         id="circle84" />
    </g>
    <path
       d="m 7.592,284.3 c -1.818,0.086 -3.241,1.735 -3.168,2.631 0.07,0.873 2.281,1.639 2.255,1.665 -0.452,0.382 -0.75,0.64 -1.128,0.985 -0.908,0.83 -1.535,1.445 -1.217,2.309 0.367,0.996 1.17,0.955 2.112,0.77 2.432,-0.48 6.433,-3.556 6.23,-4.69 -0.165,-0.919 -2.402,-2.734 -3.724,-3.384 A 2.798,2.798 0 0 0 7.592,284.3 Z m 0.376,1.575 c 0.227,-0.021 0.492,0.036 0.787,0.18 0.645,0.311 1.313,1.139 0,1.61 -0.357,0.128 -1.502,-0.308 -1.467,-0.913 0.031,-0.558 0.3,-0.841 0.68,-0.877 z"
       id="path88"
       inkscape:connector-curvature="0"
       style="fill:#ffffff;fill-rule:evenodd;stroke-width:1.6875" />
  </g>
  <g
     id="gnu-linux"
     transform="matrix(0.30238,0,0,0.30238,34.416585,45.949929)">
    <circle
       cx="16"
       cy="16"
       r="14"
       style="fill:#f2f2f2;fill-rule:evenodd;stroke-width:0.875;paint-order:stroke fill markers"
       id="circle91" />
    <g
       transform="matrix(0.35714,0,0,0.35714,6.1499,3.857)"
       id="g113"
       style="stroke-width:2.45000005">
      <path
         d="m 20.254,22.904 c 0.72001,-2.852 0.026,-5.8841 0.126,-8.8241 0.22,-6.4201 3.784,-7.8761 7.4381,-8.0661 4.192,-0.22 9.1541,2.264 9.4541,8.3201 0.142,2.898 -0.37,5.8921 0.378,8.6961 1.742,6.5401 9.2201,11.262 9.3281,18.026 0.1,6.4281 -2.86,14.004 -8.3201,17.396 -2.82,1.752 -6.6461,-0.35 -9.9601,-0.126 -3.686,0.252 -7.7861,3.526 -10.966,1.64 C 11.96,56.54 10.368,47.756 10.8,41.056 11.24,34.2479 18.5841,29.52 20.2541,22.904 Z"
         id="path93"
         inkscape:connector-curvature="0"
         style="fill:#2f3133" />
      <ellipse
         cx="30.52"
         cy="17.563999"
         rx="2.964"
         ry="3.832"
         id="ellipse95"
         style="fill:#fcfcfc;fill-opacity:0.94100001" />
      <ellipse
         cx="23.5"
         cy="17.698"
         rx="2.0940001"
         ry="3.1199999"
         id="ellipse97"
         style="fill:#fcfcfc;fill-opacity:0.94100001" />
      <ellipse
         cx="30.152"
         cy="18.188"
         rx="1.214"
         ry="2.006"
         id="ellipse99"
         style="fill:#232629" />
      <ellipse
         cx="23.51"
         cy="18.188"
         rx="0.92400998"
         ry="1.494"
         id="ellipse101"
         style="fill:#232629" />
      <path
         d="m 30.128,21.514 a 10.136,10.136 0 0 0 -1.09,0.008 c -2.46,0.144 -5.0961,1.11 -6.4281,2.28 -2.132,1.874 -0.86801,3.696 -1.786,6.3281 -0.91799,2.6321 -3.228,6.0761 -3.92,9.3601 -0.28,1.326 -0.63601,2.652 -0.88001,3.984 l 6.5861,8.0481 c 1.294,1.58 -2.082,0.99401 -5.2221,-1.04 2.228,3.134 6.6481,6.2401 11.012,5.9461 4.648,-0.312 10.136,-5.1721 11.892,-9.1461 -1.704,-0.288 -3.36,-2.852 -1.996,-4.7621 0.474,-0.66201 1.492,-0.72001 2.366,-0.58001 -0.526,-2.036 -1.574,-3.86 -2.1,-5.3921 -0.91201,-2.672 -1.972,-3.42 -2.94,-5.7921 -0.97001,-2.372 0.054,-6.7601 -2.676,-8.4681 -0.76801,-0.48 -1.75,-0.72001 -2.818,-0.77401 z"
         id="path103"
         inkscape:connector-curvature="0"
         style="fill:#f7f7f8" />
      <g
         id="g111"
         style="fill:#f7a931">
        <path
           d="m 9.6657,46.73 c 0.97401,-0.78001 1.43,-2.366 2.646,-2.648 0.95201,-0.22 2.02,0.326 2.774,0.94601 1.722,1.416 1.984,4.028 3.34,5.8001 0.90401,1.178 2.436,1.848 3.152,3.15 0.74601,1.36 1.708,3.156 1.008,4.538 -0.94401,1.862 -3.648,2.44 -5.7361,2.52 -1.268,0.05 -2.37,-0.92001 -3.592,-1.26 -1.78,-0.496 -3.834,-0.19 -5.4201,-1.134 -1.256,-0.74601 -2.744,-1.882 -2.836,-3.34 -0.038,-0.57601 0.80401,-0.89001 0.94401,-1.45 0.372,-1.472 -1.054,-3.18 -0.378,-4.54 0.72001,-1.444 2.836,-1.574 4.098,-2.582 z"
           id="path105"
           inkscape:connector-curvature="0" />
        <path
           d="m 37.86,44.538 c -0.402,0.36 -0.74201,0.81401 -0.99001,1.264 -1.076,1.954 -0.35,4.48 -0.95401,6.6261 -0.404,1.43 -1.578,2.62 -1.76,4.092 -0.19,1.54 -0.42,3.564 0.74201,4.59 1.568,1.38 4.294,0.91401 6.2621,0.216 1.198,-0.424 1.86,-1.732 2.87,-2.5 1.468,-1.12 3.49,-1.6 4.614,-3.062 0.89001,-1.16 1.854,-2.764 1.4,-4.152 -0.18,-0.54801 -1.076,-0.53001 -1.414,-0.99801 -0.89001,-1.23 -0.2,-3.34 -1.33,-4.352 -0.84001,-0.75001 -2.074,-0.66401 -3.266,-0.69601 -0.57601,1.234 -2.452,2.074 -3.742,1.716 -1.092,-0.304 -2.18,-1.546 -2.432,-2.744 z"
           id="path107"
           inkscape:connector-curvature="0" />
        <path
           d="m 26.462,18.304 c 1.318,-0.07 2.53,0.78401 3.72,1.354 1.15,0.55401 3.114,0.72001 3.276,1.986 0.186,1.438 -1.84,2.286 -3.024,3.12 -1.058,0.74601 -2.238,1.62 -3.53,1.608 -1.306,-0.014 -2.462,-0.95001 -3.53,-1.702 -0.88001,-0.62001 -2.266,-1.192 -2.3,-2.27 -0.038,-1.152 1.38,-1.886 2.3,-2.584 0.91201,-0.69201 1.944,-1.452 3.088,-1.512 z"
           id="path109"
           inkscape:connector-curvature="0" />
      </g>
    </g>
  </g>
  <g
     id="kali"
     transform="matrix(0.59258,0,0,0.59258,47.319585,45.769929)">
    <g
       transform="matrix(1.0385,0,0,1.0385,-0.32619,-0.32516)"
       id="g118"
       style="stroke-width:1.625">
      <path
         d="m 8.467,1.587 a 6.879,6.879 0 1 1 0,13.758 6.879,6.879 0 0 1 0,-13.758 z"
         id="path116"
         inkscape:connector-curvature="0"
         style="fill:#2883b6;stroke-width:1.625" />
    </g>
    <path
       d="M 7.818,3.76 C 8.042,4.359 8.308,5.041 8.705,5.56 8.268,5.344 7.782,5.2 7.402,4.892 c 0.047,0.12 0.03,0.249 0.026,0.35 A 5.317,5.317 0 0 1 6.476,4.865 c 0.08,0.15 0.093,0.31 0.073,0.45 C 6.223,5.345 5.87,5.243 5.569,5.189 5.707,5.314 5.772,5.479 5.828,5.645 5.506,5.701 5.174,5.76 4.848,5.791 4.986,5.884 5.088,6.019 5.167,6.148 4.914,6.36 4.594,6.551 4.333,6.711 A 0.638,0.638 0 0 1 4.796,6.836 9.444,9.444 0 0 1 4.233,7.716 C 4.397,7.677 4.545,7.643 4.723,7.643 4.661,7.995 4.617,8.363 4.485,8.695 4.632,8.588 4.791,8.534 4.955,8.477 5.112,8.744 5.128,9.18 5.186,9.415 a 0.498,0.498 0 0 1 0.258,-0.29 c 1.78,1.748 4.71,1.442 4.967,4.034 0.08,-1.01 -0.398,-1.724 -0.952,-2.215 C 8.999,10.536 6.904,9.566 6.806,9.502 5.005,8.308 5.248,6.695 6.516,6.287 a 2.727,2.727 0 0 1 3.015,0.946 c 0.176,0.223 0.427,0.631 0.662,0.807 0.445,0.334 2.036,1.109 1.409,2.03 C 12.147,9.93 12.563,9.54 12.7,8.993 12.273,8.81 11.63,8.423 11.681,7.881 11.743,7.855 11.811,7.861 11.88,7.861 10.444,5.361 10.061,6.231 8.619,3.906 8.799,4.55 9.191,5.344 9.663,5.785 8.88,5.315 8.372,4.472 7.818,3.76 Z m 2.95,3.155 c 0.163,0.227 0.3,0.48 0.496,0.675 -0.19,-0.066 -0.945,-0.563 -0.496,-0.675 z"
       id="path120"
       inkscape:connector-curvature="0"
       style="fill:#ffffff;stroke-width:1.6875" />
  </g>
  <g
     id="korora"
     transform="matrix(0.59258,0,0,0.59258,60.401585,50.789929)">
    <g
       transform="matrix(1.0385,0,0,1.0385,-0.41232,-8.7922)"
       id="g125"
       style="stroke-width:1.56480002">
      <path
         d="m 8.467,1.588 a 6.879,6.879 0 1 1 0,13.757 6.879,6.879 0 0 1 0,-13.757 z"
         id="path123"
         inkscape:connector-curvature="0"
         style="fill:#4380b4;stroke-width:1.56480002" />
    </g>
    <path
       d="m 9.596,-4.2335 a 3.104,3.104 0 0 0 -3.01,2.355 3.104,3.104 0 0 0 -2.353,3.008 v 3.104 h 3.105 a 3.104,3.104 0 0 0 3.01,-2.354 3.104,3.104 0 0 0 2.352,-3.008 v -3.105 z m 0,0.444 h 2.66 v 2.66 a 2.661,2.661 0 0 1 -1.827,2.524 3.104,3.104 0 0 0 0.013,-0.265 3.104,3.104 0 0 0 -3.104,-3.106 3.104,3.104 0 0 0 -0.268,0.013 2.661,2.661 0 0 1 2.526,-1.827 z m -2.258,2.258 a 2.661,2.661 0 0 1 2.66,2.66 2.661,2.661 0 0 1 -0.03,0.374 2.661,2.661 0 0 1 -0.372,0.03 2.661,2.661 0 0 1 -2.661,-2.661 2.661,2.661 0 0 1 0.03,-0.374 2.661,2.661 0 0 1 0.373,-0.03 z m -0.834,0.137 a 3.104,3.104 0 0 0 -0.013,0.266 3.104,3.104 0 0 0 3.105,3.104 3.104,3.104 0 0 0 0.267,-0.013 2.661,2.661 0 0 1 -2.525,1.827 h -2.66 v -2.66 a 2.661,2.661 0 0 1 1.826,-2.524 z"
       id="path127"
       inkscape:connector-curvature="0"
       style="fill:#ffffff;stroke-width:1.6875" />
  </g>
  <g
     id="kubuntu"
     transform="matrix(0.59258,0,0,0.59258,60.401585,11.839929)">
    <g
       transform="matrix(1.0385,0,0,1.0385,-0.41232,-8.7922)"
       id="g132"
       style="stroke-width:1.56480002">
      <path
         d="m 8.467,1.588 a 6.879,6.879 0 1 1 0,13.757 6.879,6.879 0 0 1 0,-13.757 z"
         id="path130"
         inkscape:connector-curvature="0"
         style="fill:#1a87e2;stroke-width:1.56480002" />
    </g>
    <path
       d="m 8.467,-4.2335 a 4.2335,4.2335 0 1 0 0,8.467 4.2335,4.2335 0 0 0 0,-8.467 z m -0.257,0.85 c 0.02,0.002 0.037,0.014 0.046,0.032 l 0.418,0.879 c 0.203,0.006 0.408,0.041 0.607,0.105 l 0.671,-0.671 a 0.056,0.056 0 0 1 0.07,-0.008 l 0.534,0.325 a 0.057,0.057 0 0 1 0.024,0.068 l -0.324,0.914 c 0.122,0.136 0.226,0.285 0.31,0.444 h 0.997 c 0.027,0 0.05,0.019 0.056,0.044 l 0.148,0.608 a 0.057,0.057 0 0 1 -0.03,0.065 l -1.25,0.273 a 2.044,2.044 0 0 0 -2.67,-1.631 l -0.01,-0.006 -0.268,-1.236 c 0,-0.026 0.019,-0.049 0.044,-0.055 l 0.607,-0.148 c 0.007,-0.002 0.013,-0.002 0.02,-0.002 z m -1.98,0.894 a 0.056,0.056 0 0 1 0.037,0.01 l 0.95,0.865 A 2.038,2.038 0 0 0 7.08,1.4985 v 0.014 L 6.226,2.4555 A 0.058,0.058 0 0 1 6.156,2.4475 L 5.714,2.0065 A 0.057,0.057 0 0 1 5.707,1.9345 L 6.241,1.1205 A 2.21,2.21 0 0 1 6.014,0.5475 L 5.092,0.3215 A 0.057,0.057 0 0 1 5.049,0.2665 v -0.625 c 0,-0.027 0.019,-0.05 0.045,-0.056 l 0.95,-0.198 c 0.053,-0.175 0.127,-0.342 0.218,-0.496 l -0.517,-0.852 a 0.057,0.057 0 0 1 0.008,-0.07 l 0.442,-0.442 a 0.055,0.055 0 0 1 0.035,-0.017 z m 4.232,2.93 1.24,0.278 c 0.022,0.012 0.034,0.04 0.027,0.065 l -0.162,0.603 a 0.057,0.057 0 0 1 -0.059,0.043 l -0.972,-0.057 a 2.21,2.21 0 0 1 -0.383,0.483 l 0.265,0.911 a 0.057,0.057 0 0 1 -0.026,0.065 L 9.85,3.1435 A 0.057,0.057 0 0 1 9.779,3.1325 L 9.133,2.4075 c -0.178,0.042 -0.359,0.062 -0.538,0.06 l -0.48,0.873 A 0.057,0.057 0 0 1 8.05,3.3685 L 7.446,3.2055 A 0.057,0.057 0 0 1 7.404,3.1475 L 7.73,1.9125 7.736,1.9095 a 2.044,2.044 0 0 0 2.726,-1.468 z"
       id="path134"
       inkscape:connector-curvature="0"
       style="fill:#ffffff;stroke-width:1.6875" />
  </g>
  <g
     id="linuxmint"
     transform="matrix(0.59258,0,0,0.59258,8.0725847,24.829929)">
    <g
       transform="matrix(1.0385,0,0,1.0385,-0.41232,-8.7922)"
       id="g139"
       style="stroke-width:1.56480002">
      <path
         d="m 8.467,1.588 a 6.879,6.879 0 1 1 0,13.757 6.879,6.879 0 0 1 0,-13.757 z"
         id="path137"
         inkscape:connector-curvature="0"
         style="fill:#78b75b;stroke-width:1.56480002" />
    </g>
    <path
       d="m 4.233,-3.7945 v 2.426 h 0.999 v 0.487 l 10e-4,1.91 c 0,1.573 1.366,2.767 2.94,2.767 H 12.7 v -4.802 c 0,-1.575 -1.365,-2.767 -2.94,-2.767 l -1.317,-0.003 z m 0.643,0.645 3.565,0.016 v 0.003 H 9.76 c 1.27,0 2.3,0.951 2.3,2.125 v 3.513 c 0,0.39 -0.352,0.645 -0.753,0.645 H 8.174 c -1.269,0 -2.298,-0.951 -2.298,-2.125 l -0.003,-2.408 a 0.635,0.635 0 0 0 -0.597,-0.629 h -0.4 z m 1.615,0.714 v 3.49 c 0,0.37 0.135,0.695 0.399,0.957 0.225,0.223 0.496,0.367 0.8,0.4 h 0.861 v -0.685 l -0.74,-0.003 c -0.358,0 -0.666,-0.35 -0.666,-0.799 v -3.36 z m 2.468,0.574 c -0.298,0 -0.562,0.11 -0.775,0.325 a 1.087,1.087 0 0 0 -0.323,0.784 v 1.526 h 0.692 v -1.526 c 0,-0.116 0.038,-0.207 0.12,-0.29 a 0.375,0.375 0 0 1 0.286,-0.122 c 0.116,0 0.203,0.038 0.286,0.122 0.083,0.083 0.12,0.174 0.12,0.29 v 1.526 h 0.693 v -1.526 c 0,-0.116 0.038,-0.207 0.12,-0.29 a 0.374,0.374 0 0 1 0.286,-0.122 c 0.114,0 0.202,0.038 0.285,0.122 0.083,0.083 0.12,0.174 0.12,0.29 l 0.005,1.518 h 0.69 l -0.002,-1.518 c 0,-0.302 -0.11,-0.57 -0.323,-0.784 a 1.062,1.062 0 0 0 -0.775,-0.325 c -0.292,0 -0.547,0.108 -0.753,0.307 a 1.057,1.057 0 0 0 -0.752,-0.307 z"
       overflow="visible"
       id="path141"
       inkscape:connector-curvature="0"
       style="overflow:visible;fill:#ffffff;fill-rule:evenodd;stroke-width:1.6875" />
  </g>
  <g
     id="lubuntu"
     transform="matrix(0.59258,0,0,0.59258,21.154585,19.809929)">
    <g
       transform="matrix(1.0385,0,0,1.0385,-0.41232,-0.32567)"
       id="g146"
       style="stroke-width:1.56480002">
      <path
         d="m 8.467,1.588 a 6.879,6.879 0 1 1 0,13.757 6.879,6.879 0 0 1 0,-13.757 z"
         id="path144"
         inkscape:connector-curvature="0"
         style="fill:#1d89db;stroke-width:1.56480002" />
    </g>
    <path
       d="M 8.467,4.233 A 4.23,4.23 0 0 0 4.242,8.301 C 5.645,7.311 8.032,5.686 8.624,5.643 8.82,5.394 9.496,5.193 9.618,5.198 L 9.263,5.643 c 0,0 -0.006,0.45 -0.137,0.537 1.223,0.817 1.807,3.75 2.057,5.53 l -0.105,0.084 A 4.222,4.222 0 0 0 12.7,8.467 4.233,4.233 0 0 0 8.467,4.233 Z m -0.06,3.478 c -0.33,0.01 -0.998,0.993 -1.76,2.045 -0.366,0.506 -0.84,1.198 -1.19,1.678 L 5.207,11.159 C 5.923,9.985 6.816,8.552 6.773,8.499 6.763,8.494 6.752,8.486 6.738,8.489 6.496,8.525 5.52,9.74 4.823,10.614 A 4.228,4.228 0 0 0 8.467,12.7 c 0.943,0 1.81,-0.312 2.514,-0.833 C 10.46,10.274 9.453,7.729 8.441,7.723 8.431,7.721 8.417,7.711 8.407,7.711 Z M 5.95,8.123 C 5.65,8.121 4.88,8.393 4.242,8.638 4.267,9.27 4.429,9.865 4.702,10.395 4.83,10.201 5.052,9.883 5.185,9.688 5.692,8.942 6.191,8.282 6.075,8.146 6.055,8.123 6.009,8.123 5.95,8.123 Z M 4.237,8.39 c 0,0.026 -0.004,0.05 -0.004,0.077 0,0.035 0.005,0.07 0.006,0.105 z m 0.473,2.022 c 0.026,0.051 0.054,0.101 0.082,0.151 z"
       overflow="visible"
       id="path148"
       inkscape:connector-curvature="0"
       style="overflow:visible;fill:#ffffff;fill-rule:evenodd;stroke-width:1.6875" />
  </g>
  <g
     id="mageia"
     transform="matrix(0.59258,0,0,0.59258,34.237585,24.829929)">
    <g
       transform="matrix(1.0385,0,0,1.0385,-0.41232,-8.7922)"
       id="g153"
       style="stroke-width:1.56480002">
      <path
         d="m 8.467,1.588 a 6.879,6.879 0 1 1 0,13.757 6.879,6.879 0 0 1 0,-13.757 z"
         id="path151"
         inkscape:connector-curvature="0"
         style="fill:#405474;stroke-width:1.56480002" />
    </g>
    <g
       transform="translate(0,-8.4665)"
       id="g157"
       style="fill:#f9f9f9;stroke-width:1.26569998">
      <path
         d="m 6.767,7.392 a 0.465,0.465 0 0 0 -0.296,0.105 3.233,3.233 0 0 0 -1.18,2.507 c 0,1.778 1.426,3.224 3.176,3.224 1.75,0 3.175,-1.446 3.175,-3.224 0,-0.978 -0.43,-1.892 -1.18,-2.507 a 0.468,0.468 0 0 0 -0.591,0 2.187,2.187 0 0 1 -1.404,0.506 c -0.515,0 -1,-0.174 -1.403,-0.506 A 0.47,0.47 0 0 0 6.767,7.392 Z M 6.97,8.559 c 0.43,0.282 0.956,0.436 1.497,0.436 0.541,0 1.069,-0.154 1.497,-0.436 a 2.116,2.116 0 1 1 -2.994,0 z M 8.114,3.705 a 0.35350035,0.35350035 0 1 0 10e-4,0.707 0.3535,0.3535 0 0 0 0,-0.707 z M 9.208,4.41 a 0.3535,0.3535 0 1 0 0,0.707 0.3535,0.3535 0 0 0 0,-0.707 z M 8.29,4.763 a 0.53,0.53 0 0 0 0,1.058 0.53,0.53 0 0 0 0,-1.058 z m 1.06,1.058 a 0.53,0.53 0 0 0 0,1.059 0.53,0.53 0 0 0 0,-1.059 z M 7.586,6.174 a 0.53,0.53 0 0 0 0,1.058 0.53,0.53 0 0 0 0,-1.058 z"
         id="path155"
         inkscape:connector-curvature="0"
         style="stroke-width:1.26569998" />
    </g>
  </g>
  <g
     id="manjaro"
     transform="matrix(0.59264,0,0,0.59258,47.319585,24.829929)">
    <g
       transform="matrix(1.0384,0,0,1.0385,-0.32571,-8.7917)"
       id="g162"
       style="stroke-width:1.56490004">
      <path
         transform="matrix(0.26458,0,0,0.26458,1.323,2.91)"
         d="M 27,-5 C 41.36,-5 53,6.64 53,21 53,35.36 41.36,47 27,47 12.64,47 1,35.36 1,21 1,6.64 12.64,-5 27,-5 Z"
         id="path160"
         inkscape:connector-curvature="0"
         style="fill:url(#b);stroke-width:1.56490004" />
    </g>
    <path
       d="m 4.7624,-4.2335 v 2.513 H 4.76357 L 4.7624,-0.79373 H 6.879 v -1.0583 h 2.6458 v -2.3812 l -4.7624,0.00675 m 5.2916,-0.00675 v 8.4665 h 2.1166 v -8.4665 m -4.7624,2.9104 v 5.5561 h 2.1166 v -5.5561 m -4.7624,1.0583 0.00117,4.4981 2.1155,-2.5e-4 v -4.4978"
       id="path164"
       inkscape:connector-curvature="0"
       style="fill:#ffffff;fill-rule:evenodd;stroke-width:1.26559997" />
  </g>
  <g
     id="opensuse"
     transform="matrix(0.59258,0,0,0.59258,60.401585,24.829929)">
    <g
       transform="matrix(1.0385,0,0,1.0385,-0.41232,-8.7922)"
       id="g169"
       style="stroke-width:1.625">
      <path
         d="m 8.467,1.588 a 6.879,6.879 0 1 1 0,13.757 6.879,6.879 0 0 1 0,-13.757 z"
         id="path167"
         inkscape:connector-curvature="0"
         style="fill:#49bf3d;stroke-width:1.625" />
    </g>
    <path
       d="m 8.467,-4.2335 a 4.2335,4.2335 0 1 0 0,8.467 4.2335,4.2335 0 0 0 0,-8.467 z m 0,0.941 a 3.293,3.293 0 1 1 0,6.585 3.268,3.268 0 0 1 -2.235,-0.882 c 0.19,-0.026 0.49,-0.03 0.882,0.015 0.573,0.065 0.887,0.087 1.264,0.059 0.86,-0.065 1.428,-0.207 2.058,-0.515 0.33,-0.16 0.4,-0.233 0.47,-0.426 0.069,-0.183 0.094,-0.353 0.06,-0.353 -0.013,0 -0.121,0.042 -0.25,0.103 -0.485,0.23 -0.91,0.343 -1.28,0.324 C 9.053,1.5975 8.434,1.3735 7.688,1.0145 L 7.335,0.8525 7.07,0.1915 7.32,0.3525 a 7.425,7.425 0 0 0 1.544,0.75 c 0.642,0.203 1.143,0.175 1.66,-0.088 0.183,-0.093 0.53,-0.32 0.53,-0.353 0,-0.06 -0.178,-0.656 -0.28,-0.926 -0.254,-0.674 -0.433,-0.902 -0.852,-1.102 -0.466,-0.222 -0.982,-0.373 -1.926,-0.588 -0.45,-0.096 -0.894,-0.193 -1.352,-0.25 l -0.015,0.558 a 15.22,15.22 0 0 0 -0.867,-0.235 3.3,3.3 0 0 1 2.705,-1.41 z m 0.779,2.381 a 0.7,0.7 0 0 1 0.69,0.544 c 0.045,0.175 0.031,0.3 -0.058,0.485 A 0.676,0.676 0 0 1 9.143,0.4855 0.687,0.687 0 0 1 8.628,0.0885 c -0.122,-0.265 -0.065,-0.617 0.147,-0.809 a 0.727,0.727 0 0 1 0.47,-0.19 z m 0.161,0.368 c -0.246,0 -0.4,0.18 -0.264,0.308 0.11,0.104 0.294,0.12 0.44,0.045 0.096,-0.049 0.128,-0.123 0.104,-0.22 -0.018,-0.073 -0.16,-0.133 -0.28,-0.133 z"
       overflow="visible"
       id="path171"
       inkscape:connector-curvature="0"
       style="overflow:visible;fill:#ffffff;stroke-width:1.6875" />
  </g>
  <g
     id="siduction"
     transform="matrix(0.59258,0,0,0.59258,60.401585,32.789929)">
    <g
       transform="matrix(1.0385,0,0,1.0385,-0.41232,-0.32567)"
       id="g176"
       style="stroke-width:1.56480002">
      <path
         d="m 8.467,1.588 a 6.879,6.879 0 1 1 0,13.757 6.879,6.879 0 0 1 0,-13.757 z"
         id="path174"
         inkscape:connector-curvature="0"
         style="fill:#364b7b;stroke-width:1.56480002" />
    </g>
    <g
       id="g196"
       style="fill:#fbfdfc;fill-rule:evenodd;stroke-width:1.6875">
      <circle
         cx="8.4665003"
         cy="5.5560999"
         r="0.79373002"
         style="paint-order:fill markers stroke"
         id="circle178" />
      <circle
         cx="8.4665003"
         cy="8.4665003"
         r="0.79373002"
         style="paint-order:fill markers stroke"
         id="circle180" />
      <circle
         cx="8.4665003"
         cy="11.377"
         r="0.79373002"
         style="paint-order:fill markers stroke"
         id="circle182" />
      <circle
         cx="5.2916002"
         cy="8.4665003"
         r="0.79373002"
         style="paint-order:fill markers stroke"
         id="circle184" />
      <circle
         cx="11.641"
         cy="8.4665003"
         r="0.79373002"
         style="paint-order:fill markers stroke"
         id="circle186" />
      <circle
         cx="6.8790002"
         cy="7.0058999"
         r="0.79373002"
         style="paint-order:fill markers stroke"
         id="circle188" />
      <circle
         cx="6.8790002"
         cy="9.9117002"
         r="0.79373002"
         style="paint-order:fill markers stroke"
         id="circle190" />
      <circle
         cx="10.054"
         cy="7.0058999"
         r="0.79373002"
         style="paint-order:fill markers stroke"
         id="circle192" />
      <circle
         cx="10.054"
         cy="9.9117002"
         r="0.79373002"
         style="paint-order:fill markers stroke"
         id="circle194" />
    </g>
  </g>
  <g
     id="solus"
     transform="matrix(1.0667,0,0,1.0667,8.5735847,33.509929)">
    <g
       transform="matrix(0.63633,0,0,0.63602,10.606,-179.78)"
       id="g205"
       style="stroke-width:1.59350002">
      <circle
         cx="-10.015"
         cy="289.32001"
         r="5.8210001"
         id="circle199"
         style="fill:#4c5263" />
      <path
         d="m -4.331,290.52 c -0.85,1.145 -2.418,1.757 -4.286,2.029 -1.95,0.283 -4.21,0.199 -6.226,0.027 0.096,0.144 0.202,0.284 0.311,0.419 1.942,0.154 3.964,0.755 5.854,0.48 1.577,-0.23 3.119,-1.232 4.096,-2.096 a 5.61,5.61 0 0 0 0.25,-0.86 z"
         font-weight="400"
         overflow="visible"
         style="color:#000000;font-weight:400;text-indent:0;text-decoration:none;text-decoration-line:none;text-decoration-style:solid;text-decoration-color:#000000;text-transform:none;white-space:normal;overflow:visible;isolation:auto;mix-blend-mode:normal;solid-color:#000000;fill:#ffffff;fill-rule:evenodd"
         id="path201"
         inkscape:connector-curvature="0" />
      <path
         d="m -8.561,292.94 c -1.976,0.279 -3.988,0.21 -5.97,0.058 1.275,1.627 3.493,2.447 5.54,2.052 1.978,-0.34 3.71,-1.788 4.408,-3.666 -1.174,0.833 -2.56,1.338 -3.978,1.556 z"
         id="path203"
         inkscape:connector-curvature="0"
         style="fill:#5294e2" />
    </g>
    <path
       d="M 2.6925,0.12808 C 2.26603,1.86918 1.0381,4.00998 0.2654,5.37618 1.6126,5.70027 3.1079,5.79483 4.2667,5.90049 4.246485,5.63769 4.05151,2.77819 4.0039,2.22719 3.52721,1.36316 3.13987,0.91649 2.6926,0.12809 Z m 1.6394,2.2302 c 0.63251,1.3023 0.63251,2.5908 0.2628,3.5422 C 5.1164,5.90374 5.9674,5.961779 6.8901,5.50661 6.13172,3.77461 4.3319,2.35831 4.3319,2.35831 Z M 5.5787,3.14602 C 5.97061,3.40882 6.34491,3.64815 6.6279,3.93246 7.01133,4.3172 7.20762,4.83694 7.15286,5.37616 7.66673,5.11728 8.0071,4.68689 8.20276,4.32626 7.86041,4.0113 7.26702,3.70022 6.62796,3.47398 6.27582,3.34878 5.90416,3.23531 5.57806,3.14598 Z"
       id="path207"
       inkscape:connector-curvature="0"
       style="fill:#ffffff;fill-rule:evenodd;stroke-width:1.02069998" />
  </g>
  <g
     id="steamos"
     transform="matrix(1.1429,0,0,1.1429,21.334585,32.969929)">
    <path
       d="m 4.2332,0.52916 c 2.0458,0 3.7041,1.6583 3.7041,3.7041 0,2.0458 -1.6583,3.7041 -3.7041,3.7041 -2.0458,0 -3.7041,-1.6583 -3.7041,-3.7041 0,-2.0458 1.6583,-3.7041 3.7041,-3.7041 z"
       id="path210"
       inkscape:connector-curvature="0"
       style="fill:#4d4d4d;stroke-width:0.25165001" />
    <g
       transform="matrix(0.16282,0,0,0.16282,0.32563,0.48845)"
       id="g220"
       style="fill:#ffffff;stroke-width:1.42190003">
      <path
         d="m 26,18 v 9.625 l 3.684,0.957 4.287,-6.742 H 30.346 L 26,18"
         id="path212"
         inkscape:connector-curvature="0" />
      <path
         d="m 31,11 a 6,6 0 0 0 -6,6 6,6 0 0 0 6,6 6,6 0 0 0 6,-6 6,6 0 0 0 -6,-6 z m 0,2 a 4,4 0 0 1 4,4 4,4 0 0 1 -4,4 4,4 0 0 1 -4,-4 4,4 0 0 1 4,-4 z m 0,2 a 2,2 0 0 0 -2,2 2,2 0 0 0 2,2 2,2 0 0 0 2,-2 2,2 0 0 0 -2,-2 z m -16,6 a 4,4 0 0 0 -4,4 4,4 0 0 0 4,4 4,4 0 0 0 4,-4 4,4 0 0 0 -4,-4 z m 0,1 a 3,3 0 0 1 3,3 3,3 0 0 1 -3,3 3,3 0 0 1 -3,-3 3,3 0 0 1 3,-3 z"
         id="path214"
         inkscape:connector-curvature="0" />
      <rect
         transform="matrix(0.8931,0.44985,-0.45815,0.88887,0,0)"
         x="22.784"
         y="13.579"
         width="17.423"
         height="3.964"
         rx="1.982"
         id="rect216" />
      <path
         d="m 27,27 a 4,4 0 0 0 -4,4 4,4 0 0 0 4,4 4,4 0 0 0 4,-4 4,4 0 0 0 -4,-4 z m 0,1 a 3,3 0 0 1 3,3 3,3 0 0 1 -3,3 3,3 0 0 1 -3,-3 3,3 0 0 1 3,-3 z"
         id="path218"
         inkscape:connector-curvature="0" />
    </g>
  </g>
  <g
     id="ubuntu"
     transform="matrix(1.1429,0,0,1.1429,33.509585,33.879929)">
    <g
       transform="matrix(0.53846,0,0,0.53846,0.42321,-1.1189)"
       id="g225"
       style="stroke-width:1.56480002">
      <path
         d="m 8.467,1.588 a 6.879,6.879 0 1 1 0,13.757 6.879,6.879 0 0 1 0,-13.757 z"
         id="path223"
         inkscape:connector-curvature="0"
         style="fill:#f63f33;stroke-width:1.56480002" />
    </g>
    <path
       d="m 5.0272,1.2448 a 2.1951,2.1951 0 1 0 0,4.3902 2.1951,2.1951 0 0 0 0,-4.3902 z M 5.80962,1.85663 A 0.29243,0.29243 0 0 1 6.02739,2.29373 0.29295,0.29295 0 1 1 5.80962,1.85663 Z M 5.02668,2.16669 c 0.11822,0 0.23229,0.016074 0.34066,0.046147 a 0.41117,0.41117 0 0 0 0.55117,0.3194 c 0.21673,0.2131 0.35777,0.50295 0.37851,0.82597 l -0.41739,0.0057 A 0.85605,0.85605 0 0 0 4.66633,2.663937 L 4.46256,2.298397 a 1.2688,1.2688 0 0 1 0.56465,-0.1317 z m -0.7062,0.21362 0.21466,0.35932 a 0.85501,0.85501 0 0 0 0,1.4005 l -0.21466,0.3588 a 1.2745,1.2745 0 0 1 -0.52576,-0.7399 0.41013,0.41013 0 0 0 0,-0.63828 1.2755,1.2755 0 0 1 0.52576,-0.74042 z M 3.53443,3.14666 a 0.29322,0.29322 0 1 1 0,0.58643 0.29296,0.29296 0 0 1 0,-0.58591 z m 2.3452,0.36865 0.41739,0.00674 A 1.2693,1.2693 0 0 1 5.91851,4.3475 0.40962,0.40962 0 0 0 5.36734,4.66638 1.2724,1.2724 0 0 1 4.46255,4.581346 l 0.20377,-0.36503 a 0.85553,0.85553 0 0 0 1.2133,-0.70101 z M 5.73704,4.44135 A 0.29359,0.29359 0 1 1 5.808593,5.02415 0.29359,0.29359 0 0 1 5.73704,4.44135 Z"
       id="path227"
       inkscape:connector-curvature="0"
       style="fill:#ffffff;stroke-width:0.87498999" />
  </g>
  <g
     id="windows"
     transform="matrix(0.61539,0,0,0.61539,47.126585,37.809929)">
    <g
       transform="matrix(1.04,0,0,1.04,-0.339,-300.07)"
       style="stroke-width:1.56330001;paint-order:markers stroke fill"
       id="g232">
      <path
         d="m 8.4665,281.92 c 3.6644,0 6.6145,2.9501 6.6145,6.6145 0,3.6644 -2.9501,6.6145 -6.6145,6.6145 -3.6644,0 -6.6145,-2.9501 -6.6145,-6.6145 0,-3.6644 2.9501,-6.6145 6.6145,-6.6145 z"
         id="path230"
         inkscape:connector-curvature="0"
         style="fill:#2196f3;stroke-width:1.56330001" />
    </g>
    <path
       d="m 4.852,-0.2645 -0.003,-2.58 2.894,-0.431 v 3.011 z m 3.374,-3.088 3.857,-0.616 v 3.704 H 8.226 Z m 3.858,3.617 -10e-4,3.704 -3.857,-0.595 v -3.109 z m -4.34,3.042 -2.892,-0.435 v -2.608 h 2.891 v 3.042 z"
       id="path234"
       inkscape:connector-curvature="0"
       style="fill:#ffffff;stroke-width:1.62510002" />
  </g>
  <g
     id="xubuntu"
     transform="matrix(0.59258,0,0,0.59258,73.483585,24.829929)">
    <g
       transform="matrix(1.0385,0,0,1.0385,-0.41232,-8.7922)"
       id="g239"
       style="stroke-width:1.56480002">
      <path
         d="m 8.467,1.588 a 6.879,6.879 0 1 1 0,13.757 6.879,6.879 0 0 1 0,-13.757 z"
         id="path237"
         inkscape:connector-curvature="0"
         style="fill:#0044aa;stroke-width:1.56480002" />
    </g>
    <g
       transform="translate(0,-8.4665)"
       id="g245"
       style="fill:#ffffff;stroke-width:1.6875">
      <path
         d="m 10.69,4.22 c -0.02,0.013 -0.03,0.024 -0.024,0.016 -0.23,0.39 -0.233,0.901 -0.337,1.36 a 0.17,0.17 0 0 1 0,0.023 c -0.051,0.502 -0.215,1.013 -0.084,1.495 a 0.17,0.17 0 0 1 0.014,0.03 c 0.024,0.032 0.055,0.06 0.073,0.065 0.014,0.002 0.034,-0.004 0.082,-0.037 0.051,-0.036 0.084,-0.101 0.1,-0.196 a 0.17,0.17 0 0 1 0.029,-0.07 C 10.748,6.089 10.895,5.232 10.84,4.393 a 0.17,0.17 0 0 1 0,-0.009 C 10.833,4.345 10.821,4.322 10.784,4.277 A 0.385,0.385 0 0 0 10.736,4.226 C 10.73,4.221 10.736,4.22 10.712,4.222 A 0.17,0.17 0 0 1 10.69,4.221 Z m 1.892,0.398 a 0.159,0.159 0 0 1 -0.017,0 c -0.354,0.173 -0.536,0.59 -0.78,0.924 a 0.159,0.159 0 0 1 -0.019,0.047 c -0.308,0.546 -0.7,1.088 -0.742,1.72 0.002,0.1 0.059,0.157 0.118,0.17 a 0.228,0.228 0 0 0 0.2,-0.087 c 0.003,-0.01 0,-0.018 0.006,-0.026 A 0.159,0.159 0 0 1 11.352,7.36 C 11.911,6.592 12.333,5.68 12.68,4.795 A 0.159,0.159 0 0 1 12.681,4.793 C 12.705,4.734 12.706,4.712 12.685,4.668 12.679,4.655 12.616,4.613 12.582,4.618 Z"
         id="path241"
         inkscape:connector-curvature="0" />
      <path
         d="M 7.084,4.873 C 7.027,4.883 6.943,4.934 6.882,4.958 6.669,5.038 6.552,5.222 6.5,5.435 c -0.051,0.22 -0.034,0.463 0,0.712 0.035,0.248 0.084,0.504 0.138,0.7 0.047,0.17 0.08,0.252 0.096,0.308 v 0.042 c 0,0.019 -0.009,0.017 -0.021,0.032 -0.007,0.004 0.006,0.021 0,0.021 A 0.09,0.09 0 0 1 6.66,7.272 C 6.622,7.274 6.592,7.26 6.553,7.25 6.527,7.244 6.493,7.223 6.5,7.23 6.488,7.222 6.466,7.22 6.458,7.208 c 0,0.005 0.007,0.005 0,-0.01 C 6.449,7.181 6.44,7.141 6.426,7.112 6.396,7.048 6.372,6.973 6.331,6.879 A 8.48,8.48 0 0 0 6.023,6.242 2.048,2.048 0 0 0 5.609,5.69 0.696,0.696 0 0 0 5.344,5.531 0.43,0.43 0 0 0 5.057,5.573 0.866,0.866 0 0 0 4.632,6.147 C 4.58,6.375 4.605,6.639 4.643,6.868 c 0.039,0.23 0.1,0.418 0.138,0.573 0.017,0.066 0.037,0.127 0.042,0.16 a 0.932,0.932 0 0 1 -0.02,0.148 c -0.04,0.14 -0.139,0.372 -0.139,0.372 0,0 -1.852,4.919 2.123,4.574 0.033,-0.002 0.107,-0.021 0.138,-0.021 0.78,-0.157 1.52,-0.393 2.176,-0.658 0.129,-0.062 0.298,-0.123 0.488,-0.212 0.38,-0.178 0.857,-0.407 1.316,-0.658 0.459,-0.253 0.885,-0.521 1.21,-0.807 0.326,-0.286 0.564,-0.6 0.52,-0.913 C 12.565,8.922 12.231,8.548 11.786,8.259 11.339,7.969 10.782,7.768 10.226,7.622 A 15.933,15.933 0 0 0 8.719,7.292 C 8.513,7.261 8.319,7.252 8.199,7.229 8.163,7.223 8.144,7.214 8.124,7.208 8.114,7.207 8.113,7.203 8.104,7.198 8.091,7.19 8.068,7.189 8.061,7.176 c -0.007,-0.012 0,-0.028 0,-0.042 V 6.805 A 6.685,6.685 0 0 0 7.986,5.902 C 7.933,5.588 7.851,5.288 7.679,5.085 a 0.602,0.602 0 0 0 -0.425,-0.212 0.58,0.58 0 0 0 -0.17,0 z"
         id="path243"
         inkscape:connector-curvature="0" />
    </g>
  </g>
  <g
     id="kaos"
     transform="matrix(0.69565,0,0,0.69565,39.642585,-151.17007)">
    <path
       d="m 55.859,284.23 c 3.361,0 6.0854,2.7244 6.0854,6.0854 0,3.361 -2.7244,6.0854 -6.0854,6.0854 -3.361,0 -6.0854,-2.7244 -6.0854,-6.0854 0,-3.361 2.7244,-6.0854 6.0854,-6.0854 z"
       id="path248"
       inkscape:connector-curvature="0"
       style="fill:url(#a);stroke-width:0.26458001" />
    <path
       d="m 53.478,287.94 c 0.41751,0 0.52917,0.12409 0.52917,0.52916 0,0.52917 -0.26458,1.0583 -0.26458,1.8521 0,0.7938 0,2.1167 0.79375,3.4396 -1.0583,-1.0583 -2.1167,-2.6458 -2.1167,-4.2333 0,-0.79375 0.26458,-1.5875 1.0583,-1.5875 z"
       id="path250"
       inkscape:connector-curvature="0"
       style="fill:#144b70" />
    <path
       d="m 57.182,287.41 c 0.52917,0 0.79375,0.26458 0.79375,0.52917 0,0.79375 -1.8521,1.0583 -2.3812,1.3229 -0.52917,0.26459 -1.5875,0.79375 -1.7198,2.3812 -0.13229,-2.1167 0.92604,-4.2333 3.3073,-4.2333 z"
       id="path252"
       inkscape:connector-curvature="0"
       style="fill:#2b93d9" />
    <path
       d="m 54.007,291.48 c 0,-0.52916 0.52917,-1.1642 1.5875,-1.1642 1.5875,0 2.9104,1.0583 3.7042,2.1167 -0.82629,-0.42068 -1.8521,-0.79375 -2.6458,-0.79375 -1.3229,0 -1.7232,0.26459 -2.1167,0.26459 -0.26458,0 -0.52917,0 -0.52917,-0.42334 z"
       id="path254"
       inkscape:connector-curvature="0"
       style="fill:#6eb6e6" />
  </g>
  <g
     id="macosx"
     transform="translate(-34.099415,-218.65007)">
    <path
       d="m 60.271,278.19 c 2.3381,0 4.2333,1.8952 4.2333,4.2333 0,2.3381 -1.8952,4.2333 -4.2333,4.2333 -2.3381,0 -4.2333,-1.8952 -4.2333,-4.2333 0,-2.3381 1.8952,-4.2333 4.2333,-4.2333 z"
       id="path257"
       inkscape:connector-curvature="0"
       style="fill:#333333;stroke-width:0.28760999" />
    <path
       d="m 61.128,280.44 c 0.20078,-0.24998 0.33691,-0.58961 0.29935,-0.93383 -0.28918,0.0122 -0.64948,0.20085 -0.85821,0.44356 -0.18438,0.21533 -0.34818,0.5673 -0.30576,0.89907 0.32453,0.0242 0.65689,-0.16421 0.8646,-0.40877 z m 0.73167,2.1627 c -0.0069,-0.73615 0.60234,-1.0936 0.62993,-1.1106 -0.34469,-0.50308 -0.87916,-0.57125 -1.0676,-0.57747 -0.44917,-0.0458 -0.88398,0.26987 -1.1131,0.26987 -0.2332,-2e-5 -0.58536,-0.26441 -0.96464,-0.25688 -0.48888,0.007 -0.94668,0.29037 -1.1973,0.72873 -0.51595,0.89596 -0.13132,2.2119 0.36424,2.9344 0.24824,0.35564 0.53742,0.75147 0.9167,0.73583 0.37096,-0.0141 0.50925,-0.23552 0.95761,-0.23552 0.44367,0 0.57363,0.23552 0.96071,0.22795 0.39835,-0.006 0.64887,-0.35627 0.88852,-0.71339 0.2854,-0.40737 0.40065,-0.80675 0.40524,-0.82803 -0.0089,-0.004 -0.77213,-0.29356 -0.7803,-1.1748 z"
       id="path259"
       inkscape:connector-curvature="0"
       style="fill:#ffffff;fill-rule:evenodd;stroke-width:0.064768;enable-background:new" />
  </g>
  <g
     id="cancel"
     transform="translate(-28.449415,-179.15998)">
    <path
       d="m 41.54,271.86 c 2.3381,0 4.2333,1.8952 4.2333,4.2333 0,2.3381 -1.8952,4.2333 -4.2333,4.2333 -2.3381,0 -4.2333,-1.8952 -4.2333,-4.2333 0,-2.3381 1.8952,-4.2333 4.2333,-4.2333 z"
       id="path262"
       inkscape:connector-curvature="0"
       style="fill:#4d4d4d;stroke-width:0.28760999" />
    <path
       d="m 41.01,274.51 -1.3229,0.79375 1.3229,0.79375 v -0.52917 h 0.79375 c 0.4445,0 0.79375,0.34951 0.79375,0.79375 0,0.44424 -0.34925,0.79375 -0.79375,0.79375 h -1.3229 v 0.52917 h 1.3229 c 0.7276,0 1.3229,-0.59452 1.3229,-1.3229 0,-0.72838 -0.59531,-1.3229 -1.3229,-1.3229 H 41.01 Z"
       id="path264"
       inkscape:connector-curvature="0"
       style="fill:#ffffff;stroke-width:0.26458001" />
  </g>
  <g
     id="driver"
     transform="translate(-15.367415,-177.56998)">
    <path
       d="m 41.54,270.28 c 2.3381,0 4.2333,1.8952 4.2333,4.2333 0,2.3381 -1.8952,4.2333 -4.2333,4.2333 -2.3381,0 -4.2333,-1.8952 -4.2333,-4.2333 0,-2.3381 1.8952,-4.2333 4.2333,-4.2333 z"
       id="path267"
       inkscape:connector-curvature="0"
       style="fill:#4d4d4d;stroke-width:0.28760999" />
    <path
       class="ColorScheme-Text"
       d="m 40.531,272.54 -0.34365,0.19843 0.0894,0.18966 a 0.62365,0.62365 0 0 0 -0.1049,0.18241 l -0.20929,0.0176 v 0.39688 l 0.20929,0.0176 a 0.62365,0.62365 0 0 0 0.04444,0.0961 0.62365,0.62365 0 0 0 0.06046,0.0868 l -0.0894,0.18914 0.34365,0.19895 0.11989,-0.1726 a 0.62365,0.62365 0 0 0 0.21032,-5.1e-4 l 0.11989,0.17311 0.34365,-0.19843 -0.0894,-0.19017 a 0.62365,0.62365 0 0 0 0.10542,-0.18242 l 0.20929,-0.0176 v -0.39688 l -0.20929,-0.0171 a 0.62365,0.62365 0 0 0 -0.04444,-0.0961 0.62365,0.62365 0 0 0 -0.06098,-0.0868 l 0.0894,-0.18966 -0.34365,-0.19843 -0.11937,0.17208 a 0.62365,0.62365 0 0 0 -0.21084,5.2e-4 z m 0.21962,0.56017 a 0.22678,0.22678 0 0 1 0.20206,0.11317 0.22678,0.22678 0 0 1 -0.0832,0.30954 0.22678,0.22678 0 0 1 -0.30954,-0.0827 0.22678,0.22678 0 0 1 0.08268,-0.31006 0.22678,0.22678 0 0 1 0.108,-0.03 z m 0.72502,0.74311 -0.02894,0.34881 a 1.0394,1.0394 0 0 0 -0.30386,0.1757 l -0.31678,-0.14934 -0.33073,0.57309 0.28732,0.19947 a 1.0394,1.0394 0 0 0 -0.0155,0.17518 1.0394,1.0394 0 0 0 0.01499,0.17622 l -0.2868,0.19895 0.33073,0.57311 0.31574,-0.14883 a 1.0394,1.0394 0 0 0 0.30489,0.17466 l 0.02894,0.34882 h 0.66146 l 0.02894,-0.3483 a 1.0394,1.0394 0 0 0 0.30386,-0.1757 l 0.31678,0.14935 0.33073,-0.5731 -0.28732,-0.19947 a 1.0394,1.0394 0 0 0 0.01602,-0.1757 1.0394,1.0394 0 0 0 -0.0155,-0.1757 l 0.2868,-0.19896 -0.33073,-0.57308 -0.31574,0.14882 a 1.0394,1.0394 0 0 0 -0.30437,-0.17467 l -0.02946,-0.34933 z m 0.33073,0.94516 a 0.37798,0.37798 0 0 1 0.37827,0.37775 0.37798,0.37798 0 0 1 -0.37827,0.37827 0.37798,0.37798 0 0 1 -0.37776,-0.37827 0.37798,0.37798 0 0 1 0.37776,-0.37775 z"
       id="path269"
       inkscape:connector-curvature="0"
       style="color:#565656;fill:#ffffff;stroke-width:0.26458001" />
  </g>
  <g
     id="edit"
     transform="translate(-14.985415,-177.56998)">
    <path
       d="m 54.24,270.28 c 2.3381,0 4.2333,1.8952 4.2333,4.2333 0,2.3381 -1.8952,4.2333 -4.2333,4.2333 -2.3381,0 -4.2333,-1.8952 -4.2333,-4.2333 0,-2.3381 1.8952,-4.2333 4.2333,-4.2333 z"
       id="path272"
       inkscape:connector-curvature="0"
       style="fill:#4d4d4d;stroke-width:0.28760999" />
    <g
       transform="matrix(0.26458,0,0,0.26458,52.123,272.53)"
       id="g276"
       style="fill:#ffffff">
      <path
         class="ColorScheme-Text"
         d="M 8,0 A 2,2 0 0 0 6,2 H 3 C 2.446,2 2,2.446 2,3 v 11 c 0,0.554 0.446,1 1,1 h 10 c 0.554,0 1,-0.446 1,-1 V 3 C 14,2.446 13.554,2 13,2 H 10 A 2,2 0 0 0 8,0 Z M 8,1 A 1,1 0 0 1 9,2 1,1 0 0 1 8,3 1,1 0 0 1 7,2 1,1 0 0 1 8,1 Z M 4,4 h 1 v 1 h 6 V 4 h 1 v 9 H 4 Z"
         id="path274"
         inkscape:connector-curvature="0"
         style="color:#565656;fill:#ffffff" />
    </g>
  </g>
  <g
     id="find.efi"
     transform="translate(-15.278415,-177.56998)">
    <path
       d="m 80.698,270.28 c 2.3381,0 4.2333,1.8952 4.2333,4.2333 0,2.3381 -1.8952,4.2333 -4.2333,4.2333 -2.3381,0 -4.2333,-1.8952 -4.2333,-4.2333 0,-2.3381 1.8952,-4.2333 4.2333,-4.2333 z"
       id="path284"
       inkscape:connector-curvature="0"
       style="fill:#4d4d4d;stroke-width:0.28760999" />
    <g
       transform="matrix(0.26458,0,0,0.26458,78.581,272.39)"
       id="g288"
       style="fill:#ffffff">
      <path
         class="ColorScheme-Text"
         d="M 6.5,1 A 5.5,5.5 0 0 0 1,6.5 5.5,5.5 0 0 0 6.5,12 5.5,5.5 0 0 0 9.6172,11.031 l 3.6618,3.662 A 1,1 0 0 0 14,15 1,1 0 0 0 15,14 1,1 0 0 0 14.697,13.283 L 11.027,9.6133 A 5.5,5.5 0 0 0 12,6.5 5.5,5.5 0 0 0 6.5,1 Z m 0,2 A 3.5,3.5 0 0 1 10,6.5 3.5,3.5 0 0 1 6.5,10 3.5,3.5 0 0 1 3,6.5 3.5,3.5 0 0 1 6.5,3 Z"
         id="path286"
         inkscape:connector-curvature="0"
         style="color:#565656;fill:#ffffff" />
    </g>
  </g>
  <g
     id="find.none"
     transform="translate(49.182585,-190.20998)">
    <path
       d="m 29.319,282.91 c 2.3381,0 4.2333,1.8952 4.2333,4.2333 0,2.3381 -1.8952,4.2333 -4.2333,4.2333 -2.3381,0 -4.2333,-1.8952 -4.2333,-4.2333 0,-2.3381 1.8952,-4.2333 4.2333,-4.2333 z"
       id="path291"
       inkscape:connector-curvature="0"
       style="fill:#4d4d4d;stroke-width:0.28760999" />
    <path
       class="ColorScheme-Text"
       d="m 29.319,285.29 c -1.0221,0 -1.8521,0.82999 -1.8521,1.8521 0,1.02211 0.83,1.8521 1.8521,1.8521 1.0221,0 1.8521,-0.82999 1.8521,-1.8521 0,-1.02211 -0.83,-1.8521 -1.8521,-1.8521 z m 0,0.52916 c 0.26972,0 0.51832,0.0761 0.7276,0.21498 l -1.8355,1.8355 c -0.13887,-0.20929 -0.21497,-0.45788 -0.21497,-0.7276 0,-0.73006 0.59288,-1.3229 1.3229,-1.3229 z m 1.1079,0.59532 c 0.13887,0.20929 0.21498,0.45788 0.21498,0.7276 0,0.73004 -0.59288,1.3229 -1.3229,1.3229 -0.26972,0 -0.51832,-0.0761 -0.7276,-0.21498 z"
       id="path293"
       inkscape:connector-curvature="0"
       style="color:#565656;fill:#ffffff;stroke-width:0.26458001" />
  </g>
  <g
     id="help"
     transform="translate(-27.920415,-177.21998)">
    <path
       d="m 41.01,282.91 c 2.3381,0 4.2333,1.8952 4.2333,4.2333 0,2.3381 -1.8952,4.2333 -4.2333,4.2333 -2.3381,0 -4.2333,-1.8952 -4.2333,-4.2333 0,-2.3381 1.8952,-4.2333 4.2333,-4.2333 z"
       id="path296"
       inkscape:connector-curvature="0"
       style="fill:#4d4d4d;stroke-width:0.28760999" />
    <path
       class="ColorScheme-Text"
       d="m 41.01,285.29 c -0.58473,0 -1.0583,0.4736 -1.0583,1.0583 h 0.52917 c 0,-0.29104 0.23812,-0.52917 0.52917,-0.52917 0.29105,0 0.52917,0.23813 0.52917,0.52917 0,0.14552 -0.05817,0.27785 -0.15606,0.3731 l -0.32814,0.33332 c -0.1905,0.19314 -0.30954,0.45775 -0.30954,0.74879 v 0.13229 h 0.52917 c 0,-0.39687 0.11904,-0.55565 0.30954,-0.74879 l 0.23823,-0.2434 c 0.15081,-0.15081 0.24598,-0.36248 0.24598,-0.59531 0,-0.58473 -0.4736,-1.0583 -1.0583,-1.0583 z m -0.26458,3.175 v 0.52916 h 0.52917 V 288.465 Z"
       id="path298"
       inkscape:connector-curvature="0"
       style="color:#565656;fill:#ffffff;stroke-width:0.26458001" />
  </g>
  <g
     id="kbd"
     transform="translate(-26.744415,-177.21998)">
    <path
       d="m 52.917,282.91 c 2.3381,0 4.2333,1.8952 4.2333,4.2333 0,2.3381 -1.8952,4.2333 -4.2333,4.2333 -2.3381,0 -4.2333,-1.8952 -4.2333,-4.2333 0,-2.3381 1.8952,-4.2333 4.2333,-4.2333 z"
       id="path301"
       inkscape:connector-curvature="0"
       style="fill:#4d4d4d;stroke-width:0.28760999" />
    <path
       class="ColorScheme-Text"
       d="m 51.461,285.56 c 0,0 -0.52917,0 -0.52917,0.52917 v 2.1167 c 0,0.52917 0.52917,0.52917 0.52917,0.52917 h 2.9104 c 0,0 0.52917,0 0.52917,-0.52917 v -2.1167 C 54.90057,285.56 54.3714,285.56 54.3714,285.56 Z m 0.06615,0.52917 h 0.39688 c 0.03664,0 0.06615,0.0295 0.06615,0.0661 v 0.39688 c 0,0.0366 -0.0295,0.0661 -0.06615,0.0661 h -0.39688 c -0.03665,0 -0.06615,-0.0295 -0.06615,-0.0661 v -0.39688 c 0,-0.0366 0.0295,-0.0661 0.06615,-0.0661 z m 0.79375,0 h 0.39688 c 0.03664,0 0.06615,0.0295 0.06615,0.0661 v 0.39688 c 0,0.0366 -0.0295,0.0661 -0.06615,0.0661 H 52.3209 c -0.03664,0 -0.06615,-0.0295 -0.06615,-0.0661 v -0.39688 c 0,-0.0366 0.0295,-0.0661 0.06615,-0.0661 z m 0.79375,0 h 0.39688 c 0.03664,0 0.06615,0.0295 0.06615,0.0661 v 0.39688 c 0,0.0366 -0.0295,0.0661 -0.06615,0.0661 h -0.39688 c -0.03664,0 -0.06615,-0.0295 -0.06615,-0.0661 v -0.39688 c 0,-0.0366 0.0295,-0.0661 0.06615,-0.0661 z m 0.79375,0 h 0.39688 c 0.03665,0 0.06615,0.0295 0.06615,0.0661 v 0.39688 c 0,0.0366 -0.0295,0.0661 -0.06615,0.0661 H 53.9084 c -0.03665,0 -0.06615,-0.0295 -0.06615,-0.0661 v -0.39688 c 0,-0.0366 0.0295,-0.0661 0.06615,-0.0661 z m -2.3812,0.79375 h 0.39688 c 0.03664,0 0.06615,0.0295 0.06615,0.0661 v 0.39688 c 0,0.0366 -0.0295,0.0661 -0.06615,0.0661 H 51.5272 c -0.03665,0 -0.06615,-0.0295 -0.06615,-0.0661 v -0.39688 c 0,-0.0366 0.0295,-0.0661 0.06615,-0.0661 z m 0.79375,0 h 0.39688 c 0.03664,0 0.06615,0.0295 0.06615,0.0661 v 0.39688 c 0,0.0366 -0.0295,0.0661 -0.06615,0.0661 h -0.39688 c -0.03664,0 -0.06615,-0.0295 -0.06615,-0.0661 v -0.39688 c 0,-0.0366 0.0295,-0.0661 0.06615,-0.0661 z m 0.79375,0 h 0.39688 c 0.03664,0 0.06615,0.0295 0.06615,0.0661 v 0.39688 c 0,0.0366 -0.0295,0.0661 -0.06615,0.0661 H 53.1147 c -0.03664,0 -0.06615,-0.0295 -0.06615,-0.0661 v -0.39688 c 0,-0.0366 0.0295,-0.0661 0.06615,-0.0661 z m 0.79375,0 h 0.39688 c 0.03665,0 0.06615,0.0295 0.06615,0.0661 v 0.39688 c 0,0.0366 -0.0295,0.0661 -0.06615,0.0661 h -0.39688 c -0.03665,0 -0.06615,-0.0295 -0.06615,-0.0661 v -0.39688 c 0,-0.0366 0.0295,-0.0661 0.06615,-0.0661 z m -1.8521,0.79375 h 1.7198 c 0.03665,0 0.06615,0.0295 0.06615,0.0661 v 0.39688 c 0,0.0366 -0.0295,0.0661 -0.06615,0.0661 h -1.7198 c -0.03664,0 -0.06615,-0.0295 -0.06615,-0.0661 v -0.39688 c 0,-0.0366 0.0295,-0.0661 0.06615,-0.0661 z"
       id="path303"
       inkscape:connector-curvature="0"
       style="color:#565656;fill:#ffffff;stroke-width:0.26458001" />
  </g>
  <g
     id="lang"
     transform="translate(-25.568415,-176.75998)">
    <path
       d="m 64.823,282.45 c 2.3381,0 4.2333,1.8952 4.2333,4.2333 0,2.3381 -1.8952,4.2333 -4.2333,4.2333 -2.3381,0 -4.2333,-1.8952 -4.2333,-4.2333 0,-2.3381 1.8952,-4.2333 4.2333,-4.2333 z"
       id="path306"
       inkscape:connector-curvature="0"
       style="fill:#4d4d4d;stroke-width:0.28760999" />
    <path
       class="ColorScheme-Text"
       d="m 64.823,284.83 c -1.0229,0 -1.8521,0.82921 -1.8521,1.8521 0,1.02289 0.8292,1.8521 1.8521,1.8521 1.0229,0 1.8521,-0.8292 1.8521,-1.8521 0,-1.0229 -0.8292,-1.8521 -1.8521,-1.8521 z m -0.13229,0.51263 c 0.0177,-0.002 0.04002,0.001 0.05788,0 0.0021,0.008 -0.01288,0.0386 -0.03307,0.0827 -0.12855,0.28082 -0.13584,0.60969 -0.01654,0.78548 0.02159,0.0319 0.04134,0.0622 0.04134,0.0661 0,0.004 -0.02328,0.008 -0.04961,0.008 -0.0618,0 -0.12028,-0.0377 -0.23978,-0.13229 -0.05308,-0.042 -0.12209,-0.0773 -0.14883,-0.0827 -0.04198,-0.008 -0.05317,-0.005 -0.10749,0.0496 -0.05053,0.0505 -0.06615,0.0778 -0.06615,0.12402 0,0.1754 0.20825,0.31483 0.59531,0.39688 0.52565,0.1114 0.65523,0.21142 0.66973,0.48782 0.0182,0.34661 -0.16633,0.60796 -0.57051,0.81029 -0.04824,0.0241 -0.07898,0.0335 -0.09922,0.0413 -0.009,-8e-4 -0.01586,7.9e-4 -0.02481,0 -0.0034,-0.0107 -0.0083,-0.0356 -0.0083,-0.0827 0,-0.1841 -0.07256,-0.3736 -0.1819,-0.47956 -0.02935,-0.0284 -0.11153,-0.0887 -0.1819,-0.13229 -0.07037,-0.0436 -0.14127,-0.0942 -0.1571,-0.11576 -0.02622,-0.0358 -0.02841,-0.0578 -0.0083,-0.12402 0.03671,-0.12088 0.08041,-0.18821 0.16536,-0.26458 0.04454,-0.04 0.08935,-0.0736 0.09922,-0.0744 0.0099,-7.8e-4 -0.05693,-0.0208 -0.1571,-0.0413 -0.10017,-0.0205 -0.2467,-0.0635 -0.32246,-0.0909 -0.13853,-0.0501 -0.32557,-0.15535 -0.39688,-0.23151 -0.003,-0.003 -0.0057,-0.005 -0.0083,-0.008 0.10216,-0.40695 0.38887,-0.7405 0.76895,-0.90124 0.07953,-0.0336 0.16151,-0.0567 0.24805,-0.0744 0.04311,-0.009 0.08778,-0.012 0.13229,-0.0165 z m 1.2402,0.62012 c 0.03108,0.0192 0.14841,0.27305 0.1819,0.39688 0.04324,0.15985 0.04011,0.43651 0,0.59531 -0.01527,0.0604 -0.03483,0.11698 -0.04134,0.12402 -0.0065,0.007 -0.03011,-0.0335 -0.05788,-0.0827 -0.02777,-0.0492 -0.11646,-0.15374 -0.19017,-0.23151 -0.21276,-0.22451 -0.24622,-0.34172 -0.1571,-0.5209 0.04494,-0.0904 0.24053,-0.29596 0.26458,-0.28112 z"
       id="path308"
       inkscape:connector-curvature="0"
       style="color:#565656;fill:#f9f9f9;stroke-width:0.26458001" />
  </g>
  <g
     id="restart"
     transform="translate(2.9285286,-233.70348)">
    <path
       d="m 23.283,312.94 c 2.3381,0 4.2333,1.8952 4.2333,4.2333 0,2.3381 -1.8952,4.2333 -4.2333,4.2333 -2.3381,0 -4.2333,-1.8952 -4.2333,-4.2333 0,-2.3381 1.8952,-4.2333 4.2333,-4.2333 z"
       id="path311"
       inkscape:connector-curvature="0"
       style="fill:#5ea0d5;stroke-width:0.28760999" />
    <path
       class="ColorScheme-Text"
       d="m 23.282,315.32 c -1.0229,0 -1.8521,0.8292 -1.8521,1.8521 0,1.0229 0.8292,1.8521 1.8521,1.8521 0.84,0 1.5508,-0.55647 1.7777,-1.3229 h -0.57051 c -0.20486,0.46554 -0.6659,0.79375 -1.2072,0.79375 -0.73062,0 -1.3229,-0.5923 -1.3229,-1.3229 0,-0.7306 0.5923,-1.3229 1.3229,-1.3229 0.36555,0 0.69202,0.15214 0.93018,0.39274 l -0.66404,0.66559 h 1.5875 v -1.5875 l -0.54312,0.54312 c -0.33602,-0.3347 -0.79884,-0.54312 -1.3095,-0.54312 z"
       id="path313"
       inkscape:connector-curvature="0"
       style="color:#565656;fill:#ffffff;stroke-width:0.26458001" />
  </g>
  <g
     id="recovery"
     transform="translate(-62.012471,-220.47348)">
    <path
       d="m 75.142,299.71 c 2.3381,0 4.2333,1.8952 4.2333,4.2333 0,2.3381 -1.8952,4.2333 -4.2333,4.2333 -2.3381,0 -4.2333,-1.8952 -4.2333,-4.2333 0,-2.3381 1.8952,-4.2333 4.2333,-4.2333 z"
       id="path316"
       inkscape:connector-curvature="0"
       style="fill:#66dc6d;stroke-width:0.28760999" />
    <path
       d="m 75.142,302.09 a 0.30868,0.30868 0 0 0 -0.30868,0.30868 0.30868,0.30868 0 0 0 0.30868,0.30868 1.2347,1.2347 0 0 1 1.2347,1.2347 h -0.61736 l 0.92604,1.2347 0.92604,-1.2347 h -0.61736 a 1.8521,1.8521 0 0 0 -1.8521,-1.8521 z m -1.5434,0.61736 -0.92604,1.2347 h 0.61736 a 1.8521,1.8521 0 0 0 1.8521,1.8521 0.30868,0.30868 0 0 0 0.30868,-0.30869 0.30868,0.30868 0 0 0 -0.30868,-0.30868 1.2347,1.2347 0 0 1 -1.2347,-1.2347 h 0.61736 z"
       id="path318"
       inkscape:connector-curvature="0"
       style="color:#dfdfdf;fill:#ffffff;stroke-width:0.30868" />
  </g>
  <g
     id="shutdown"
     transform="translate(-1.7174714,-216.44348)">
    <path
       d="m 41.01,295.68 c 2.3381,0 4.2333,1.8952 4.2333,4.2333 0,2.3381 -1.8952,4.2333 -4.2333,4.2333 -2.3381,0 -4.2333,-1.8952 -4.2333,-4.2333 0,-2.3381 1.8952,-4.2333 4.2333,-4.2333 z"
       id="path321"
       inkscape:connector-curvature="0"
       style="fill:#ff5555;stroke-width:0.28760999" />
    <path
       d="m 41.01,297.9 c -0.17102,0 -0.30871,0.13769 -0.30871,0.30872 v 1.5448 c 0,0.17102 0.13768,0.30871 0.30871,0.30871 0.17102,0 0.30871,-0.13769 0.30871,-0.30871 v -1.5448 C 41.31871,298.03769 41.18103,297.9 41.01,297.9 Z m 0.93754,0.61372 a 0.30871,0.30871 0 0 0 -0.05959,0.003 0.30871,0.30871 0 0 0 -0.13521,0.55969 1.2287,1.2287 0 0 1 0.25098,1.7266 c -0.41058,0.5492 -1.1876,0.65199 -1.7365,0.2411 -0.54919,-0.41057 -0.65199,-1.1777 -0.2411,-1.7266 0.06668,-0.0895 0.14293,-0.16362 0.23153,-0.23154 a 0.30983,0.30983 0 0 0 -0.37662,-0.49207 c -0.13213,0.10244 -0.25623,0.22289 -0.35656,0.35686 -0.61062,0.81622 -0.44022,1.9847 0.376,2.5953 0.81622,0.61031 1.9847,0.4399 2.5953,-0.37664 0.61031,-0.8159 0.43991,-1.9844 -0.37662,-2.5947 a 0.30871,0.30871 0 0 0 -0.17164,-0.0617 z"
       id="path323"
       inkscape:connector-curvature="0"
       style="color:#5294e2;fill:#ffffff;stroke-width:0.30871001" />
  </g>
  <g
     id="type"
     transform="translate(-0.57981533,-189.98998)">
    <path
       d="m 52.917,295.68 c 2.3381,0 4.2333,1.8952 4.2333,4.2333 0,2.3381 -1.8952,4.2333 -4.2333,4.2333 -2.3381,0 -4.2333,-1.8952 -4.2333,-4.2333 0,-2.3381 1.8952,-4.2333 4.2333,-4.2333 z"
       id="path326"
       inkscape:connector-curvature="0"
       style="fill:#4d4d4d;stroke-width:0.28760999" />
    <path
       class="ColorScheme-Text"
       d="m 51.594,298.06 c 0,0 -0.26458,0 -0.26458,0.26459 v 3.175 c 0,0.26458 0.26458,0.26458 0.26458,0.26458 h 1.0583 V 301.235 h -0.79375 v -2.6448 h 2.1167 v 1.3193 h 0.52917 v -1.5849 c 0,-0.26459 -0.26458,-0.26459 -0.26458,-0.26459 z m 2.3812,2.1167 -1.0583,1.0583 v 0.52917 h 0.52917 l 1.0583,-1.0583 z"
       id="path328"
       inkscape:connector-curvature="0"
       style="color:#565656;fill:#ffffff;stroke-width:0.26458001" />
  </g>
  <g
     id="tz"
     transform="translate(0.59618467,-189.98998)">
    <path
       d="m 64.823,295.68 c 2.3381,0 4.2333,1.8952 4.2333,4.2333 0,2.3381 -1.8952,4.2333 -4.2333,4.2333 -2.3381,0 -4.2333,-1.8952 -4.2333,-4.2333 0,-2.3381 1.8952,-4.2333 4.2333,-4.2333 z"
       id="path331"
       inkscape:connector-curvature="0"
       style="fill:#4d4d4d;stroke-width:0.28760999" />
    <path
       class="ColorScheme-Text"
       d="m 64.823,298.06 c -0.47399,0 -0.94784,0.18095 -1.3095,0.5426 -0.72329,0.72329 -0.72329,1.8957 0,2.619 0.72329,0.72329 1.8957,0.72329 2.619,0 0.72329,-0.72329 0.72329,-1.8957 0,-2.619 -0.36165,-0.36165 -0.83549,-0.5426 -1.3095,-0.5426 z m -0.01912,0.52916 c 0.35745,-0.005 0.70174,0.13473 0.95446,0.38758 0.51649,0.51661 0.51649,1.3541 0,1.8707 -0.51661,0.5165 -1.3541,0.5165 -1.8707,0 -0.51649,-0.51661 -0.51649,-1.3541 0,-1.8707 0.24335,-0.24348 0.57202,-0.38251 0.91622,-0.38758 z m -0.2465,0.26459 v 1.1678 l 0.61443,0.61444 0.02429,0.0243 0.18707,-0.18706 -0.56018,-0.56125 v -1.0582 z"
       id="path333"
       inkscape:connector-curvature="0"
       style="color:#565656;fill:#ffffff;stroke-width:0.26458001" />
  </g>
  <g
     id="unset"
     transform="translate(-2.1966153,-189.98998)">
    <path
       d="m 80.698,295.68 c 2.3381,0 4.2333,1.8952 4.2333,4.2333 0,2.3381 -1.8952,4.2333 -4.2333,4.2333 -2.3381,0 -4.2333,-1.8952 -4.2333,-4.2333 0,-2.3381 1.8952,-4.2333 4.2333,-4.2333 z"
       id="path336"
       inkscape:connector-curvature="0"
       style="fill:#4d4d4d;stroke-width:0.28760999" />
    <path
       d="m 79.904,298.32 -1.3229,1.5875 1.3229,1.5875 h 2.9104 v -3.175 z m 0.52917,0.79375 h 0.26458 c 0.07408,0 0.14023,0.0291 0.18785,0.0767 l 0.34131,0.34395 0.34131,-0.34395 c 0.04762,-0.0476 0.11377,-0.0767 0.18786,-0.0767 h 0.26458 v 0.26458 c 0,0.0741 -0.0291,0.14023 -0.07673,0.18785 l -0.34396,0.34132 0.34396,0.34131 c 0.04762,0.0476 0.07673,0.11377 0.07673,0.18785 v 0.26459 h -0.26458 c -0.07408,0 -0.14023,-0.0291 -0.18786,-0.0767 l -0.34131,-0.34396 -0.34131,0.34396 c -0.04762,0.0476 -0.11377,0.0767 -0.18785,0.0767 h -0.26458 v -0.26459 c 0,-0.0741 0.0291,-0.14023 0.07673,-0.18785 l 0.34396,-0.34131 -0.34396,-0.34132 c -0.04762,-0.0476 -0.07673,-0.11377 -0.07673,-0.18785 z"
       id="path338"
       inkscape:connector-curvature="0"
       style="fill:#ffffff;stroke-width:0.26458001" />
  </g>
  <g
     id="void"
     transform="translate(-3.6324153,-197.40007)">
    <circle
       cx="16.722"
       cy="261.22"
       r="4.2335"
       id="circle341"
       style="fill:#f2f2f2;stroke-width:0.30917001" />
    <circle
       cx="16.725"
       cy="261.35001"
       r="0.81629002"
       id="circle343"
       style="fill:#abc2ab;stroke-width:0.013605" />
    <g
       id="g357"
       style="stroke-width:0.031567">
      <path
         transform="matrix(0.26458,0,0,0.26458,0,201.75)"
         d="m 62.687,234.96 c -1.025,-0.0768 -1.7355,-0.20855 -2.5569,-0.47423 -3.3127,-1.0713 -5.8304,-3.8959 -6.4981,-7.2902 -0.11719,-0.59575 -0.1443,-0.80854 -0.17812,-1.3982 -0.104,-1.8134 0.34215,-3.7183 1.2339,-5.2687 0.20112,-0.34963 0.59904,-0.96199 0.61544,-0.9471 0.0051,0.005 0.50571,0.50224 1.1125,1.1058 l 1.1032,1.0974 -0.22627,0.44944 c -0.48386,0.96109 -0.71388,1.9247 -0.71388,2.9906 0,3.5761 2.816,6.4924 6.3924,6.6199 1.1618,0.0414 2.1608,-0.17671 3.2316,-0.70569 l 0.48532,-0.23974 1.0852,1.0848 c 0.59683,0.59664 1.0852,1.0992 1.0852,1.1168 0,0.0176 -0.06037,0.0708 -0.13416,0.11827 -0.60474,0.38903 -0.79406,0.49943 -1.2257,0.71472 -1.0494,0.52346 -2.0772,0.83112 -3.2194,0.96372 -0.40776,0.0473 -1.3176,0.083 -1.5921,0.0624 z"
         id="path345"
         inkscape:connector-curvature="0"
         style="fill:#478061" />
      <path
         transform="matrix(0.26458,0,0,0.26458,0,201.75)"
         d="m 69.91,229.82 -1.0653,-1.0657 0.07097,-0.11934 c 0.43185,-0.72617 0.7385,-1.5835 0.87821,-2.4553 0.07752,-0.48376 0.07678,-1.4136 -0.0015,-1.9256 -0.46628,-3.048 -2.9138,-5.3516 -5.9887,-5.6363 -1.3014,-0.12052 -2.7074,0.1776 -3.8229,0.81058 l -0.25611,0.14532 -2.2047,-2.222 0.12141,-0.0893 c 0.65431,-0.48119 1.8476,-1.0496 2.7433,-1.3068 0.98642,-0.28325 1.6873,-0.37956 2.76,-0.37928 0.96602,2.5e-4 1.316,0.0386 2.2886,0.25051 0.40004,0.0872 1.0595,0.28778 1.1912,0.36239 0.03015,0.0171 0.07135,0.031 0.09156,0.031 0.0655,0 1.2363,0.56657 1.2531,0.6064 0.0058,0.0137 0.02585,0.0249 0.04458,0.0249 0.03385,0 0.59342,0.33727 0.62359,0.37586 0.0087,0.0111 0.05803,0.0471 0.10966,0.0801 0.05164,0.0329 0.10846,0.0718 0.12627,0.0864 0.01781,0.0146 0.11052,0.0865 0.20601,0.15995 0.09549,0.0734 0.18888,0.14785 0.20752,0.16544 0.01865,0.0176 0.082,0.0675 0.14079,0.11091 0.14875,0.10982 1.1016,1.0617 1.2155,1.2143 0.05142,0.0689 0.1148,0.14762 0.14084,0.17499 0.02604,0.0274 0.07576,0.0891 0.11049,0.1372 0.19335,0.26777 0.30279,0.41844 0.32429,0.44647 0.10712,0.1396 0.4382,0.71038 0.62255,1.0733 0.26811,0.52777 0.39756,0.83405 0.54035,1.2785 0.10687,0.33262 0.12804,0.40479 0.21298,0.72605 0.02525,0.0955 0.06011,0.22689 0.07747,0.292 0.02846,0.10673 0.02558,0.11837 -0.02922,0.11837 -0.04682,0 -0.05703,0.0163 -0.04447,0.071 0.21786,0.9485 0.23138,2.5084 0.03161,3.646 -0.01434,0.0816 -0.0074,0.10259 0.03419,0.10259 0.04157,0 0.04744,0.0177 0.02884,0.0868 -0.01285,0.0477 -0.03492,0.13653 -0.04905,0.1973 -0.0986,0.42409 -0.16679,0.66461 -0.31326,1.1048 -0.04186,0.12583 -0.05041,0.14728 -0.2201,0.55243 -0.13288,0.31726 -0.50439,1.034 -0.54539,1.0522 -0.01302,0.006 -0.02368,0.0259 -0.02368,0.0446 0,0.0342 -0.17579,0.32478 -0.23609,0.39026 -0.01773,0.0192 -0.07484,0.10684 -0.12693,0.19465 -0.05902,0.0995 -0.11511,0.15815 -0.14886,0.15566 -0.02979,-0.002 -0.53356,-0.48355 -1.1195,-1.0697 z"
         id="path347"
         inkscape:connector-curvature="0"
         style="fill:#abc2ab" />
      <path
         transform="matrix(0.26458,0,0,0.26458,0,201.75)"
         d="m 53.387,227.07 c -0.0487,-0.0918 -0.20456,-0.37908 -0.30401,-0.56032 -0.04287,-0.0781 -0.13638,-0.25569 -0.20779,-0.39459 -0.07142,-0.13889 -0.13731,-0.25964 -0.14643,-0.26832 -0.0091,-0.009 -0.07513,-0.12942 -0.14668,-0.26832 -0.07156,-0.1389 -0.16507,-0.31646 -0.20781,-0.39459 -0.04274,-0.0781 -0.1317,-0.24149 -0.19768,-0.36302 -0.06599,-0.12154 -0.15858,-0.292 -0.20577,-0.37881 -0.09274,-0.17062 -0.39689,-0.73973 -0.46394,-0.8681 -0.05589,-0.10701 -0.05221,-0.21015 0.0083,-0.23338 0.02746,-0.0105 0.61427,-0.0192 1.304,-0.0192 0.9546,0 1.2664,0.009 1.3058,0.0395 0.02847,0.0217 0.11114,0.1531 0.1837,0.292 0.13424,0.25696 0.52799,1.0199 0.80648,1.5626 0.08464,0.16494 0.16454,0.30462 0.17756,0.31041 0.01302,0.006 0.02389,0.0271 0.02416,0.0473 2.52e-4,0.0203 0.0126,0.0559 0.02741,0.0793 0.02145,0.0338 0.05455,0.025 0.16277,-0.0433 0.07472,-0.0472 0.15117,-0.0986 0.16989,-0.11426 0.03994,-0.0335 0.23375,-0.16658 0.77587,-0.53296 0.21702,-0.14666 0.40169,-0.27537 0.41037,-0.28601 0.0087,-0.0106 0.07971,-0.0591 0.15784,-0.10769 0.07813,-0.0486 0.14916,-0.0974 0.15784,-0.10835 0.0087,-0.011 0.09391,-0.0688 0.1894,-0.12841 0.09549,-0.0596 0.18072,-0.11764 0.1894,-0.12893 0.0087,-0.0113 0.09586,-0.0715 0.19373,-0.13388 0.09787,-0.0624 0.19731,-0.13202 0.22097,-0.1548 0.02366,-0.0228 0.12115,-0.0904 0.21664,-0.15022 0.09549,-0.0598 0.18072,-0.11779 0.1894,-0.12878 0.0087,-0.011 0.07971,-0.0598 0.15784,-0.10835 0.07813,-0.0486 0.14916,-0.0981 0.15784,-0.11004 0.03939,-0.0541 0.25254,-0.0952 0.494,-0.0952 0.14499,0 0.26361,0.008 0.26361,0.0179 0,0.0613 -0.08716,0.15236 -0.24497,0.25579 -0.09965,0.0653 -0.18829,0.12778 -0.19697,0.13881 -0.0087,0.011 -0.07971,0.0598 -0.15784,0.1084 -0.07813,0.0486 -0.14916,0.0971 -0.15784,0.10782 -0.0087,0.0107 -0.1413,0.10446 -0.29471,0.20836 -0.15341,0.10389 -0.32387,0.22091 -0.37881,0.26004 -0.05494,0.0391 -0.1567,0.10872 -0.22615,0.15466 -0.06945,0.0459 -0.13337,0.0925 -0.14205,0.10352 -0.0087,0.011 -0.09391,0.0688 -0.1894,0.1284 -0.09549,0.0596 -0.18072,0.11765 -0.1894,0.12893 -0.0087,0.0113 -0.09586,0.0715 -0.19373,0.13389 -0.09787,0.0623 -0.19752,0.13171 -0.22144,0.15414 -0.02392,0.0224 -0.17113,0.126 -0.32713,0.23017 -0.156,0.10417 -0.29074,0.19793 -0.29942,0.20836 -0.0087,0.0104 -0.07971,0.0587 -0.15784,0.10731 -0.07813,0.0486 -0.14916,0.0973 -0.15784,0.10811 -0.0087,0.0109 -0.12232,0.0904 -0.25254,0.17679 -0.13022,0.0864 -0.24386,0.16558 -0.25254,0.176 -0.0087,0.0104 -0.07859,0.0583 -0.15536,0.10641 -0.07677,0.0481 -0.1549,0.0999 -0.17362,0.1152 -0.04418,0.036 -0.46838,0.33204 -0.65031,0.45383 -0.07774,0.052 -0.14845,0.10208 -0.15713,0.11121 -0.09425,0.0991 -0.20362,0.12563 -0.51864,0.12563 -0.31152,0 -0.33372,-0.004 -0.36913,-0.071 z"
         id="path349"
         inkscape:connector-curvature="0" />
      <path
         transform="matrix(0.26458,0,0,0.26458,0,201.75)"
         d="m 58.965,227.12 c -0.19359,-0.0519 -0.50647,-0.293 -0.62688,-0.48314 -0.16452,-0.25981 -0.22317,-0.7251 -0.13528,-1.0733 0.08157,-0.32315 0.23185,-0.69726 0.30434,-0.75762 0.01043,-0.009 0.05894,-0.0797 0.10781,-0.15783 0.07775,-0.1243 0.33184,-0.41593 0.45085,-0.51747 0.02254,-0.0192 0.06515,-0.0571 0.0947,-0.0842 0.32683,-0.29958 1.0308,-0.62267 1.5058,-0.69107 0.31339,-0.0451 3.3435,-0.0431 3.5556,0.002 0.53091,0.11386 0.84808,0.54765 0.84808,1.1599 0,0.19031 -0.04726,0.51165 -0.09116,0.61981 -0.07003,0.17253 -0.3008,0.618 -0.34635,0.66859 -0.02848,0.0316 -0.09009,0.10883 -0.13691,0.17155 -0.09621,0.12889 -0.47075,0.50147 -0.5041,0.50147 -0.012,0 -0.04059,0.0187 -0.06353,0.0415 -0.13836,0.13761 -0.52944,0.34511 -0.95716,0.50785 l -0.25254,0.0961 -1.8467,0.006 c -1.0157,0.003 -1.8736,-0.001 -1.9065,-0.0102 z m 2.8926,-0.7429 c 0.17707,-0.11511 0.46604,-0.45531 0.46604,-0.54867 0,-0.0241 0.01065,-0.044 0.02368,-0.0443 0.01302,-1.9e-4 0.05058,-0.0606 0.08346,-0.13416 0.03288,-0.0736 0.09446,-0.21192 0.13684,-0.30741 0.04238,-0.0955 0.10341,-0.23045 0.13563,-0.29989 0.19734,-0.42534 0.22931,-0.5188 0.24387,-0.71283 0.01483,-0.19763 0.01135,-0.21109 -0.07145,-0.27621 -0.08303,-0.0653 -0.1176,-0.0685 -0.75151,-0.0685 -0.60928,0 -0.67578,0.005 -0.80062,0.0659 -0.24079,0.11657 -0.44406,0.41718 -0.7452,1.1021 -0.02672,0.0608 -0.08382,0.18862 -0.12689,0.28411 -0.18434,0.40868 -0.25301,0.70227 -0.20496,0.87628 0.04927,0.17844 0.1385,0.19879 0.83025,0.18938 l 0.59978,-0.008 z"
         id="path351"
         inkscape:connector-curvature="0" />
      <path
         transform="matrix(0.26458,0,0,0.26458,0,201.75)"
         d="m 64.597,227.12 c 0,-0.0513 0.16059,-0.43935 0.34683,-0.83811 0.06756,-0.14466 0.24437,-0.53755 0.28412,-0.63135 0.01471,-0.0347 0.06237,-0.14126 0.1059,-0.23675 0.07062,-0.15491 0.12897,-0.28553 0.29612,-0.66291 0.02692,-0.0608 0.09672,-0.21402 0.15511,-0.34056 0.0584,-0.12653 0.10617,-0.23752 0.10617,-0.24663 0,-0.0151 0.05252,-0.13087 0.27437,-0.60466 0.04273,-0.0912 0.10408,-0.18003 0.13634,-0.19729 0.08275,-0.0443 2.1042,-0.0423 2.1316,0.002 0.02144,0.0347 -0.0047,0.11348 -0.13554,0.40847 -0.04235,0.0955 -0.0957,0.21624 -0.11854,0.26832 -0.13711,0.31261 -0.21546,0.48824 -0.26755,0.59978 -0.06823,0.14609 -0.21864,0.47994 -0.29867,0.66291 -0.03037,0.0695 -0.08223,0.18665 -0.11524,0.26043 -0.08955,0.2002 -0.17912,0.40199 -0.24523,0.55243 -0.03242,0.0738 -0.08091,0.18388 -0.10776,0.24465 -0.02685,0.0608 -0.08618,0.19571 -0.13185,0.29989 -0.04567,0.10417 -0.11607,0.25332 -0.15645,0.33145 l -0.07341,0.14206 -1.0932,0.008 c -0.69545,0.005 -1.0932,-0.003 -1.0932,-0.0225 z"
         id="path353"
         inkscape:connector-curvature="0" />
      <path
         transform="matrix(0.26458,0,0,0.26458,0,201.75)"
         d="m 67.375,227.1 c 0,-0.0269 0.01365,-0.0737 0.03034,-0.10379 0.01669,-0.0301 0.0664,-0.1365 0.11049,-0.23633 0.09655,-0.21867 0.22626,-0.50965 0.28495,-0.63924 0.02359,-0.0521 0.0807,-0.17993 0.1269,-0.2841 0.04621,-0.10417 0.11038,-0.24623 0.1426,-0.31567 0.03222,-0.0695 0.09617,-0.21151 0.1421,-0.31568 0.04594,-0.10417 0.10254,-0.23202 0.12579,-0.2841 0.02325,-0.0521 0.07669,-0.17283 0.11876,-0.26832 0.3807,-0.86411 0.57685,-1.2697 0.627,-1.2966 0.03801,-0.0203 0.93668,-0.0283 2.5447,-0.0225 2.3857,0.009 2.4917,0.0115 2.628,0.0706 0.07813,0.0339 0.15626,0.0723 0.17362,0.0852 0.36028,0.26904 0.52181,0.59032 0.51974,1.0337 -0.0029,0.62604 -0.31242,1.2514 -0.87645,1.7709 -0.27429,0.25267 -0.26846,0.24802 -0.48019,0.38298 -0.21962,0.13999 -0.4566,0.25379 -0.75724,0.36365 l -0.23676,0.0865 -2.6122,0.0108 c -2.3442,0.01 -2.6122,0.006 -2.6122,-0.0382 z m 4.0681,-0.69015 c 0.07587,-0.0493 0.1785,-0.13108 0.22807,-0.18179 0.14771,-0.1511 0.38295,-0.54379 0.52766,-0.88081 0.08784,-0.20459 0.22878,-0.53944 0.26573,-0.63135 0.01745,-0.0434 0.04613,-0.10656 0.06374,-0.14035 0.01761,-0.0338 0.03901,-0.14857 0.04756,-0.25508 0.01464,-0.18233 0.01046,-0.19764 -0.07152,-0.26213 -0.08355,-0.0657 -0.11612,-0.0685 -0.80654,-0.0685 h -0.71947 l -0.07696,0.16573 c -0.04233,0.0911 -0.12051,0.26517 -0.17373,0.3867 -0.08979,0.20502 -0.18154,0.40964 -0.34955,0.77956 -0.03702,0.0815 -0.06731,0.1557 -0.06731,0.16486 0,0.009 -0.03415,0.0916 -0.07588,0.18325 -0.04174,0.0916 -0.11332,0.25182 -0.15907,0.35599 -0.04575,0.10417 -0.09857,0.21684 -0.11737,0.25038 -0.0188,0.0335 -0.046,0.10217 -0.06044,0.15251 l -0.02625,0.0915 1.4334,-0.021 z"
         id="path355"
         inkscape:connector-curvature="0" />
    </g>
  </g>
  <g
     id="endeavouros"
     transform="translate(-3.6324153,-197.40007)">
    <circle
       cx="42.887001"
       cy="260.95001"
       r="4.2333002"
       style="fill:#f2f2f2;fill-rule:evenodd;stroke-width:0.26458001;paint-order:stroke fill markers"
       id="circle360" />
    <g
       transform="matrix(0.044769,0,0,0.044769,32.866,248.05)"
       id="g368"
       style="stroke-width:22.33699989">
      <path
         d="m 236.45,207.73 -82.586,129.36 c 0,0 27.833,1.4843 70.426,0 42.378,-1.4769 65.25,-3.2659 73.499,-15.903 6.2808,-9.6217 6.9831,-24.859 -18.174,-62.541 -17.205,-25.77 -43.164,-50.915 -43.164,-50.915 z"
         id="path362"
         inkscape:connector-curvature="0"
         style="fill:#7e7ffe" />
      <path
         d="m 236.41,207.85 -90.873,106.84 c 0,0 20.874,5.1313 58.943,7.7221 37.657,2.5628 65.302,6.1494 74.991,-6.8112 8.3212,-11.131 8.858,-22.964 -9.271,-57.322 -12.437,-23.57 -33.79,-50.432 -33.79,-50.432 z"
         id="path364"
         inkscape:connector-curvature="0"
         style="fill:#ff7f7e" />
      <path
         transform="matrix(0.26458,0,0,0.26458,0,201.75)"
         d="m 893.53,23.049 -0.56836,0.66992 -266.23,417.01 c 36.515,5.3684 85.462,11.198 146.12,15.326 142.32,9.686 246.80996,23.241 283.42996,-25.744 31.45,-42.071 33.478,-86.792 -35.041,-216.65 -47.00396,-89.084 -127.70996,-190.61 -127.70996,-190.61 z"
         id="path366"
         inkscape:connector-curvature="0"
         style="fill:#7d3fbe" />
    </g>
  </g>
  <g
     transform="matrix(0.01947952,0,0,0.01947952,47.407543,58.62065)"
     id="arcolinux">
    <path
       inkscape:connector-curvature="0"
       id="path10"
       style="fill:#6790eb;fill-rule:evenodd"
       d="m 471.95,253.05 c 0,120.9 -98.01,218.9 -218.9,218.9 -120.9,0 -218.9,-98.01 -218.9,-218.9 0,-120.9 98.01,-218.9 218.9,-218.9 120.9,0 218.9,98.01 218.9,218.9" />
    <path
       inkscape:connector-curvature="0"
       id="path12"
       style="fill:#ffffff;stroke-width:1.472"
       d="m 108.12,363.08 c 0,-0.99665 144.58,-276.01 149.42,-284.24 l 3.3483,-5.6808 3.657,6.4167 c 2.0114,3.5291 16.751,31.587 32.756,62.351 16.004,30.764 48.277,92.617 71.716,137.45 32.891,62.912 42.164,81.803 40.631,82.775 -1.0929,0.69253 -14.264,1.2694 -29.269,1.2819 l -27.282,0.0222 -8.0455,-8.1581 c -20.185,-20.467 -55.464,-39.023 -94.891,-49.91 l -17.663,-4.8772 22.079,-1.1075 c 20.742,-1.0403 44.14,-0.33897 56.933,1.7067 4.2759,0.68381 5.6252,0.40363 5.6252,-1.1679 0,-3.8825 -54.124,-102.82 -56.248,-102.82 -1.548,0 -12.474,19.046 -54.89,95.677 -20.836,37.645 -37.999,68.586 -38.14,68.756 -0.6279,0.76192 -59.74,2.2644 -59.74,1.5183 z" />
  </g>
  <g
     id="freebsd"
     transform="translate(-0.07024609,0.37066971)">
    <path
       d="m 65.438025,58.946203 a 4.2333774,4.2333774 0 1 1 0,8.466139 4.2333774,4.2333774 0 0 1 0,-8.466139 z"
       id="path1020"
       inkscape:connector-curvature="0"
       style="fill:#f9f9f9;stroke-width:0.96298718" />
    <path
       id="path6"
       p-id="1925"
       d="m 66.444959,61.262127 c 0.133148,-0.133147 1.385448,-0.923632 1.669733,-0.638146 0.284288,0.284286 -0.504996,1.536586 -0.638144,1.669734 -0.133147,0.133148 -0.472611,0.01078 -0.756898,-0.27469 -0.285486,-0.284288 -0.409038,-0.623751 -0.274691,-0.756898 z M 64.120287,60.925061 C 63.68486,60.67796 63.065908,60.403268 62.869186,60.60119 c -0.19912,0.199121 0.08517,0.832467 0.334666,1.267895 0.221913,-0.386247 0.537386,-0.711317 0.916435,-0.944024 z m 3.56018,1.270293 c 0.03959,0.135545 0.03239,0.248301 -0.03239,0.313074 -0.243503,0.243505 -1.049581,-0.32387 -1.311078,-0.840863 -0.215913,-0.387447 -0.133148,-0.640545 0.178729,-0.584167 0.06838,-0.04319 0.147541,-0.09117 0.235107,-0.139144 -0.357458,-0.185927 -0.762897,-0.291484 -1.193525,-0.291484 -1.42863,0 -2.586168,1.157537 -2.586168,2.586168 0,1.42743 1.157538,2.586168 2.586168,2.586168 1.42863,0 2.586168,-1.157539 2.586168,-2.586168 0,-0.460616 -0.12115,-0.893643 -0.332267,-1.269093 -0.04679,0.08397 -0.09117,0.159536 -0.130746,0.225509 z"
       inkscape:connector-curvature="0"
       style="fill:#f24343;fill-opacity:1;stroke-width:0.00599761" />
  </g>
  <g
     transform="translate(-1.5602237e-7,-0.03069136)"
     id="haiku">
    <path
       d="m 78.449813,59.347585 a 4.2333773,4.2333773 0 1 1 0,8.466139 4.2333773,4.2333773 0 0 1 0,-8.466139 z"
       id="path1020-6"
       inkscape:connector-curvature="0"
       style="fill:#f9f9f9;stroke-width:0.96298718" />
    <g
       transform="matrix(0.19429661,0,0,0.19429661,75.533426,60.613398)"
       id="g1807">
      <g
         id="g1221"
         transform="matrix(0.49237247,0,0,0.49237247,-0.32539752,-0.03038773)">
        <path
           style="fill:#010101;fill-opacity:0.45090003"
           d="m 22,43 v 9 h 10 l 11,10 h 16 l 5,-6 -6,-4 H 50 L 32,43 Z"
           id="path1164"
           inkscape:connector-curvature="0" />
        <path
           style="fill:none;stroke:#040e0b;stroke-width:2"
           d="m 22,51 5,-4 V 3 L 19,1 13,4 v 42 z"
           id="path1166"
           inkscape:connector-curvature="0" />
        <path
           style="fill:none;stroke:#040e0b;stroke-width:2"
           d="m 43,61 6,-6 V 8 l -9,-2 -7,4 v 46 z"
           id="path1168"
           inkscape:connector-curvature="0" />
        <linearGradient
           id="linearGradient2860"
           gradientUnits="userSpaceOnUse"
           x1="79.529999"
           y1="-125.87"
           x2="176.71001"
           y2="-25.68">
          <stop
             offset="0"
             stop-color="#8d8d8d"
             id="stop2856" />
          <stop
             offset="1"
             stop-color="#ffffff"
             id="stop2858" />
        </linearGradient>
        <path
           style="fill:url(#linearGradient4393)"
           d="m 26,4 -4,2 v 44 l 4,-3 z"
           id="path1175"
           inkscape:connector-curvature="0" />
        <linearGradient
           id="linearGradient2867"
           gradientUnits="userSpaceOnUse"
           x1="79.529999"
           y1="-125.87"
           x2="176.71001"
           y2="-25.68">
          <stop
             offset="0"
             stop-color="#8d8d8d"
             id="stop2863" />
          <stop
             offset="1"
             stop-color="#ffffff"
             id="stop2865" />
        </linearGradient>
        <path
           style="fill:url(#linearGradient3013)"
           d="m 48,9 -5,2 v 49 l 5,-5 z"
           id="path1182"
           inkscape:connector-curvature="0" />
        <linearGradient
           id="linearGradient2874"
           gradientUnits="userSpaceOnUse"
           x1="-75.080002"
           y1="57.639999"
           x2="-66.889999"
           y2="-9.1899996">
          <stop
             offset="0"
             stop-color="#c0c0c0"
             id="stop2870" />
          <stop
             offset="1"
             stop-color="#ffffff"
             id="stop2872" />
        </linearGradient>
        <path
           style="fill:url(#linearGradient4395)"
           d="M 22,6 14,4 v 42 l 8,4 z"
           id="path1189"
           inkscape:connector-curvature="0" />
        <linearGradient
           id="linearGradient2881"
           gradientUnits="userSpaceOnUse"
           x1="-75.080002"
           y1="57.639999"
           x2="-66.889999"
           y2="-9.1899996">
          <stop
             offset="0"
             stop-color="#c0c0c0"
             id="stop2877" />
          <stop
             offset="1"
             stop-color="#ffffff"
             id="stop2879" />
        </linearGradient>
        <path
           style="fill:url(#linearGradient3017)"
           d="m 43,12 -9,-2 v 46 l 9,4 z"
           id="path1196"
           inkscape:connector-curvature="0" />
        <linearGradient
           id="linearGradient2888"
           gradientUnits="userSpaceOnUse"
           x1="10.71"
           y1="-51.220001"
           x2="56.880001"
           y2="-1.04">
          <stop
             offset="0"
             stop-color="#6a6a6a"
             id="stop2884" />
          <stop
             offset="1"
             stop-color="#ffffff"
             id="stop2886" />
        </linearGradient>
        <path
           style="fill:url(#linearGradient4397)"
           d="m 19,2 -5,2 8,2 4,-2 z"
           id="path1203"
           inkscape:connector-curvature="0" />
        <linearGradient
           id="linearGradient2895"
           gradientUnits="userSpaceOnUse"
           x1="10.71"
           y1="-51.220001"
           x2="56.880001"
           y2="-1.04">
          <stop
             offset="0"
             stop-color="#6a6a6a"
             id="stop2891" />
          <stop
             offset="1"
             stop-color="#ffffff"
             id="stop2893" />
        </linearGradient>
        <path
           style="fill:url(#linearGradient3021)"
           d="m 40,7 -6,3 9,2 5,-3 z"
           id="path1210"
           inkscape:connector-curvature="0" />
        <path
           style="fill:none;stroke:#040e0b;stroke-width:2"
           d="m 22.09,36.5 c 5.02,4.81 10.22,6.2 15.34,5.32 -0.84,-0.62 -1.24,-1.38 -1.57,-2 5.72,3.27 8.58,-0.8 10.35,-2.11 -0.61,-0.49 -1.35,-0.11 -2.57,-1.59 1.56,0.21 2.58,0.14 4.02,0.13 0.91,-0.84 2.27,-1.5 3.11,-2.5 1.04,-1.23 2.36,-2.9 3.44,-4.3 -0.7,-0.42 -0.84,-0.8 -1.1,-1.33 0.64,0.16 1.27,0.24 1.91,0.23 0.86,-1.62 2.21,-2.64 3.12,-3.07 -3.79,-1.31 -8.64,-1.14 -12.16,-0.41 -1.17,1 -1.13,2.3 -1.52,4.45 -0.73,-0.96 -1.06,-2.17 -0.63,-3.83 -2.48,0.78 -4.88,1.83 -7.2,2.92 -0.91,0.42 -3.12,2 -4.41,2.5 -0.61,0.92 -1.12,1.79 -1.54,2.63 -0.03,-0.77 -0.15,-1.53 -0.09,-2.33 -4.25,0.67 -6.58,1.8 -9.23,4.16 C 15.68,35.39 11,33 11,33 v 2 c 0,0 5.33,1.82 11.1,1.5 z"
           transform="matrix(1.1425,0.2664,-0.2598,1.1603,-2.7872,-18.1543)"
           id="path1212"
           inkscape:connector-curvature="0" />
        <radialGradient
           id="radialGradient2903"
           gradientUnits="userSpaceOnUse"
           cx="0"
           cy="0"
           r="64"
           gradientTransform="matrix(0.9523,-0.3867,0.1312,0.3232,33.1729,29.0624)">
          <stop
             offset="0"
             stop-color="#2a8423"
             id="stop2899" />
          <stop
             offset="1"
             stop-color="#a9ff00"
             id="stop2901" />
        </radialGradient>
        <path
           style="fill:url(#gradient6)"
           d="m 22.09,36.5 c 5.02,4.81 10.22,6.2 15.34,5.32 -0.84,-0.62 -1.24,-1.38 -1.57,-2 5.72,3.27 8.58,-0.8 10.35,-2.11 -0.61,-0.49 -1.35,-0.11 -2.57,-1.59 1.56,0.21 2.58,0.14 4.02,0.13 0.91,-0.84 2.27,-1.5 3.11,-2.5 1.04,-1.23 2.36,-2.9 3.44,-4.3 -0.7,-0.42 -0.84,-0.8 -1.1,-1.33 0.64,0.16 1.27,0.24 1.91,0.23 0.86,-1.62 2.21,-2.64 3.12,-3.07 -3.79,-1.31 -8.64,-1.14 -12.16,-0.41 -1.17,1 -1.13,2.3 -1.52,4.45 -0.73,-0.96 -1.06,-2.17 -0.63,-3.83 -2.48,0.78 -4.88,1.83 -7.2,2.92 -0.91,0.42 -3.12,2 -4.41,2.5 -0.61,0.92 -1.12,1.79 -1.54,2.63 -0.03,-0.77 -0.15,-1.53 -0.09,-2.33 -4.25,0.67 -6.58,1.8 -9.23,4.16 C 15.68,35.39 11,33 11,33 v 2 c 0,0 5.33,1.82 11.1,1.5 z"
           transform="matrix(1.1203,0.2404,-0.2404,1.1203,-2.775,-15.6751)"
           id="path1219"
           inkscape:connector-curvature="0" />
      </g>
    </g>
  </g>
  <g
     id="efi">
    <path
       d="m 52.336585,92.71002 c 2.3381,0 4.2333,1.8952 4.2333,4.2333 0,2.3381 -1.8952,4.2333 -4.2333,4.2333 -2.3381,0 -4.2333,-1.8952 -4.2333,-4.2333 0,-2.3381 1.8952,-4.2333 4.2333,-4.2333 z"
       id="path279"
       inkscape:connector-curvature="0"
       style="fill:#4d4d4d;stroke-width:0.28760999" />
    <path
       id="path2"
       d="m 51.807416,94.826654 -0.04536,0.55638 a 1.6630956,1.6630956 0 0 0 -0.48683,0.281214 l -0.508,-0.23888 -0.529167,0.919238 0.45962,0.317499 a 1.6630956,1.6630956 0 0 0 -0.02419,0.281215 1.6630956,1.6630956 0 0 0 0.02419,0.281214 l -0.45962,0.317501 0.529167,0.919238 0.504976,-0.238882 a 1.6630956,1.6630956 0 0 0 0.489857,0.278191 l 0.04536,0.559405 h 1.058333 l 0.04536,-0.556381 a 1.6630956,1.6630956 0 0 0 0.486833,-0.281215 l 0.508,0.238882 0.529166,-0.919238 -0.459619,-0.317501 a 1.6630956,1.6630956 0 0 0 0.02419,-0.281214 1.6630956,1.6630956 0 0 0 -0.02419,-0.281215 l 0.459619,-0.317499 -0.529166,-0.919238 -0.504976,0.23888 a 1.6630956,1.6630956 0 0 0 -0.489857,-0.27819 l -0.04536,-0.559404 z m 0.529167,1.511904 a 0.60476203,0.60476203 0 0 1 0.604762,0.604762 0.60476203,0.60476203 0 0 1 -0.604762,0.604763 0.60476203,0.60476203 0 0 1 -0.604761,-0.604763 0.60476203,0.60476203 0 0 1 0.604761,-0.604762 z"
       style="fill:#ffffff;stroke-width:0.30238104"
       inkscape:connector-curvature="0" />
  </g>
</svg>
