<svg width="2560" height="1440" version="1.1" viewBox="0 0 677.33 381" xmlns="http://www.w3.org/2000/svg">
 <defs>
  <linearGradient id="linearGradient877" x1="182.64" x2="188.93" y1="128.46" y2="37.452" gradientTransform="translate(1166.3 -456.5)" gradientUnits="userSpaceOnUse">
   <stop stop-color="#ffba23" offset="0"/>
   <stop stop-color="#fe9a06" offset=".61844"/>
   <stop stop-color="#d0e6fb" offset="1"/>
  </linearGradient>
  <linearGradient id="linearGradient885" x1="130.78" x2="141.19" y1="57.604" y2="-17.656" gradientTransform="matrix(3.7795 0 0 3.7795 4408.1 -1725.4)" gradientUnits="userSpaceOnUse">
   <stop stop-color="#e0f1f9" offset="0"/>
   <stop stop-color="#b1d0fe" offset="1"/>
  </linearGradient>
  <linearGradient id="linearGradient898" x1="1317.6" x2="-550.49" y1="194.9" y2="-387.51" gradientTransform="translate(1267.3 330.01)" gradientUnits="userSpaceOnUse">
   <stop stop-color="#0776b9" offset="0"/>
   <stop stop-color="#1ab4f0" offset="1"/>
  </linearGradient>
  <linearGradient id="linearGradient906" x1="379.44" x2="48.459" y1="46.942" y2="-107.12" gradientTransform="matrix(3.7795 0 0 3.7795 1267.3 330.01)" gradientUnits="userSpaceOnUse">
   <stop stop-color="#0d73bb" offset="0"/>
   <stop stop-color="#11adea" offset="1"/>
  </linearGradient>
  <linearGradient id="linearGradient914" x1="352.32" x2="118.9" y1="-62.434" y2="-66.848" gradientTransform="translate(1166.3 -456.5)" gradientUnits="userSpaceOnUse">
   <stop stop-color="#0f70b7" offset="0"/>
   <stop stop-color="#1092d1" offset="1"/>
  </linearGradient>
  <linearGradient id="linearGradient922" x1="-9.9041" x2="19.694" y1="216.11" y2="140.66" gradientTransform="translate(1166.3 -456.5)" gradientUnits="userSpaceOnUse">
   <stop stop-color="#fd0168" offset="0"/>
   <stop stop-color="#fe0731" offset="1"/>
  </linearGradient>
  <linearGradient id="linearGradient965" x1="-43.428" x2="-26.875" y1="140.2" y2="-49.675" gradientTransform="translate(1166.3 -456.5)" gradientUnits="userSpaceOnUse">
   <stop stop-color="#ff604b" offset="0"/>
   <stop stop-color="#fd0c67" offset="1"/>
  </linearGradient>
  <linearGradient id="linearGradient983" x1="3553.8" x2="3818.9" y1="-441.58" y2="-1203.5" gradientUnits="userSpaceOnUse">
   <stop stop-color="#493b76" offset="0"/>
   <stop stop-color="#fd0263" offset="1"/>
  </linearGradient>
  <linearGradient id="linearGradient987" x1="166.31" x2="127.54" y1="215.82" y2="111.19" gradientTransform="translate(1166.3 -456.5)" gradientUnits="userSpaceOnUse">
   <stop stop-color="#fe3235" offset="0"/>
   <stop stop-color="#ff5637" stop-opacity="0" offset="1"/>
  </linearGradient>
  <linearGradient id="linearGradient886" x1="1476" x2="1397.3" y1="-245.55" y2="-201.12" gradientUnits="userSpaceOnUse">
   <stop stop-color="#fe3235" offset="0"/>
   <stop stop-color="#fe3235" stop-opacity="0" offset="1"/>
  </linearGradient>
  <filter id="filter951" x="-.0375" y="-.066667" width="1.075" height="1.1333" color-interpolation-filters="sRGB">
   <feGaussianBlur stdDeviation="10.583338"/>
  </filter>
  <filter id="filter1038" x="-.11714" y="-.19729" width="1.2343" height="1.3946" color-interpolation-filters="sRGB">
   <feGaussianBlur stdDeviation="16.529843"/>
  </filter>
  <mask id="mask1097" maskUnits="userSpaceOnUse">
   <rect x="1000.3" y="-453.86" width="338.67" height="201.08" rx="25.319" ry="25.319" fill="#ffffff" stroke-width="0" style="paint-order:stroke fill markers"/>
  </mask>
 </defs>
 <g transform="translate(-831 543.82)">
  <rect x="831" y="-543.82" width="677.33" height="381" ry=".08033" fill="url(#linearGradient965)" stroke-linecap="round" stroke-linejoin="round" stroke-width=".29282" style="paint-order:stroke fill markers"/>
  <rect x="831" y="-543.82" width="677.33" height="381" ry=".08033" fill="url(#linearGradient987)" stroke-linecap="round" stroke-linejoin="round" stroke-width=".29282" style="paint-order:stroke fill markers"/>
  <path d="m831-476.36v313.42c0 0.0663 0.0536 0.11935 0.11988 0.11935h677.09c0.066 0 0.1199-0.0531 0.1199-0.11935v-81.087c-7.3958-4.9154-16.821-9.4105-28.73-12.375-41.892-10.428-59.805 14.251-86.238 5.4131s-73.685-15.642-128.76-19.928c-55.076-4.2862-63.176-19.999-123-49.078-59.827-29.079-153.23-51.571-223.65-88.306-44.008-22.957-72.083-50.574-86.953-68.06z" fill="url(#linearGradient922)"/>
  <path transform="matrix(.26458 0 0 .26458 831 -543.82)" d="m643.35 0c4.4798 2.0341 182.41 82.968 266.61 144.25 20.311 14.782 40.694 30.758 60.535 46.842 0.0378 4e-3 0.03753 1.4e-4 0.04883 0.00781 494.93 215.17 833.18 316.22 1589.5 400.37v-591.04c-0.0103-0.23288-0.1932-0.41734-0.4257-0.42969h-1916.2z" fill="url(#linearGradient898)"/>
  <path transform="scale(.26458)" d="m4111.1-1864.3c-1.3444 0.2578 23.713 19.906 23.713 19.906s80.148 75.846 128.12 101.81c100.96 54.653 194.55 84.189 299.2 107.26 48.199 38.178 144.73 85.936 180.83 97.576 400.06 99.37 661.2 173.73 957.81 365.55v-164.23c-3.9595-1.7972-8.4944-3.8504-13.545-6.123 5.0466 2.2707 9.584 4.3233 13.545 6.1211v-209.28c-20.952-12.17-51.449-28.241-76.848-35.004-43.324-11.536-164.59-20.034-325.03-37.262s-223-86.187-273.9-103.52c-50.899-17.328-84.668-3.1122-134.5-31.008-49.834-27.896-106.86-45.646-176-45.646-69.141 0-216.5 18.009-340.85-0.9493-124.35-18.958-184.32-39.172-262.32-65.176-0.098-0.034-0.1694-0.047-0.2148-0.039zm1192 378.46c7.11 1.5057 13.758 2.9253 19.383 4.1504 3.2484 0.7076 6.6014 1.4838 10.051 2.3262-3.449-0.8423-6.8026-1.6187-10.051-2.3262-5.532-1.205-12.52-2.6901-19.383-4.1504z" fill="url(#linearGradient885)"/>
  <path transform="matrix(.26458 0 0 .26458 831 -543.82)" d="m923.11 0c8.1247 5.0782 83.98 50.523 231.85 73.447 156.74 24.3 118.34 5.3138 210.23 22.279 91.882 16.965 163.11 68.987 259.77 89.33s151.64 8.8399 247.4 34.232c95.76 25.393 135.98 69.539 276.79 108.21 126.64 34.781 340.53 94.278 410.85 127.46v-454.51c-0.0055-0.24581-0.2055-0.44336-0.4511-0.44336z" fill="url(#linearGradient906)"/>
  <path d="m1295.8-543.82c8.6497 5.1649 21.301 11.964 39.881 20.804 57.089 27.163 93.518 36.334 121.44 40.02 20.302 2.6807 41.257 6.8388 51.257 8.923v-69.628c0-0.0663-0.054-0.11989-0.1199-0.11989z" fill="url(#linearGradient914)"/>
  <path d="m1201.1-434.04c17.262 6.5032 30.879 30.051 45.831 34.139 19.906 5.4422 36.29 6.0404 57.02 16.6 20.731 10.56 39.033 29.502 60.738 33.708 21.705 4.2064 31.462 2.3177 42.952 10.898 8.0383 6.0027 13.193 19.259 26.76 24.726 20.42 8.2276 45.499 1.4352 58.657 2.2216 8.483 0.50701 13.043 1.1792 15.237 1.5958v-43.453c-16.762-7.6084-72.578-32.441-100.1-38.435-32.589-7.0987-156.59-31.743-187.55-38.194-4.8135-1.003-14.66-2.6716-19.555-3.8075z" fill="url(#linearGradient877)"/>
  <path transform="scale(.26458)" d="m3140.8-1497.9v882.18c0 0.16819 0.1365 0.30468 0.3047 0.30468h2459c-19.362-33.265-59.938-78.491-131.93-118.48-108.75-60.409-279.88-107.68-559.57-148.09-279.69-40.406-521.37-110-773.31-158.49-251.94-48.487-585.81-199.64-733.98-284.03-142.6-81.216-252.38-167-260.52-173.4z" fill="url(#linearGradient983)"/>
  <path d="m831-476.36v313.42c0 0.0663 0.0536 0.11935 0.11988 0.11935h677.09c0.066 0 0.1199-0.0531 0.1199-0.11935v-81.087c-7.3958-4.9154-16.821-9.4105-28.73-12.375-41.892-10.428-59.805 14.251-86.238 5.4131s-73.685-15.642-128.76-19.928c-55.076-4.2862-63.176-19.999-123-49.078-59.827-29.079-153.23-51.571-223.65-88.306-44.008-22.957-72.083-50.574-86.953-68.06z" fill="url(#linearGradient886)" opacity=".75"/>
 </g>
 <rect x="169.33" y="97.082" width="338.67" height="201.08" rx="25.319" ry="25.319" fill="#000000" filter="url(#filter1038)" opacity=".25" stroke-width="0" style="paint-order:stroke fill markers"/>
 <g transform="translate(-831 543.82)" filter="url(#filter951)" mask="url(#mask1097)">
  <rect x="831" y="-543.82" width="677.33" height="381" ry=".08033" fill="url(#linearGradient965)" stroke-linecap="round" stroke-linejoin="round" stroke-width=".29282" style="paint-order:stroke fill markers"/>
  <rect x="831" y="-543.82" width="677.33" height="381" ry=".08033" fill="url(#linearGradient987)" stroke-linecap="round" stroke-linejoin="round" stroke-width=".29282" style="paint-order:stroke fill markers"/>
  <path d="m831-476.36v313.42c0 0.0663 0.0536 0.11935 0.11988 0.11935h677.09c0.066 0 0.1199-0.0531 0.1199-0.11935v-81.087c-7.3958-4.9154-16.821-9.4105-28.73-12.375-41.892-10.428-59.805 14.251-86.238 5.4131s-73.685-15.642-128.76-19.928c-55.076-4.2862-63.176-19.999-123-49.078-59.827-29.079-153.23-51.571-223.65-88.306-44.008-22.957-72.083-50.574-86.953-68.06z" fill="url(#linearGradient922)"/>
  <path transform="matrix(.26458 0 0 .26458 831 -543.82)" d="m643.35 0c4.4798 2.0341 182.41 82.968 266.61 144.25 20.311 14.782 40.694 30.758 60.535 46.842 0.0378 4e-3 0.03753 1.4e-4 0.04883 0.00781 494.93 215.17 833.18 316.22 1589.5 400.37v-591.04c-0.0103-0.23288-0.1932-0.41734-0.4257-0.42969h-1916.2z" fill="url(#linearGradient898)"/>
  <path transform="scale(.26458)" d="m4111.1-1864.3c-1.3444 0.2578 23.713 19.906 23.713 19.906s80.148 75.846 128.12 101.81c100.96 54.653 194.55 84.189 299.2 107.26 48.199 38.178 144.73 85.936 180.83 97.576 400.06 99.37 661.2 173.73 957.81 365.55v-164.23c-3.9595-1.7972-8.4944-3.8504-13.545-6.123 5.0466 2.2707 9.584 4.3233 13.545 6.1211v-209.28c-20.952-12.17-51.449-28.241-76.848-35.004-43.324-11.536-164.59-20.034-325.03-37.262s-223-86.187-273.9-103.52c-50.899-17.328-84.668-3.1122-134.5-31.008-49.834-27.896-106.86-45.646-176-45.646-69.141 0-216.5 18.009-340.85-0.9493-124.35-18.958-184.32-39.172-262.32-65.176-0.098-0.034-0.1694-0.047-0.2148-0.039zm1192 378.46c7.11 1.5057 13.758 2.9253 19.383 4.1504 3.2484 0.7076 6.6014 1.4838 10.051 2.3262-3.449-0.8423-6.8026-1.6187-10.051-2.3262-5.532-1.205-12.52-2.6901-19.383-4.1504z" fill="url(#linearGradient885)"/>
  <path transform="matrix(.26458 0 0 .26458 831 -543.82)" d="m923.11 0c8.1247 5.0782 83.98 50.523 231.85 73.447 156.74 24.3 118.34 5.3138 210.23 22.279 91.882 16.965 163.11 68.987 259.77 89.33s151.64 8.8399 247.4 34.232c95.76 25.393 135.98 69.539 276.79 108.21 126.64 34.781 340.53 94.278 410.85 127.46v-454.51c-0.0055-0.24581-0.2055-0.44336-0.4511-0.44336z" fill="url(#linearGradient906)"/>
  <path d="m1295.8-543.82c8.6497 5.1649 21.301 11.964 39.881 20.804 57.089 27.163 93.518 36.334 121.44 40.02 20.302 2.6807 41.257 6.8388 51.257 8.923v-69.628c0-0.0663-0.054-0.11989-0.1199-0.11989z" fill="url(#linearGradient914)"/>
  <path d="m1201.1-434.04c17.262 6.5032 30.879 30.051 45.831 34.139 19.906 5.4422 36.29 6.0404 57.02 16.6 20.731 10.56 39.033 29.502 60.738 33.708 21.705 4.2064 31.462 2.3177 42.952 10.898 8.0383 6.0027 13.193 19.259 26.76 24.726 20.42 8.2276 45.499 1.4352 58.657 2.2216 8.483 0.50701 13.043 1.1792 15.237 1.5958v-43.453c-16.762-7.6084-72.578-32.441-100.1-38.435-32.589-7.0987-156.59-31.743-187.55-38.194-4.8135-1.003-14.66-2.6716-19.555-3.8075z" fill="url(#linearGradient877)"/>
  <path transform="scale(.26458)" d="m3140.8-1497.9v882.18c0 0.16819 0.1365 0.30468 0.3047 0.30468h2459c-19.362-33.265-59.938-78.491-131.93-118.48-108.75-60.409-279.88-107.68-559.57-148.09-279.69-40.406-521.37-110-773.31-158.49-251.94-48.487-585.81-199.64-733.98-284.03-142.6-81.216-252.38-167-260.52-173.4z" fill="url(#linearGradient983)"/>
  <path d="m831-476.36v313.42c0 0.0663 0.0536 0.11935 0.11988 0.11935h677.09c0.066 0 0.1199-0.0531 0.1199-0.11935v-81.087c-7.3958-4.9154-16.821-9.4105-28.73-12.375-41.892-10.428-59.805 14.251-86.238 5.4131s-73.685-15.642-128.76-19.928c-55.076-4.2862-63.176-19.999-123-49.078-59.827-29.079-153.23-51.571-223.65-88.306-44.008-22.957-72.083-50.574-86.953-68.06z" fill="url(#linearGradient886)" opacity=".75"/>
 </g>
 <rect x="169.33" y="89.958" width="338.67" height="201.08" rx="25.319" ry="25.319" fill="#000000" opacity=".25" stroke-width="0" style="paint-order:stroke fill markers"/>
</svg>
