<?xml version="1.0" encoding="UTF-8" standalone="no"?>
<svg
   width="2560"
   height="1440"
   version="1.1"
   viewBox="0 0 677.33 381"
   id="svg113"
   sodipodi:docname="WhiteSur.svg"
   inkscape:version="1.1.1 (3bf5ae0d25, 2021-09-20, custom)"
   xmlns:inkscape="http://www.inkscape.org/namespaces/inkscape"
   xmlns:sodipodi="http://sodipodi.sourceforge.net/DTD/sodipodi-0.dtd"
   xmlns:xlink="http://www.w3.org/1999/xlink"
   xmlns="http://www.w3.org/2000/svg"
   xmlns:svg="http://www.w3.org/2000/svg">
  <sodipodi:namedview
     id="namedview115"
     pagecolor="#ffffff"
     bordercolor="#666666"
     borderopacity="1.0"
     inkscape:pageshadow="2"
     inkscape:pageopacity="0.0"
     inkscape:pagecheckerboard="0"
     showgrid="false"
     inkscape:zoom="0.034066342"
     inkscape:cx="3405.1205"
     inkscape:cy="2216.2638"
     inkscape:window-width="1494"
     inkscape:window-height="814"
     inkscape:window-x="385"
     inkscape:window-y="406"
     inkscape:window-maximized="0"
     inkscape:current-layer="svg113" />
  <defs
     id="defs63">
    <linearGradient
       id="linearGradient877"
       x1="182.64"
       x2="188.93"
       y1="128.46"
       y2="37.452"
       gradientTransform="translate(1166.3 -456.5)"
       gradientUnits="userSpaceOnUse">
      <stop
         stop-color="#ffba23"
         offset="0"
         id="stop2" />
      <stop
         stop-color="#fe9a06"
         offset=".61844"
         id="stop4" />
      <stop
         stop-color="#d0e6fb"
         offset="1"
         id="stop6" />
    </linearGradient>
    <linearGradient
       id="linearGradient885"
       x1="130.78"
       x2="141.19"
       y1="57.604"
       y2="-17.656"
       gradientTransform="matrix(3.7795 0 0 3.7795 4408.1 -1725.4)"
       gradientUnits="userSpaceOnUse">
      <stop
         stop-color="#e0f1f9"
         offset="0"
         id="stop9" />
      <stop
         stop-color="#b1d0fe"
         offset="1"
         id="stop11" />
    </linearGradient>
    <linearGradient
       id="linearGradient898"
       x1="1317.6"
       x2="-550.49"
       y1="194.9"
       y2="-387.51"
       gradientTransform="translate(1267.3 330.01)"
       gradientUnits="userSpaceOnUse">
      <stop
         stop-color="#0776b9"
         offset="0"
         id="stop14" />
      <stop
         stop-color="#1ab4f0"
         offset="1"
         id="stop16" />
    </linearGradient>
    <linearGradient
       id="linearGradient906"
       x1="379.44"
       x2="48.459"
       y1="46.942"
       y2="-107.12"
       gradientTransform="matrix(3.7795 0 0 3.7795 1267.3 330.01)"
       gradientUnits="userSpaceOnUse">
      <stop
         stop-color="#0d73bb"
         offset="0"
         id="stop19" />
      <stop
         stop-color="#11adea"
         offset="1"
         id="stop21" />
    </linearGradient>
    <linearGradient
       id="linearGradient914"
       x1="352.32"
       x2="118.9"
       y1="-62.434"
       y2="-66.848"
       gradientTransform="translate(1166.3 -456.5)"
       gradientUnits="userSpaceOnUse">
      <stop
         stop-color="#0f70b7"
         offset="0"
         id="stop24" />
      <stop
         stop-color="#1092d1"
         offset="1"
         id="stop26" />
    </linearGradient>
    <linearGradient
       id="linearGradient922"
       x1="-9.9041"
       x2="19.694"
       y1="216.11"
       y2="140.66"
       gradientTransform="translate(1166.3 -456.5)"
       gradientUnits="userSpaceOnUse">
      <stop
         stop-color="#fd0168"
         offset="0"
         id="stop29" />
      <stop
         stop-color="#fe0731"
         offset="1"
         id="stop31" />
    </linearGradient>
    <linearGradient
       id="linearGradient965"
       x1="-43.428"
       x2="-26.875"
       y1="140.2"
       y2="-49.675"
       gradientTransform="translate(1166.3 -456.5)"
       gradientUnits="userSpaceOnUse">
      <stop
         stop-color="#ff604b"
         offset="0"
         id="stop34" />
      <stop
         stop-color="#fd0c67"
         offset="1"
         id="stop36" />
    </linearGradient>
    <linearGradient
       id="linearGradient983"
       x1="3553.8"
       x2="3818.9"
       y1="-441.58"
       y2="-1203.5"
       gradientUnits="userSpaceOnUse">
      <stop
         stop-color="#493b76"
         offset="0"
         id="stop39" />
      <stop
         stop-color="#fd0263"
         offset="1"
         id="stop41" />
    </linearGradient>
    <linearGradient
       id="linearGradient987"
       x1="166.31"
       x2="127.54"
       y1="215.82"
       y2="111.19"
       gradientTransform="translate(1166.3 -456.5)"
       gradientUnits="userSpaceOnUse">
      <stop
         stop-color="#fe3235"
         offset="0"
         id="stop44" />
      <stop
         stop-color="#ff5637"
         stop-opacity="0"
         offset="1"
         id="stop46" />
    </linearGradient>
    <linearGradient
       id="linearGradient886"
       x1="1476"
       x2="1397.3"
       y1="-245.55"
       y2="-201.12"
       gradientUnits="userSpaceOnUse">
      <stop
         stop-color="#fe3235"
         offset="0"
         id="stop49" />
      <stop
         stop-color="#fe3235"
         stop-opacity="0"
         offset="1"
         id="stop51" />
    </linearGradient>
    <filter
       id="filter951"
       x="-0.03749707"
       y="-0.066666653"
       width="1.0749941"
       height="1.1333333"
       color-interpolation-filters="sRGB">
      <feGaussianBlur
         stdDeviation="10.583338"
         id="feGaussianBlur54" />
    </filter>
    <filter
       id="filter1038"
       x="-0.11713946"
       y="-0.19729273"
       width="1.2342789"
       height="1.3945855"
       color-interpolation-filters="sRGB">
      <feGaussianBlur
         stdDeviation="16.529843"
         id="feGaussianBlur57" />
    </filter>
    <mask
       id="mask1097"
       maskUnits="userSpaceOnUse">
      <rect
         x="1000.3"
         y="-453.86"
         width="338.67"
         height="201.08"
         rx="25.319"
         ry="25.319"
         fill="#ffffff"
         stroke-width="0"
         style="paint-order:stroke fill markers"
         id="rect60" />
    </mask>
    <linearGradient
       inkscape:collect="always"
       xlink:href="#linearGradient965"
       id="linearGradient1077"
       gradientUnits="userSpaceOnUse"
       gradientTransform="translate(1166.3,-456.5)"
       x1="-43.428"
       y1="140.2"
       x2="-26.875"
       y2="-49.675" />
    <linearGradient
       inkscape:collect="always"
       xlink:href="#linearGradient987"
       id="linearGradient1079"
       gradientUnits="userSpaceOnUse"
       gradientTransform="translate(1166.3,-456.5)"
       x1="166.31"
       y1="215.82"
       x2="127.54"
       y2="111.19" />
    <linearGradient
       inkscape:collect="always"
       xlink:href="#linearGradient922"
       id="linearGradient1081"
       gradientUnits="userSpaceOnUse"
       gradientTransform="translate(1166.3,-456.5)"
       x1="-9.9041"
       y1="216.11"
       x2="19.694"
       y2="140.66" />
    <linearGradient
       inkscape:collect="always"
       xlink:href="#linearGradient898"
       id="linearGradient1083"
       gradientUnits="userSpaceOnUse"
       gradientTransform="translate(1267.3,330.01)"
       x1="1317.6"
       y1="194.9"
       x2="-550.49"
       y2="-387.51" />
    <linearGradient
       inkscape:collect="always"
       xlink:href="#linearGradient885"
       id="linearGradient1085"
       gradientUnits="userSpaceOnUse"
       gradientTransform="matrix(3.7795,0,0,3.7795,4408.1,-1725.4)"
       x1="130.78"
       y1="57.604"
       x2="141.19"
       y2="-17.656" />
    <linearGradient
       inkscape:collect="always"
       xlink:href="#linearGradient906"
       id="linearGradient1087"
       gradientUnits="userSpaceOnUse"
       gradientTransform="matrix(3.7795,0,0,3.7795,1267.3,330.01)"
       x1="379.44"
       y1="46.942"
       x2="48.459"
       y2="-107.12" />
    <linearGradient
       inkscape:collect="always"
       xlink:href="#linearGradient914"
       id="linearGradient1089"
       gradientUnits="userSpaceOnUse"
       gradientTransform="translate(1166.3,-456.5)"
       x1="352.32"
       y1="-62.434"
       x2="118.9"
       y2="-66.848" />
    <linearGradient
       inkscape:collect="always"
       xlink:href="#linearGradient877"
       id="linearGradient1091"
       gradientUnits="userSpaceOnUse"
       gradientTransform="translate(1166.3,-456.5)"
       x1="182.64"
       y1="128.46"
       x2="188.93"
       y2="37.452" />
    <linearGradient
       inkscape:collect="always"
       xlink:href="#linearGradient983"
       id="linearGradient1093"
       gradientUnits="userSpaceOnUse"
       x1="3553.8"
       y1="-441.58"
       x2="3818.9"
       y2="-1203.5" />
    <linearGradient
       inkscape:collect="always"
       xlink:href="#linearGradient886"
       id="linearGradient1095"
       gradientUnits="userSpaceOnUse"
       x1="1476"
       y1="-245.55"
       x2="1397.3"
       y2="-201.12" />
    <linearGradient
       inkscape:collect="always"
       xlink:href="#linearGradient965"
       id="linearGradient1097"
       gradientUnits="userSpaceOnUse"
       gradientTransform="translate(1166.3,-456.5)"
       x1="-43.428"
       y1="140.2"
       x2="-26.875"
       y2="-49.675" />
    <linearGradient
       inkscape:collect="always"
       xlink:href="#linearGradient987"
       id="linearGradient1099"
       gradientUnits="userSpaceOnUse"
       gradientTransform="translate(1166.3,-456.5)"
       x1="166.31"
       y1="215.82"
       x2="127.54"
       y2="111.19" />
    <linearGradient
       inkscape:collect="always"
       xlink:href="#linearGradient922"
       id="linearGradient1101"
       gradientUnits="userSpaceOnUse"
       gradientTransform="translate(1166.3,-456.5)"
       x1="-9.9041"
       y1="216.11"
       x2="19.694"
       y2="140.66" />
    <linearGradient
       inkscape:collect="always"
       xlink:href="#linearGradient898"
       id="linearGradient1103"
       gradientUnits="userSpaceOnUse"
       gradientTransform="translate(1267.3,330.01)"
       x1="1317.6"
       y1="194.9"
       x2="-550.49"
       y2="-387.51" />
    <linearGradient
       inkscape:collect="always"
       xlink:href="#linearGradient885"
       id="linearGradient1105"
       gradientUnits="userSpaceOnUse"
       gradientTransform="matrix(3.7795,0,0,3.7795,4408.1,-1725.4)"
       x1="130.78"
       y1="57.604"
       x2="141.19"
       y2="-17.656" />
    <linearGradient
       inkscape:collect="always"
       xlink:href="#linearGradient906"
       id="linearGradient1107"
       gradientUnits="userSpaceOnUse"
       gradientTransform="matrix(3.7795,0,0,3.7795,1267.3,330.01)"
       x1="379.44"
       y1="46.942"
       x2="48.459"
       y2="-107.12" />
    <linearGradient
       inkscape:collect="always"
       xlink:href="#linearGradient914"
       id="linearGradient1109"
       gradientUnits="userSpaceOnUse"
       gradientTransform="translate(1166.3,-456.5)"
       x1="352.32"
       y1="-62.434"
       x2="118.9"
       y2="-66.848" />
    <linearGradient
       inkscape:collect="always"
       xlink:href="#linearGradient877"
       id="linearGradient1111"
       gradientUnits="userSpaceOnUse"
       gradientTransform="translate(1166.3,-456.5)"
       x1="182.64"
       y1="128.46"
       x2="188.93"
       y2="37.452" />
    <linearGradient
       inkscape:collect="always"
       xlink:href="#linearGradient983"
       id="linearGradient1113"
       gradientUnits="userSpaceOnUse"
       x1="3553.8"
       y1="-441.58"
       x2="3818.9"
       y2="-1203.5" />
    <linearGradient
       inkscape:collect="always"
       xlink:href="#linearGradient886"
       id="linearGradient1115"
       gradientUnits="userSpaceOnUse"
       x1="1476"
       y1="-245.55"
       x2="1397.3"
       y2="-201.12" />
    <linearGradient
       inkscape:collect="always"
       xlink:href="#linearGradient965"
       id="linearGradient1167"
       gradientUnits="userSpaceOnUse"
       gradientTransform="translate(1166.3,-456.5)"
       x1="-43.428"
       y1="140.2"
       x2="-26.875"
       y2="-49.675" />
    <linearGradient
       inkscape:collect="always"
       xlink:href="#linearGradient987"
       id="linearGradient1169"
       gradientUnits="userSpaceOnUse"
       gradientTransform="translate(1166.3,-456.5)"
       x1="166.31"
       y1="215.82"
       x2="127.54"
       y2="111.19" />
    <linearGradient
       inkscape:collect="always"
       xlink:href="#linearGradient922"
       id="linearGradient1171"
       gradientUnits="userSpaceOnUse"
       gradientTransform="translate(1166.3,-456.5)"
       x1="-9.9041"
       y1="216.11"
       x2="19.694"
       y2="140.66" />
    <linearGradient
       inkscape:collect="always"
       xlink:href="#linearGradient898"
       id="linearGradient1173"
       gradientUnits="userSpaceOnUse"
       gradientTransform="translate(1267.3,330.01)"
       x1="1317.6"
       y1="194.9"
       x2="-550.49"
       y2="-387.51" />
    <linearGradient
       inkscape:collect="always"
       xlink:href="#linearGradient885"
       id="linearGradient1175"
       gradientUnits="userSpaceOnUse"
       gradientTransform="matrix(3.7795,0,0,3.7795,4408.1,-1725.4)"
       x1="130.78"
       y1="57.604"
       x2="141.19"
       y2="-17.656" />
    <linearGradient
       inkscape:collect="always"
       xlink:href="#linearGradient906"
       id="linearGradient1177"
       gradientUnits="userSpaceOnUse"
       gradientTransform="matrix(3.7795,0,0,3.7795,1267.3,330.01)"
       x1="379.44"
       y1="46.942"
       x2="48.459"
       y2="-107.12" />
    <linearGradient
       inkscape:collect="always"
       xlink:href="#linearGradient914"
       id="linearGradient1179"
       gradientUnits="userSpaceOnUse"
       gradientTransform="translate(1166.3,-456.5)"
       x1="352.32"
       y1="-62.434"
       x2="118.9"
       y2="-66.848" />
    <linearGradient
       inkscape:collect="always"
       xlink:href="#linearGradient877"
       id="linearGradient1181"
       gradientUnits="userSpaceOnUse"
       gradientTransform="translate(1166.3,-456.5)"
       x1="182.64"
       y1="128.46"
       x2="188.93"
       y2="37.452" />
    <linearGradient
       inkscape:collect="always"
       xlink:href="#linearGradient983"
       id="linearGradient1183"
       gradientUnits="userSpaceOnUse"
       x1="3553.8"
       y1="-441.58"
       x2="3818.9"
       y2="-1203.5" />
    <linearGradient
       inkscape:collect="always"
       xlink:href="#linearGradient886"
       id="linearGradient1185"
       gradientUnits="userSpaceOnUse"
       x1="1476"
       y1="-245.55"
       x2="1397.3"
       y2="-201.12" />
    <clipPath
       clipPathUnits="userSpaceOnUse"
       id="clipPath1371">
      <rect
         style="opacity:0.15;fill:#000000;stroke-width:2.16542;stroke-linecap:round;stroke-linejoin:round;paint-order:stroke fill markers"
         id="rect1373"
         width="677.38654"
         height="285.75067"
         x="830.99146"
         y="-496.19577" />
    </clipPath>
    <filter
       inkscape:collect="always"
       style="color-interpolation-filters:sRGB"
       id="filter1736"
       x="-0.037498571"
       y="-0.06666932"
       width="1.0749971"
       height="1.1333386">
      <feGaussianBlur
         inkscape:collect="always"
         stdDeviation="10.583761"
         id="feGaussianBlur1738" />
    </filter>
    <clipPath
       clipPathUnits="userSpaceOnUse"
       id="clipPath1824">
      <rect
         x="1026.7985"
         y="-437.9873"
         width="285.77243"
         height="169.33372"
         rx="21.879253"
         ry="21.877584"
         fill="#000000"
         opacity="0.25"
         stroke-width="0"
         style="paint-order:stroke fill markers"
         id="rect1826" />
    </clipPath>
    <filter
       inkscape:collect="always"
       style="color-interpolation-filters:sRGB"
       id="filter1830"
       x="-0.11705555"
       y="-0.19753125"
       width="1.2341111"
       height="1.3950625">
      <feGaussianBlur
         inkscape:collect="always"
         stdDeviation="13.936927"
         id="feGaussianBlur1832" />
    </filter>
    <linearGradient
       inkscape:collect="always"
       xlink:href="#linearGradient965"
       id="linearGradient2012"
       gradientUnits="userSpaceOnUse"
       gradientTransform="translate(1166.3,-456.5)"
       x1="-43.428"
       y1="140.2"
       x2="-26.875"
       y2="-49.675" />
    <linearGradient
       inkscape:collect="always"
       xlink:href="#linearGradient987"
       id="linearGradient2014"
       gradientUnits="userSpaceOnUse"
       gradientTransform="translate(1166.3,-456.5)"
       x1="166.31"
       y1="215.82"
       x2="127.54"
       y2="111.19" />
    <linearGradient
       inkscape:collect="always"
       xlink:href="#linearGradient922"
       id="linearGradient2016"
       gradientUnits="userSpaceOnUse"
       gradientTransform="translate(1166.3,-456.5)"
       x1="-9.9041"
       y1="216.11"
       x2="19.694"
       y2="140.66" />
    <linearGradient
       inkscape:collect="always"
       xlink:href="#linearGradient898"
       id="linearGradient2018"
       gradientUnits="userSpaceOnUse"
       gradientTransform="translate(1267.3,330.01)"
       x1="1317.6"
       y1="194.9"
       x2="-550.49"
       y2="-387.51" />
    <linearGradient
       inkscape:collect="always"
       xlink:href="#linearGradient885"
       id="linearGradient2020"
       gradientUnits="userSpaceOnUse"
       gradientTransform="matrix(3.7795,0,0,3.7795,4408.1,-1725.4)"
       x1="130.78"
       y1="57.604"
       x2="141.19"
       y2="-17.656" />
    <linearGradient
       inkscape:collect="always"
       xlink:href="#linearGradient906"
       id="linearGradient2022"
       gradientUnits="userSpaceOnUse"
       gradientTransform="matrix(3.7795,0,0,3.7795,1267.3,330.01)"
       x1="379.44"
       y1="46.942"
       x2="48.459"
       y2="-107.12" />
    <linearGradient
       inkscape:collect="always"
       xlink:href="#linearGradient914"
       id="linearGradient2024"
       gradientUnits="userSpaceOnUse"
       gradientTransform="translate(1166.3,-456.5)"
       x1="352.32"
       y1="-62.434"
       x2="118.9"
       y2="-66.848" />
    <linearGradient
       inkscape:collect="always"
       xlink:href="#linearGradient877"
       id="linearGradient2026"
       gradientUnits="userSpaceOnUse"
       gradientTransform="translate(1166.3,-456.5)"
       x1="182.64"
       y1="128.46"
       x2="188.93"
       y2="37.452" />
    <linearGradient
       inkscape:collect="always"
       xlink:href="#linearGradient983"
       id="linearGradient2028"
       gradientUnits="userSpaceOnUse"
       x1="3553.8"
       y1="-441.58"
       x2="3818.9"
       y2="-1203.5" />
    <linearGradient
       inkscape:collect="always"
       xlink:href="#linearGradient886"
       id="linearGradient2030"
       gradientUnits="userSpaceOnUse"
       x1="1476"
       y1="-245.55"
       x2="1397.3"
       y2="-201.12" />
    <linearGradient
       inkscape:collect="always"
       xlink:href="#linearGradient965"
       id="linearGradient2032"
       gradientUnits="userSpaceOnUse"
       gradientTransform="translate(1166.3,-456.5)"
       x1="-43.428"
       y1="140.2"
       x2="-26.875"
       y2="-49.675" />
    <linearGradient
       inkscape:collect="always"
       xlink:href="#linearGradient987"
       id="linearGradient2034"
       gradientUnits="userSpaceOnUse"
       gradientTransform="translate(1166.3,-456.5)"
       x1="166.31"
       y1="215.82"
       x2="127.54"
       y2="111.19" />
    <linearGradient
       inkscape:collect="always"
       xlink:href="#linearGradient922"
       id="linearGradient2036"
       gradientUnits="userSpaceOnUse"
       gradientTransform="translate(1166.3,-456.5)"
       x1="-9.9041"
       y1="216.11"
       x2="19.694"
       y2="140.66" />
    <linearGradient
       inkscape:collect="always"
       xlink:href="#linearGradient898"
       id="linearGradient2038"
       gradientUnits="userSpaceOnUse"
       gradientTransform="translate(1267.3,330.01)"
       x1="1317.6"
       y1="194.9"
       x2="-550.49"
       y2="-387.51" />
    <linearGradient
       inkscape:collect="always"
       xlink:href="#linearGradient885"
       id="linearGradient2040"
       gradientUnits="userSpaceOnUse"
       gradientTransform="matrix(3.7795,0,0,3.7795,4408.1,-1725.4)"
       x1="130.78"
       y1="57.604"
       x2="141.19"
       y2="-17.656" />
    <linearGradient
       inkscape:collect="always"
       xlink:href="#linearGradient906"
       id="linearGradient2042"
       gradientUnits="userSpaceOnUse"
       gradientTransform="matrix(3.7795,0,0,3.7795,1267.3,330.01)"
       x1="379.44"
       y1="46.942"
       x2="48.459"
       y2="-107.12" />
    <linearGradient
       inkscape:collect="always"
       xlink:href="#linearGradient914"
       id="linearGradient2044"
       gradientUnits="userSpaceOnUse"
       gradientTransform="translate(1166.3,-456.5)"
       x1="352.32"
       y1="-62.434"
       x2="118.9"
       y2="-66.848" />
    <linearGradient
       inkscape:collect="always"
       xlink:href="#linearGradient877"
       id="linearGradient2046"
       gradientUnits="userSpaceOnUse"
       gradientTransform="translate(1166.3,-456.5)"
       x1="182.64"
       y1="128.46"
       x2="188.93"
       y2="37.452" />
    <linearGradient
       inkscape:collect="always"
       xlink:href="#linearGradient983"
       id="linearGradient2048"
       gradientUnits="userSpaceOnUse"
       x1="3553.8"
       y1="-441.58"
       x2="3818.9"
       y2="-1203.5" />
    <linearGradient
       inkscape:collect="always"
       xlink:href="#linearGradient886"
       id="linearGradient2050"
       gradientUnits="userSpaceOnUse"
       x1="1476"
       y1="-245.55"
       x2="1397.3"
       y2="-201.12" />
  </defs>
  <g
     id="whitesur-2k">
    <g
       transform="matrix(0.99992146,0,0,0.99999768,-830.93473,543.81874)"
       id="g2724">
      <rect
         x="831"
         y="-543.82001"
         width="677.33002"
         height="381"
         ry="0.080329999"
         fill="url(#linearGradient965)"
         stroke-linecap="round"
         stroke-linejoin="round"
         stroke-width="0.29282"
         style="fill:url(#linearGradient1077);paint-order:stroke fill markers"
         id="rect65" />
      <rect
         x="831"
         y="-543.82001"
         width="677.33002"
         height="381"
         ry="0.080329999"
         fill="url(#linearGradient987)"
         stroke-linecap="round"
         stroke-linejoin="round"
         stroke-width="0.29282"
         style="fill:url(#linearGradient1079);paint-order:stroke fill markers"
         id="rect67" />
      <path
         d="m 831,-476.36 v 313.42 c 0,0.0663 0.0536,0.11935 0.11988,0.11935 h 677.09002 c 0.066,0 0.1199,-0.0531 0.1199,-0.11935 v -81.087 c -7.3958,-4.9154 -16.821,-9.4105 -28.73,-12.375 -41.892,-10.428 -59.805,14.251 -86.238,5.4131 -26.433,-8.8379 -73.685,-15.642 -128.76,-19.928 -55.076,-4.2862 -63.176,-19.999 -123,-49.078 -59.827,-29.079 -153.23002,-51.571 -223.65002,-88.306 -44.008,-22.957 -72.083,-50.574 -86.953,-68.06 z"
         fill="url(#linearGradient922)"
         id="path69"
         style="fill:url(#linearGradient1081)" />
      <path
         transform="matrix(0.26458,0,0,0.26458,831,-543.82)"
         d="m 643.35,0 c 4.4798,2.0341 182.41,82.968 266.61,144.25 20.311,14.782 40.694,30.758 60.535,46.842 0.0378,0.004 0.0375,1.4e-4 0.0488,0.008 494.93,215.17 833.18,316.22 1589.5,400.37 V 0.43 c -0.01,-0.23288 -0.1932,-0.41734 -0.4257,-0.42969 H 643.41813 Z"
         fill="url(#linearGradient898)"
         id="path71"
         style="fill:url(#linearGradient1083)" />
      <path
         transform="scale(0.26458)"
         d="m 4111.1,-1864.3 c -1.3444,0.2578 23.713,19.906 23.713,19.906 0,0 80.148,75.846 128.12,101.81 100.96,54.653 194.55,84.189 299.2,107.26 48.199,38.178 144.73,85.936 180.83,97.576 400.06,99.37 661.2,173.73 957.81,365.55 v -164.23 c -3.9595,-1.7972 -8.4944,-3.8504 -13.545,-6.123 5.0466,2.2707 9.584,4.3233 13.545,6.1211 v -209.28 c -20.952,-12.17 -51.449,-28.241 -76.848,-35.004 -43.324,-11.536 -164.59,-20.034 -325.03,-37.262 -160.44,-17.228 -223,-86.187 -273.9,-103.52 -50.899,-17.328 -84.668,-3.1122 -134.5,-31.008 -49.834,-27.896 -106.86,-45.646 -176,-45.646 -69.141,0 -216.5,18.009 -340.85,-0.9493 -124.35,-18.958 -184.32,-39.172 -262.32,-65.176 -0.098,-0.034 -0.1694,-0.047 -0.2148,-0.039 z m 1192,378.46 c 7.11,1.5057 13.758,2.9253 19.383,4.1504 3.2484,0.7076 6.6014,1.4838 10.051,2.3262 -3.449,-0.8423 -6.8026,-1.6187 -10.051,-2.3262 -5.532,-1.205 -12.52,-2.6901 -19.383,-4.1504 z"
         fill="url(#linearGradient885)"
         id="path73"
         style="fill:url(#linearGradient1085)" />
      <path
         transform="matrix(0.26458,0,0,0.26458,831,-543.82)"
         d="m 923.11,0 c 8.1247,5.0782 83.98,50.523 231.85,73.447 156.74,24.3 118.34,5.3138 210.23,22.279 91.882,16.965 163.11,68.987 259.77,89.33 96.66,20.343 151.64,8.8399 247.4,34.232 95.76,25.393 135.98,69.539 276.79,108.21 126.64,34.781 340.53,94.278 410.85,127.46 V 0.448 c -0.01,-0.24581 -0.2055,-0.44336 -0.4511,-0.44336 z"
         fill="url(#linearGradient906)"
         id="path75"
         style="fill:url(#linearGradient1087)" />
      <path
         d="m 1295.8,-543.82 c 8.6497,5.1649 21.301,11.964 39.881,20.804 57.089,27.163 93.518,36.334 121.44,40.02 20.302,2.6807 41.257,6.8388 51.257,8.923 v -69.628 c 0,-0.0663 -0.054,-0.11989 -0.1199,-0.11989 z"
         fill="url(#linearGradient914)"
         id="path77"
         style="fill:url(#linearGradient1089)" />
      <path
         d="m 1201.1,-434.04 c 17.262,6.5032 30.879,30.051 45.831,34.139 19.906,5.4422 36.29,6.0404 57.02,16.6 20.731,10.56 39.033,29.502 60.738,33.708 21.705,4.2064 31.462,2.3177 42.952,10.898 8.0383,6.0027 13.193,19.259 26.76,24.726 20.42,8.2276 45.499,1.4352 58.657,2.2216 8.483,0.50701 13.043,1.1792 15.237,1.5958 v -43.453 c -16.762,-7.6084 -72.578,-32.441 -100.1,-38.435 -32.589,-7.0987 -156.59,-31.743 -187.55,-38.194 -4.8135,-1.003 -14.66,-2.6716 -19.555,-3.8075 z"
         fill="url(#linearGradient877)"
         id="path79"
         style="fill:url(#linearGradient1091)" />
      <path
         transform="scale(0.26458)"
         d="m 3140.8,-1497.9 v 882.18 c 0,0.16819 0.1365,0.30468 0.3047,0.30468 h 2459 c -19.362,-33.265 -59.938,-78.491 -131.93,-118.48 -108.75,-60.409 -279.88,-107.68 -559.57,-148.09 -279.69,-40.406 -521.37,-110 -773.31,-158.48998 -251.94,-48.487 -585.81,-199.64 -733.98,-284.03 -142.6,-81.216 -252.38,-167 -260.52,-173.4 z"
         fill="url(#linearGradient983)"
         id="path81"
         style="fill:url(#linearGradient1093)" />
      <path
         d="m 831,-476.36 v 313.42 c 0,0.0663 0.0536,0.11935 0.11988,0.11935 h 677.09002 c 0.066,0 0.1199,-0.0531 0.1199,-0.11935 v -81.087 c -7.3958,-4.9154 -16.821,-9.4105 -28.73,-12.375 -41.892,-10.428 -59.805,14.251 -86.238,5.4131 -26.433,-8.8379 -73.685,-15.642 -128.76,-19.928 -55.076,-4.2862 -63.176,-19.999 -123,-49.078 -59.827,-29.079 -153.23002,-51.571 -223.65002,-88.306 -44.008,-22.957 -72.083,-50.574 -86.953,-68.06 z"
         fill="url(#linearGradient886)"
         opacity="0.75"
         id="path83"
         style="fill:url(#linearGradient1095)" />
    </g>
    <rect
       x="169.33"
       y="97.082001"
       width="338.67001"
       height="201.08"
       rx="25.319"
       ry="25.319"
       fill="#000000"
       filter="url(#filter1038)"
       opacity="0.25"
       stroke-width="0"
       style="paint-order:stroke fill markers;opacity:0.15"
       id="rect87"
       transform="scale(0.99992146,0.99999768)" />
    <g
       transform="matrix(0.99992146,0,0,0.99999768,-830.93473,543.81874)"
       filter="url(#filter951)"
       mask="url(#mask1097)"
       id="g109">
      <rect
         x="831"
         y="-543.82001"
         width="677.33002"
         height="381"
         ry="0.080329999"
         fill="url(#linearGradient965)"
         stroke-linecap="round"
         stroke-linejoin="round"
         stroke-width="0.29282"
         style="fill:url(#linearGradient1097);paint-order:stroke fill markers"
         id="rect89" />
      <rect
         x="831"
         y="-543.82001"
         width="677.33002"
         height="381"
         ry="0.080329999"
         fill="url(#linearGradient987)"
         stroke-linecap="round"
         stroke-linejoin="round"
         stroke-width="0.29282"
         style="fill:url(#linearGradient1099);paint-order:stroke fill markers"
         id="rect91" />
      <path
         d="m 831,-476.36 v 313.42 c 0,0.0663 0.0536,0.11935 0.11988,0.11935 h 677.09002 c 0.066,0 0.1199,-0.0531 0.1199,-0.11935 v -81.087 c -7.3958,-4.9154 -16.821,-9.4105 -28.73,-12.375 -41.892,-10.428 -59.805,14.251 -86.238,5.4131 -26.433,-8.8379 -73.685,-15.642 -128.76,-19.928 -55.076,-4.2862 -63.176,-19.999 -123,-49.078 -59.827,-29.079 -153.23002,-51.571 -223.65002,-88.306 -44.008,-22.957 -72.083,-50.574 -86.953,-68.06 z"
         fill="url(#linearGradient922)"
         id="path93"
         style="fill:url(#linearGradient1101)" />
      <path
         transform="matrix(0.26458,0,0,0.26458,831,-543.82)"
         d="m 643.35,0 c 4.4798,2.0341 182.41,82.968 266.61,144.25 20.311,14.782 40.694,30.758 60.535,46.842 0.0378,0.004 0.0375,1.4e-4 0.0488,0.008 494.93,215.17 833.18,316.22 1589.5,400.37 V 0.43 c -0.01,-0.23288 -0.1932,-0.41734 -0.4257,-0.42969 H 643.41813 Z"
         fill="url(#linearGradient898)"
         id="path95"
         style="fill:url(#linearGradient1103)" />
      <path
         transform="scale(0.26458)"
         d="m 4111.1,-1864.3 c -1.3444,0.2578 23.713,19.906 23.713,19.906 0,0 80.148,75.846 128.12,101.81 100.96,54.653 194.55,84.189 299.2,107.26 48.199,38.178 144.73,85.936 180.83,97.576 400.06,99.37 661.2,173.73 957.81,365.55 v -164.23 c -3.9595,-1.7972 -8.4944,-3.8504 -13.545,-6.123 5.0466,2.2707 9.584,4.3233 13.545,6.1211 v -209.28 c -20.952,-12.17 -51.449,-28.241 -76.848,-35.004 -43.324,-11.536 -164.59,-20.034 -325.03,-37.262 -160.44,-17.228 -223,-86.187 -273.9,-103.52 -50.899,-17.328 -84.668,-3.1122 -134.5,-31.008 -49.834,-27.896 -106.86,-45.646 -176,-45.646 -69.141,0 -216.5,18.009 -340.85,-0.9493 -124.35,-18.958 -184.32,-39.172 -262.32,-65.176 -0.098,-0.034 -0.1694,-0.047 -0.2148,-0.039 z m 1192,378.46 c 7.11,1.5057 13.758,2.9253 19.383,4.1504 3.2484,0.7076 6.6014,1.4838 10.051,2.3262 -3.449,-0.8423 -6.8026,-1.6187 -10.051,-2.3262 -5.532,-1.205 -12.52,-2.6901 -19.383,-4.1504 z"
         fill="url(#linearGradient885)"
         id="path97"
         style="fill:url(#linearGradient1105)" />
      <path
         transform="matrix(0.26458,0,0,0.26458,831,-543.82)"
         d="m 923.11,0 c 8.1247,5.0782 83.98,50.523 231.85,73.447 156.74,24.3 118.34,5.3138 210.23,22.279 91.882,16.965 163.11,68.987 259.77,89.33 96.66,20.343 151.64,8.8399 247.4,34.232 95.76,25.393 135.98,69.539 276.79,108.21 126.64,34.781 340.53,94.278 410.85,127.46 V 0.448 c -0.01,-0.24581 -0.2055,-0.44336 -0.4511,-0.44336 z"
         fill="url(#linearGradient906)"
         id="path99"
         style="fill:url(#linearGradient1107)" />
      <path
         d="m 1295.8,-543.82 c 8.6497,5.1649 21.301,11.964 39.881,20.804 57.089,27.163 93.518,36.334 121.44,40.02 20.302,2.6807 41.257,6.8388 51.257,8.923 v -69.628 c 0,-0.0663 -0.054,-0.11989 -0.1199,-0.11989 z"
         fill="url(#linearGradient914)"
         id="path101"
         style="fill:url(#linearGradient1109)" />
      <path
         d="m 1201.1,-434.04 c 17.262,6.5032 30.879,30.051 45.831,34.139 19.906,5.4422 36.29,6.0404 57.02,16.6 20.731,10.56 39.033,29.502 60.738,33.708 21.705,4.2064 31.462,2.3177 42.952,10.898 8.0383,6.0027 13.193,19.259 26.76,24.726 20.42,8.2276 45.499,1.4352 58.657,2.2216 8.483,0.50701 13.043,1.1792 15.237,1.5958 v -43.453 c -16.762,-7.6084 -72.578,-32.441 -100.1,-38.435 -32.589,-7.0987 -156.59,-31.743 -187.55,-38.194 -4.8135,-1.003 -14.66,-2.6716 -19.555,-3.8075 z"
         fill="url(#linearGradient877)"
         id="path103"
         style="fill:url(#linearGradient1111)" />
      <path
         transform="scale(0.26458)"
         d="m 3140.8,-1497.9 v 882.18 c 0,0.16819 0.1365,0.30468 0.3047,0.30468 h 2459 c -19.362,-33.265 -59.938,-78.491 -131.93,-118.48 -108.75,-60.409 -279.88,-107.68 -559.57,-148.09 -279.69,-40.406 -521.37,-110 -773.31,-158.48998 -251.94,-48.487 -585.81,-199.64 -733.98,-284.03 -142.6,-81.216 -252.38,-167 -260.52,-173.4 z"
         fill="url(#linearGradient983)"
         id="path105"
         style="fill:url(#linearGradient1113)" />
      <path
         d="m 831,-476.36 v 313.42 c 0,0.0663 0.0536,0.11935 0.11988,0.11935 h 677.09002 c 0.066,0 0.1199,-0.0531 0.1199,-0.11935 v -81.087 c -7.3958,-4.9154 -16.821,-9.4105 -28.73,-12.375 -41.892,-10.428 -59.805,14.251 -86.238,5.4131 -26.433,-8.8379 -73.685,-15.642 -128.76,-19.928 -55.076,-4.2862 -63.176,-19.999 -123,-49.078 -59.827,-29.079 -153.23002,-51.571 -223.65002,-88.306 -44.008,-22.957 -72.083,-50.574 -86.953,-68.06 z"
         fill="url(#linearGradient886)"
         opacity="0.75"
         id="path107"
         style="fill:url(#linearGradient1115)" />
    </g>
    <rect
       x="169.3167"
       y="89.957794"
       width="338.6434"
       height="201.07953"
       rx="25.317011"
       ry="25.318941"
       fill="#000000"
       opacity="0.25"
       stroke-width="0"
       style="paint-order:stroke fill markers"
       id="rect111" />
  </g>
  <g
     id="whitesur-ultrawide">
    <g
       transform="matrix(0.99992146,0,0,0.99999768,-41.070041,543.81874)"
       id="g1137"
       clip-path="url(#clipPath1371)">
      <rect
         x="831"
         y="-543.82001"
         width="677.33002"
         height="381"
         ry="0.080329999"
         fill="url(#linearGradient965)"
         stroke-linecap="round"
         stroke-linejoin="round"
         stroke-width="0.29282"
         style="fill:url(#linearGradient1167);paint-order:stroke fill markers"
         id="rect1117" />
      <rect
         x="831"
         y="-543.82001"
         width="677.33002"
         height="381"
         ry="0.080329999"
         fill="url(#linearGradient987)"
         stroke-linecap="round"
         stroke-linejoin="round"
         stroke-width="0.29282"
         style="fill:url(#linearGradient1169);paint-order:stroke fill markers"
         id="rect1119" />
      <path
         d="m 831,-476.36 v 313.42 c 0,0.0663 0.0536,0.11935 0.11988,0.11935 h 677.09002 c 0.066,0 0.1199,-0.0531 0.1199,-0.11935 v -81.087 c -7.3958,-4.9154 -16.821,-9.4105 -28.73,-12.375 -41.892,-10.428 -59.805,14.251 -86.238,5.4131 -26.433,-8.8379 -73.685,-15.642 -128.76,-19.928 -55.076,-4.2862 -63.176,-19.999 -123,-49.078 -59.827,-29.079 -153.23002,-51.571 -223.65002,-88.306 -44.008,-22.957 -72.083,-50.574 -86.953,-68.06 z"
         fill="url(#linearGradient922)"
         id="path1121"
         style="fill:url(#linearGradient1171)" />
      <path
         transform="matrix(0.26458,0,0,0.26458,831,-543.82)"
         d="m 643.35,0 c 4.4798,2.0341 182.41,82.968 266.61,144.25 20.311,14.782 40.694,30.758 60.535,46.842 0.0378,0.004 0.0375,1.4e-4 0.0488,0.008 494.93,215.17 833.18,316.22 1589.5,400.37 V 0.43 c -0.01,-0.23288 -0.1932,-0.41734 -0.4257,-0.42969 H 643.41813 Z"
         fill="url(#linearGradient898)"
         id="path1123"
         style="fill:url(#linearGradient1173)" />
      <path
         transform="scale(0.26458)"
         d="m 4111.1,-1864.3 c -1.3444,0.2578 23.713,19.906 23.713,19.906 0,0 80.148,75.846 128.12,101.81 100.96,54.653 194.55,84.189 299.2,107.26 48.199,38.178 144.73,85.936 180.83,97.576 400.06,99.37 661.2,173.73 957.81,365.55 v -164.23 c -3.9595,-1.7972 -8.4944,-3.8504 -13.545,-6.123 5.0466,2.2707 9.584,4.3233 13.545,6.1211 v -209.28 c -20.952,-12.17 -51.449,-28.241 -76.848,-35.004 -43.324,-11.536 -164.59,-20.034 -325.03,-37.262 -160.44,-17.228 -223,-86.187 -273.9,-103.52 -50.899,-17.328 -84.668,-3.1122 -134.5,-31.008 -49.834,-27.896 -106.86,-45.646 -176,-45.646 -69.141,0 -216.5,18.009 -340.85,-0.9493 -124.35,-18.958 -184.32,-39.172 -262.32,-65.176 -0.098,-0.034 -0.1694,-0.047 -0.2148,-0.039 z m 1192,378.46 c 7.11,1.5057 13.758,2.9253 19.383,4.1504 3.2484,0.7076 6.6014,1.4838 10.051,2.3262 -3.449,-0.8423 -6.8026,-1.6187 -10.051,-2.3262 -5.532,-1.205 -12.52,-2.6901 -19.383,-4.1504 z"
         fill="url(#linearGradient885)"
         id="path1125"
         style="fill:url(#linearGradient1175)" />
      <path
         transform="matrix(0.26458,0,0,0.26458,831,-543.82)"
         d="m 923.11,0 c 8.1247,5.0782 83.98,50.523 231.85,73.447 156.74,24.3 118.34,5.3138 210.23,22.279 91.882,16.965 163.11,68.987 259.77,89.33 96.66,20.343 151.64,8.8399 247.4,34.232 95.76,25.393 135.98,69.539 276.79,108.21 126.64,34.781 340.53,94.278 410.85,127.46 V 0.448 c -0.01,-0.24581 -0.2055,-0.44336 -0.4511,-0.44336 z"
         fill="url(#linearGradient906)"
         id="path1127"
         style="fill:url(#linearGradient1177)" />
      <path
         d="m 1295.8,-543.82 c 8.6497,5.1649 21.301,11.964 39.881,20.804 57.089,27.163 93.518,36.334 121.44,40.02 20.302,2.6807 41.257,6.8388 51.257,8.923 v -69.628 c 0,-0.0663 -0.054,-0.11989 -0.1199,-0.11989 z"
         fill="url(#linearGradient914)"
         id="path1129"
         style="fill:url(#linearGradient1179)" />
      <path
         d="m 1201.1,-434.04 c 17.262,6.5032 30.879,30.051 45.831,34.139 19.906,5.4422 36.29,6.0404 57.02,16.6 20.731,10.56 39.033,29.502 60.738,33.708 21.705,4.2064 31.462,2.3177 42.952,10.898 8.0383,6.0027 13.193,19.259 26.76,24.726 20.42,8.2276 45.499,1.4352 58.657,2.2216 8.483,0.50701 13.043,1.1792 15.237,1.5958 v -43.453 c -16.762,-7.6084 -72.578,-32.441 -100.1,-38.435 -32.589,-7.0987 -156.59,-31.743 -187.55,-38.194 -4.8135,-1.003 -14.66,-2.6716 -19.555,-3.8075 z"
         fill="url(#linearGradient877)"
         id="path1131"
         style="fill:url(#linearGradient1181)" />
      <path
         transform="scale(0.26458)"
         d="m 3140.8,-1497.9 v 882.18 c 0,0.16819 0.1365,0.30468 0.3047,0.30468 h 2459 c -19.362,-33.265 -59.938,-78.491 -131.93,-118.48 -108.75,-60.409 -279.88,-107.68 -559.57,-148.09 -279.69,-40.406 -521.37,-110 -773.31,-158.48998 -251.94,-48.487 -585.81,-199.64 -733.98,-284.03 -142.6,-81.216 -252.38,-167 -260.52,-173.4 z"
         fill="url(#linearGradient983)"
         id="path1133"
         style="fill:url(#linearGradient1183)" />
      <path
         d="m 831,-476.36 v 313.42 c 0,0.0663 0.0536,0.11935 0.11988,0.11935 h 677.09002 c 0.066,0 0.1199,-0.0531 0.1199,-0.11935 v -81.087 c -7.3958,-4.9154 -16.821,-9.4105 -28.73,-12.375 -41.892,-10.428 -59.805,14.251 -86.238,5.4131 -26.433,-8.8379 -73.685,-15.642 -128.76,-19.928 -55.076,-4.2862 -63.176,-19.999 -123,-49.078 -59.827,-29.079 -153.23002,-51.571 -223.65002,-88.306 -44.008,-22.957 -72.083,-50.574 -86.953,-68.06 z"
         fill="url(#linearGradient886)"
         opacity="0.75"
         id="path1135"
         style="fill:url(#linearGradient1185)" />
    </g>
    <rect
       x="985.64783"
       y="116.51168"
       width="285.75"
       height="169.33333"
       rx="21.877535"
       ry="21.877535"
       fill="#000000"
       opacity="0.25"
       stroke-width="0"
       style="paint-order:stroke fill markers;filter:url(#filter1830);opacity:0.15"
       id="rect1828" />
    <g
       transform="matrix(0.99992146,0,0,0.99999768,-41.070041,543.81874)"
       id="g1734"
       clip-path="url(#clipPath1824)"
       style="filter:url(#filter1736)">
      <rect
         x="831"
         y="-543.82001"
         width="677.33002"
         height="381"
         ry="0.080329999"
         fill="url(#linearGradient965)"
         stroke-linecap="round"
         stroke-linejoin="round"
         stroke-width="0.29282"
         style="fill:url(#linearGradient1167);paint-order:stroke fill markers"
         id="rect1714" />
      <rect
         x="831"
         y="-543.82001"
         width="677.33002"
         height="381"
         ry="0.080329999"
         fill="url(#linearGradient987)"
         stroke-linecap="round"
         stroke-linejoin="round"
         stroke-width="0.29282"
         style="fill:url(#linearGradient1169);paint-order:stroke fill markers"
         id="rect1716" />
      <path
         d="m 831,-476.36 v 313.42 c 0,0.0663 0.0536,0.11935 0.11988,0.11935 h 677.09002 c 0.066,0 0.1199,-0.0531 0.1199,-0.11935 v -81.087 c -7.3958,-4.9154 -16.821,-9.4105 -28.73,-12.375 -41.892,-10.428 -59.805,14.251 -86.238,5.4131 -26.433,-8.8379 -73.685,-15.642 -128.76,-19.928 -55.076,-4.2862 -63.176,-19.999 -123,-49.078 -59.827,-29.079 -153.23002,-51.571 -223.65002,-88.306 -44.008,-22.957 -72.083,-50.574 -86.953,-68.06 z"
         fill="url(#linearGradient922)"
         id="path1718"
         style="fill:url(#linearGradient1171)" />
      <path
         transform="matrix(0.26458,0,0,0.26458,831,-543.82)"
         d="m 643.35,0 c 4.4798,2.0341 182.41,82.968 266.61,144.25 20.311,14.782 40.694,30.758 60.535,46.842 0.0378,0.004 0.0375,1.4e-4 0.0488,0.008 494.93,215.17 833.18,316.22 1589.5,400.37 V 0.43 c -0.01,-0.23288 -0.1932,-0.41734 -0.4257,-0.42969 H 643.41813 Z"
         fill="url(#linearGradient898)"
         id="path1720"
         style="fill:url(#linearGradient1173)" />
      <path
         transform="scale(0.26458)"
         d="m 4111.1,-1864.3 c -1.3444,0.2578 23.713,19.906 23.713,19.906 0,0 80.148,75.846 128.12,101.81 100.96,54.653 194.55,84.189 299.2,107.26 48.199,38.178 144.73,85.936 180.83,97.576 400.06,99.37 661.2,173.73 957.81,365.55 v -164.23 c -3.9595,-1.7972 -8.4944,-3.8504 -13.545,-6.123 5.0466,2.2707 9.584,4.3233 13.545,6.1211 v -209.28 c -20.952,-12.17 -51.449,-28.241 -76.848,-35.004 -43.324,-11.536 -164.59,-20.034 -325.03,-37.262 -160.44,-17.228 -223,-86.187 -273.9,-103.52 -50.899,-17.328 -84.668,-3.1122 -134.5,-31.008 -49.834,-27.896 -106.86,-45.646 -176,-45.646 -69.141,0 -216.5,18.009 -340.85,-0.9493 -124.35,-18.958 -184.32,-39.172 -262.32,-65.176 -0.098,-0.034 -0.1694,-0.047 -0.2148,-0.039 z m 1192,378.46 c 7.11,1.5057 13.758,2.9253 19.383,4.1504 3.2484,0.7076 6.6014,1.4838 10.051,2.3262 -3.449,-0.8423 -6.8026,-1.6187 -10.051,-2.3262 -5.532,-1.205 -12.52,-2.6901 -19.383,-4.1504 z"
         fill="url(#linearGradient885)"
         id="path1722"
         style="fill:url(#linearGradient1175)" />
      <path
         transform="matrix(0.26458,0,0,0.26458,831,-543.82)"
         d="m 923.11,0 c 8.1247,5.0782 83.98,50.523 231.85,73.447 156.74,24.3 118.34,5.3138 210.23,22.279 91.882,16.965 163.11,68.987 259.77,89.33 96.66,20.343 151.64,8.8399 247.4,34.232 95.76,25.393 135.98,69.539 276.79,108.21 126.64,34.781 340.53,94.278 410.85,127.46 V 0.448 c -0.01,-0.24581 -0.2055,-0.44336 -0.4511,-0.44336 z"
         fill="url(#linearGradient906)"
         id="path1724"
         style="fill:url(#linearGradient1177)" />
      <path
         d="m 1295.8,-543.82 c 8.6497,5.1649 21.301,11.964 39.881,20.804 57.089,27.163 93.518,36.334 121.44,40.02 20.302,2.6807 41.257,6.8388 51.257,8.923 v -69.628 c 0,-0.0663 -0.054,-0.11989 -0.1199,-0.11989 z"
         fill="url(#linearGradient914)"
         id="path1726"
         style="fill:url(#linearGradient1179)" />
      <path
         d="m 1201.1,-434.04 c 17.262,6.5032 30.879,30.051 45.831,34.139 19.906,5.4422 36.29,6.0404 57.02,16.6 20.731,10.56 39.033,29.502 60.738,33.708 21.705,4.2064 31.462,2.3177 42.952,10.898 8.0383,6.0027 13.193,19.259 26.76,24.726 20.42,8.2276 45.499,1.4352 58.657,2.2216 8.483,0.50701 13.043,1.1792 15.237,1.5958 v -43.453 c -16.762,-7.6084 -72.578,-32.441 -100.1,-38.435 -32.589,-7.0987 -156.59,-31.743 -187.55,-38.194 -4.8135,-1.003 -14.66,-2.6716 -19.555,-3.8075 z"
         fill="url(#linearGradient877)"
         id="path1728"
         style="fill:url(#linearGradient1181)" />
      <path
         transform="scale(0.26458)"
         d="m 3140.8,-1497.9 v 882.18 c 0,0.16819 0.1365,0.30468 0.3047,0.30468 h 2459 c -19.362,-33.265 -59.938,-78.491 -131.93,-118.48 -108.75,-60.409 -279.88,-107.68 -559.57,-148.09 -279.69,-40.406 -521.37,-110 -773.31,-158.48998 -251.94,-48.487 -585.81,-199.64 -733.98,-284.03 -142.6,-81.216 -252.38,-167 -260.52,-173.4 z"
         fill="url(#linearGradient983)"
         id="path1730"
         style="fill:url(#linearGradient1183)" />
      <path
         d="m 831,-476.36 v 313.42 c 0,0.0663 0.0536,0.11935 0.11988,0.11935 h 677.09002 c 0.066,0 0.1199,-0.0531 0.1199,-0.11935 v -81.087 c -7.3958,-4.9154 -16.821,-9.4105 -28.73,-12.375 -41.892,-10.428 -59.805,14.251 -86.238,5.4131 -26.433,-8.8379 -73.685,-15.642 -128.76,-19.928 -55.076,-4.2862 -63.176,-19.999 -123,-49.078 -59.827,-29.079 -153.23002,-51.571 -223.65002,-88.306 -44.008,-22.957 -72.083,-50.574 -86.953,-68.06 z"
         fill="url(#linearGradient886)"
         opacity="0.75"
         id="path1732"
         style="fill:url(#linearGradient1185)" />
    </g>
    <rect
       x="985.64783"
       y="105.83246"
       width="285.75"
       height="169.33333"
       rx="21.877535"
       ry="21.877535"
       fill="#000000"
       opacity="0.25"
       stroke-width="0"
       style="paint-order:stroke fill markers"
       id="rect1163" />
  </g>
  <g
     id="whitesur-ultrawide2k">
    <g
       transform="matrix(1.3436445,0,0,1.3333302,570.35384,683.97512)"
       id="g1982"
       clip-path="url(#clipPath1371)">
      <rect
         x="831"
         y="-543.82001"
         width="677.33002"
         height="381"
         ry="0.080329999"
         fill="url(#linearGradient965)"
         stroke-linecap="round"
         stroke-linejoin="round"
         stroke-width="0.29282"
         style="fill:url(#linearGradient2012);paint-order:stroke fill markers"
         id="rect1962" />
      <rect
         x="831"
         y="-543.82001"
         width="677.33002"
         height="381"
         ry="0.080329999"
         fill="url(#linearGradient987)"
         stroke-linecap="round"
         stroke-linejoin="round"
         stroke-width="0.29282"
         style="fill:url(#linearGradient2014);paint-order:stroke fill markers"
         id="rect1964" />
      <path
         d="m 831,-476.36 v 313.42 c 0,0.0663 0.0536,0.11935 0.11988,0.11935 h 677.09002 c 0.066,0 0.1199,-0.0531 0.1199,-0.11935 v -81.087 c -7.3958,-4.9154 -16.821,-9.4105 -28.73,-12.375 -41.892,-10.428 -59.805,14.251 -86.238,5.4131 -26.433,-8.8379 -73.685,-15.642 -128.76,-19.928 -55.076,-4.2862 -63.176,-19.999 -123,-49.078 -59.827,-29.079 -153.23002,-51.571 -223.65002,-88.306 -44.008,-22.957 -72.083,-50.574 -86.953,-68.06 z"
         fill="url(#linearGradient922)"
         id="path1966"
         style="fill:url(#linearGradient2016)" />
      <path
         transform="matrix(0.26458,0,0,0.26458,831,-543.82)"
         d="m 643.35,0 c 4.4798,2.0341 182.41,82.968 266.61,144.25 20.311,14.782 40.694,30.758 60.535,46.842 0.0378,0.004 0.0375,1.4e-4 0.0488,0.008 494.93,215.17 833.18,316.22 1589.5,400.37 V 0.43 c -0.01,-0.23288 -0.1932,-0.41734 -0.4257,-0.42969 H 643.41813 Z"
         fill="url(#linearGradient898)"
         id="path1968"
         style="fill:url(#linearGradient2018)" />
      <path
         transform="scale(0.26458)"
         d="m 4111.1,-1864.3 c -1.3444,0.2578 23.713,19.906 23.713,19.906 0,0 80.148,75.846 128.12,101.81 100.96,54.653 194.55,84.189 299.2,107.26 48.199,38.178 144.73,85.936 180.83,97.576 400.06,99.37 661.2,173.73 957.81,365.55 v -164.23 c -3.9595,-1.7972 -8.4944,-3.8504 -13.545,-6.123 5.0466,2.2707 9.584,4.3233 13.545,6.1211 v -209.28 c -20.952,-12.17 -51.449,-28.241 -76.848,-35.004 -43.324,-11.536 -164.59,-20.034 -325.03,-37.262 -160.44,-17.228 -223,-86.187 -273.9,-103.52 -50.899,-17.328 -84.668,-3.1122 -134.5,-31.008 -49.834,-27.896 -106.86,-45.646 -176,-45.646 -69.141,0 -216.5,18.009 -340.85,-0.9493 -124.35,-18.958 -184.32,-39.172 -262.32,-65.176 -0.098,-0.034 -0.1694,-0.047 -0.2148,-0.039 z m 1192,378.46 c 7.11,1.5057 13.758,2.9253 19.383,4.1504 3.2484,0.7076 6.6014,1.4838 10.051,2.3262 -3.449,-0.8423 -6.8026,-1.6187 -10.051,-2.3262 -5.532,-1.205 -12.52,-2.6901 -19.383,-4.1504 z"
         fill="url(#linearGradient885)"
         id="path1970"
         style="fill:url(#linearGradient2020)" />
      <path
         transform="matrix(0.26458,0,0,0.26458,831,-543.82)"
         d="m 923.11,0 c 8.1247,5.0782 83.98,50.523 231.85,73.447 156.74,24.3 118.34,5.3138 210.23,22.279 91.882,16.965 163.11,68.987 259.77,89.33 96.66,20.343 151.64,8.8399 247.4,34.232 95.76,25.393 135.98,69.539 276.79,108.21 126.64,34.781 340.53,94.278 410.85,127.46 V 0.448 c -0.01,-0.24581 -0.2055,-0.44336 -0.4511,-0.44336 z"
         fill="url(#linearGradient906)"
         id="path1972"
         style="fill:url(#linearGradient2022)" />
      <path
         d="m 1295.8,-543.82 c 8.6497,5.1649 21.301,11.964 39.881,20.804 57.089,27.163 93.518,36.334 121.44,40.02 20.302,2.6807 41.257,6.8388 51.257,8.923 v -69.628 c 0,-0.0663 -0.054,-0.11989 -0.1199,-0.11989 z"
         fill="url(#linearGradient914)"
         id="path1974"
         style="fill:url(#linearGradient2024)" />
      <path
         d="m 1201.1,-434.04 c 17.262,6.5032 30.879,30.051 45.831,34.139 19.906,5.4422 36.29,6.0404 57.02,16.6 20.731,10.56 39.033,29.502 60.738,33.708 21.705,4.2064 31.462,2.3177 42.952,10.898 8.0383,6.0027 13.193,19.259 26.76,24.726 20.42,8.2276 45.499,1.4352 58.657,2.2216 8.483,0.50701 13.043,1.1792 15.237,1.5958 v -43.453 c -16.762,-7.6084 -72.578,-32.441 -100.1,-38.435 -32.589,-7.0987 -156.59,-31.743 -187.55,-38.194 -4.8135,-1.003 -14.66,-2.6716 -19.555,-3.8075 z"
         fill="url(#linearGradient877)"
         id="path1976"
         style="fill:url(#linearGradient2026)" />
      <path
         transform="scale(0.26458)"
         d="m 3140.8,-1497.9 v 882.18 c 0,0.16819 0.1365,0.30468 0.3047,0.30468 h 2459 c -19.362,-33.265 -59.938,-78.491 -131.93,-118.48 -108.75,-60.409 -279.88,-107.68 -559.57,-148.09 -279.69,-40.406 -521.37,-110 -773.31,-158.48998 -251.94,-48.487 -585.81,-199.64 -733.98,-284.03 -142.6,-81.216 -252.38,-167 -260.52,-173.4 z"
         fill="url(#linearGradient983)"
         id="path1978"
         style="fill:url(#linearGradient2028)" />
      <path
         d="m 831,-476.36 v 313.42 c 0,0.0663 0.0536,0.11935 0.11988,0.11935 h 677.09002 c 0.066,0 0.1199,-0.0531 0.1199,-0.11935 v -81.087 c -7.3958,-4.9154 -16.821,-9.4105 -28.73,-12.375 -41.892,-10.428 -59.805,14.251 -86.238,5.4131 -26.433,-8.8379 -73.685,-15.642 -128.76,-19.928 -55.076,-4.2862 -63.176,-19.999 -123,-49.078 -59.827,-29.079 -153.23002,-51.571 -223.65002,-88.306 -44.008,-22.957 -72.083,-50.574 -86.953,-68.06 z"
         fill="url(#linearGradient886)"
         opacity="0.75"
         id="path1980"
         style="fill:url(#linearGradient2030)" />
    </g>
    <rect
       x="985.64783"
       y="116.51168"
       width="285.75"
       height="169.33333"
       rx="21.877535"
       ry="21.877535"
       fill="#000000"
       opacity="0.25"
       stroke-width="0"
       style="opacity:0.15;paint-order:stroke fill markers;filter:url(#filter1830)"
       id="rect1984"
       transform="matrix(1.34375,0,0,1.34375,625.54171,-41.612593)" />
    <g
       transform="matrix(1.3436445,0,0,1.3437469,570.35384,689.14384)"
       id="g2006"
       clip-path="url(#clipPath1824)"
       style="filter:url(#filter1736)">
      <rect
         x="831"
         y="-543.82001"
         width="677.33002"
         height="381"
         ry="0.080329999"
         fill="url(#linearGradient965)"
         stroke-linecap="round"
         stroke-linejoin="round"
         stroke-width="0.29282"
         style="fill:url(#linearGradient2032);paint-order:stroke fill markers"
         id="rect1986" />
      <rect
         x="831"
         y="-543.82001"
         width="677.33002"
         height="381"
         ry="0.080329999"
         fill="url(#linearGradient987)"
         stroke-linecap="round"
         stroke-linejoin="round"
         stroke-width="0.29282"
         style="fill:url(#linearGradient2034);paint-order:stroke fill markers"
         id="rect1988" />
      <path
         d="m 831,-476.36 v 313.42 c 0,0.0663 0.0536,0.11935 0.11988,0.11935 h 677.09002 c 0.066,0 0.1199,-0.0531 0.1199,-0.11935 v -81.087 c -7.3958,-4.9154 -16.821,-9.4105 -28.73,-12.375 -41.892,-10.428 -59.805,14.251 -86.238,5.4131 -26.433,-8.8379 -73.685,-15.642 -128.76,-19.928 -55.076,-4.2862 -63.176,-19.999 -123,-49.078 -59.827,-29.079 -153.23002,-51.571 -223.65002,-88.306 -44.008,-22.957 -72.083,-50.574 -86.953,-68.06 z"
         fill="url(#linearGradient922)"
         id="path1990"
         style="fill:url(#linearGradient2036)" />
      <path
         transform="matrix(0.26458,0,0,0.26458,831,-543.82)"
         d="m 643.35,0 c 4.4798,2.0341 182.41,82.968 266.61,144.25 20.311,14.782 40.694,30.758 60.535,46.842 0.0378,0.004 0.0375,1.4e-4 0.0488,0.008 494.93,215.17 833.18,316.22 1589.5,400.37 V 0.43 c -0.01,-0.23288 -0.1932,-0.41734 -0.4257,-0.42969 H 643.41813 Z"
         fill="url(#linearGradient898)"
         id="path1992"
         style="fill:url(#linearGradient2038)" />
      <path
         transform="scale(0.26458)"
         d="m 4111.1,-1864.3 c -1.3444,0.2578 23.713,19.906 23.713,19.906 0,0 80.148,75.846 128.12,101.81 100.96,54.653 194.55,84.189 299.2,107.26 48.199,38.178 144.73,85.936 180.83,97.576 400.06,99.37 661.2,173.73 957.81,365.55 v -164.23 c -3.9595,-1.7972 -8.4944,-3.8504 -13.545,-6.123 5.0466,2.2707 9.584,4.3233 13.545,6.1211 v -209.28 c -20.952,-12.17 -51.449,-28.241 -76.848,-35.004 -43.324,-11.536 -164.59,-20.034 -325.03,-37.262 -160.44,-17.228 -223,-86.187 -273.9,-103.52 -50.899,-17.328 -84.668,-3.1122 -134.5,-31.008 -49.834,-27.896 -106.86,-45.646 -176,-45.646 -69.141,0 -216.5,18.009 -340.85,-0.9493 -124.35,-18.958 -184.32,-39.172 -262.32,-65.176 -0.098,-0.034 -0.1694,-0.047 -0.2148,-0.039 z m 1192,378.46 c 7.11,1.5057 13.758,2.9253 19.383,4.1504 3.2484,0.7076 6.6014,1.4838 10.051,2.3262 -3.449,-0.8423 -6.8026,-1.6187 -10.051,-2.3262 -5.532,-1.205 -12.52,-2.6901 -19.383,-4.1504 z"
         fill="url(#linearGradient885)"
         id="path1994"
         style="fill:url(#linearGradient2040)" />
      <path
         transform="matrix(0.26458,0,0,0.26458,831,-543.82)"
         d="m 923.11,0 c 8.1247,5.0782 83.98,50.523 231.85,73.447 156.74,24.3 118.34,5.3138 210.23,22.279 91.882,16.965 163.11,68.987 259.77,89.33 96.66,20.343 151.64,8.8399 247.4,34.232 95.76,25.393 135.98,69.539 276.79,108.21 126.64,34.781 340.53,94.278 410.85,127.46 V 0.448 c -0.01,-0.24581 -0.2055,-0.44336 -0.4511,-0.44336 z"
         fill="url(#linearGradient906)"
         id="path1996"
         style="fill:url(#linearGradient2042)" />
      <path
         d="m 1295.8,-543.82 c 8.6497,5.1649 21.301,11.964 39.881,20.804 57.089,27.163 93.518,36.334 121.44,40.02 20.302,2.6807 41.257,6.8388 51.257,8.923 v -69.628 c 0,-0.0663 -0.054,-0.11989 -0.1199,-0.11989 z"
         fill="url(#linearGradient914)"
         id="path1998"
         style="fill:url(#linearGradient2044)" />
      <path
         d="m 1201.1,-434.04 c 17.262,6.5032 30.879,30.051 45.831,34.139 19.906,5.4422 36.29,6.0404 57.02,16.6 20.731,10.56 39.033,29.502 60.738,33.708 21.705,4.2064 31.462,2.3177 42.952,10.898 8.0383,6.0027 13.193,19.259 26.76,24.726 20.42,8.2276 45.499,1.4352 58.657,2.2216 8.483,0.50701 13.043,1.1792 15.237,1.5958 v -43.453 c -16.762,-7.6084 -72.578,-32.441 -100.1,-38.435 -32.589,-7.0987 -156.59,-31.743 -187.55,-38.194 -4.8135,-1.003 -14.66,-2.6716 -19.555,-3.8075 z"
         fill="url(#linearGradient877)"
         id="path2000"
         style="fill:url(#linearGradient2046)" />
      <path
         transform="scale(0.26458)"
         d="m 3140.8,-1497.9 v 882.18 c 0,0.16819 0.1365,0.30468 0.3047,0.30468 h 2459 c -19.362,-33.265 -59.938,-78.491 -131.93,-118.48 -108.75,-60.409 -279.88,-107.68 -559.57,-148.09 -279.69,-40.406 -521.37,-110 -773.31,-158.48998 -251.94,-48.487 -585.81,-199.64 -733.98,-284.03 -142.6,-81.216 -252.38,-167 -260.52,-173.4 z"
         fill="url(#linearGradient983)"
         id="path2002"
         style="fill:url(#linearGradient2048)" />
      <path
         d="m 831,-476.36 v 313.42 c 0,0.0663 0.0536,0.11935 0.11988,0.11935 h 677.09002 c 0.066,0 0.1199,-0.0531 0.1199,-0.11935 v -81.087 c -7.3958,-4.9154 -16.821,-9.4105 -28.73,-12.375 -41.892,-10.428 -59.805,14.251 -86.238,5.4131 -26.433,-8.8379 -73.685,-15.642 -128.76,-19.928 -55.076,-4.2862 -63.176,-19.999 -123,-49.078 -59.827,-29.079 -153.23002,-51.571 -223.65002,-88.306 -44.008,-22.957 -72.083,-50.574 -86.953,-68.06 z"
         fill="url(#linearGradient886)"
         opacity="0.75"
         id="path2004"
         style="fill:url(#linearGradient2050)" />
    </g>
    <rect
       x="1950.006"
       y="100.59977"
       width="383.97656"
       height="227.54166"
       rx="29.397938"
       ry="29.397938"
       fill="#000000"
       opacity="0.25"
       stroke-width="0"
       style="paint-order:stroke fill markers"
       id="rect2008" />
  </g>
</svg>
