<?xml version="1.0" encoding="UTF-8" standalone="no"?>
<svg
   xmlns:dc="http://purl.org/dc/elements/1.1/"
   xmlns:cc="http://creativecommons.org/ns#"
   xmlns:rdf="http://www.w3.org/1999/02/22-rdf-syntax-ns#"
   xmlns:svg="http://www.w3.org/2000/svg"
   xmlns="http://www.w3.org/2000/svg"
   xmlns:sodipodi="http://sodipodi.sourceforge.net/DTD/sodipodi-0.dtd"
   xmlns:inkscape="http://www.inkscape.org/namespaces/inkscape"
   width="360"
   height="400"
   version="1.1"
   viewBox="0 0 95.25 105.83"
   id="svg364"
   sodipodi:docname="logos.svg"
   inkscape:version="0.92.4 5da689c313, 2019-01-14">
  <metadata
     id="metadata368">
    <rdf:RDF>
      <cc:Work
         rdf:about="">
        <dc:format>image/svg+xml</dc:format>
        <dc:type
           rdf:resource="http://purl.org/dc/dcmitype/StillImage" />
        <dc:title />
      </cc:Work>
    </rdf:RDF>
  </metadata>
  <sodipodi:namedview
     pagecolor="#2c2c2c"
     bordercolor="#666666"
     borderopacity="1"
     objecttolerance="10"
     gridtolerance="10"
     guidetolerance="10"
     inkscape:pageopacity="0"
     inkscape:pageshadow="2"
     inkscape:window-width="1366"
     inkscape:window-height="708"
     id="namedview366"
     showgrid="false"
     inkscape:zoom="4.8126376"
     inkscape:cx="293.29779"
     inkscape:cy="110.08097"
     inkscape:window-x="0"
     inkscape:window-y="32"
     inkscape:window-maximized="1"
     inkscape:current-layer="svg364" />
  <defs
     id="defs27">
    <style
       id="current-color-scheme"
       type="text/css">.ColorScheme-Text { color:#565656; } .ColorScheme-Highlight { color:#5294e2; }</style>
    <style
       type="text/css"
       id="style3">.ColorScheme-Text { color:#565656; } .ColorScheme-Highlight { color:#5294e2; }</style>
    <style
       type="text/css"
       id="style5">.ColorScheme-Text { color:#565656; } .ColorScheme-Highlight { color:#5294e2; }</style>
    <style
       type="text/css"
       id="style7">.ColorScheme-Text { color:#565656; } .ColorScheme-Highlight { color:#5294e2; }</style>
    <style
       type="text/css"
       id="style9">.ColorScheme-Text { color:#565656; } .ColorScheme-Highlight { color:#5294e2; }</style>
    <style
       type="text/css"
       id="style11">.ColorScheme-Text { color:#565656; } .ColorScheme-Highlight { color:#5294e2; }</style>
    <style
       type="text/css"
       id="style13">.ColorScheme-Text { color:#565656; } .ColorScheme-Highlight { color:#5294e2; }</style>
    <style
       type="text/css"
       id="style15">.ColorScheme-Text { color:#565656; } .ColorScheme-Highlight { color:#5294e2; }</style>
    <style
       type="text/css"
       id="style17">.ColorScheme-Text { color:#565656; } .ColorScheme-Highlight { color:#5294e2; }</style>
    <style
       type="text/css"
       id="style19" />
    <style
       type="text/css"
       id="style21" />
    <style
       type="text/css"
       id="style23">.ColorScheme-Text { color:#565656; } .ColorScheme-Highlight { color:#5294e2; }</style>
    <style
       type="text/css"
       id="style25">.ColorScheme-Text { color:#565656; } .ColorScheme-Highlight { color:#5294e2; }</style>
    <filter
       style="color-interpolation-filters:sRGB"
       inkscape:label="Greyscale"
       id="filter4972">
      <feColorMatrix
         values="0.3 1.02 -0.23 0 0 0.3 1.02 -0.23 0 0 0.3 1.02 -0.23 0 0 0 0 0 1 0 "
         id="feColorMatrix4970" />
    </filter>
    <linearGradient
       y2="-25.68"
       x2="176.71001"
       y1="-125.87"
       x1="79.529999"
       gradientUnits="userSpaceOnUse"
       id="gradient0">
      <stop
         id="stop1170"
         stop-color="#8d8d8d"
         offset="0" />
      <stop
         id="stop1172"
         stop-color="#ffffff"
         offset="1" />
    </linearGradient>
    <linearGradient
       y2="-9.1899996"
       x2="-66.889999"
       y1="57.639999"
       x1="-75.080002"
       gradientUnits="userSpaceOnUse"
       id="gradient2">
      <stop
         id="stop1184"
         stop-color="#c0c0c0"
         offset="0" />
      <stop
         id="stop1186"
         stop-color="#ffffff"
         offset="1" />
    </linearGradient>
    <linearGradient
       y2="-1.04"
       x2="56.880001"
       y1="-51.220001"
       x1="10.71"
       gradientUnits="userSpaceOnUse"
       id="gradient4">
      <stop
         id="stop1198"
         stop-color="#6a6a6a"
         offset="0" />
      <stop
         id="stop1200"
         stop-color="#ffffff"
         offset="1" />
    </linearGradient>
    <radialGradient
       gradientTransform="matrix(0.9523,-0.3867,0.1312,0.3232,33.1729,29.0624)"
       r="64"
       cy="0"
       cx="0"
       gradientUnits="userSpaceOnUse"
       id="gradient6-9">
      <stop
         id="stop1214-4"
         stop-color="#2a8423"
         offset="0" />
      <stop
         id="stop1216-8"
         stop-color="#a9ff00"
         offset="1" />
    </radialGradient>
    <linearGradient
       y2="-25.68"
       x2="176.71001"
       y1="-125.87"
       x1="79.529999"
       gradientUnits="userSpaceOnUse"
       id="linearGradient4802">
      <stop
         id="stop4798"
         stop-color="#8d8d8d"
         offset="0" />
      <stop
         id="stop4800"
         stop-color="#ffffff"
         offset="1" />
    </linearGradient>
    <linearGradient
       y2="-25.68"
       x2="176.71001"
       y1="-125.87"
       x1="79.529999"
       gradientUnits="userSpaceOnUse"
       id="linearGradient4809">
      <stop
         id="stop4805"
         stop-color="#8d8d8d"
         offset="0" />
      <stop
         id="stop4807"
         stop-color="#ffffff"
         offset="1" />
    </linearGradient>
    <linearGradient
       y2="-9.1899996"
       x2="-66.889999"
       y1="57.639999"
       x1="-75.080002"
       gradientUnits="userSpaceOnUse"
       id="linearGradient4816">
      <stop
         id="stop4812"
         stop-color="#c0c0c0"
         offset="0" />
      <stop
         id="stop4814"
         stop-color="#ffffff"
         offset="1" />
    </linearGradient>
    <linearGradient
       y2="-9.1899996"
       x2="-66.889999"
       y1="57.639999"
       x1="-75.080002"
       gradientUnits="userSpaceOnUse"
       id="linearGradient4823">
      <stop
         id="stop4819"
         stop-color="#c0c0c0"
         offset="0" />
      <stop
         id="stop4821"
         stop-color="#ffffff"
         offset="1" />
    </linearGradient>
    <linearGradient
       y2="-1.04"
       x2="56.880001"
       y1="-51.220001"
       x1="10.71"
       gradientUnits="userSpaceOnUse"
       id="linearGradient4830">
      <stop
         id="stop4826"
         stop-color="#6a6a6a"
         offset="0" />
      <stop
         id="stop4828"
         stop-color="#ffffff"
         offset="1" />
    </linearGradient>
    <linearGradient
       y2="-1.04"
       x2="56.880001"
       y1="-51.220001"
       x1="10.71"
       gradientUnits="userSpaceOnUse"
       id="linearGradient4837">
      <stop
         id="stop4833"
         stop-color="#6a6a6a"
         offset="0" />
      <stop
         id="stop4835"
         stop-color="#ffffff"
         offset="1" />
    </linearGradient>
    <radialGradient
       gradientTransform="matrix(0.9523,-0.3867,0.1312,0.3232,33.1729,29.0624)"
       r="64"
       cy="0"
       cx="0"
       gradientUnits="userSpaceOnUse"
       id="radialGradient4845">
      <stop
         id="stop4841"
         stop-color="#2a8423"
         offset="0" />
      <stop
         id="stop4843"
         stop-color="#a9ff00"
         offset="1" />
    </radialGradient>
  </defs>
  <rect
     style="opacity:1;fill:#333333;fill-opacity:1;stroke:none;stroke-width:0.26395631;stroke-linecap:round;stroke-linejoin:round;stroke-miterlimit:4;stroke-dasharray:none;stroke-opacity:0"
     id="rect1364"
     width="94.986046"
     height="105.56937"
     x="0.13197708"
     y="0.13031678"
     ry="0.098680407" />
  <g
     transform="matrix(1.1429,0,0,1.1429,45.605,5.81)"
     id="antergos">
    <path
       style="opacity:0;stroke-width:0.875"
       inkscape:connector-curvature="0"
       id="path29"
       d="m 5.0899,-0.52864 c -1.8455,0 -3.5064,3.6088 -3.691,5.1283 -0.23017,1.8943 2.5836,2.2798 3.691,2.2798 1.1069,0 3.9207,-0.38553 3.6905,-2.2798 -0.18466,-1.5195 -1.8455,-5.1283 -3.6905,-5.1283 z" />
    <path
       style="fill:#ffffff;fill-rule:evenodd;stroke-width:0.875"
       inkscape:connector-curvature="0"
       id="path31"
       d="m 5.0902,1.2568 c -1.0381,0 -1.9723,1.9719 -2.0762,2.8023 -0.12947,1.0352 1.4533,1.246 2.0762,1.246 0.62263,0 2.2054,-0.21086 2.0759,-1.246 C 7.06223,3.22873 6.128,1.2568 5.0902,1.2568 Z m 0.091054,0.93419 c 0.10269,0 -0.025174,0.2954 -0.28588,0.66027 C 4.715594,3.10257 4.426594,3.39159 4.145584,3.6008 4.044064,3.676715 3.948044,3.7384 3.932444,3.7384 3.842992,3.7384 3.833522,3.38173 3.915911,3.10484 3.973292,2.9127 3.978242,2.90848 4.311921,2.73605 4.497311,2.640121 4.760881,2.47822 4.897411,2.37641 5.033651,2.2743 5.161541,2.191 5.181251,2.191 Z m 0.2813,0.10453 c 0.016179,-0.00342 0.03138,0.028637 0.05036,0.088002 0.19244,0.60199 0.13978,1.4726 -0.12946,2.1461 l -0.061297,0.1526 -0.25052,-0.00229 c -0.25157,-0.00206 -0.5721,-0.09357 -0.5977,-0.17066 -0.00764,-0.022658 0.052358,-0.12455 0.13327,-0.22636 0.29248,-0.36956 0.60648,-1.0625 0.74242,-1.639 0.056088,-0.23871 0.085958,-0.34275 0.11293,-0.34844 z m 0.37388,0.19279 c 0.0084,-0.0098 0.051034,0.021536 0.12717,0.09436 0.22657,0.216 0.35684,0.53306 0.35684,0.87086 0,0.18332 -0.022998,0.3252 -0.070961,0.43467 L 6.178777,4.05098 6.131724,3.65574 C 6.092591,3.32504 5.971014,2.84952 5.839484,2.51174 5.834624,2.499309 5.833634,2.491609 5.836434,2.488341 Z" />
  </g>
  <g
     transform="matrix(0.59261,0,0,0.59261,7.3004,9.52)"
     id="archlinux">
    <circle
       id="circle34"
       style="opacity:0;stroke-width:1.625;paint-order:stroke markers fill"
       r="7.1436"
       cy="2.8228999e-07"
       cx="8.4665003" />
    <path
       style="fill:#ffffff;fill-rule:evenodd;stroke-width:1.6875"
       inkscape:connector-curvature="0"
       id="path36"
       d="m 8.466,-4.6975 c -0.377,0.924 -0.604,1.529 -1.024,2.425 0.257,0.273 0.573,0.59 1.086,0.95 -0.551,-0.227 -0.928,-0.455 -1.209,-0.692 -0.537,1.121 -1.378,2.717 -3.086,5.785 1.342,-0.774 2.383,-1.252 3.352,-1.434 A 2.457,2.457 0 0 1 7.522,1.7615 l 10e-4,-0.043 c 0.022,-0.86 0.469,-1.521 0.999,-1.476 0.53,0.045 0.941,0.779 0.92,1.638 a 2.427,2.427 0 0 1 -0.054,0.462 c 0.959,0.188 1.988,0.664 3.312,1.428 -0.261,-0.48 -0.494,-0.913 -0.717,-1.326 -0.35,-0.272 -0.716,-0.625 -1.461,-1.008 0.512,0.133 0.88,0.287 1.165,0.459 -2.262,-4.212 -2.445,-4.772 -3.221,-6.593 z" />
  </g>
  <g
     transform="matrix(0.59258,0,0,0.59258,20.383,-161.463)"
     id="chakra">
    <g
       style="stroke-width:1.56480002"
       id="g41"
       transform="matrix(1.0385,0,0,1.0385,-0.32619,-11.098)">
      <circle
         id="circle39"
         style="opacity:0;stroke-width:1.56480002;paint-order:stroke markers fill"
         r="6.8790002"
         cy="288.53"
         cx="8.467" />
    </g>
    <path
       style="fill:#ffffff;fill-rule:evenodd;stroke-width:1.6875"
       inkscape:connector-curvature="0"
       id="path43"
       d="m 8.665,284.42 c -0.944,0.03 2.513,4.66 -0.149,4.365 2.22,0.597 2.728,-2.186 2.275,-3.547 -0.45,-1.348 -0.683,-0.507 -2.021,-0.806 A 0.421,0.421 0 0 0 8.665,284.42 Z m -2.646,0.645 c -1.459,-0.002 -0.707,0.474 -1.414,1.618 -0.675,1.092 5.333,-0.864 4.185,1.58 1.27,-1.866 -1.297,-3.196 -2.77,-3.198 z m 1.027,2.09 c -1.167,-10e-4 -2.342,1.286 -2.67,2.264 -0.454,1.347 0.245,0.8 1.146,1.806 0.861,0.96 0.802,-5.192 2.84,-3.377 -0.403,-0.492 -0.859,-0.691 -1.316,-0.692 z m 5.059,0.219 c -0.725,-0.055 -3.695,3.664 -4.185,1.32 0.1,2.234 2.983,1.844 4.176,1.005 1.182,-0.832 0.286,-0.787 0.165,-2.116 -0.012,-0.139 -0.067,-0.202 -0.156,-0.21 z m -4.28,0.74 c -2.158,0.785 -0.885,3.326 0.306,4.168 1.18,0.835 0.86,0.02 2.123,-0.5 1.207,-0.499 -4.837,-2.346 -2.43,-3.667 z" />
  </g>
  <g
     transform="matrix(0.59258,0,0,0.59258,33.465,-161.463)"
     id="debian">
    <g
       style="stroke-width:1.56480002"
       id="g48"
       transform="matrix(1.0385,0,0,1.0385,-0.32619,-11.098)">
      <circle
         id="circle46"
         style="opacity:0;stroke-width:1.56480002;paint-order:stroke markers fill"
         r="6.8790002"
         cy="288.53"
         cx="8.467" />
    </g>
    <path
       style="fill:#ffffff;stroke-width:1.6875"
       inkscape:connector-curvature="0"
       id="path50"
       d="m 11.077,287.92 c 0.009,0.229 -0.066,0.34 -0.134,0.536 l -0.122,0.06 c -0.1,0.195 0.01,0.124 -0.062,0.278 -0.156,0.14 -0.474,0.434 -0.575,0.461 -0.074,0 0.05,-0.087 0.066,-0.12 -0.208,0.143 -0.167,0.215 -0.487,0.302 l -0.01,-0.021 c -0.787,0.37 -1.881,-0.364 -1.867,-1.366 -0.008,0.064 -0.024,0.048 -0.041,0.073 -0.04,-0.515 0.238,-1.033 0.708,-1.245 0.46,-0.227 1,-0.134 1.328,0.173 -0.18,-0.237 -0.54,-0.488 -0.967,-0.465 -0.418,0.006 -0.81,0.273 -0.94,0.561 -0.214,0.135 -0.239,0.52 -0.332,0.59 -0.126,0.924 0.236,1.322 0.848,1.791 0.096,0.065 0.027,0.075 0.04,0.125 a 1.66,1.66 0 0 1 -0.543,-0.415 c 0.082,0.119 0.17,0.234 0.283,0.325 -0.192,-0.065 -0.448,-0.465 -0.523,-0.481 0.33,0.592 1.34,1.038 1.87,0.816 -0.245,0.01 -0.556,0.005 -0.831,-0.096 -0.116,-0.06 -0.273,-0.183 -0.245,-0.206 0.722,0.27 1.468,0.204 2.093,-0.296 0.159,-0.124 0.333,-0.335 0.383,-0.338 -0.076,0.114 0.013,0.055 -0.045,0.155 0.158,-0.255 -0.07,-0.104 0.163,-0.44 l 0.086,0.118 c -0.032,-0.213 0.263,-0.47 0.233,-0.805 0.068,-0.103 0.076,0.11 0.004,0.346 0.1,-0.262 0.026,-0.304 0.052,-0.52 0.028,0.073 0.064,0.15 0.083,0.227 -0.065,-0.253 0.066,-0.426 0.099,-0.573 -0.032,-0.014 -0.1,0.112 -0.116,-0.187 0.003,-0.13 0.036,-0.068 0.05,-0.1 -0.026,-0.015 -0.093,-0.114 -0.134,-0.305 0.03,-0.045 0.079,0.116 0.12,0.123 -0.027,-0.152 -0.071,-0.267 -0.073,-0.384 -0.117,-0.245 -0.041,0.033 -0.136,-0.105 -0.125,-0.389 0.103,-0.09 0.119,-0.267 0.188,0.274 0.296,0.698 0.346,0.874 a 3.575,3.575 0 0 0 -0.174,-0.623 c 0.058,0.024 -0.092,-0.44 0.075,-0.133 -0.178,-0.656 -0.764,-1.27 -1.302,-1.558 0.065,0.06 0.149,0.136 0.119,0.148 -0.268,-0.16 -0.221,-0.172 -0.26,-0.24 -0.217,-0.088 -0.232,0.008 -0.376,0 -0.411,-0.218 -0.49,-0.194 -0.87,-0.33 l 0.018,0.08 c -0.272,-0.091 -0.317,0.034 -0.612,0 -0.018,-0.014 0.095,-0.05 0.187,-0.064 -0.263,0.035 -0.251,-0.052 -0.509,0.009 0.064,-0.045 0.13,-0.074 0.199,-0.112 -0.215,0.013 -0.513,0.125 -0.421,0.023 -0.35,0.156 -0.973,0.376 -1.322,0.703 l -0.011,-0.073 c -0.16,0.192 -0.698,0.574 -0.74,0.823 l -0.044,0.01 c -0.083,0.14 -0.137,0.3 -0.203,0.445 -0.109,0.186 -0.16,0.072 -0.144,0.1 -0.214,0.435 -0.32,0.8 -0.412,1.1 0.065,0.097 0,0.589 0.026,0.982 -0.108,1.943 1.363,3.829 2.971,4.264 0.236,0.085 0.586,0.081 0.884,0.09 -0.351,-0.1 -0.397,-0.054 -0.74,-0.173 -0.247,-0.116 -0.3,-0.25 -0.476,-0.401 l 0.07,0.122 c -0.344,-0.121 -0.2,-0.15 -0.48,-0.238 l 0.074,-0.097 c -0.11,-0.008 -0.294,-0.187 -0.344,-0.287 l -0.122,0.005 c -0.146,-0.18 -0.224,-0.31 -0.219,-0.41 l -0.039,0.07 c -0.044,-0.077 -0.538,-0.678 -0.282,-0.538 -0.048,-0.043 -0.11,-0.07 -0.18,-0.195 l 0.053,-0.06 c -0.123,-0.158 -0.227,-0.361 -0.22,-0.43 0.067,0.09 0.112,0.106 0.157,0.121 -0.31,-0.772 -0.328,-0.042 -0.564,-0.785 l 0.05,-0.004 c -0.038,-0.058 -0.062,-0.12 -0.092,-0.182 l 0.021,-0.216 c -0.224,-0.259 -0.062,-1.101 -0.03,-1.563 0.022,-0.188 0.187,-0.388 0.312,-0.702 L 5.82,286.787 c 0.146,-0.254 0.832,-1.02 1.15,-0.981 0.155,-0.194 -0.03,0 -0.06,-0.05 0.338,-0.35 0.445,-0.247 0.673,-0.31 0.246,-0.146 -0.211,0.057 -0.095,-0.056 0.426,-0.109 0.302,-0.247 0.857,-0.302 0.059,0.033 -0.136,0.051 -0.184,0.094 0.354,-0.173 1.122,-0.134 1.62,0.097 0.58,0.27 1.23,1.07 1.255,1.822 l 0.03,0.008 c -0.015,0.299 0.045,0.644 -0.06,0.962 l 0.071,-0.15" />
  </g>
  <g
     transform="matrix(0.59258,0,0,0.59258,72.712,-161.463)"
     id="deepin">
    <g
       style="stroke-width:1.56480002"
       id="g55"
       transform="matrix(1.0385,0,0,1.0385,-0.32619,-11.098)">
      <circle
         id="circle53"
         style="opacity:0;stroke-width:1.56480002;paint-order:stroke markers fill"
         r="6.8790002"
         cy="288.53"
         cx="8.467" />
    </g>
    <path
       style="fill:#ffffff;stroke-width:1.6875"
       inkscape:connector-curvature="0"
       id="path57"
       d="m 8.2,284.83 c -0.451,0.01 -0.42,0.091 -0.611,0.48 -0.308,0.624 -0.523,1.53 -0.479,2.065 0.047,0.571 0.2,0.944 0.497,1.222 0.355,0.338 0.79,0.294 1.156,-0.099 0.329,-0.353 0.45,-0.72 0.48,-1.52 0.017,-0.506 0.027,-0.567 0.065,-0.48 0.146,0.337 0.184,1.128 0.083,1.52 -0.084,0.325 -0.294,0.721 -0.463,0.877 -0.223,0.205 -0.463,0.298 -0.793,0.313 -0.222,0.01 -0.309,0.007 -0.48,-0.049 -0.438,-0.146 -0.979,-0.564 -1.289,-0.975 -0.441,-0.583 -0.88,-1.768 -0.992,-2.71 a 1.904,1.904 0 0 0 -0.065,-0.363 c -0.079,-0.09 -0.383,0.288 -0.479,0.595 -0.062,0.197 -0.066,0.29 -0.066,2.033 v 1.835 l 0.083,0.05 c 0.117,0.075 0.627,0.228 1.043,0.313 0.316,0.065 0.443,0.083 1.19,0.083 0.747,0 0.887,-0.02 1.174,-0.083 0.468,-0.103 0.817,-0.27 1.108,-0.562 0.409,-0.41 0.56,-0.826 0.562,-1.47 0,-0.429 -0.06,-0.771 -0.233,-1.109 -0.061,-0.123 -0.122,-0.224 -0.116,-0.231 0.039,-0.039 0.466,0.471 0.563,0.677 0.612,1.295 0.32,2.351 -0.943,3.404 -0.56,0.467 -1.528,1.108 -2.083,1.388 -0.194,0.097 -0.23,0.134 -0.182,0.182 0.012,0.012 0.978,0.022 2.148,0.016 l 2.133,-0.016 0.182,-0.083 c 0.368,-0.176 0.6,-0.436 0.71,-0.794 0.064,-0.204 0.066,-0.297 0.066,-2.809 0,-2.639 -0.004,-2.866 -0.115,-2.909 -0.026,-0.009 -0.275,0.019 -0.547,0.065 -0.3,0.054 -0.724,0.097 -1.09,0.117 -0.64,0.033 -0.962,0.095 -1.34,0.248 -0.35,0.143 -0.553,0.258 -0.744,0.413 -0.17,0.14 -0.194,0.158 -0.248,0.381 -0.076,0.307 -0.123,0.444 -0.249,0.611 -0.094,0.122 -0.185,0.182 -0.184,0.116 0.005,-0.118 0.112,-0.488 0.216,-0.695 0.307,-0.61 0.707,-1.047 1.488,-1.636 0.24,-0.183 0.446,-0.34 0.446,-0.365 0,-0.036 -0.174,-0.05 -0.96,-0.05 -0.28,0 -0.494,-0.002 -0.644,0 m 0.644,1.556 c 0.05,0 0.051,0.05 -0.016,0.546 -0.072,0.522 -0.26,0.94 -0.497,1.19 -0.167,0.177 -0.348,0.224 -0.478,0.131 a 0.53,0.53 0 0 1 -0.165,-0.313 c 0,-0.042 0.015,-0.044 0.065,-0.016 0.1,0.053 0.142,0.041 0.265,-0.066 0.205,-0.181 0.42,-0.7 0.53,-1.29 0.011,-0.068 0.2,-0.184 0.296,-0.184" />
  </g>
  <g
     transform="matrix(0.59258,0,0,0.59258,72.712,-135.497)"
     id="elementary">
    <g
       style="stroke-width:1.56480002"
       id="g62"
       transform="matrix(1.0385,0,0,1.0385,-0.32619,-11.098)">
      <circle
         id="circle60"
         style="opacity:0;stroke-width:1.56480002;paint-order:stroke markers fill"
         r="6.8790002"
         cy="288.53"
         cx="8.467" />
    </g>
    <path
       style="fill:#ffffff;stroke-width:2.20050001"
       inkscape:connector-curvature="0"
       id="path64"
       d="m 8.467,284.3 a 4.2335,4.2335 0 1 0 0,8.467 4.2335,4.2335 0 0 0 0,-8.467 z m 0,0.353 a 3.882,3.882 0 0 1 3.735,2.826 6.733,6.733 0 0 1 -1.645,2.145 c -0.33,0.285 -0.689,0.54 -1.086,0.719 -0.398,0.179 -0.835,0.28 -1.27,0.255 a 2.197,2.197 0 0 1 -0.936,-0.268 7.061,7.061 0 0 0 2.004,-1.616 c 0.368,-0.43 0.69,-0.92 0.813,-1.473 a 2,2 0 0 0 0.015,-0.843 1.558,1.558 0 0 0 -0.38,-0.748 1.526,1.526 0 0 0 -0.705,-0.418 1.854,1.854 0 0 0 -0.823,-0.03 c -0.545,0.1 -1.03,0.416 -1.42,0.809 -0.688,0.692 -1.113,1.67 -1.035,2.642 0.04,0.486 0.202,0.964 0.482,1.364 0.062,0.089 0.13,0.174 0.204,0.255 a 6.348,6.348 0 0 1 -1.255,0.3 3.88,3.88 0 0 1 3.302,-5.92 z m 0.024,0.784 c 0.273,0 0.548,0.083 0.765,0.247 0.197,0.148 0.342,0.36 0.424,0.59 0.083,0.232 0.104,0.484 0.076,0.728 -0.057,0.488 -0.303,0.936 -0.6,1.327 a 5.723,5.723 0 0 1 -2.25,1.75 2.004,2.004 0 0 1 -0.425,-0.521 c -0.231,-0.41 -0.307,-0.897 -0.262,-1.365 0.044,-0.468 0.205,-0.92 0.421,-1.338 0.25,-0.485 0.592,-0.944 1.07,-1.207 0.238,-0.132 0.509,-0.212 0.781,-0.211 z m 3.821,2.577 a 3.88,3.88 0 0 1 -6.837,2.992 c 0.44,-0.1 0.87,-0.243 1.281,-0.426 0.18,0.138 0.38,0.25 0.59,0.331 0.61,0.234 1.3,0.2 1.917,-0.014 0.616,-0.213 1.163,-0.596 1.64,-1.041 a 7.056,7.056 0 0 0 1.41,-1.842 z" />
  </g>
  <g
     transform="matrix(0.59258,0,0,0.59258,7.3004,-122.514)"
     id="fedora">
    <g
       style="stroke-width:1.56480002"
       id="g69"
       transform="matrix(1.0385,0,0,1.0385,-0.32619,-11.098)">
      <circle
         id="circle67"
         style="opacity:0;stroke-width:1.56480002;paint-order:stroke markers fill"
         r="6.8790002"
         cy="288.53"
         cx="8.467" />
    </g>
    <path
       style="fill:#ffffff;stroke-width:1.6875"
       inkscape:connector-curvature="0"
       id="path71"
       d="m 8.731,284.04 a 4.234,4.234 0 0 0 -4.233,4.231 v 3.579 c 0,0.364 0.293,0.657 0.657,0.657 H 8.733 A 4.2335001,4.2335001 0 0 0 8.731,284.04 Z m 1.276,0.928 c 0.17,0 0.291,0.02 0.448,0.06 0.23,0.06 0.417,0.249 0.417,0.468 0,0.264 -0.191,0.457 -0.479,0.457 -0.136,0 -0.186,-0.027 -0.386,-0.027 -0.591,0 -1.07,0.48 -1.071,1.07 v 0.926 c 0,0.084 0.067,0.152 0.15,0.152 h 0.705 a 0.4725,0.4725 0 1 1 0,0.945 H 8.936 v 1.081 a 2.03,2.03 0 0 1 -2.03,2.03 c -0.17,0 -0.291,-0.02 -0.448,-0.061 -0.23,-0.06 -0.418,-0.248 -0.418,-0.467 0,-0.265 0.192,-0.457 0.48,-0.457 0.136,0 0.186,0.026 0.386,0.026 0.591,0 1.07,-0.479 1.071,-1.07 v -0.93 A 0.151,0.151 0 0 0 7.826,289.019 H 7.122 a 0.47251,0.47251 0 1 1 0.005,-0.945 h 0.85 v -1.076 a 2.03,2.03 0 0 1 2.03,-2.03 z" />
  </g>
  <g
     transform="matrix(0.59258,0,0,0.59258,20.383,-122.514)"
     id="gentoo">
    <g
       style="stroke-width:1.56480002"
       id="g76"
       transform="matrix(1.0385,0,0,1.0385,-0.32619,-11.098)">
      <circle
         id="circle74"
         style="opacity:0;stroke-width:1.56480002;paint-order:stroke markers fill"
         r="6.8790002"
         cy="288.53"
         cx="8.467" />
    </g>
    <path
       style="fill:#ffffff;fill-rule:evenodd;stroke-width:1.6875"
       inkscape:connector-curvature="0"
       id="path78"
       d="m 7.592,284.3 c -1.818,0.086 -3.241,1.735 -3.168,2.631 0.07,0.873 2.281,1.639 2.255,1.665 -0.452,0.382 -0.75,0.64 -1.128,0.985 -0.908,0.83 -1.535,1.445 -1.217,2.309 0.367,0.996 1.17,0.955 2.112,0.77 2.432,-0.48 6.433,-3.556 6.23,-4.69 -0.165,-0.919 -2.402,-2.734 -3.724,-3.384 A 2.798,2.798 0 0 0 7.592,284.3 Z m 0.376,1.575 c 0.227,-0.021 0.492,0.036 0.787,0.18 0.645,0.311 1.313,1.139 0,1.61 -0.357,0.128 -1.502,-0.308 -1.467,-0.913 0.031,-0.558 0.3,-0.841 0.68,-0.877 z" />
  </g>
  <g
     style="stroke-width:0.875"
     transform="matrix(0.30238,0,0,0.30238,33.644,43.63)"
     id="gnu-linux">
    <circle
       id="circle81"
       style="opacity:0;stroke-width:0.875;paint-order:stroke fill markers"
       r="14"
       cy="16"
       cx="16" />
    <g
       style="fill:#ffffff"
       id="g97"
       transform="matrix(0.35714,0,0,0.35714,6.1499,3.857)">
      <path
         style="stroke-width:0.99998999"
         inkscape:connector-curvature="0"
         id="path83"
         d="m 162.19,164.11 c -1.4914,0.0776 -2.9454,0.67059 -3.0352,3.291 -0.0408,1.2 0.24114,2.4375 -0.0527,3.6016 -0.68162,2.7004 -3.6778,4.6314 -3.8574,7.4102 -0.0356,0.55142 -0.0251,1.1406 0.0137,1.7363 0.1658,-0.2306 0.33966,-0.44121 0.60157,-0.50195 0.38856,-0.0898 0.82505,0.13365 1.1328,0.38672 0.70285,0.57795 0.80981,1.6439 1.3633,2.3672 0.0503,0.0656 0.11352,0.12065 0.17187,0.17969 1.0641,0.53663 1.9822,0.64695 1.5371,0.10352 l -2.6894,-3.2852 c 0.0996,-0.54367 0.24509,-1.0838 0.35938,-1.625 0.2824,-1.3404 1.2249,-2.748 1.5996,-3.8223 0.37469,-1.0743 -0.13972,-1.8171 0.73047,-2.582 0.54367,-0.47754 1.619,-0.87091 2.623,-0.92968 a 4.1371,4.1371 0 0 1 0.41406,-0.006 4.1371,4.1371 0 0 1 0.0312,0.002 c 0.43592,0.022 0.83692,0.12049 1.1504,0.31641 1.1143,0.69713 0.69588,2.487 1.0918,3.4551 0.3951,0.9682 0.82697,1.2746 1.1992,2.3652 0.21469,0.62534 0.64273,1.3702 0.85742,2.2012 -0.35673,-0.0571 -0.77138,-0.0339 -0.96484,0.23633 -0.18601,0.26048 -0.22556,0.5488 -0.18164,0.82422 6.8e-4,-6.1e-4 0.001,-0.001 0.002,-0.002 h 0.002 c 0.10286,0.48898 0.54648,0.99702 0.99219,1.1211 0.52653,0.14612 1.2922,-0.1975 1.5273,-0.70117 0.35193,0.009 0.71116,-9.6e-4 1.0137,0.10547 0.13171,-0.65529 0.19732,-1.3139 0.1875,-1.9453 -0.0441,-2.7608 -3.0956,-4.688 -3.8066,-7.3574 -0.30526,-1.1445 -0.0963,-2.3679 -0.15429,-3.5508 -0.12245,-2.4719 -2.1484,-3.4843 -3.8594,-3.3945 z m 1.1035,3.1504 a 1.2098,1.5641 0 0 1 1.209,1.5625 1.2098,1.5641 0 0 1 -1.209,1.5644 1.2098,1.5641 0 0 1 -1.2109,-1.5644 1.2098,1.5641 0 0 1 1.2109,-1.5625 z m -2.8652,0.34375 a 0.85469,1.2735 0 0 1 0.85352,1.2734 0.85469,1.2735 0 0 1 -0.85352,1.2734 0.85469,1.2735 0 0 1 -0.85546,-1.2734 0.85469,1.2735 0 0 1 0.85546,-1.2734 z m 4.9707,15.684 c -0.90958,0.75835 -1.984,1.3322 -2.9707,1.3984 -0.91905,0.0619 -1.8409,-0.24866 -2.6465,-0.73633 0.26726,0.51125 0.51483,1.1094 0.27148,1.5898 -0.20879,0.41183 -0.63105,0.65935 -1.1074,0.81445 1.1293,0.0214 2.4178,-0.81151 3.6035,-0.89258 0.69721,-0.0471 1.4487,0.15584 2.1719,0.26758 -0.0246,-0.33474 0.0163,-0.69455 0.0547,-1.0059 0.064,-0.51767 0.41789,-0.95249 0.62305,-1.4356 z"
         transform="matrix(2.45,0,0,2.45,-369.55,-396.05)" />
      <ellipse
         style="stroke-width:2.45000005"
         id="ellipse85"
         ry="2.006"
         rx="1.214"
         cy="18.188"
         cx="30.152" />
      <ellipse
         style="stroke-width:2.45000005"
         id="ellipse87"
         ry="1.494"
         rx="0.92400998"
         cy="18.188"
         cx="23.51" />
      <g
         style="stroke-width:2.45000005"
         id="g95">
        <path
           style="opacity:0.75"
           inkscape:connector-curvature="0"
           id="path89"
           d="m 9.6657,46.73 c 0.97401,-0.78001 1.43,-2.366 2.646,-2.648 0.95201,-0.22 2.02,0.326 2.774,0.94601 1.722,1.416 1.984,4.028 3.34,5.8001 0.90401,1.178 2.436,1.848 3.152,3.15 0.74601,1.36 1.708,3.156 1.008,4.538 -0.94401,1.862 -3.648,2.44 -5.7361,2.52 -1.268,0.05 -2.37,-0.92001 -3.592,-1.26 -1.78,-0.496 -3.834,-0.19 -5.4201,-1.134 -1.256,-0.74601 -2.744,-1.882 -2.836,-3.34 -0.038,-0.57601 0.80401,-0.89001 0.94401,-1.45 0.372,-1.472 -1.054,-3.18 -0.378,-4.54 0.72001,-1.444 2.836,-1.574 4.098,-2.582 z" />
        <path
           style="opacity:0.75"
           inkscape:connector-curvature="0"
           id="path91"
           d="m 37.86,44.538 c -0.402,0.36 -0.74201,0.81401 -0.99001,1.264 -1.076,1.954 -0.35,4.48 -0.95401,6.6261 -0.404,1.43 -1.578,2.62 -1.76,4.092 -0.19,1.54 -0.42,3.564 0.74201,4.59 1.568,1.38 4.294,0.91401 6.2621,0.216 1.198,-0.424 1.86,-1.732 2.87,-2.5 1.468,-1.12 3.49,-1.6 4.614,-3.062 0.89001,-1.16 1.854,-2.764 1.4,-4.152 -0.18,-0.54801 -1.076,-0.53001 -1.414,-0.99801 -0.89001,-1.23 -0.2,-3.34 -1.33,-4.352 -0.84001,-0.75001 -2.074,-0.66401 -3.266,-0.69601 -0.57601,1.234 -2.452,2.074 -3.742,1.716 -1.092,-0.304 -2.18,-1.546 -2.432,-2.744 z" />
        <path
           inkscape:connector-curvature="0"
           id="path93"
           d="m 26.462,18.304 c 1.318,-0.07 2.53,0.78401 3.72,1.354 1.15,0.55401 3.114,0.72001 3.276,1.986 0.186,1.438 -1.84,2.286 -3.024,3.12 -1.058,0.74601 -2.238,1.62 -3.53,1.608 -1.306,-0.014 -2.462,-0.95001 -3.53,-1.702 -0.88001,-0.62001 -2.266,-1.192 -2.3,-2.27 -0.038,-1.152 1.38,-1.886 2.3,-2.584 0.91201,-0.69201 1.944,-1.452 3.088,-1.512 z" />
      </g>
    </g>
  </g>
  <g
     transform="matrix(0.59258,0,0,0.59258,46.547,43.45)"
     id="kali">
    <g
       style="stroke-width:1.625"
       id="g102"
       transform="matrix(1.0385,0,0,1.0385,-0.32619,-0.32516)">
      <path
         style="opacity:0;stroke-width:1.625"
         inkscape:connector-curvature="0"
         id="path100"
         d="m 8.467,1.587 a 6.879,6.879 0 1 1 0,13.758 6.879,6.879 0 0 1 0,-13.758 z" />
    </g>
    <path
       style="fill:#ffffff;stroke-width:1.6875"
       inkscape:connector-curvature="0"
       id="path104"
       d="M 7.818,3.76 C 8.042,4.359 8.308,5.041 8.705,5.56 8.268,5.344 7.782,5.2 7.402,4.892 c 0.047,0.12 0.03,0.249 0.026,0.35 A 5.317,5.317 0 0 1 6.476,4.865 c 0.08,0.15 0.093,0.31 0.073,0.45 C 6.223,5.345 5.87,5.243 5.569,5.189 5.707,5.314 5.772,5.479 5.828,5.645 5.506,5.701 5.174,5.76 4.848,5.791 4.986,5.884 5.088,6.019 5.167,6.148 4.914,6.36 4.594,6.551 4.333,6.711 A 0.638,0.638 0 0 1 4.796,6.836 9.444,9.444 0 0 1 4.233,7.716 C 4.397,7.677 4.545,7.643 4.723,7.643 4.661,7.995 4.617,8.363 4.485,8.695 4.632,8.588 4.791,8.534 4.955,8.477 5.112,8.744 5.128,9.18 5.186,9.415 a 0.498,0.498 0 0 1 0.258,-0.29 c 1.78,1.748 4.71,1.442 4.967,4.034 0.08,-1.01 -0.398,-1.724 -0.952,-2.215 C 8.999,10.536 6.904,9.566 6.806,9.502 5.005,8.308 5.248,6.695 6.516,6.287 a 2.727,2.727 0 0 1 3.015,0.946 c 0.176,0.223 0.427,0.631 0.662,0.807 0.445,0.334 2.036,1.109 1.409,2.03 C 12.147,9.93 12.563,9.54 12.7,8.993 12.273,8.81 11.63,8.423 11.681,7.881 11.743,7.855 11.811,7.861 11.88,7.861 10.444,5.361 10.061,6.231 8.619,3.906 8.799,4.55 9.191,5.344 9.663,5.785 8.88,5.315 8.372,4.472 7.818,3.76 Z m 2.95,3.155 c 0.163,0.227 0.3,0.48 0.496,0.675 -0.19,-0.066 -0.945,-0.563 -0.496,-0.675 z" />
  </g>
  <g
     transform="matrix(0.59258,0,0,0.59258,59.629,48.47)"
     id="korora">
    <g
       style="stroke-width:1.56480002"
       id="g109"
       transform="matrix(1.0385,0,0,1.0385,-0.41232,-8.7922)">
      <path
         style="opacity:0;stroke-width:1.56480002"
         inkscape:connector-curvature="0"
         id="path107"
         d="m 8.467,1.588 a 6.879,6.879 0 1 1 0,13.757 6.879,6.879 0 0 1 0,-13.757 z" />
    </g>
    <path
       style="fill:#ffffff;stroke-width:1.6875"
       inkscape:connector-curvature="0"
       id="path111"
       d="m 9.596,-4.2335 a 3.104,3.104 0 0 0 -3.01,2.355 3.104,3.104 0 0 0 -2.353,3.008 v 3.104 h 3.105 a 3.104,3.104 0 0 0 3.01,-2.354 3.104,3.104 0 0 0 2.352,-3.008 v -3.105 z m 0,0.444 h 2.66 v 2.66 a 2.661,2.661 0 0 1 -1.827,2.524 3.104,3.104 0 0 0 0.013,-0.265 3.104,3.104 0 0 0 -3.104,-3.106 3.104,3.104 0 0 0 -0.268,0.013 2.661,2.661 0 0 1 2.526,-1.827 z m -2.258,2.258 a 2.661,2.661 0 0 1 2.66,2.66 2.661,2.661 0 0 1 -0.03,0.374 2.661,2.661 0 0 1 -0.372,0.03 2.661,2.661 0 0 1 -2.661,-2.661 2.661,2.661 0 0 1 0.03,-0.374 2.661,2.661 0 0 1 0.373,-0.03 z m -0.834,0.137 a 3.104,3.104 0 0 0 -0.013,0.266 3.104,3.104 0 0 0 3.105,3.104 3.104,3.104 0 0 0 0.267,-0.013 2.661,2.661 0 0 1 -2.525,1.827 h -2.66 v -2.66 a 2.661,2.661 0 0 1 1.826,-2.524 z" />
  </g>
  <g
     transform="matrix(0.59258,0,0,0.59258,59.629,9.52)"
     id="kubuntu">
    <g
       style="stroke-width:1.56480002"
       id="g116"
       transform="matrix(1.0385,0,0,1.0385,-0.41232,-8.7922)">
      <path
         style="opacity:0;stroke-width:1.56480002"
         inkscape:connector-curvature="0"
         id="path114"
         d="m 8.467,1.588 a 6.879,6.879 0 1 1 0,13.757 6.879,6.879 0 0 1 0,-13.757 z" />
    </g>
    <path
       style="fill:#ffffff;stroke-width:1.6875"
       inkscape:connector-curvature="0"
       id="path118"
       d="m 8.467,-4.2335 a 4.2335,4.2335 0 1 0 0,8.467 4.2335,4.2335 0 0 0 0,-8.467 z m -0.257,0.85 c 0.02,0.002 0.037,0.014 0.046,0.032 l 0.418,0.879 c 0.203,0.006 0.408,0.041 0.607,0.105 l 0.671,-0.671 a 0.056,0.056 0 0 1 0.07,-0.008 l 0.534,0.325 a 0.057,0.057 0 0 1 0.024,0.068 l -0.324,0.914 c 0.122,0.136 0.226,0.285 0.31,0.444 h 0.997 c 0.027,0 0.05,0.019 0.056,0.044 l 0.148,0.608 a 0.057,0.057 0 0 1 -0.03,0.065 l -1.25,0.273 a 2.044,2.044 0 0 0 -2.67,-1.631 l -0.01,-0.006 -0.268,-1.236 c 0,-0.026 0.019,-0.049 0.044,-0.055 l 0.607,-0.148 c 0.007,-0.002 0.013,-0.002 0.02,-0.002 z m -1.98,0.894 a 0.056,0.056 0 0 1 0.037,0.01 l 0.95,0.865 A 2.038,2.038 0 0 0 7.08,1.4985 v 0.014 L 6.226,2.4555 A 0.058,0.058 0 0 1 6.156,2.4475 L 5.714,2.0065 A 0.057,0.057 0 0 1 5.707,1.9345 L 6.241,1.1205 A 2.21,2.21 0 0 1 6.014,0.5475 L 5.092,0.3215 A 0.057,0.057 0 0 1 5.049,0.2665 v -0.625 c 0,-0.027 0.019,-0.05 0.045,-0.056 l 0.95,-0.198 c 0.053,-0.175 0.127,-0.342 0.218,-0.496 l -0.517,-0.852 a 0.057,0.057 0 0 1 0.008,-0.07 l 0.442,-0.442 a 0.055,0.055 0 0 1 0.035,-0.017 z m 4.232,2.93 1.24,0.278 c 0.022,0.012 0.034,0.04 0.027,0.065 l -0.162,0.603 a 0.057,0.057 0 0 1 -0.059,0.043 l -0.972,-0.057 a 2.21,2.21 0 0 1 -0.383,0.483 l 0.265,0.911 a 0.057,0.057 0 0 1 -0.026,0.065 L 9.85,3.1435 A 0.057,0.057 0 0 1 9.779,3.1325 L 9.133,2.4075 c -0.178,0.042 -0.359,0.062 -0.538,0.06 l -0.48,0.873 A 0.057,0.057 0 0 1 8.05,3.3685 L 7.446,3.2055 A 0.057,0.057 0 0 1 7.404,3.1475 L 7.73,1.9125 7.736,1.9095 a 2.044,2.044 0 0 0 2.726,-1.468 z" />
  </g>
  <g
     transform="matrix(0.59258,0,0,0.59258,7.3004,22.5)"
     id="linuxmint">
    <g
       style="stroke-width:1.56480002"
       id="g123"
       transform="matrix(1.0385,0,0,1.0385,-0.41232,-8.7922)">
      <path
         style="opacity:0;stroke-width:1.56480002"
         inkscape:connector-curvature="0"
         id="path121"
         d="m 8.467,1.588 a 6.879,6.879 0 1 1 0,13.757 6.879,6.879 0 0 1 0,-13.757 z" />
    </g>
    <path
       style="overflow:visible;fill:#ffffff;fill-rule:evenodd;stroke-width:1.6875"
       inkscape:connector-curvature="0"
       id="path125"
       overflow="visible"
       d="m 4.233,-3.7945 v 2.426 h 0.999 v 0.487 l 10e-4,1.91 c 0,1.573 1.366,2.767 2.94,2.767 H 12.7 v -4.802 c 0,-1.575 -1.365,-2.767 -2.94,-2.767 l -1.317,-0.003 z m 0.643,0.645 3.565,0.016 v 0.003 H 9.76 c 1.27,0 2.3,0.951 2.3,2.125 v 3.513 c 0,0.39 -0.352,0.645 -0.753,0.645 H 8.174 c -1.269,0 -2.298,-0.951 -2.298,-2.125 l -0.003,-2.408 a 0.635,0.635 0 0 0 -0.597,-0.629 h -0.4 z m 1.615,0.714 v 3.49 c 0,0.37 0.135,0.695 0.399,0.957 0.225,0.223 0.496,0.367 0.8,0.4 h 0.861 v -0.685 l -0.74,-0.003 c -0.358,0 -0.666,-0.35 -0.666,-0.799 v -3.36 z m 2.468,0.574 c -0.298,0 -0.562,0.11 -0.775,0.325 a 1.087,1.087 0 0 0 -0.323,0.784 v 1.526 h 0.692 v -1.526 c 0,-0.116 0.038,-0.207 0.12,-0.29 a 0.375,0.375 0 0 1 0.286,-0.122 c 0.116,0 0.203,0.038 0.286,0.122 0.083,0.083 0.12,0.174 0.12,0.29 v 1.526 h 0.693 v -1.526 c 0,-0.116 0.038,-0.207 0.12,-0.29 a 0.374,0.374 0 0 1 0.286,-0.122 c 0.114,0 0.202,0.038 0.285,0.122 0.083,0.083 0.12,0.174 0.12,0.29 l 0.005,1.518 h 0.69 l -0.002,-1.518 c 0,-0.302 -0.11,-0.57 -0.323,-0.784 a 1.062,1.062 0 0 0 -0.775,-0.325 c -0.292,0 -0.547,0.108 -0.753,0.307 a 1.057,1.057 0 0 0 -0.752,-0.307 z" />
  </g>
  <g
     transform="matrix(0.59258,0,0,0.59258,20.383,17.49)"
     id="lubuntu">
    <g
       style="stroke-width:1.56480002"
       id="g130"
       transform="matrix(1.0385,0,0,1.0385,-0.41232,-0.32567)">
      <path
         style="opacity:0;stroke-width:1.56480002"
         inkscape:connector-curvature="0"
         id="path128"
         d="m 8.467,1.588 a 6.879,6.879 0 1 1 0,13.757 6.879,6.879 0 0 1 0,-13.757 z" />
    </g>
    <path
       style="overflow:visible;fill:#ffffff;fill-rule:evenodd;stroke-width:1.6875"
       inkscape:connector-curvature="0"
       id="path132"
       overflow="visible"
       d="M 8.467,4.233 A 4.23,4.23 0 0 0 4.242,8.301 C 5.645,7.311 8.032,5.686 8.624,5.643 8.82,5.394 9.496,5.193 9.618,5.198 L 9.263,5.643 c 0,0 -0.006,0.45 -0.137,0.537 1.223,0.817 1.807,3.75 2.057,5.53 l -0.105,0.084 A 4.222,4.222 0 0 0 12.7,8.467 4.233,4.233 0 0 0 8.467,4.233 Z m -0.06,3.478 c -0.33,0.01 -0.998,0.993 -1.76,2.045 -0.366,0.506 -0.84,1.198 -1.19,1.678 L 5.207,11.159 C 5.923,9.985 6.816,8.552 6.773,8.499 6.763,8.494 6.752,8.486 6.738,8.489 6.496,8.525 5.52,9.74 4.823,10.614 A 4.228,4.228 0 0 0 8.467,12.7 c 0.943,0 1.81,-0.312 2.514,-0.833 C 10.46,10.274 9.453,7.729 8.441,7.723 8.431,7.721 8.417,7.711 8.407,7.711 Z M 5.95,8.123 C 5.65,8.121 4.88,8.393 4.242,8.638 4.267,9.27 4.429,9.865 4.702,10.395 4.83,10.201 5.052,9.883 5.185,9.688 5.692,8.942 6.191,8.282 6.075,8.146 6.055,8.123 6.009,8.123 5.95,8.123 Z M 4.237,8.39 c 0,0.026 -0.004,0.05 -0.004,0.077 0,0.035 0.005,0.07 0.006,0.105 z m 0.473,2.022 c 0.026,0.051 0.054,0.101 0.082,0.151 z" />
  </g>
  <g
     transform="matrix(0.59258,0,0,0.59258,33.465,22.5)"
     id="mageia">
    <g
       style="stroke-width:1.56480002"
       id="g137"
       transform="matrix(1.0385,0,0,1.0385,-0.41232,-8.7922)">
      <path
         style="opacity:0;stroke-width:1.56480002"
         inkscape:connector-curvature="0"
         id="path135"
         d="m 8.467,1.588 a 6.879,6.879 0 1 1 0,13.757 6.879,6.879 0 0 1 0,-13.757 z" />
    </g>
    <g
       style="fill:#f9f9f9;stroke-width:1.26569998"
       id="g141"
       transform="translate(0,-8.4665)">
      <path
         style="stroke-width:1.26569998"
         inkscape:connector-curvature="0"
         id="path139"
         d="m 6.767,7.392 a 0.465,0.465 0 0 0 -0.296,0.105 3.233,3.233 0 0 0 -1.18,2.507 c 0,1.778 1.426,3.224 3.176,3.224 1.75,0 3.175,-1.446 3.175,-3.224 0,-0.978 -0.43,-1.892 -1.18,-2.507 a 0.468,0.468 0 0 0 -0.591,0 2.187,2.187 0 0 1 -1.404,0.506 c -0.515,0 -1,-0.174 -1.403,-0.506 A 0.47,0.47 0 0 0 6.767,7.392 Z M 6.97,8.559 c 0.43,0.282 0.956,0.436 1.497,0.436 0.541,0 1.069,-0.154 1.497,-0.436 a 2.116,2.116 0 1 1 -2.994,0 z M 8.114,3.705 a 0.35350035,0.35350035 0 1 0 10e-4,0.707 0.3535,0.3535 0 0 0 0,-0.707 z M 9.208,4.41 a 0.3535,0.3535 0 1 0 0,0.707 0.3535,0.3535 0 0 0 0,-0.707 z M 8.29,4.763 a 0.53,0.53 0 0 0 0,1.058 0.53,0.53 0 0 0 0,-1.058 z m 1.06,1.058 a 0.53,0.53 0 0 0 0,1.059 0.53,0.53 0 0 0 0,-1.059 z M 7.586,6.174 a 0.53,0.53 0 0 0 0,1.058 0.53,0.53 0 0 0 0,-1.058 z" />
    </g>
  </g>
  <g
     transform="matrix(0.59264,0,0,0.59258,46.547,22.5)"
     id="manjaro">
    <g
       style="stroke-width:1.56490004"
       id="g146"
       transform="matrix(1.0384,0,0,1.0385,-0.32571,-8.7917)">
      <path
         style="opacity:0;stroke-width:1.56490004"
         inkscape:connector-curvature="0"
         id="path144"
         d="M 27,-5 C 41.36,-5 53,6.64 53,21 53,35.36 41.36,47 27,47 12.64,47 1,35.36 1,21 1,6.64 12.64,-5 27,-5 Z"
         transform="matrix(0.26458,0,0,0.26458,1.323,2.91)" />
    </g>
    <path
       style="fill:#ffffff;fill-rule:evenodd;stroke-width:1.26559997"
       inkscape:connector-curvature="0"
       id="path148"
       d="m 4.6546,-4.1915 v 2.3853 H 4.65587 L 4.6546,-1.06606 h 2.2323 v -0.89299 h 2.6787 v -2.2325 l -4.911,0.00667 m 5.8039,-0.00667 v 8.0369 l 2.2323,-2.848e-4 v -8.0364 m -4.911,3.1252 v 4.9114 h 1.7858 v -4.9114 m -4.911,0.89299 c -1.73e-5,4.4879 8.467e-4,2.5953 0.00127,4.0185 h 2.231 v -4.0185" />
  </g>
  <g
     transform="matrix(0.59258,0,0,0.59258,59.629,22.5)"
     id="opensuse">
    <g
       style="stroke-width:1.625"
       id="g153"
       transform="matrix(1.0385,0,0,1.0385,-0.41232,-8.7922)">
      <path
         style="opacity:0;stroke-width:1.625"
         inkscape:connector-curvature="0"
         id="path151"
         d="m 8.467,1.588 a 6.879,6.879 0 1 1 0,13.757 6.879,6.879 0 0 1 0,-13.757 z" />
    </g>
    <path
       style="overflow:visible;fill:#ffffff;stroke-width:1.6875"
       inkscape:connector-curvature="0"
       id="path155"
       overflow="visible"
       d="m 8.467,-4.2335 a 4.2335,4.2335 0 1 0 0,8.467 4.2335,4.2335 0 0 0 0,-8.467 z m 0,0.941 a 3.293,3.293 0 1 1 0,6.585 3.268,3.268 0 0 1 -2.235,-0.882 c 0.19,-0.026 0.49,-0.03 0.882,0.015 0.573,0.065 0.887,0.087 1.264,0.059 0.86,-0.065 1.428,-0.207 2.058,-0.515 0.33,-0.16 0.4,-0.233 0.47,-0.426 0.069,-0.183 0.094,-0.353 0.06,-0.353 -0.013,0 -0.121,0.042 -0.25,0.103 -0.485,0.23 -0.91,0.343 -1.28,0.324 C 9.053,1.5975 8.434,1.3735 7.688,1.0145 L 7.335,0.8525 7.07,0.1915 7.32,0.3525 a 7.425,7.425 0 0 0 1.544,0.75 c 0.642,0.203 1.143,0.175 1.66,-0.088 0.183,-0.093 0.53,-0.32 0.53,-0.353 0,-0.06 -0.178,-0.656 -0.28,-0.926 -0.254,-0.674 -0.433,-0.902 -0.852,-1.102 -0.466,-0.222 -0.982,-0.373 -1.926,-0.588 -0.45,-0.096 -0.894,-0.193 -1.352,-0.25 l -0.015,0.558 a 15.22,15.22 0 0 0 -0.867,-0.235 3.3,3.3 0 0 1 2.705,-1.41 z m 0.779,2.381 a 0.7,0.7 0 0 1 0.69,0.544 c 0.045,0.175 0.031,0.3 -0.058,0.485 A 0.676,0.676 0 0 1 9.143,0.4855 0.687,0.687 0 0 1 8.628,0.0885 c -0.122,-0.265 -0.065,-0.617 0.147,-0.809 a 0.727,0.727 0 0 1 0.47,-0.19 z m 0.161,0.368 c -0.246,0 -0.4,0.18 -0.264,0.308 0.11,0.104 0.294,0.12 0.44,0.045 0.096,-0.049 0.128,-0.123 0.104,-0.22 -0.018,-0.073 -0.16,-0.133 -0.28,-0.133 z" />
  </g>
  <g
     transform="matrix(0.59258,0,0,0.59258,59.629,30.47)"
     id="siduction">
    <g
       style="stroke-width:1.56480002"
       id="g160"
       transform="matrix(1.0385,0,0,1.0385,-0.41232,-0.32567)">
      <path
         style="opacity:0;stroke-width:1.56480002"
         inkscape:connector-curvature="0"
         id="path158"
         d="m 8.467,1.588 a 6.879,6.879 0 1 1 0,13.757 6.879,6.879 0 0 1 0,-13.757 z" />
    </g>
    <g
       style="fill:#fbfdfc;fill-rule:evenodd;stroke-width:1.6875"
       id="g180">
      <circle
         id="circle162"
         style="paint-order:fill markers stroke"
         r="0.79373002"
         cy="5.5560999"
         cx="8.4665003" />
      <circle
         id="circle164"
         style="paint-order:fill markers stroke"
         r="0.79373002"
         cy="8.4665003"
         cx="8.4665003" />
      <circle
         id="circle166"
         style="paint-order:fill markers stroke"
         r="0.79373002"
         cy="11.377"
         cx="8.4665003" />
      <circle
         id="circle168"
         style="paint-order:fill markers stroke"
         r="0.79373002"
         cy="8.4665003"
         cx="5.2916002" />
      <circle
         id="circle170"
         style="paint-order:fill markers stroke"
         r="0.79373002"
         cy="8.4665003"
         cx="11.641" />
      <circle
         id="circle172"
         style="paint-order:fill markers stroke"
         r="0.79373002"
         cy="7.0058999"
         cx="6.8790002" />
      <circle
         id="circle174"
         style="paint-order:fill markers stroke"
         r="0.79373002"
         cy="9.9117002"
         cx="6.8790002" />
      <circle
         id="circle176"
         style="paint-order:fill markers stroke"
         r="0.79373002"
         cy="7.0058999"
         cx="10.054" />
      <circle
         id="circle178"
         style="paint-order:fill markers stroke"
         r="0.79373002"
         cy="9.9117002"
         cx="10.054" />
    </g>
  </g>
  <g
     style="stroke-width:0.9375"
     transform="matrix(1.0667,0,0,1.0667,7.8013,31.18)"
     id="solus">
    <g
       style="stroke-width:1.59350002"
       id="g185"
       transform="matrix(0.63633,0,0,0.63602,10.606,-179.78)">
      <ellipse
         style="opacity:0;stroke-width:1.59350002"
         id="ellipse183"
         ry="6.2399001"
         rx="6.2368002"
         cy="288.82999"
         cx="-10.093" />
    </g>
    <g
       style="fill:#ffffff"
       id="g193"
       transform="matrix(0.60062,0,0,0.60062,1.691,1.6111)">
      <path
         inkscape:connector-curvature="0"
         id="path187"
         style="color:#000000;text-indent:0;text-decoration:none;text-decoration-line:none;text-decoration-style:solid;text-decoration-color:#000000;text-transform:none;white-space:normal;isolation:auto;mix-blend-mode:normal;solid-color:#000000;fill-rule:evenodd;stroke-width:6.8045001"
         d="m 77.779,130.34 a 14.392,14.385 0 0 1 -0.002,0.006 c 0.0011,-0.001 0.0028,-0.002 0.0039,-0.004 z m -0.002,0.006 c -2.1813,2.9331 -6.2024,4.5021 -10.992,5.1992 -5.0025,0.72565 -10.801,0.50939 -15.973,0.0684 0.24628,0.36923 0.5192,0.73001 0.79883,1.0762 0.04798,0.004 0.09651,0.0116 0.14453,0.0156 5.0387,0.38213 10.152,0.55053 15.174,-0.1582 3.6109,-0.55485 7.1392,-1.8356 10.137,-3.9434 0.02208,-0.0194 0.04845,-0.0393 0.07031,-0.0586 a 14.392,14.385 0 0 0 0.64062,-2.1992 z"
         transform="matrix(0.24804,0,0,0.24804,-11.443,-27.333)" />
      <path
         style="opacity:0.5;stroke-width:2.65300012"
         inkscape:connector-curvature="0"
         id="path189"
         d="m -8.561,292.94 c -1.976,0.279 -3.988,0.21 -5.97,0.058 1.275,1.627 3.493,2.447 5.54,2.052 1.978,-0.34 3.71,-1.788 4.408,-3.666 -1.174,0.833 -2.56,1.338 -3.978,1.556 z"
         transform="matrix(0.63633,0,0,0.63602,10.606,-179.78)" />
      <path
         style="fill-rule:evenodd;stroke-width:1.69930005"
         inkscape:connector-curvature="0"
         id="path191"
         d="M 2.6925,0.12808 C 2.26603,1.86918 1.0381,4.00998 0.2654,5.37618 1.6126,5.70027 3.1079,5.79483 4.2667,5.90049 4.246485,5.63769 4.05151,2.77819 4.0039,2.22719 3.52721,1.36316 3.13987,0.91649 2.6926,0.12809 Z m 1.6394,2.2302 c 0.63251,1.3023 0.63251,2.5908 0.2628,3.5422 C 5.1164,5.90374 5.9674,5.961779 6.8901,5.50661 6.13172,3.77461 4.3319,2.35831 4.3319,2.35831 Z M 5.5787,3.14602 C 5.97061,3.40882 6.34491,3.64815 6.6279,3.93246 7.01133,4.3172 7.20762,4.83694 7.15286,5.37616 7.66673,5.11728 8.0071,4.68689 8.20276,4.32626 7.86041,4.0113 7.26702,3.70022 6.62796,3.47398 6.27582,3.34878 5.90416,3.23531 5.57806,3.14598 Z" />
    </g>
  </g>
  <g
     transform="matrix(1.1429,0,0,1.1429,20.562,30.65)"
     id="steamos">
    <path
       style="opacity:0;stroke-width:0.25165001"
       inkscape:connector-curvature="0"
       id="path196"
       d="m 4.2332,0.52916 c 2.0458,0 3.7041,1.6583 3.7041,3.7041 0,2.0458 -1.6583,3.7041 -3.7041,3.7041 -2.0458,0 -3.7041,-1.6583 -3.7041,-3.7041 0,-2.0458 1.6583,-3.7041 3.7041,-3.7041 z" />
    <g
       style="fill:#ffffff;stroke-width:1.42190003"
       id="g206"
       transform="matrix(0.16282,0,0,0.16282,0.32563,0.48845)">
      <path
         inkscape:connector-curvature="0"
         id="path198"
         d="m 26,18 v 9.625 l 3.684,0.957 4.287,-6.742 H 30.346 L 26,18" />
      <path
         inkscape:connector-curvature="0"
         id="path200"
         d="m 31,11 a 6,6 0 0 0 -6,6 6,6 0 0 0 6,6 6,6 0 0 0 6,-6 6,6 0 0 0 -6,-6 z m 0,2 a 4,4 0 0 1 4,4 4,4 0 0 1 -4,4 4,4 0 0 1 -4,-4 4,4 0 0 1 4,-4 z m 0,2 a 2,2 0 0 0 -2,2 2,2 0 0 0 2,2 2,2 0 0 0 2,-2 2,2 0 0 0 -2,-2 z m -16,6 a 4,4 0 0 0 -4,4 4,4 0 0 0 4,4 4,4 0 0 0 4,-4 4,4 0 0 0 -4,-4 z m 0,1 a 3,3 0 0 1 3,3 3,3 0 0 1 -3,3 3,3 0 0 1 -3,-3 3,3 0 0 1 3,-3 z" />
      <rect
         id="rect202"
         rx="1.982"
         height="3.964"
         width="17.423"
         y="13.579"
         x="22.784"
         transform="matrix(0.8931,0.44985,-0.45815,0.88887,0,0)" />
      <path
         inkscape:connector-curvature="0"
         id="path204"
         d="m 27,27 a 4,4 0 0 0 -4,4 4,4 0 0 0 4,4 4,4 0 0 0 4,-4 4,4 0 0 0 -4,-4 z m 0,1 a 3,3 0 0 1 3,3 3,3 0 0 1 -3,3 3,3 0 0 1 -3,-3 3,3 0 0 1 3,-3 z" />
    </g>
  </g>
  <g
     transform="matrix(1.1429,0,0,1.1429,32.737,31.56)"
     id="ubuntu">
    <g
       style="stroke-width:1.56480002"
       id="g211"
       transform="matrix(0.53846,0,0,0.53846,0.42321,-1.1189)">
      <path
         style="opacity:0;stroke-width:1.56480002"
         inkscape:connector-curvature="0"
         id="path209"
         d="m 8.467,1.588 a 6.879,6.879 0 1 1 0,13.757 6.879,6.879 0 0 1 0,-13.757 z" />
    </g>
    <path
       style="fill:#ffffff;stroke-width:0.87498999"
       inkscape:connector-curvature="0"
       id="path213"
       d="m 5.0272,1.2448 a 2.1951,2.1951 0 1 0 0,4.3902 2.1951,2.1951 0 0 0 0,-4.3902 z M 5.80962,1.85663 A 0.29243,0.29243 0 0 1 6.02739,2.29373 0.29295,0.29295 0 1 1 5.80962,1.85663 Z M 5.02668,2.16669 c 0.11822,0 0.23229,0.016074 0.34066,0.046147 a 0.41117,0.41117 0 0 0 0.55117,0.3194 c 0.21673,0.2131 0.35777,0.50295 0.37851,0.82597 l -0.41739,0.0057 A 0.85605,0.85605 0 0 0 4.66633,2.663937 L 4.46256,2.298397 a 1.2688,1.2688 0 0 1 0.56465,-0.1317 z m -0.7062,0.21362 0.21466,0.35932 a 0.85501,0.85501 0 0 0 0,1.4005 l -0.21466,0.3588 a 1.2745,1.2745 0 0 1 -0.52576,-0.7399 0.41013,0.41013 0 0 0 0,-0.63828 1.2755,1.2755 0 0 1 0.52576,-0.74042 z M 3.53443,3.14666 a 0.29322,0.29322 0 1 1 0,0.58643 0.29296,0.29296 0 0 1 0,-0.58591 z m 2.3452,0.36865 0.41739,0.00674 A 1.2693,1.2693 0 0 1 5.91851,4.3475 0.40962,0.40962 0 0 0 5.36734,4.66638 1.2724,1.2724 0 0 1 4.46255,4.581346 l 0.20377,-0.36503 a 0.85553,0.85553 0 0 0 1.2133,-0.70101 z M 5.73704,4.44135 A 0.29359,0.29359 0 1 1 5.808593,5.02415 0.29359,0.29359 0 0 1 5.73704,4.44135 Z" />
  </g>
  <g
     transform="matrix(0.61539,0,0,0.61539,46.355,35.48)"
     id="windows">
    <g
       id="g218"
       style="stroke-width:1.56330001;paint-order:markers stroke fill"
       transform="matrix(1.04,0,0,1.04,-0.339,-300.07)">
      <path
         style="opacity:0;stroke-width:1.56330001"
         inkscape:connector-curvature="0"
         id="path216"
         d="m 8.4665,281.92 c 3.6644,0 6.6145,2.9501 6.6145,6.6145 0,3.6644 -2.9501,6.6145 -6.6145,6.6145 -3.6644,0 -6.6145,-2.9501 -6.6145,-6.6145 0,-3.6644 2.9501,-6.6145 6.6145,-6.6145 z" />
    </g>
    <path
       style="fill:#ffffff;stroke-width:1.62510002"
       inkscape:connector-curvature="0"
       id="path220"
       d="m 4.852,-0.2645 -0.003,-2.58 2.894,-0.431 v 3.011 z m 3.374,-3.088 3.857,-0.616 v 3.704 H 8.226 Z m 3.858,3.617 -10e-4,3.704 -3.857,-0.595 v -3.109 z m -4.34,3.042 -2.892,-0.435 v -2.608 h 2.891 v 3.042 z" />
  </g>
  <g
     transform="matrix(0.59258,0,0,0.59258,72.712,22.5)"
     id="xubuntu">
    <g
       style="stroke-width:1.56480002"
       id="g225"
       transform="matrix(1.0385,0,0,1.0385,-0.41232,-8.7922)">
      <path
         style="opacity:0;stroke-width:1.56480002"
         inkscape:connector-curvature="0"
         id="path223"
         d="m 8.467,1.588 a 6.879,6.879 0 1 1 0,13.757 6.879,6.879 0 0 1 0,-13.757 z" />
    </g>
    <g
       style="fill:#ffffff;stroke-width:1.6875"
       id="g231"
       transform="translate(0,-8.4665)">
      <path
         inkscape:connector-curvature="0"
         id="path227"
         d="m 10.69,4.22 c -0.02,0.013 -0.03,0.024 -0.024,0.016 -0.23,0.39 -0.233,0.901 -0.337,1.36 a 0.17,0.17 0 0 1 0,0.023 c -0.051,0.502 -0.215,1.013 -0.084,1.495 a 0.17,0.17 0 0 1 0.014,0.03 c 0.024,0.032 0.055,0.06 0.073,0.065 0.014,0.002 0.034,-0.004 0.082,-0.037 0.051,-0.036 0.084,-0.101 0.1,-0.196 a 0.17,0.17 0 0 1 0.029,-0.07 C 10.748,6.089 10.895,5.232 10.84,4.393 a 0.17,0.17 0 0 1 0,-0.009 C 10.833,4.345 10.821,4.322 10.784,4.277 A 0.385,0.385 0 0 0 10.736,4.226 C 10.73,4.221 10.736,4.22 10.712,4.222 A 0.17,0.17 0 0 1 10.69,4.221 Z m 1.892,0.398 a 0.159,0.159 0 0 1 -0.017,0 c -0.354,0.173 -0.536,0.59 -0.78,0.924 a 0.159,0.159 0 0 1 -0.019,0.047 c -0.308,0.546 -0.7,1.088 -0.742,1.72 0.002,0.1 0.059,0.157 0.118,0.17 a 0.228,0.228 0 0 0 0.2,-0.087 c 0.003,-0.01 0,-0.018 0.006,-0.026 A 0.159,0.159 0 0 1 11.352,7.36 C 11.911,6.592 12.333,5.68 12.68,4.795 A 0.159,0.159 0 0 1 12.681,4.793 C 12.705,4.734 12.706,4.712 12.685,4.668 12.679,4.655 12.616,4.613 12.582,4.618 Z" />
      <path
         inkscape:connector-curvature="0"
         id="path229"
         d="M 7.084,4.873 C 7.027,4.883 6.943,4.934 6.882,4.958 6.669,5.038 6.552,5.222 6.5,5.435 c -0.051,0.22 -0.034,0.463 0,0.712 0.035,0.248 0.084,0.504 0.138,0.7 0.047,0.17 0.08,0.252 0.096,0.308 v 0.042 c 0,0.019 -0.009,0.017 -0.021,0.032 -0.007,0.004 0.006,0.021 0,0.021 A 0.09,0.09 0 0 1 6.66,7.272 C 6.622,7.274 6.592,7.26 6.553,7.25 6.527,7.244 6.493,7.223 6.5,7.23 6.488,7.222 6.466,7.22 6.458,7.208 c 0,0.005 0.007,0.005 0,-0.01 C 6.449,7.181 6.44,7.141 6.426,7.112 6.396,7.048 6.372,6.973 6.331,6.879 A 8.48,8.48 0 0 0 6.023,6.242 2.048,2.048 0 0 0 5.609,5.69 0.696,0.696 0 0 0 5.344,5.531 0.43,0.43 0 0 0 5.057,5.573 0.866,0.866 0 0 0 4.632,6.147 C 4.58,6.375 4.605,6.639 4.643,6.868 c 0.039,0.23 0.1,0.418 0.138,0.573 0.017,0.066 0.037,0.127 0.042,0.16 a 0.932,0.932 0 0 1 -0.02,0.148 c -0.04,0.14 -0.139,0.372 -0.139,0.372 0,0 -1.852,4.919 2.123,4.574 0.033,-0.002 0.107,-0.021 0.138,-0.021 0.78,-0.157 1.52,-0.393 2.176,-0.658 0.129,-0.062 0.298,-0.123 0.488,-0.212 0.38,-0.178 0.857,-0.407 1.316,-0.658 0.459,-0.253 0.885,-0.521 1.21,-0.807 0.326,-0.286 0.564,-0.6 0.52,-0.913 C 12.565,8.922 12.231,8.548 11.786,8.259 11.339,7.969 10.782,7.768 10.226,7.622 A 15.933,15.933 0 0 0 8.719,7.292 C 8.513,7.261 8.319,7.252 8.199,7.229 8.163,7.223 8.144,7.214 8.124,7.208 8.114,7.207 8.113,7.203 8.104,7.198 8.091,7.19 8.068,7.189 8.061,7.176 c -0.007,-0.012 0,-0.028 0,-0.042 V 6.805 A 6.685,6.685 0 0 0 7.986,5.902 C 7.933,5.588 7.851,5.288 7.679,5.085 a 0.602,0.602 0 0 0 -0.425,-0.212 0.58,0.58 0 0 0 -0.17,0 z" />
    </g>
  </g>
  <g
     transform="matrix(0.69565,0,0,0.69565,38.87,-153.49)"
     id="kaos">
    <path
       style="opacity:0;stroke-width:0.26458001"
       inkscape:connector-curvature="0"
       id="path234"
       d="m 55.859,284.23 c 3.361,0 6.0854,2.7244 6.0854,6.0854 0,3.361 -2.7244,6.0854 -6.0854,6.0854 -3.361,0 -6.0854,-2.7244 -6.0854,-6.0854 0,-3.361 2.7244,-6.0854 6.0854,-6.0854 z" />
    <path
       style="fill:#ffffff"
       inkscape:connector-curvature="0"
       id="path236"
       d="m 53.478,287.94 c 0.41751,0 0.52917,0.12409 0.52917,0.52916 0,0.52917 -0.26458,1.0583 -0.26458,1.8521 0,0.7938 0,2.1167 0.79375,3.4396 -1.0583,-1.0583 -2.1167,-2.6458 -2.1167,-4.2333 0,-0.79375 0.26458,-1.5875 1.0583,-1.5875 z" />
    <path
       style="fill:#ffffff"
       inkscape:connector-curvature="0"
       id="path238"
       d="m 57.182,287.41 c 0.52917,0 0.79375,0.26458 0.79375,0.52917 0,0.79375 -1.8521,1.0583 -2.3812,1.3229 -0.52917,0.26459 -1.5875,0.79375 -1.7198,2.3812 -0.13229,-2.1167 0.92604,-4.2333 3.3073,-4.2333 z" />
    <path
       style="fill:#ffffff"
       inkscape:connector-curvature="0"
       id="path240"
       d="m 54.007,291.48 c 0,-0.52916 0.52917,-1.1642 1.5875,-1.1642 1.5875,0 2.9104,1.0583 3.7042,2.1167 -0.82629,-0.42068 -1.8521,-0.79375 -2.6458,-0.79375 -1.3229,0 -1.7232,0.26459 -2.1167,0.26459 -0.26458,0 -0.52917,0 -0.52917,-0.42334 z" />
  </g>
  <g
     transform="translate(-47.954,-220.966)"
     id="macosx">
    <path
       style="opacity:0;stroke-width:0.28760999"
       inkscape:connector-curvature="0"
       id="path243"
       d="m 60.271,278.19 c 2.3381,0 4.2333,1.8952 4.2333,4.2333 0,2.3381 -1.8952,4.2333 -4.2333,4.2333 -2.3381,0 -4.2333,-1.8952 -4.2333,-4.2333 0,-2.3381 1.8952,-4.2333 4.2333,-4.2333 z" />
    <path
       style="fill:#ffffff;fill-rule:evenodd;stroke-width:0.064768;enable-background:new"
       inkscape:connector-curvature="0"
       id="path245"
       d="m 60.983,280.81 c 0.17939,-0.22335 0.30102,-0.52681 0.26746,-0.83436 -0.25838,0.0109 -0.58029,0.17946 -0.76679,0.39631 -0.16474,0.1924 -0.31109,0.50687 -0.27319,0.8033 0.28996,0.0216 0.58692,-0.14672 0.7725,-0.36522 z m 0.65373,1.9324 c -0.0062,-0.65773 0.53818,-0.97707 0.56283,-0.9923 -0.30798,-0.4495 -0.78551,-0.5104 -0.95388,-0.51596 -0.40132,-0.0409 -0.78981,0.24112 -0.99454,0.24112 -0.20836,-2e-5 -0.52301,-0.23624 -0.86189,-0.22952 -0.4368,0.006 -0.84584,0.25944 -1.0698,0.65111 -0.46099,0.80052 -0.11733,1.9763 0.32544,2.6218 0.2218,0.31776 0.48017,0.67142 0.81905,0.65745 0.33144,-0.0126 0.455,-0.21043 0.8556,-0.21043 0.39641,0 0.51252,0.21043 0.85837,0.20366 0.35592,-0.005 0.57976,-0.31832 0.79387,-0.63739 0.255,-0.36398 0.35797,-0.72082 0.36208,-0.73983 -0.008,-0.004 -0.68988,-0.26229 -0.69718,-1.0497 z" />
  </g>
  <g
     transform="translate(-29.222,-189.6761)"
     id="cancel">
    <path
       style="opacity:0;stroke-width:0.28760999"
       inkscape:connector-curvature="0"
       id="path248"
       d="m 41.54,271.86 c 2.3381,0 4.2333,1.8952 4.2333,4.2333 0,2.3381 -1.8952,4.2333 -4.2333,4.2333 -2.3381,0 -4.2333,-1.8952 -4.2333,-4.2333 0,-2.3381 1.8952,-4.2333 4.2333,-4.2333 z" />
    <path
       style="fill:#ffffff;stroke-width:0.26458001"
       inkscape:connector-curvature="0"
       id="path250"
       d="m 41.01,274.51 -1.3229,0.79375 1.3229,0.79375 v -0.52917 h 0.79375 c 0.4445,0 0.79375,0.34951 0.79375,0.79375 0,0.44424 -0.34925,0.79375 -0.79375,0.79375 h -1.3229 v 0.52917 h 1.3229 c 0.7276,0 1.3229,-0.59452 1.3229,-1.3229 0,-0.72838 -0.59531,-1.3229 -1.3229,-1.3229 H 41.01 Z" />
  </g>
  <g
     transform="translate(-16.14,-188.0886)"
     id="driver">
    <path
       style="opacity:0;stroke-width:0.28760999"
       inkscape:connector-curvature="0"
       id="path253"
       d="m 41.54,270.28 c 2.3381,0 4.2333,1.8952 4.2333,4.2333 0,2.3381 -1.8952,4.2333 -4.2333,4.2333 -2.3381,0 -4.2333,-1.8952 -4.2333,-4.2333 0,-2.3381 1.8952,-4.2333 4.2333,-4.2333 z" />
    <path
       style="color:#565656;fill:#ffffff;stroke-width:0.26458001"
       inkscape:connector-curvature="0"
       id="path255"
       d="m 40.531,272.54 -0.34365,0.19843 0.0894,0.18966 a 0.62365,0.62365 0 0 0 -0.1049,0.18241 l -0.20929,0.0176 v 0.39688 l 0.20929,0.0176 a 0.62365,0.62365 0 0 0 0.04444,0.0961 0.62365,0.62365 0 0 0 0.06046,0.0868 l -0.0894,0.18914 0.34365,0.19895 0.11989,-0.1726 a 0.62365,0.62365 0 0 0 0.21032,-5.1e-4 l 0.11989,0.17311 0.34365,-0.19843 -0.0894,-0.19017 a 0.62365,0.62365 0 0 0 0.10542,-0.18242 l 0.20929,-0.0176 v -0.39688 l -0.20929,-0.0171 a 0.62365,0.62365 0 0 0 -0.04444,-0.0961 0.62365,0.62365 0 0 0 -0.06098,-0.0868 l 0.0894,-0.18966 -0.34365,-0.19843 -0.11937,0.17208 a 0.62365,0.62365 0 0 0 -0.21084,5.2e-4 z m 0.21962,0.56017 a 0.22678,0.22678 0 0 1 0.20206,0.11317 0.22678,0.22678 0 0 1 -0.0832,0.30954 0.22678,0.22678 0 0 1 -0.30954,-0.0827 0.22678,0.22678 0 0 1 0.08268,-0.31006 0.22678,0.22678 0 0 1 0.108,-0.03 z m 0.72502,0.74311 -0.02894,0.34881 a 1.0394,1.0394 0 0 0 -0.30386,0.1757 l -0.31678,-0.14934 -0.33073,0.57309 0.28732,0.19947 a 1.0394,1.0394 0 0 0 -0.0155,0.17518 1.0394,1.0394 0 0 0 0.01499,0.17622 l -0.2868,0.19895 0.33073,0.57311 0.31574,-0.14883 a 1.0394,1.0394 0 0 0 0.30489,0.17466 l 0.02894,0.34882 h 0.66146 l 0.02894,-0.3483 a 1.0394,1.0394 0 0 0 0.30386,-0.1757 l 0.31678,0.14935 0.33073,-0.5731 -0.28732,-0.19947 a 1.0394,1.0394 0 0 0 0.01602,-0.1757 1.0394,1.0394 0 0 0 -0.0155,-0.1757 l 0.2868,-0.19896 -0.33073,-0.57308 -0.31574,0.14882 a 1.0394,1.0394 0 0 0 -0.30437,-0.17467 l -0.02946,-0.34933 z m 0.33073,0.94516 a 0.37798,0.37798 0 0 1 0.37827,0.37775 0.37798,0.37798 0 0 1 -0.37827,0.37827 0.37798,0.37798 0 0 1 -0.37776,-0.37827 0.37798,0.37798 0 0 1 0.37776,-0.37775 z"
       class="ColorScheme-Text" />
  </g>
  <g
     transform="translate(-15.757,-188.0886)"
     id="edit">
    <path
       style="opacity:0;stroke-width:0.28760999"
       inkscape:connector-curvature="0"
       id="path258"
       d="m 54.24,270.28 c 2.3381,0 4.2333,1.8952 4.2333,4.2333 0,2.3381 -1.8952,4.2333 -4.2333,4.2333 -2.3381,0 -4.2333,-1.8952 -4.2333,-4.2333 0,-2.3381 1.8952,-4.2333 4.2333,-4.2333 z" />
    <g
       style="fill:#ffffff"
       id="g262"
       transform="matrix(0.26458,0,0,0.26458,52.123,272.53)">
      <path
         style="color:#565656;fill:#ffffff"
         inkscape:connector-curvature="0"
         id="path260"
         d="M 8,0 A 2,2 0 0 0 6,2 H 3 C 2.446,2 2,2.446 2,3 v 11 c 0,0.554 0.446,1 1,1 h 10 c 0.554,0 1,-0.446 1,-1 V 3 C 14,2.446 13.554,2 13,2 H 10 A 2,2 0 0 0 8,0 Z M 8,1 A 1,1 0 0 1 9,2 1,1 0 0 1 8,3 1,1 0 0 1 7,2 1,1 0 0 1 8,1 Z M 4,4 h 1 v 1 h 6 V 4 h 1 v 9 H 4 Z"
         class="ColorScheme-Text" />
    </g>
  </g>
  <g
     transform="translate(-16.051,-188.0886)"
     id="find.efi">
    <path
       style="opacity:0;stroke-width:0.28760999"
       inkscape:connector-curvature="0"
       id="path270"
       d="m 80.698,270.28 c 2.3381,0 4.2333,1.8952 4.2333,4.2333 0,2.3381 -1.8952,4.2333 -4.2333,4.2333 -2.3381,0 -4.2333,-1.8952 -4.2333,-4.2333 0,-2.3381 1.8952,-4.2333 4.2333,-4.2333 z" />
    <g
       style="fill:#ffffff"
       id="g274"
       transform="matrix(0.26458,0,0,0.26458,78.581,272.39)">
      <path
         style="color:#565656;fill:#ffffff"
         inkscape:connector-curvature="0"
         id="path272"
         d="M 6.5,1 A 5.5,5.5 0 0 0 1,6.5 5.5,5.5 0 0 0 6.5,12 5.5,5.5 0 0 0 9.6172,11.031 l 3.6618,3.662 A 1,1 0 0 0 14,15 1,1 0 0 0 15,14 1,1 0 0 0 14.697,13.283 L 11.027,9.6133 A 5.5,5.5 0 0 0 12,6.5 5.5,5.5 0 0 0 6.5,1 Z m 0,2 A 3.5,3.5 0 0 1 10,6.5 3.5,3.5 0 0 1 6.5,10 3.5,3.5 0 0 1 3,6.5 3.5,3.5 0 0 1 6.5,3 Z"
         class="ColorScheme-Text" />
    </g>
  </g>
  <g
     transform="translate(48.41,-200.7225)"
     id="find.none">
    <path
       style="opacity:0;stroke-width:0.28760999"
       inkscape:connector-curvature="0"
       id="path277"
       d="m 29.319,282.91 c 2.3381,0 4.2333,1.8952 4.2333,4.2333 0,2.3381 -1.8952,4.2333 -4.2333,4.2333 -2.3381,0 -4.2333,-1.8952 -4.2333,-4.2333 0,-2.3381 1.8952,-4.2333 4.2333,-4.2333 z" />
    <path
       style="color:#565656;fill:#ffffff;stroke-width:0.26458001"
       inkscape:connector-curvature="0"
       id="path279"
       d="m 29.319,285.29 c -1.0221,0 -1.8521,0.82999 -1.8521,1.8521 0,1.02211 0.83,1.8521 1.8521,1.8521 1.0221,0 1.8521,-0.82999 1.8521,-1.8521 0,-1.02211 -0.83,-1.8521 -1.8521,-1.8521 z m 0,0.52916 c 0.26972,0 0.51832,0.0761 0.7276,0.21498 l -1.8355,1.8355 c -0.13887,-0.20929 -0.21497,-0.45788 -0.21497,-0.7276 0,-0.73006 0.59288,-1.3229 1.3229,-1.3229 z m 1.1079,0.59532 c 0.13887,0.20929 0.21498,0.45788 0.21498,0.7276 0,0.73004 -0.59288,1.3229 -1.3229,1.3229 -0.26972,0 -0.51832,-0.0761 -0.7276,-0.21498 z"
       class="ColorScheme-Text" />
  </g>
  <g
     transform="translate(-28.693,-187.7394)"
     id="help">
    <path
       style="opacity:0;stroke-width:0.28760999"
       inkscape:connector-curvature="0"
       id="path282"
       d="m 41.01,282.91 c 2.3381,0 4.2333,1.8952 4.2333,4.2333 0,2.3381 -1.8952,4.2333 -4.2333,4.2333 -2.3381,0 -4.2333,-1.8952 -4.2333,-4.2333 0,-2.3381 1.8952,-4.2333 4.2333,-4.2333 z" />
    <path
       style="color:#565656;fill:#ffffff;stroke-width:0.26458001"
       inkscape:connector-curvature="0"
       id="path284"
       d="m 41.01,285.29 c -0.58473,0 -1.0583,0.4736 -1.0583,1.0583 h 0.52917 c 0,-0.29104 0.23812,-0.52917 0.52917,-0.52917 0.29105,0 0.52917,0.23813 0.52917,0.52917 0,0.14552 -0.05817,0.27785 -0.15606,0.3731 l -0.32814,0.33332 c -0.1905,0.19314 -0.30954,0.45775 -0.30954,0.74879 v 0.13229 h 0.52917 c 0,-0.39687 0.11904,-0.55565 0.30954,-0.74879 l 0.23823,-0.2434 c 0.15081,-0.15081 0.24598,-0.36248 0.24598,-0.59531 0,-0.58473 -0.4736,-1.0583 -1.0583,-1.0583 z m -0.26458,3.175 v 0.52916 h 0.52917 V 288.465 Z"
       class="ColorScheme-Text" />
  </g>
  <g
     transform="translate(-27.517,-187.7394)"
     id="kbd">
    <path
       style="opacity:0;stroke-width:0.28760999"
       inkscape:connector-curvature="0"
       id="path287"
       d="m 52.917,282.91 c 2.3381,0 4.2333,1.8952 4.2333,4.2333 0,2.3381 -1.8952,4.2333 -4.2333,4.2333 -2.3381,0 -4.2333,-1.8952 -4.2333,-4.2333 0,-2.3381 1.8952,-4.2333 4.2333,-4.2333 z" />
    <path
       style="color:#565656;fill:#ffffff;stroke-width:0.26458001"
       inkscape:connector-curvature="0"
       id="path289"
       d="m 51.461,285.56 c 0,0 -0.52917,0 -0.52917,0.52917 v 2.1167 c 0,0.52917 0.52917,0.52917 0.52917,0.52917 h 2.9104 c 0,0 0.52917,0 0.52917,-0.52917 v -2.1167 C 54.90057,285.56 54.3714,285.56 54.3714,285.56 Z m 0.06615,0.52917 h 0.39688 c 0.03664,0 0.06615,0.0295 0.06615,0.0661 v 0.39688 c 0,0.0366 -0.0295,0.0661 -0.06615,0.0661 h -0.39688 c -0.03665,0 -0.06615,-0.0295 -0.06615,-0.0661 v -0.39688 c 0,-0.0366 0.0295,-0.0661 0.06615,-0.0661 z m 0.79375,0 h 0.39688 c 0.03664,0 0.06615,0.0295 0.06615,0.0661 v 0.39688 c 0,0.0366 -0.0295,0.0661 -0.06615,0.0661 H 52.3209 c -0.03664,0 -0.06615,-0.0295 -0.06615,-0.0661 v -0.39688 c 0,-0.0366 0.0295,-0.0661 0.06615,-0.0661 z m 0.79375,0 h 0.39688 c 0.03664,0 0.06615,0.0295 0.06615,0.0661 v 0.39688 c 0,0.0366 -0.0295,0.0661 -0.06615,0.0661 h -0.39688 c -0.03664,0 -0.06615,-0.0295 -0.06615,-0.0661 v -0.39688 c 0,-0.0366 0.0295,-0.0661 0.06615,-0.0661 z m 0.79375,0 h 0.39688 c 0.03665,0 0.06615,0.0295 0.06615,0.0661 v 0.39688 c 0,0.0366 -0.0295,0.0661 -0.06615,0.0661 H 53.9084 c -0.03665,0 -0.06615,-0.0295 -0.06615,-0.0661 v -0.39688 c 0,-0.0366 0.0295,-0.0661 0.06615,-0.0661 z m -2.3812,0.79375 h 0.39688 c 0.03664,0 0.06615,0.0295 0.06615,0.0661 v 0.39688 c 0,0.0366 -0.0295,0.0661 -0.06615,0.0661 H 51.5272 c -0.03665,0 -0.06615,-0.0295 -0.06615,-0.0661 v -0.39688 c 0,-0.0366 0.0295,-0.0661 0.06615,-0.0661 z m 0.79375,0 h 0.39688 c 0.03664,0 0.06615,0.0295 0.06615,0.0661 v 0.39688 c 0,0.0366 -0.0295,0.0661 -0.06615,0.0661 h -0.39688 c -0.03664,0 -0.06615,-0.0295 -0.06615,-0.0661 v -0.39688 c 0,-0.0366 0.0295,-0.0661 0.06615,-0.0661 z m 0.79375,0 h 0.39688 c 0.03664,0 0.06615,0.0295 0.06615,0.0661 v 0.39688 c 0,0.0366 -0.0295,0.0661 -0.06615,0.0661 H 53.1147 c -0.03664,0 -0.06615,-0.0295 -0.06615,-0.0661 v -0.39688 c 0,-0.0366 0.0295,-0.0661 0.06615,-0.0661 z m 0.79375,0 h 0.39688 c 0.03665,0 0.06615,0.0295 0.06615,0.0661 v 0.39688 c 0,0.0366 -0.0295,0.0661 -0.06615,0.0661 h -0.39688 c -0.03665,0 -0.06615,-0.0295 -0.06615,-0.0661 v -0.39688 c 0,-0.0366 0.0295,-0.0661 0.06615,-0.0661 z m -1.8521,0.79375 h 1.7198 c 0.03665,0 0.06615,0.0295 0.06615,0.0661 v 0.39688 c 0,0.0366 -0.0295,0.0661 -0.06615,0.0661 h -1.7198 c -0.03664,0 -0.06615,-0.0295 -0.06615,-0.0661 v -0.39688 c 0,-0.0366 0.0295,-0.0661 0.06615,-0.0661 z"
       class="ColorScheme-Text" />
  </g>
  <g
     transform="translate(-26.341,-187.2764)"
     id="lang">
    <path
       style="opacity:0;stroke-width:0.28760999"
       inkscape:connector-curvature="0"
       id="path292"
       d="m 64.823,282.45 c 2.3381,0 4.2333,1.8952 4.2333,4.2333 0,2.3381 -1.8952,4.2333 -4.2333,4.2333 -2.3381,0 -4.2333,-1.8952 -4.2333,-4.2333 0,-2.3381 1.8952,-4.2333 4.2333,-4.2333 z" />
    <path
       style="color:#565656;fill:#f9f9f9;stroke-width:0.26458001"
       inkscape:connector-curvature="0"
       id="path294"
       d="m 64.823,284.83 c -1.0229,0 -1.8521,0.82921 -1.8521,1.8521 0,1.02289 0.8292,1.8521 1.8521,1.8521 1.0229,0 1.8521,-0.8292 1.8521,-1.8521 0,-1.0229 -0.8292,-1.8521 -1.8521,-1.8521 z m -0.13229,0.51263 c 0.0177,-0.002 0.04002,0.001 0.05788,0 0.0021,0.008 -0.01288,0.0386 -0.03307,0.0827 -0.12855,0.28082 -0.13584,0.60969 -0.01654,0.78548 0.02159,0.0319 0.04134,0.0622 0.04134,0.0661 0,0.004 -0.02328,0.008 -0.04961,0.008 -0.0618,0 -0.12028,-0.0377 -0.23978,-0.13229 -0.05308,-0.042 -0.12209,-0.0773 -0.14883,-0.0827 -0.04198,-0.008 -0.05317,-0.005 -0.10749,0.0496 -0.05053,0.0505 -0.06615,0.0778 -0.06615,0.12402 0,0.1754 0.20825,0.31483 0.59531,0.39688 0.52565,0.1114 0.65523,0.21142 0.66973,0.48782 0.0182,0.34661 -0.16633,0.60796 -0.57051,0.81029 -0.04824,0.0241 -0.07898,0.0335 -0.09922,0.0413 -0.009,-8e-4 -0.01586,7.9e-4 -0.02481,0 -0.0034,-0.0107 -0.0083,-0.0356 -0.0083,-0.0827 0,-0.1841 -0.07256,-0.3736 -0.1819,-0.47956 -0.02935,-0.0284 -0.11153,-0.0887 -0.1819,-0.13229 -0.07037,-0.0436 -0.14127,-0.0942 -0.1571,-0.11576 -0.02622,-0.0358 -0.02841,-0.0578 -0.0083,-0.12402 0.03671,-0.12088 0.08041,-0.18821 0.16536,-0.26458 0.04454,-0.04 0.08935,-0.0736 0.09922,-0.0744 0.0099,-7.8e-4 -0.05693,-0.0208 -0.1571,-0.0413 -0.10017,-0.0205 -0.2467,-0.0635 -0.32246,-0.0909 -0.13853,-0.0501 -0.32557,-0.15535 -0.39688,-0.23151 -0.003,-0.003 -0.0057,-0.005 -0.0083,-0.008 0.10216,-0.40695 0.38887,-0.7405 0.76895,-0.90124 0.07953,-0.0336 0.16151,-0.0567 0.24805,-0.0744 0.04311,-0.009 0.08778,-0.012 0.13229,-0.0165 z m 1.2402,0.62012 c 0.03108,0.0192 0.14841,0.27305 0.1819,0.39688 0.04324,0.15985 0.04011,0.43651 0,0.59531 -0.01527,0.0604 -0.03483,0.11698 -0.04134,0.12402 -0.0065,0.007 -0.03011,-0.0335 -0.05788,-0.0827 -0.02777,-0.0492 -0.11646,-0.15374 -0.19017,-0.23151 -0.21276,-0.22451 -0.24622,-0.34172 -0.1571,-0.5209 0.04494,-0.0904 0.24053,-0.29596 0.26458,-0.28112 z"
       class="ColorScheme-Text" />
  </g>
  <g
     transform="translate(2.3284,-242.65)"
     id="restart">
    <path
       style="opacity:0;stroke-width:0.28760999"
       inkscape:connector-curvature="0"
       id="path297"
       d="m 23.283,312.94 c 2.3381,0 4.2333,1.8952 4.2333,4.2333 0,2.3381 -1.8952,4.2333 -4.2333,4.2333 -2.3381,0 -4.2333,-1.8952 -4.2333,-4.2333 0,-2.3381 1.8952,-4.2333 4.2333,-4.2333 z" />
    <path
       style="color:#565656;fill:#ffffff;stroke-width:0.26458001"
       inkscape:connector-curvature="0"
       id="path299"
       d="m 23.282,315.32 c -1.0229,0 -1.8521,0.8292 -1.8521,1.8521 0,1.0229 0.8292,1.8521 1.8521,1.8521 0.84,0 1.5508,-0.55647 1.7777,-1.3229 h -0.57051 c -0.20486,0.46554 -0.6659,0.79375 -1.2072,0.79375 -0.73062,0 -1.3229,-0.5923 -1.3229,-1.3229 0,-0.7306 0.5923,-1.3229 1.3229,-1.3229 0.36555,0 0.69202,0.15214 0.93018,0.39274 l -0.66404,0.66559 h 1.5875 v -1.5875 l -0.54312,0.54312 c -0.33602,-0.3347 -0.79884,-0.54312 -1.3095,-0.54312 z"
       class="ColorScheme-Text" />
  </g>
  <g
     transform="translate(-62.613,-229.42)"
     id="recovery">
    <path
       style="opacity:0;stroke-width:0.28760999"
       inkscape:connector-curvature="0"
       id="path302"
       d="m 75.142,299.71 c 2.3381,0 4.2333,1.8952 4.2333,4.2333 0,2.3381 -1.8952,4.2333 -4.2333,4.2333 -2.3381,0 -4.2333,-1.8952 -4.2333,-4.2333 0,-2.3381 1.8952,-4.2333 4.2333,-4.2333 z" />
    <path
       style="color:#dfdfdf;fill:#ffffff;stroke-width:0.30868"
       inkscape:connector-curvature="0"
       id="path304"
       d="m 75.142,302.09 a 0.30868,0.30868 0 0 0 -0.30868,0.30868 0.30868,0.30868 0 0 0 0.30868,0.30868 1.2347,1.2347 0 0 1 1.2347,1.2347 h -0.61736 l 0.92604,1.2347 0.92604,-1.2347 h -0.61736 a 1.8521,1.8521 0 0 0 -1.8521,-1.8521 z m -1.5434,0.61736 -0.92604,1.2347 h 0.61736 a 1.8521,1.8521 0 0 0 1.8521,1.8521 0.30868,0.30868 0 0 0 0.30868,-0.30869 0.30868,0.30868 0 0 0 -0.30868,-0.30868 1.2347,1.2347 0 0 1 -1.2347,-1.2347 h 0.61736 z" />
  </g>
  <g
     transform="translate(-2.3172,-225.386)"
     id="shutdown">
    <path
       style="opacity:0;stroke-width:0.28760999"
       inkscape:connector-curvature="0"
       id="path307"
       d="m 41.01,295.68 c 2.3381,0 4.2333,1.8952 4.2333,4.2333 0,2.3381 -1.8952,4.2333 -4.2333,4.2333 -2.3381,0 -4.2333,-1.8952 -4.2333,-4.2333 0,-2.3381 1.8952,-4.2333 4.2333,-4.2333 z" />
    <path
       style="color:#5294e2;fill:#ffffff;stroke-width:0.30871001"
       inkscape:connector-curvature="0"
       id="path309"
       d="m 41.01,297.9 c -0.17102,0 -0.30871,0.13769 -0.30871,0.30872 v 1.5448 c 0,0.17102 0.13768,0.30871 0.30871,0.30871 0.17102,0 0.30871,-0.13769 0.30871,-0.30871 v -1.5448 C 41.31871,298.03769 41.18103,297.9 41.01,297.9 Z m 0.93754,0.61372 a 0.30871,0.30871 0 0 0 -0.05959,0.003 0.30871,0.30871 0 0 0 -0.13521,0.55969 1.2287,1.2287 0 0 1 0.25098,1.7266 c -0.41058,0.5492 -1.1876,0.65199 -1.7365,0.2411 -0.54919,-0.41057 -0.65199,-1.1777 -0.2411,-1.7266 0.06668,-0.0895 0.14293,-0.16362 0.23153,-0.23154 a 0.30983,0.30983 0 0 0 -0.37662,-0.49207 c -0.13213,0.10244 -0.25623,0.22289 -0.35656,0.35686 -0.61062,0.81622 -0.44022,1.9847 0.376,2.5953 0.81622,0.61031 1.9847,0.4399 2.5953,-0.37664 0.61031,-0.8159 0.43991,-1.9844 -0.37662,-2.5947 a 0.30871,0.30871 0 0 0 -0.17164,-0.0617 z" />
  </g>
  <g
     transform="translate(-1.3521,-200.5056)"
     id="type">
    <path
       style="opacity:0;stroke-width:0.28760999"
       inkscape:connector-curvature="0"
       id="path312"
       d="m 52.917,295.68 c 2.3381,0 4.2333,1.8952 4.2333,4.2333 0,2.3381 -1.8952,4.2333 -4.2333,4.2333 -2.3381,0 -4.2333,-1.8952 -4.2333,-4.2333 0,-2.3381 1.8952,-4.2333 4.2333,-4.2333 z" />
    <path
       style="color:#565656;fill:#ffffff;stroke-width:0.26458001"
       inkscape:connector-curvature="0"
       id="path314"
       d="m 51.594,298.06 c 0,0 -0.26458,0 -0.26458,0.26459 v 3.175 c 0,0.26458 0.26458,0.26458 0.26458,0.26458 h 1.0583 V 301.235 h -0.79375 v -2.6448 h 2.1167 v 1.3193 h 0.52917 v -1.5849 c 0,-0.26459 -0.26458,-0.26459 -0.26458,-0.26459 z m 2.3812,2.1167 -1.0583,1.0583 v 0.52917 h 0.52917 l 1.0583,-1.0583 z"
       class="ColorScheme-Text" />
  </g>
  <g
     transform="translate(-0.17614,-200.5056)"
     id="tz">
    <path
       style="opacity:0;stroke-width:0.28760999"
       inkscape:connector-curvature="0"
       id="path317"
       d="m 64.823,295.68 c 2.3381,0 4.2333,1.8952 4.2333,4.2333 0,2.3381 -1.8952,4.2333 -4.2333,4.2333 -2.3381,0 -4.2333,-1.8952 -4.2333,-4.2333 0,-2.3381 1.8952,-4.2333 4.2333,-4.2333 z" />
    <path
       style="color:#565656;fill:#ffffff;stroke-width:0.26458001"
       inkscape:connector-curvature="0"
       id="path319"
       d="m 64.823,298.06 c -0.47399,0 -0.94784,0.18095 -1.3095,0.5426 -0.72329,0.72329 -0.72329,1.8957 0,2.619 0.72329,0.72329 1.8957,0.72329 2.619,0 0.72329,-0.72329 0.72329,-1.8957 0,-2.619 -0.36165,-0.36165 -0.83549,-0.5426 -1.3095,-0.5426 z m -0.01912,0.52916 c 0.35745,-0.005 0.70174,0.13473 0.95446,0.38758 0.51649,0.51661 0.51649,1.3541 0,1.8707 -0.51661,0.5165 -1.3541,0.5165 -1.8707,0 -0.51649,-0.51661 -0.51649,-1.3541 0,-1.8707 0.24335,-0.24348 0.57202,-0.38251 0.91622,-0.38758 z m -0.2465,0.26459 v 1.1678 l 0.61443,0.61444 0.02429,0.0243 0.18707,-0.18706 -0.56018,-0.56125 v -1.0582 z"
       class="ColorScheme-Text" />
  </g>
  <g
     transform="translate(-2.9689,-200.5056)"
     id="unset">
    <path
       style="opacity:0;stroke-width:0.28760999"
       inkscape:connector-curvature="0"
       id="path322"
       d="m 80.698,295.68 c 2.3381,0 4.2333,1.8952 4.2333,4.2333 0,2.3381 -1.8952,4.2333 -4.2333,4.2333 -2.3381,0 -4.2333,-1.8952 -4.2333,-4.2333 0,-2.3381 1.8952,-4.2333 4.2333,-4.2333 z" />
    <path
       style="fill:#ffffff;stroke-width:0.26458001"
       inkscape:connector-curvature="0"
       id="path324"
       d="m 79.904,298.32 -1.3229,1.5875 1.3229,1.5875 h 2.9104 v -3.175 z m 0.52917,0.79375 h 0.26458 c 0.07408,0 0.14023,0.0291 0.18785,0.0767 l 0.34131,0.34395 0.34131,-0.34395 c 0.04762,-0.0476 0.11377,-0.0767 0.18786,-0.0767 h 0.26458 v 0.26458 c 0,0.0741 -0.0291,0.14023 -0.07673,0.18785 l -0.34396,0.34132 0.34396,0.34131 c 0.04762,0.0476 0.07673,0.11377 0.07673,0.18785 v 0.26459 h -0.26458 c -0.07408,0 -0.14023,-0.0291 -0.18786,-0.0767 l -0.34131,-0.34396 -0.34131,0.34396 c -0.04762,0.0476 -0.11377,0.0767 -0.18785,0.0767 h -0.26458 v -0.26459 c 0,-0.0741 0.0291,-0.14023 0.07673,-0.18785 l 0.34396,-0.34131 -0.34396,-0.34132 c -0.04762,-0.0476 -0.07673,-0.11377 -0.07673,-0.18785 z" />
  </g>
  <g
     transform="translate(-53.353,-199.721)"
     id="arcolinux">
    <rect
       id="rect327"
       style="opacity:0;stroke-width:0.52916998;paint-order:stroke fill markers"
       ry="0.013544"
       height="8.4666996"
       width="8.4666996"
       y="257.31"
       x="74.083" />
    <path
       inkscape:connector-curvature="0"
       id="path329"
       style="fill:#ffffff;fill-rule:evenodd;paint-order:stroke fill markers"
       d="m 78.317,259.43 -2.1167,4.2333 0.79479,0.002 1.3229,-2.6458 0.79375,1.5871 h -1.0583 c 0.93962,0.10335 1.5875,1.0583 1.5875,1.0583 l 0.79272,-0.002 -1.8144,-3.6287 -0.30127,-0.60307 -5.19e-4,-0.002 z" />
  </g>
  <g
     transform="translate(-5.1984,-199.721)"
     id="pop-os">
    <rect
       id="rect332"
       style="opacity:0;stroke-width:0.52916998;paint-order:stroke fill markers"
       ry="0.013365"
       height="8.4666996"
       width="8.4666996"
       y="257.31"
       x="39.158001" />
    <path
       inkscape:connector-curvature="0"
       id="path334"
       style="fill:#ffffff;fill-rule:evenodd;paint-order:stroke fill markers"
       d="m 43.392,258.64 a 2.9104,2.9104 0 0 0 -2.9104,2.9104 2.9104,2.9104 0 0 0 2.9104,2.9104 2.9104,2.9104 0 0 0 2.9104,-2.9104 2.9104,2.9104 0 0 0 -2.9104,-2.9104 z m -0.64027,0.6842 c 0.09778,0.005 0.19494,0.0254 0.2899,0.0667 0.45578,0.1983 0.72676,0.70053 0.65732,1.2284 -0.08715,0.66247 -0.6382,0.96428 -0.6382,0.96428 0,0 0.23946,0.47226 0.28474,0.85628 0.01994,0.16916 -0.04821,0.62304 -0.20309,0.46922 -0.15487,-0.15382 -1.3305,-1.8958 -1.7002,-2.9233 -0.01789,-0.0497 0.1894,-0.21486 0.47232,-0.39016 0.24653,-0.15275 0.54381,-0.2846 0.83716,-0.2713 z m -0.3607,0.44338 a 0.81435,0.71256 62.504 0 0 -0.27595,0.0708 0.81435,0.71256 62.504 0 0 -0.08217,0.0527 l 0.82734,1.3953 a 0.81435,0.71256 62.504 0 0 0.0067,-0.003 0.81435,0.71256 62.504 0 0 0.25632,-1.0516 0.81435,0.71256 62.504 0 0 -0.73226,-0.46406 z m 2.1983,0.47078 c 0.06005,-0.005 0.12606,0.003 0.19689,0.0279 0.22498,0.0797 0.27848,0.27153 0.27388,0.42892 -0.0042,0.14437 -0.08055,0.36343 -0.20154,0.58342 l -0.51573,0.93793 -0.08578,-0.0222 -0.06253,-1.0976 c -0.01186,-0.20711 -0.02393,-0.32935 0.03876,-0.54053 0.04861,-0.16369 0.17591,-0.3015 0.35605,-0.31781 z m -0.4563,2.282 c 0.028,-0.004 0.05698,-0.002 0.08578,0.005 0.10778,0.028 0.17939,0.14946 0.15038,0.26096 -0.02996,0.1152 -0.14833,0.18813 -0.26355,0.15813 -0.11522,-0.03 -0.18293,-0.15092 -0.15296,-0.26613 0.02248,-0.0864 0.09636,-0.14632 0.18035,-0.15813 z m -2.064,0.61753 h 2.6458 c 0.14658,0 0.26458,0.118 0.26458,0.26458 0,0.14658 -0.118,0.26459 -0.26458,0.26459 h -2.6458 c -0.14658,0 -0.26458,-0.11801 -0.26458,-0.26459 0,-0.14658 0.118,-0.26458 0.26458,-0.26458 z" />
  </g>
  <g
     transform="translate(-3.422,-200.373)"
     id="devuan">
    <rect
       id="rect337"
       style="opacity:0;stroke-width:0.52916998;paint-order:stroke fill markers"
       ry="0.016310999"
       height="8.4666996"
       width="8.4666996"
       y="257.95999"
       x="51.404999" />
    <path
       style="fill:#ffffff"
       inkscape:connector-curvature="0"
       id="path339"
       d="m 53.781,264.5 c -0.35223,0.009 -0.44505,-0.18651 -0.4737,-0.29826 -0.02865,-0.11175 -0.08057,-0.38047 0.19299,-0.55557 0.27356,-0.17509 1.0279,-0.28647 1.5439,-0.47411 0.51603,-0.18765 1.1849,-0.41735 1.5439,-0.64873 0.35902,-0.23137 0.52842,-0.38378 0.56142,-0.66668 0.03301,-0.2829 -0.0692,-0.51803 -0.39767,-0.73686 -0.32847,-0.21883 -0.62622,-0.35816 -1.193,-0.56142 -0.5668,-0.20328 -0.9556,-0.36182 -2.1989,-0.655 1.7467,0.28478 1.7592,0.31688 2.3977,0.50294 0.6385,0.18606 1.1012,0.3597 1.4737,0.59151 0.37247,0.2318 0.57524,0.4272 0.68383,0.66944 0.10859,0.24224 0.09798,0.47992 -0.0054,0.70735 -0.1034,0.22743 -0.2879,0.41673 -0.6667,0.66336 -0.37881,0.24661 -0.90962,0.57071 -1.4874,0.81472 -0.57781,0.244 -1.6224,0.63816 -1.9747,0.64731 z" />
  </g>
  <g
     id="void"
     transform="translate(0,-191.17)">
    <rect
       style="fill:none;stroke-width:0.32304999"
       id="rect342"
       height="8.467"
       width="8.467"
       y="248.75999"
       x="60.412998" />
    <ellipse
       style="fill:#ffffff;stroke-width:0.015463"
       id="ellipse344"
       ry="0.92657"
       rx="0.92895001"
       cy="252.99001"
       cx="64.678001" />
    <path
       style="fill:#ffffff;stroke-width:0.0094927"
       inkscape:connector-curvature="0"
       id="path346"
       d="m 64.521,255.9 c -0.30864,-0.023 -0.52254,-0.0627 -0.76989,-0.14243 -0.99745,-0.32176 -1.7555,-1.17 -1.9566,-2.1895 -0.03529,-0.17892 -0.04345,-0.24283 -0.05363,-0.41992 -0.03132,-0.54462 0.10302,-1.1167 0.37154,-1.5823 0.06055,-0.10499 0.18037,-0.2889 0.18531,-0.28443 0.0015,0.001 0.15227,0.15083 0.33496,0.3321 l 0.33217,0.32956 -0.06813,0.13499 c -0.14569,0.28864 -0.21495,0.57802 -0.21495,0.89815 0,1.074 0.84789,1.9499 1.9247,1.9882 0.34982,0.0125 0.65061,-0.053 0.97304,-0.21193 l 0.14613,-0.072 0.32674,0.3258 c 0.1797,0.17919 0.32674,0.33012 0.32674,0.3354 0,0.006 -0.01817,0.0212 -0.0404,0.0355 -0.18209,0.11683 -0.23909,0.14999 -0.36905,0.21465 -0.31598,0.15721 -0.62544,0.2496 -0.96936,0.28942 -0.12278,0.0142 -0.39671,0.025 -0.47939,0.0187 z" />
    <path
       style="fill:#ffffff;stroke-width:0.0094927"
       inkscape:connector-curvature="0"
       id="path348"
       d="m 66.695,254.36 -0.32077,-0.32005 0.02137,-0.0359 c 0.13003,-0.21808 0.22236,-0.47557 0.26443,-0.7374 0.02334,-0.14529 0.02311,-0.42455 -4.52e-4,-0.57831 -0.1404,-0.91542 -0.87735,-1.6072 -1.8032,-1.6928 -0.39185,-0.0362 -0.81519,0.0534 -1.1511,0.24345 l -0.07711,0.0436 -0.66383,-0.66733 0.03655,-0.0268 c 0.19701,-0.14451 0.5563,-0.31522 0.82599,-0.39248 0.29701,-0.085 0.50803,-0.11399 0.83103,-0.11391 0.29086,8e-5 0.39626,0.0116 0.6891,0.0753 0.12045,0.0262 0.319,0.0865 0.35868,0.10886 0.0091,0.006 0.02148,0.009 0.02757,0.009 0.01972,0 0.37225,0.17015 0.37731,0.18211 0.0017,0.005 0.0077,0.008 0.01343,0.008 0.01024,0 0.17868,0.10125 0.18776,0.11283 0.0026,0.003 0.01747,0.0142 0.03302,0.0241 0.01555,0.0102 0.03265,0.0216 0.03802,0.026 0.0053,0.005 0.03328,0.026 0.06203,0.048 0.02876,0.022 0.05687,0.0444 0.06249,0.0497 0.0056,0.006 0.02469,0.0203 0.04239,0.0333 0.04479,0.033 0.33168,0.31886 0.36598,0.36468 0.01548,0.0207 0.03456,0.0444 0.04241,0.0526 0.0079,0.008 0.02281,0.0268 0.03326,0.0412 0.05822,0.0804 0.09117,0.12567 0.09764,0.13409 0.03225,0.0419 0.13194,0.21334 0.18745,0.32233 0.08073,0.15851 0.1197,0.2505 0.1627,0.38396 0.03218,0.0999 0.03856,0.12157 0.06413,0.21805 0.0076,0.0287 0.01809,0.0681 0.02333,0.0877 0.0085,0.032 0.0077,0.0355 -0.0088,0.0355 -0.0141,0 -0.01717,0.005 -0.01339,0.0213 0.06559,0.28485 0.06967,0.75335 0.0096,1.095 -0.0043,0.0245 -0.0023,0.0309 0.01024,0.0309 0.01252,0 0.01428,0.006 0.0086,0.0261 -0.0039,0.0143 -0.01047,0.041 -0.01477,0.0593 -0.02969,0.12737 -0.05022,0.1996 -0.09432,0.33182 -0.01261,0.0378 -0.01518,0.0443 -0.06628,0.16591 -0.04001,0.0952 -0.15187,0.31055 -0.16422,0.31602 -0.0039,0.002 -0.0072,0.008 -0.0072,0.0134 0,0.0102 -0.05293,0.0975 -0.07109,0.1172 -0.0053,0.006 -0.02253,0.0321 -0.03821,0.0585 -0.01778,0.0299 -0.03466,0.0474 -0.04483,0.0468 -0.009,-6.1e-4 -0.16065,-0.14523 -0.33708,-0.32126 z" />
  </g>
  <g
     transform="translate(34.107,-199.0408)"
     id="endeavouros">
    <circle
       id="circle351"
       style="opacity:0;stroke-width:0.26458001;paint-order:stroke fill markers"
       r="4.2333002"
       cy="260.95001"
       cx="42.887001" />
    <g
       style="fill:#ffffff;stroke-width:22.33699989"
       id="g359"
       transform="matrix(0.044769,0,0,0.044769,32.866,248.05)">
      <path
         style="opacity:0.6"
         inkscape:connector-curvature="0"
         id="path353"
         d="m 236.45,207.73 -82.586,129.36 c 0,0 27.833,1.4843 70.426,0 42.378,-1.4769 65.25,-3.2659 73.499,-15.903 6.2808,-9.6217 6.9831,-24.859 -18.174,-62.541 -17.205,-25.77 -43.164,-50.915 -43.164,-50.915 z" />
      <path
         style="opacity:0.45"
         inkscape:connector-curvature="0"
         id="path355"
         d="m 236.41,207.85 -90.873,106.84 c 0,0 20.874,5.1313 58.943,7.7221 37.657,2.5628 65.302,6.1494 74.991,-6.8112 8.3212,-11.131 8.858,-22.964 -9.271,-57.322 -12.437,-23.57 -33.79,-50.432 -33.79,-50.432 z" />
      <path
         inkscape:connector-curvature="0"
         id="path357"
         d="m 893.53,23.049 -0.56836,0.66992 -266.23,417.01 c 36.515,5.3684 85.462,11.198 146.12,15.326 142.32,9.686 246.80996,23.241 283.42996,-25.744 31.45,-42.071 33.478,-86.792 -35.041,-216.65 -47.00396,-89.084 -127.70996,-190.61 -127.70996,-190.61 z"
         transform="matrix(0.26458,0,0,0.26458,0,201.75)" />
    </g>
  </g>
  <g
     id="haiku">
    <rect
       ry="0.52916664"
       y="69.639404"
       x="71.442429"
       height="10.049047"
       width="10.049047"
       id="rect1088"
       style="opacity:0;fill:#000000;fill-opacity:1;stroke:none;stroke-width:0.52916664;stroke-linecap:round;stroke-linejoin:round;stroke-miterlimit:4;stroke-dasharray:none;stroke-opacity:1;paint-order:stroke fill markers" />
    <path
       transform="matrix(0.11036302,0,0,0.11036302,72.897409,71.187493)"
       style="fill:#ffffff;filter:url(#filter4972);opacity:0.5"
       d="m 26,4 -4,2 v 44 l 4,-3 z"
       id="path1175-0"
       inkscape:connector-curvature="0" />
    <path
       transform="matrix(0.11036302,0,0,0.11036302,72.897409,71.187493)"
       style="fill:#ffffff;filter:url(#filter4972);opacity:0.5"
       d="m 48,9 -5,2 v 49 l 5,-5 z"
       id="path1182-8"
       inkscape:connector-curvature="0" />
    <path
       transform="matrix(0.11036302,0,0,0.11036302,72.897409,71.187493)"
       style="fill:#ffffff;filter:url(#filter4972);opacity:0.75"
       d="M 22,6 14,4 v 42 l 8,4 z"
       id="path1189-8"
       inkscape:connector-curvature="0" />
    <path
       transform="matrix(0.11036302,0,0,0.11036302,72.897409,71.187493)"
       style="fill:#ffffff;filter:url(#filter4972);opacity:0.75"
       d="m 43,12 -9,-2 v 46 l 9,4 z"
       id="path1196-5"
       inkscape:connector-curvature="0" />
    <path
       transform="matrix(0.11036302,0,0,0.11036302,72.897409,71.187493)"
       style="fill:#ffffff;filter:url(#filter4972);opacity:0.9"
       d="m 19,2 -5,2 8,2 4,-2 z"
       id="path1203-0"
       inkscape:connector-curvature="0" />
    <path
       transform="matrix(0.11036302,0,0,0.11036302,72.897409,71.187493)"
       style="fill:#ffffff;filter:url(#filter4972);opacity:0.9"
       d="m 40,7 -6,3 9,2 5,-3 z"
       id="path1210-9"
       inkscape:connector-curvature="0" />
    <path
       style="fill:#ffffff;filter:url(#filter4972)"
       d="m 22.09,36.5 c 5.02,4.81 10.22,6.2 15.34,5.32 -0.84,-0.62 -1.24,-1.38 -1.57,-2 5.72,3.27 8.58,-0.8 10.35,-2.11 -0.61,-0.49 -1.35,-0.11 -2.57,-1.59 1.56,0.21 2.58,0.14 4.02,0.13 0.91,-0.84 2.27,-1.5 3.11,-2.5 1.04,-1.23 2.36,-2.9 3.44,-4.3 -0.7,-0.42 -0.84,-0.8 -1.1,-1.33 0.64,0.16 1.27,0.24 1.91,0.23 0.86,-1.62 2.21,-2.64 3.12,-3.07 -3.79,-1.31 -8.64,-1.14 -12.16,-0.41 -1.17,1 -1.13,2.3 -1.52,4.45 -0.73,-0.96 -1.06,-2.17 -0.63,-3.83 -2.48,0.78 -4.88,1.83 -7.2,2.92 -0.91,0.42 -3.12,2 -4.41,2.5 -0.61,0.92 -1.12,1.79 -1.54,2.63 -0.03,-0.77 -0.15,-1.53 -0.09,-2.33 -4.25,0.67 -6.58,1.8 -9.23,4.16 C 15.68,35.39 11,33 11,33 v 2 c 0,0 5.33,1.82 11.1,1.5 z"
       transform="matrix(0.12363969,0.02653127,-0.02653127,0.12363969,72.591152,69.457542)"
       id="path1219-3"
       inkscape:connector-curvature="0" />
  </g>
  <g
     transform="translate(-0.48682156,-10.59695)"
     id="efi">
    <path
       d="m 52.336585,92.71002 c 2.3381,0 4.2333,1.8952 4.2333,4.2333 0,2.3381 -1.8952,4.2333 -4.2333,4.2333 -2.3381,0 -4.2333,-1.8952 -4.2333,-4.2333 0,-2.3381 1.8952,-4.2333 4.2333,-4.2333 z"
       id="path279-1"
       inkscape:connector-curvature="0"
       style="fill:#4d4d4d;stroke-width:0.28760999;opacity:0" />
    <path
       id="path2"
       d="m 51.807416,94.826654 -0.04536,0.55638 a 1.6630956,1.6630956 0 0 0 -0.48683,0.281214 l -0.508,-0.23888 -0.529167,0.919238 0.45962,0.317499 a 1.6630956,1.6630956 0 0 0 -0.02419,0.281215 1.6630956,1.6630956 0 0 0 0.02419,0.281214 l -0.45962,0.317501 0.529167,0.919238 0.504976,-0.238882 a 1.6630956,1.6630956 0 0 0 0.489857,0.278191 l 0.04536,0.559405 h 1.058333 l 0.04536,-0.556381 a 1.6630956,1.6630956 0 0 0 0.486833,-0.281215 l 0.508,0.238882 0.529166,-0.919238 -0.459619,-0.317501 a 1.6630956,1.6630956 0 0 0 0.02419,-0.281214 1.6630956,1.6630956 0 0 0 -0.02419,-0.281215 l 0.459619,-0.317499 -0.529166,-0.919238 -0.504976,0.23888 a 1.6630956,1.6630956 0 0 0 -0.489857,-0.27819 l -0.04536,-0.559404 z m 0.529167,1.511904 a 0.60476203,0.60476203 0 0 1 0.604762,0.604762 0.60476203,0.60476203 0 0 1 -0.604762,0.604763 0.60476203,0.60476203 0 0 1 -0.604761,-0.604763 0.60476203,0.60476203 0 0 1 0.604761,-0.604762 z"
       style="fill:#ffffff;stroke-width:0.30238104"
       inkscape:connector-curvature="0" />
  </g>
</svg>
