<svg xmlns="http://www.w3.org/2000/svg" xmlns:svg="http://www.w3.org/2000/svg" id="svg8" width="36" height="36" version="1.1" viewBox="0 0 9.525 9.525"><metadata id="metadata5"/><g id="layer1" transform="translate(0,-287.47498)"><rect style="opacity:.15;fill:#fff;fill-opacity:1;fill-rule:evenodd;stroke:none;stroke-width:.52916658;stroke-linecap:round;stroke-linejoin:round;stroke-miterlimit:4;stroke-dasharray:none;stroke-opacity:1;paint-order:stroke fill markers" id="select_c" width="2.117" height="9.525" x="3.969" y="287.475" ry=".017"/><path style="opacity:.15;fill:#fff;fill-opacity:1;fill-rule:evenodd;stroke:none;stroke-width:.52916658;stroke-linecap:round;stroke-linejoin:round;stroke-miterlimit:4;stroke-dasharray:none;stroke-opacity:1;paint-order:stroke fill markers" id="select_w" d="m 3.9527305,287.47604 c -0.7253518,0.009 -1.3068969,0.59441 -1.3068969,1.32188 v 6.87917 c 0,0.72747 0.5815451,1.31324 1.3068969,1.32188 0.00858,-8.4e-4 0.01602,-0.007 0.01602,-0.016 v -9.49089 c 0,-0.009 -0.00744,-0.0152 -0.01602,-0.016 z"/><path style="opacity:.15;fill:#fff;fill-opacity:1;fill-rule:evenodd;stroke:none;stroke-width:.52916658;stroke-linecap:round;stroke-linejoin:round;stroke-miterlimit:4;stroke-dasharray:none;stroke-opacity:1;paint-order:stroke fill markers" id="select_e" d="m 6.1014366,287.47604 c -0.00858,8.4e-4 -0.01602,0.007 -0.01602,0.016 v 9.49089 c 0,0.009 0.00744,0.0152 0.01602,0.016 0.7253517,-0.009 1.3068967,-0.59441 1.3068967,-1.32188 v -6.87917 c 0,-0.72747 -0.581545,-1.31324 -1.3068967,-1.32188 z"/></g></svg>