<?xml version="1.0" encoding="UTF-8" standalone="no"?>
<!-- Created with Inkscape (http://www.inkscape.org/) -->

<svg
   width="480"
   height="42"
   viewBox="0 0 127 11.1125"
   version="1.1"
   id="svg8"
   inkscape:version="1.1 (c4e8f9ed74, 2021-05-24)"
   sodipodi:docname="info.svg"
   inkscape:export-filename="/home/vince/Documents/GitHub/grub2-themes/assets/info.png"
   inkscape:export-xdpi="96"
   inkscape:export-ydpi="96"
   xmlns:inkscape="http://www.inkscape.org/namespaces/inkscape"
   xmlns:sodipodi="http://sodipodi.sourceforge.net/DTD/sodipodi-0.dtd"
   xmlns="http://www.w3.org/2000/svg"
   xmlns:svg="http://www.w3.org/2000/svg"
   xmlns:rdf="http://www.w3.org/1999/02/22-rdf-syntax-ns#"
   xmlns:cc="http://creativecommons.org/ns#"
   xmlns:dc="http://purl.org/dc/elements/1.1/">
  <defs
     id="defs2">
    <style
       id="current-color-scheme"
       type="text/css">.ColorScheme-Text {
        color:#363636;
      }</style>
  </defs>
  <sodipodi:namedview
     id="base"
     pagecolor="#5c5c5c"
     bordercolor="#666666"
     borderopacity="1.0"
     inkscape:pageopacity="0"
     inkscape:pageshadow="2"
     inkscape:zoom="0.9899495"
     inkscape:cx="139.90613"
     inkscape:cy="-3.0304576"
     inkscape:document-units="mm"
     inkscape:current-layer="g2833"
     showgrid="false"
     units="px"
     inkscape:window-width="1920"
     inkscape:window-height="1008"
     inkscape:window-x="0"
     inkscape:window-y="0"
     inkscape:window-maximized="1"
     inkscape:pagecheckerboard="0"
     inkscape:snap-bbox="true"
     inkscape:bbox-nodes="true"
     inkscape:snap-nodes="true"
     inkscape:snap-bbox-edge-midpoints="true">
    <inkscape:grid
       type="xygrid"
       id="grid28" />
  </sodipodi:namedview>
  <metadata
     id="metadata5">
    <rdf:RDF>
      <cc:Work
         rdf:about="">
        <dc:format>image/svg+xml</dc:format>
        <dc:type
           rdf:resource="http://purl.org/dc/dcmitype/StillImage" />
      </cc:Work>
    </rdf:RDF>
  </metadata>
  <g
     inkscape:label="Layer 1"
     inkscape:groupmode="layer"
     id="layer1"
     transform="translate(0,-287.47498)">
    <g
       id="g2833"
       transform="translate(61.9125,1.8526)">
      <g
         id="g930"
         transform="matrix(0.26458333,0,0,0.26458333,50.00625,289.06196)">
        <path
           id="path918"
           style="fill:#ffffff"
           d="m 191.375,-30.5 c -1.108,0 -2,0.892 -2,2 v 9 c 0,1.108 0.892,2 2,2 h 12 c 1.108,0 2,-0.892 2,-2 v -9 c 0,-1.108 -0.892,-2 -2,-2 z m 0,1 h 12 c 0.554,0 1,0.446 1,1 v 9 c 0,0.554 -0.446,1 -1,1 h -12 c -0.554,0 -1,-0.446 -1,-1 v -9 c 0,-0.554 0.446,-1 1,-1 z m 1.71875,1 -0.71875,0.6875 L 195,-25 l -2.59375,2.8125 0.6875,0.6875 2.96875,-3.15625 0.3125,-0.34375 -0.3125,-0.34375 z m 3.28125,7 v 1 h 4 v -1 z"
           transform="translate(-189.375,32.500007)" />
      </g>
      <g
         style="enable-background:new"
         id="g941"
         transform="matrix(0.26458333,0,0,0.26458333,4.0984488,289.06198)">
        <path
           d="M 7.5098,-8.3933e-5 C 6.98171,-9.4355e-5 6.4741,0.20956607 6.1016,0.58389607 5.73135,0.95590607 5.52356,1.4616461 5.52348,1.9861961 5.51562,2.5339661 5.08086,2.9637461 4.53325,2.9647161 4.37039,2.9626861 4.2124,2.9170011 4.07231,2.8338561 A 0.50005,0.50005 0 0 0 4.0645,2.8299461 c -0.94825,-0.54336 -2.1712,-0.2126 -2.7168,0.73438 l -0.51562,0.84766 a 0.50005,0.50005 0 0 0 -0.005859,0.00977 c -0.54496,0.94581 -0.21898,2.168 0.72461,2.7168 a 0.50005,0.50005 0 0 0 0.00195,0.00195 c 0.30786,0.17772 0.49609,0.50395 0.49609,0.85938 0,0.35554 -0.18818,0.68159 -0.49609,0.85938 -0.94343,0.54576 -1.2713,1.7668999 -0.72656,2.7108999 a 0.50005,0.50005 0 0 0 0,0.002 l 0.48828,0.8418 c 0,0 0.00195,0.002 0.00195,0.002 0.25709,0.46235 0.68834,0.80462 1.1973,0.94922 0.50986,0.14497 1.0572,0.0795 1.5195,-0.17969 a 0.50005,0.50005 0 0 0 0.00586,-0.0039 c 0.22559,-0.13165 0.49383,-0.16716 0.74609,-0.09961 a 0.50005,0.50005 0 0 0 0.00195,0 c 0.25231,0.0675 0.46602,0.23231 0.5957,0.45898 a 0.50005,0.50005 0 0 0 0.00391,0.0078 c 0.083519,0.14076 0.12916,0.29929 0.13086,0.46289 0.00256,1.0925 0.89902,1.9883 1.9922,1.9883 h 0.97852 c 1.0911,0 1.987,-0.89332 1.9922,-1.9844 a 0.50005,0.50005 0 0 0 0,-0.0039 c -0.0013,-0.26322 0.10291,-0.51496 0.28906,-0.70117 0.18507,-0.18507 0.43568,-0.2872 0.69727,-0.28711 0.16548,0.0054 0.32874,0.05101 0.47266,0.13281 0.9455,0.54308 2.1684,0.21626 2.7168,-0.72656 l 0.50977,-0.85156 a 0.50005,0.50005 0 0 0 0.0039,-0.0059 c 0.26597,-0.45645 0.3393,-0.99921 0.20312,-1.5098 -0.13616,-0.5104599 -0.46983,-0.9474699 -0.92774,-1.2108999 -0.22759,-0.13092 -0.39325,-0.34587 -0.46094,-0.59961 -0.06766,-0.25363 -0.03256,-0.52315 0.09961,-0.75 a 0.50005,0.50005 0 0 0 0.002,-0.00391 c 0.08524,-0.1488 0.20851,-0.27212 0.35742,-0.35742 a 0.50005,0.50005 0 0 0 0.0039,-0.00195 c 0.89916,-0.52597 1.2257,-1.6612 0.77734,-2.5859 a 0.50005,0.50005 0 0 0 -0.05273,-0.13086 l -0.48633,-0.84375 c -0.54562,-0.94691 -1.7685,-1.2777 -2.7168,-0.73438 a 0.50005,0.50005 0 0 0 -0.0059,0.00391 c -0.22567,0.13295 -0.49439,0.17132 -0.74805,0.10547 -0.25358,-0.06584 -0.47094,-0.23099 -0.60352,-0.45703 a 0.50005,0.50005 0 0 0 0,-0.00195 c -0.08345,-0.14063 -0.12913,-0.29929 -0.13086,-0.46289 v 0.019531 c 0.01552,-0.53821 -0.1872,-1.06120003 -0.5625,-1.44730003 -0.37528,-0.38603 -0.89133,-0.603740003 -1.4297,-0.603520003 h -0.97852 z m 0,1.000000003 h 0.97852 c 0.26844,-1.1316e-4 0.52569,0.10822003 0.71289,0.30078003 0.18718,0.19253 0.28703,0.45232 0.2793,0.7207 a 0.50005,0.50005 0 0 0 0,0.019531 c 0.00358,0.33821 0.097494,0.6697 0.26953,0.96094 0.26667,0.45468 0.70265,0.78549 1.2129,0.91797 0.50797,0.13186 1.049,0.057654 1.502,-0.20703 0.48013,-0.2751 1.0773,-0.11421 1.3535,0.36523 l 0.46875,0.8125 a 0.50005,0.50005 0 0 0 0.01758,0.035156 c 0.27261,0.47764 0.11336,1.0719 -0.36133,1.3496 -0.30024,0.17284 -0.54975,0.42233 -0.72266,0.72266 v 0.00195 c -0.26515,0.45616 -0.33913,0.99992 -0.20312,1.5098 0.13615,0.51038 0.4697,0.9455 0.92773,1.209 0.22756,0.13093 0.39328,0.3478999 0.46094,0.6015599 0.0673,0.25234 0.03091,0.51999 -0.09961,0.74609 -6.72e-4,0.0012 6.76e-4,0.0027 0,0.0039 l -0.51172,0.85156 a 0.50005,0.50005 0 0 0 -0.0039,0.0059 c -0.27779,0.47762 -0.87471,0.63719 -1.3535,0.36133 a 0.50005,0.50005 0 0 0 -0.002,-0.002 c -0.2896,-0.1656 -0.61582,-0.25672 -0.94922,-0.26562 a 0.50005,0.50005 0 0 0 -0.0098,0 c -0.52982,-0.0026 -1.0394,0.20741 -1.4141,0.58203 -0.37447,0.37457 -0.58457,0.88233 -0.58203,1.4121 -0.00472,0.55042 -0.44117,0.98438 -0.99219,0.98438 H 7.50974 c -0.55436,0 -0.99414,-0.43796 -0.99414,-0.99219 a 0.50005,0.50005 0 0 0 0,-0.0059 c -0.00351,-0.33749 -0.096364,-0.66827 -0.26758,-0.95898 -0.26208,-0.45657 -0.69447,-0.79164 -1.2031,-0.92774 -0.50677,-0.13569 -1.0479,-0.06304 -1.502,0.19922 -0.23061,0.12928 -0.5016,0.16018 -0.75586,0.08789 -0.25426,-0.07224 -0.46952,-0.24144 -0.59766,-0.47266 a 0.50005,0.50005 0 0 0 -0.00391,-0.0098 L 1.6933,11.072113 c -0.27481,-0.47621 -0.11658,-1.0704 0.35938,-1.3456999 0.61589,-0.35561 0.99609,-1.0154 0.99609,-1.7266 0,-0.71066 -0.38088,-1.3689 -0.99609,-1.7246 v -0.00195 C 1.5762,5.9951031 1.41771,5.4000031 1.6933,4.9216631 l 0.51562,-0.84766 a 0.50005,0.50005 0 0 0 0.00586,-0.00977 c 0.27621,-0.47941 0.87345,-0.64227 1.3535,-0.36719 0.29021,0.17048 0.62038,0.26409 0.95703,0.26758 a 0.50005,0.50005 0 0 0 0.00586,0 c 1.0839,1.326e-4 1.9766,-0.88107 1.9922,-1.9648 a 0.50005,0.50005 0 0 0 0,-0.00977 c -0.00125,-0.26248 0.10196,-0.51319 0.28711,-0.69922 0.18511,-0.186 0.43681,-0.29102003 0.69922,-0.29102003 z M 8.00003,4.9999161 c -1.6509,0 -3,1.3491 -3,3 0,1.6509 1.3491,2.9999999 3,2.9999999 1.6509,0 3,-1.3490999 3,-2.9999999 0,-1.6509 -1.3491,-3 -3,-3 z m 0,1 c 1.1105,0 2,0.88951 2,2 0,1.11049 -0.88951,2 -2,2 -1.11049,0 -2,-0.88951 -2,-2 0,-1.11049 0.88951,-2 2,-2 z"
           clip-rule="evenodd"
           color="#000000"
           color-rendering="auto"
           dominant-baseline="auto"
           fill="#363636"
           fill-rule="evenodd"
           image-rendering="auto"
           shape-rendering="auto"
           solid-color="#000000"
           stop-color="#000000"
           style="font-variant-ligatures:normal;font-variant-position:normal;font-variant-caps:normal;font-variant-numeric:normal;font-variant-alternates:normal;font-variant-east-asian:normal;font-feature-settings:normal;font-variation-settings:normal;text-indent:0;text-decoration-line:none;text-decoration-style:solid;text-decoration-color:#000000;text-transform:none;text-orientation:mixed;white-space:normal;shape-padding:0;shape-margin:0;inline-size:0;isolation:auto;mix-blend-mode:normal;fill:#ffffff"
           id="path932" />
      </g>
      <g
         id="g957"
         transform="matrix(0.26458333,0,0,0.26458333,-42.597917,289.06196)">
        <path
           id="path946"
           style="fill:#ffffff"
           class="ColorScheme-Text"
           d="m -158,-36 c -1.108,0 -2,0.892 -2,2 v 10 c 0,1.108 0.892,2 2,2 h 10 c 1.108,0 2,-0.892 2,-2 v -10 c 0,-1.108 -0.892,-2 -2,-2 z m 0,3 h 10 c 0.554,0 1,0.446 1,1 v 8 c 0,0.554 -0.446,1 -1,1 h -10 c -0.554,0 -1,-0.446 -1,-1 v -8 c 0,-0.554 0.446,-1 1,-1 z m 3,2 v 6 l 4,-3 z"
           transform="translate(161,36.999988)" />
      </g>
      <path
         id="rect981"
         style="opacity:1;fill:#ffffff;stroke:none;stroke-width:0.635;stroke-linecap:square"
         d="m -50.270833,288.00363 c -0.439745,0 -0.79375,0.354 -0.79375,0.79375 v 4.7625 c 0,0.43975 0.354005,0.79375 0.79375,0.79375 h 4.7625 c 0.439746,0 0.79375,-0.354 0.79375,-0.79375 v -4.7625 c 0,-0.43975 -0.354004,-0.79375 -0.79375,-0.79375 z m 4.094324,1.58649 c 0.0023,-1.1e-4 0.0044,0 0.0067,0 0.07329,0 0.132292,0.059 0.132292,0.13229 l 0,1.58851 c 0,0.055 -0.0331,0.10193 -0.08062,0.12196 -0.002,8.3e-4 -0.0042,10e-4 -0.0062,0.002 -0.0041,10e-4 -0.0081,0.003 -0.0124,0.004 -0.0063,0.002 -0.01295,0.003 -0.01964,0.004 -0.0045,4.5e-4 -0.0089,5.1e-4 -0.01343,5.1e-4 h -3.384807 l 0.896586,0.89659 c 0.05182,0.0518 0.05182,0.13524 0,0.18707 -0.05182,0.0518 -0.135245,0.0518 -0.187068,0 l -1.11311,-1.11363 c -0.0015,-10e-4 -0.0027,-0.003 -0.0041,-0.004 -0.0017,-0.002 -0.0035,-0.003 -0.0052,-0.005 -0.0015,-0.002 -0.0032,-0.003 -0.0046,-0.005 v -5.2e-4 c -0.0014,-0.002 -0.0028,-0.003 -0.0041,-0.005 -0.0014,-0.002 -0.0028,-0.004 -0.0041,-0.006 -9.69e-4,-10e-4 -0.0022,-0.003 -0.0031,-0.004 -2.73e-4,-4e-4 -7.67e-4,-6.3e-4 -10e-4,-10e-4 v -5.2e-4 c -0.0011,-0.002 -0.0021,-0.003 -0.0031,-0.005 -6.13e-4,-0.001 -0.0015,-0.002 -0.0021,-0.003 -1.8e-4,-3.2e-4 -3.39e-4,-7.1e-4 -5.16e-4,-10e-4 -2.96e-4,-5.5e-4 -7.46e-4,-10e-4 -10e-4,-0.002 -5.22e-4,-9.9e-4 -0.0011,-0.002 -0.0016,-0.003 -1.67e-4,-3.5e-4 -3.52e-4,-6.9e-4 -5.16e-4,-10e-4 -3.12e-4,-6.4e-4 -2.19e-4,-0.001 -5.16e-4,-0.002 -8.73e-4,-0.002 -0.0018,-0.004 -0.0026,-0.006 -7.51e-4,-0.002 -0.0019,-0.004 -0.0026,-0.006 v -5.2e-4 c -1.21e-4,-3.5e-4 -3.97e-4,-6.8e-4 -5.16e-4,-0.001 -9.1e-4,-0.003 -0.0013,-0.005 -0.0021,-0.008 -1.38e-4,-5.2e-4 -3.86e-4,-0.001 -5.19e-4,-0.002 -2.3e-4,-9.2e-4 -8.17e-4,-0.002 -0.001,-0.003 -3.52e-4,-0.002 -2.2e-4,-0.003 -5.16e-4,-0.005 -3.76e-4,-0.002 -7.47e-4,-0.004 -10e-4,-0.006 v -5.1e-4 c -2.54e-4,-0.002 -8.49e-4,-0.003 -0.001,-0.005 v -5.2e-4 -5.2e-4 c -4.05e-4,-0.004 -5.16e-4,-0.008 -5.16e-4,-0.0124 0,-0.002 -9.8e-5,-0.004 0,-0.006 v -5.2e-4 c 9.2e-5,-0.002 3.38e-4,-0.004 5.16e-4,-0.006 v -5.2e-4 -5.1e-4 c 1.93e-4,-0.002 7.64e-4,-0.004 0.001,-0.006 3.78e-4,-0.003 5e-4,-0.005 10e-4,-0.008 2.14e-4,-0.001 2.75e-4,-0.002 5.16e-4,-0.003 2.43e-4,-0.001 7.67e-4,-0.002 0.001,-0.003 8.1e-4,-0.003 0.0016,-0.006 0.0026,-0.009 1.22e-4,-3.6e-4 3.92e-4,-6.8e-4 5.16e-4,-0.001 v -5.1e-4 c 5.37e-4,-0.002 0.0015,-0.003 0.0021,-0.005 1.35e-4,-3.5e-4 3.76e-4,-6.9e-4 5.16e-4,-10e-4 v -5.1e-4 c 2.12e-4,-5.2e-4 2.99e-4,-10e-4 5.16e-4,-0.002 6.09e-4,-0.001 0.0014,-0.003 0.0021,-0.004 0.0012,-0.002 0.0023,-0.005 0.0036,-0.007 7.75e-4,-10e-4 0.0018,-0.003 0.0026,-0.004 0.0013,-0.002 0.0027,-0.005 0.0041,-0.007 9.68e-4,-10e-4 0.0021,-0.003 0.0031,-0.004 v -5.2e-4 c 3.68e-4,-5e-4 6.56e-4,-0.001 0.001,-0.002 8.83e-4,-0.001 0.0022,-0.002 0.0031,-0.003 v -5.1e-4 -5.2e-4 c 8.46e-4,-0.001 0.0017,-0.002 0.0026,-0.003 4.07e-4,-4.7e-4 0.0011,-5.7e-4 0.0016,-0.001 v -5.2e-4 c 0.0015,-0.002 0.003,-0.003 0.0046,-0.005 l 1.122413,-1.12293 c 0.05182,-0.0518 0.135244,-0.0518 0.187068,0 0.05182,0.0518 0.05182,0.13524 0,0.18707 l -0.896586,0.8971 h 3.252515 l 0,-1.4531 c 0,-0.071 0.05548,-0.12876 0.125574,-0.13229 z"
         sodipodi:nodetypes="ssssssssscsssccccscccccccccccccccccccccccccsccccccccscccccccscscccccccccccccccccccccccccscc" />
      <path
         id="rect1930"
         style="opacity:1;fill:#ffffff;stroke:none;stroke-width:0.635;stroke-linecap:square"
         d="m -4.2333333,288.00363 c -0.4397457,0 -0.79375,0.354 -0.79375,0.79375 v 4.7625 c 0,0.43975 0.3540043,0.79375 0.79375,0.79375 h 4.76249996 c 0.43974559,0 0.79375004,-0.354 0.79375004,-0.79375 v -4.7625 c 0,-0.43975 -0.35400445,-0.79375 -0.79375004,-0.79375 z m 1.190625,1.3224 2.38124998,10e-4 c 0.0732886,0 0.13229166,0.059 0.13229166,0.1323 0,0.0733 -0.0590031,0.13229 -0.13229166,0.13229 H -2.9104166 v 1.32291 h 1.98437495 c 0.0732886,0 0.13229166,0.059 0.13229166,0.1323 0,0.0733 -0.0590031,0.13229 -0.13229166,0.13229 H -2.9104166 v 1.5875 h 2.24895828 c 0.0732886,0 0.13229166,0.059 0.13229166,0.13229 0,0.0733 -0.0590031,0.13229 -0.13229166,0.13229 H -3.0427083 c -0.073289,0 -0.1322917,-0.059 -0.1322917,-0.13229 v -1.84537 c -1.137e-4,-0.003 0,-0.005 0,-0.007 0,-0.003 -1.137e-4,-0.005 0,-0.007 v -1.58078 c 0,-0.0733 0.059004,-0.13229 0.1322917,-0.13229 z" />
      <path
         id="rect1932"
         style="opacity:1;fill:#ffffff;stroke:none;stroke-width:2.4;stroke-linecap:square"
         d="M 392 9 C 390.33797 9 389 10.337953 389 12 L 389 30 C 389 31.662047 390.33797 33 392 33 L 410 33 C 411.66203 33 413 31.662047 413 30 L 413 12 C 413 10.337953 411.66203 9 410 9 L 392 9 z M 401 14 A 6.9999998 6.9999998 0 0 1 406.74219 17 L 405.46875 17 A 5.9999601 5.9999601 0 0 0 401 15 A 5.9999601 5.9999601 0 0 0 395 21 A 5.9999601 5.9999601 0 0 0 401 27 A 5.9999601 5.9999601 0 0 0 405.46875 25 L 406.72852 25 A 6.9999998 6.9999998 0 0 1 401 28 A 6.9999998 6.9999998 0 0 1 394 21 A 6.9999998 6.9999998 0 0 1 401 14 z "
         transform="matrix(0.26458333,0,0,0.26458333,-61.9125,285.62238)" />
    </g>
  </g>
</svg>
