<?xml version="1.0" encoding="UTF-8" standalone="no"?>
<!-- Created with Inkscape (http://www.inkscape.org/) -->

<svg
   xmlns:dc="http://purl.org/dc/elements/1.1/"
   xmlns:cc="http://creativecommons.org/ns#"
   xmlns:rdf="http://www.w3.org/1999/02/22-rdf-syntax-ns#"
   xmlns:svg="http://www.w3.org/2000/svg"
   xmlns="http://www.w3.org/2000/svg"
   xmlns:sodipodi="http://sodipodi.sourceforge.net/DTD/sodipodi-0.dtd"
   xmlns:inkscape="http://www.inkscape.org/namespaces/inkscape"
   width="360"
   height="360"
   viewBox="0 0 95.249999 95.250002"
   version="1.1"
   id="svg8"
   inkscape:version=""
   sodipodi:docname="logos.svg">
  <defs
     id="defs2">
    <linearGradient
       gradientUnits="userSpaceOnUse"
       gradientTransform="matrix(0,-1.1304,1.1304,0,-0.13,48.13)"
       x2="47"
       x1="1"
       id="b">
      <stop
         id="stop1203"
         offset="0"
         stop-color="#31af54" />
      <stop
         id="stop1205"
         offset="1"
         stop-color="#35bf5c" />
    </linearGradient>
    <linearGradient
       id="linearGradient3764"
       x1="1"
       x2="47"
       gradientUnits="userSpaceOnUse"
       gradientTransform="matrix(0,-0.26458333,0.26458333,0,49.509331,296.66825)">
      <stop
         style="stop-color:#c0e1f8;stop-opacity:1"
         id="stop2" />
      <stop
         offset="1"
         style="stop-color:#d2eafa;stop-opacity:1"
         id="stop4" />
    </linearGradient>
    <style
       type="text/css"
       id="current-color-scheme">
   .ColorScheme-Text { color:#565656; } .ColorScheme-Highlight { color:#5294e2; }
  </style>
    <style
       type="text/css"
       id="current-color-scheme-3">
   .ColorScheme-Text { color:#565656; } .ColorScheme-Highlight { color:#5294e2; }
  </style>
    <style
       type="text/css"
       id="current-color-scheme-6">
   .ColorScheme-Text { color:#565656; } .ColorScheme-Highlight { color:#5294e2; }
  </style>
    <style
       type="text/css"
       id="current-color-scheme-7">
   .ColorScheme-Text { color:#565656; } .ColorScheme-Highlight { color:#5294e2; }
  </style>
    <style
       type="text/css"
       id="current-color-scheme-5">
   .ColorScheme-Text { color:#565656; } .ColorScheme-Highlight { color:#5294e2; }
  </style>
    <style
       type="text/css"
       id="current-color-scheme-35">
   .ColorScheme-Text { color:#565656; } .ColorScheme-Highlight { color:#5294e2; }
  </style>
    <style
       type="text/css"
       id="current-color-scheme-2">
   .ColorScheme-Text { color:#565656; } .ColorScheme-Highlight { color:#5294e2; }
  </style>
    <style
       type="text/css"
       id="current-color-scheme-9">
   .ColorScheme-Text { color:#565656; } .ColorScheme-Highlight { color:#5294e2; }
  </style>
    <style
       type="text/css"
       id="current-color-scheme-1">
   .ColorScheme-Text { color:#565656; } .ColorScheme-Highlight { color:#5294e2; }
  </style>
    <style
       type="text/css"
       id="current-color-scheme-27" />
    <style
       type="text/css"
       id="current-color-scheme-0" />
    <style
       type="text/css"
       id="current-color-scheme-36">
   .ColorScheme-Text { color:#565656; } .ColorScheme-Highlight { color:#5294e2; }
  </style>
    <style
       type="text/css"
       id="current-color-scheme-06">
   .ColorScheme-Text { color:#565656; } .ColorScheme-Highlight { color:#5294e2; }
  </style>
  </defs>
  <sodipodi:namedview
     id="base"
     pagecolor="#ffffff"
     bordercolor="#666666"
     borderopacity="1.0"
     inkscape:pageopacity="0.0"
     inkscape:pageshadow="2"
     inkscape:zoom="3.959798"
     inkscape:cx="78.920665"
     inkscape:cy="139.25649"
     inkscape:document-units="mm"
     inkscape:current-layer="layer1"
     showgrid="true"
     units="px"
     inkscape:window-width="1280"
     inkscape:window-height="959"
     inkscape:window-x="0"
     inkscape:window-y="0"
     inkscape:window-maximized="1">
    <inkscape:grid
       type="xygrid"
       id="grid1031" />
  </sodipodi:namedview>
  <metadata
     id="metadata5">
    <rdf:RDF>
      <cc:Work
         rdf:about="">
        <dc:format>image/svg+xml</dc:format>
        <dc:type
           rdf:resource="http://purl.org/dc/dcmitype/StillImage" />
        <dc:title />
      </cc:Work>
    </rdf:RDF>
  </metadata>
  <g
     inkscape:label="Layer 1"
     inkscape:groupmode="layer"
     id="layer1"
     transform="translate(0,-201.74998)">
    <g
       id="antergos"
       transform="matrix(1.1428858,0,0,1.1428858,50.152332,205.50783)"
       style="stroke-width:0.87499529">
      <path
         id="path815"
         d="m 5.0899,-0.31739 c -1.8455,0 -3.5064,3.5059 -3.691,4.9821 -0.23017,1.8403 2.5836,2.2148 3.691,2.2148 1.1069,0 3.9207,-0.37454 3.6905,-2.2148 -0.18466,-1.4762 -1.8455,-4.9821 -3.6905,-4.9821 z"
         inkscape:connector-curvature="0"
         style="fill:#7986cb;fill-rule:evenodd;stroke-width:0.87499529" />
      <path
         id="path817"
         d="M 5.6114,5.5011 C 6.09004,4.3037 6.18368,2.7558 5.84157,1.6856 5.751596,1.40417 5.71079,1.46956 5.55125,2.14855 5.30958,3.17335 4.75142,4.40525 4.23145,5.06225 4.0876,5.24324 3.98088,5.42476 3.99448,5.46504 4.03999,5.60209 4.60965,5.76478 5.05688,5.76844 L 5.50257,5.7721 Z M 7.277,3.5881 C 7.277,2.98757 7.04579,2.4237 6.643,2.0397 6.46253,1.86708 6.38772,1.82523 6.42225,1.91363 6.65608,2.51416 6.87212,3.35953 6.94169,3.94743 L 7.025387,4.64996 7.150937,4.36068 C 7.236203,4.16608 7.277007,3.91395 7.277007,3.58805 Z M 3.4107,3.84965 C 3.91027,3.47772 4.424,2.96403 4.7436,2.51725 5.20707,1.8686 5.43462,1.34345 5.25206,1.34345 c -0.035048,0 -0.2626,0.14804 -0.5048,0.32956 -0.24272,0.18099 -0.71142,0.4687 -1.041,0.63924 -0.5932,0.30654 -0.60157,0.31439 -0.70358,0.65597 -0.14647,0.49224 -0.12973,1.1262 0.029294,1.1262 0.027725,0 0.19826,-0.10985 0.37873,-0.24481 z"
         inkscape:connector-curvature="0"
         style="fill:#ffffff;stroke-width:0.87499529" />
    </g>
    <g
       id="archlinux"
       transform="matrix(0.59260504,0,0,0.59260504,11.705128,209.24265)"
       style="stroke-width:0.87500131">
      <circle
         id="circle832"
         style="fill:#138ed3;stroke-width:1.62496507;paint-order:stroke markers fill"
         r="7.1436"
         cy="2.8228999e-07"
         cx="8.4665003" />
      <path
         id="path834"
         d="m 8.466,-4.6975 c -0.377,0.924 -0.604,1.529 -1.024,2.425 0.257,0.273 0.573,0.59 1.086,0.95 -0.551,-0.227 -0.928,-0.455 -1.209,-0.692 -0.537,1.121 -1.378,2.717 -3.086,5.785 1.342,-0.774 2.383,-1.252 3.352,-1.434 A 2.457,2.457 0 0 1 7.522,1.7615 l 10e-4,-0.043 c 0.022,-0.86 0.469,-1.521 0.999,-1.476 0.53,0.045 0.941,0.779 0.92,1.638 a 2.427,2.427 0 0 1 -0.054,0.462 c 0.959,0.188 1.988,0.664 3.312,1.428 -0.261,-0.48 -0.494,-0.913 -0.717,-1.326 -0.35,-0.272 -0.716,-0.625 -1.461,-1.008 0.512,0.133 0.88,0.287 1.165,0.459 -2.262,-4.212 -2.445,-4.772 -3.221,-6.593 z"
         inkscape:connector-curvature="0"
         style="fill:#ffffff;fill-rule:evenodd;stroke-width:1.68752754" />
    </g>
    <g
       id="chakra"
       transform="matrix(0.59258499,0,0,0.59258499,24.787404,38.257922)"
       style="stroke-width:0.8749972">
      <g
         id="g851"
         transform="matrix(1.0385,0,0,1.0385,-0.32619,-11.098)"
         style="stroke-width:1.56484509">
        <circle
           id="circle849"
           style="fill:#4e7ba0;stroke-width:1.56484509;paint-order:stroke markers fill"
           r="6.8790002"
           cy="288.53"
           cx="8.467" />
      </g>
      <path
         id="path853"
         d="m 8.665,284.42 c -0.944,0.03 2.513,4.66 -0.149,4.365 2.22,0.597 2.728,-2.186 2.275,-3.547 -0.45,-1.348 -0.683,-0.507 -2.021,-0.806 A 0.421,0.421 0 0 0 8.665,284.42 Z m -2.646,0.645 c -1.459,-0.002 -0.707,0.474 -1.414,1.618 -0.675,1.092 5.333,-0.864 4.185,1.58 1.27,-1.866 -1.297,-3.196 -2.77,-3.198 z m 1.027,2.09 c -1.167,-10e-4 -2.342,1.286 -2.67,2.264 -0.454,1.347 0.245,0.8 1.146,1.806 0.861,0.96 0.802,-5.192 2.84,-3.377 -0.403,-0.492 -0.859,-0.691 -1.316,-0.692 z m 5.059,0.219 c -0.725,-0.055 -3.695,3.664 -4.185,1.32 0.1,2.234 2.983,1.844 4.176,1.005 1.182,-0.832 0.286,-0.787 0.165,-2.116 -0.012,-0.139 -0.067,-0.202 -0.156,-0.21 z m -4.28,0.74 c -2.158,0.785 -0.885,3.326 0.306,4.168 1.18,0.835 0.86,0.02 2.123,-0.5 1.207,-0.499 -4.837,-2.346 -2.43,-3.667 z"
         inkscape:connector-curvature="0"
         style="fill:#ffffff;fill-rule:evenodd;stroke-width:1.68751955" />
    </g>
    <g
       id="debian"
       transform="matrix(0.59258499,0,0,0.59258499,37.86966,38.257922)"
       style="stroke-width:0.8749972">
      <g
         id="g871"
         transform="matrix(1.0385,0,0,1.0385,-0.32619,-11.098)"
         style="stroke-width:1.56484509">
        <circle
           id="circle869"
           style="fill:#f6476b;stroke-width:1.56484509;paint-order:stroke markers fill"
           r="6.8790002"
           cy="288.53"
           cx="8.467" />
      </g>
      <path
         id="path873"
         d="m 11.077,287.92 c 0.009,0.229 -0.066,0.34 -0.134,0.536 l -0.122,0.06 c -0.1,0.195 0.01,0.124 -0.062,0.278 -0.156,0.14 -0.474,0.434 -0.575,0.461 -0.074,0 0.05,-0.087 0.066,-0.12 -0.208,0.143 -0.167,0.215 -0.487,0.302 l -0.01,-0.021 c -0.787,0.37 -1.881,-0.364 -1.867,-1.366 -0.008,0.064 -0.024,0.048 -0.041,0.073 -0.04,-0.515 0.238,-1.033 0.708,-1.245 0.46,-0.227 1,-0.134 1.328,0.173 -0.18,-0.237 -0.54,-0.488 -0.967,-0.465 -0.418,0.006 -0.81,0.273 -0.94,0.561 -0.214,0.135 -0.239,0.52 -0.332,0.59 -0.126,0.924 0.236,1.322 0.848,1.791 0.096,0.065 0.027,0.075 0.04,0.125 a 1.66,1.66 0 0 1 -0.543,-0.415 c 0.082,0.119 0.17,0.234 0.283,0.325 -0.192,-0.065 -0.448,-0.465 -0.523,-0.481 0.33,0.592 1.34,1.038 1.87,0.816 -0.245,0.01 -0.556,0.005 -0.831,-0.096 -0.116,-0.06 -0.273,-0.183 -0.245,-0.206 0.722,0.27 1.468,0.204 2.093,-0.296 0.159,-0.124 0.333,-0.335 0.383,-0.338 -0.076,0.114 0.013,0.055 -0.045,0.155 0.158,-0.255 -0.07,-0.104 0.163,-0.44 l 0.086,0.118 c -0.032,-0.213 0.263,-0.47 0.233,-0.805 0.068,-0.103 0.076,0.11 0.004,0.346 0.1,-0.262 0.026,-0.304 0.052,-0.52 0.028,0.073 0.064,0.15 0.083,0.227 -0.065,-0.253 0.066,-0.426 0.099,-0.573 -0.032,-0.014 -0.1,0.112 -0.116,-0.187 0.003,-0.13 0.036,-0.068 0.05,-0.1 -0.026,-0.015 -0.093,-0.114 -0.134,-0.305 0.03,-0.045 0.079,0.116 0.12,0.123 -0.027,-0.152 -0.071,-0.267 -0.073,-0.384 -0.117,-0.245 -0.041,0.033 -0.136,-0.105 -0.125,-0.389 0.103,-0.09 0.119,-0.267 0.188,0.274 0.296,0.698 0.346,0.874 a 3.575,3.575 0 0 0 -0.174,-0.623 c 0.058,0.024 -0.092,-0.44 0.075,-0.133 -0.178,-0.656 -0.764,-1.27 -1.302,-1.558 0.065,0.06 0.149,0.136 0.119,0.148 -0.268,-0.16 -0.221,-0.172 -0.26,-0.24 -0.217,-0.088 -0.232,0.008 -0.376,0 -0.411,-0.218 -0.49,-0.194 -0.87,-0.33 l 0.018,0.08 c -0.272,-0.091 -0.317,0.034 -0.612,0 -0.018,-0.014 0.095,-0.05 0.187,-0.064 -0.263,0.035 -0.251,-0.052 -0.509,0.009 0.064,-0.045 0.13,-0.074 0.199,-0.112 -0.215,0.013 -0.513,0.125 -0.421,0.023 -0.35,0.156 -0.973,0.376 -1.322,0.703 l -0.011,-0.073 c -0.16,0.192 -0.698,0.574 -0.74,0.823 l -0.044,0.01 c -0.083,0.14 -0.137,0.3 -0.203,0.445 -0.109,0.186 -0.16,0.072 -0.144,0.1 -0.214,0.435 -0.32,0.8 -0.412,1.1 0.065,0.097 0,0.589 0.026,0.982 -0.108,1.943 1.363,3.829 2.971,4.264 0.236,0.085 0.586,0.081 0.884,0.09 -0.351,-0.1 -0.397,-0.054 -0.74,-0.173 -0.247,-0.116 -0.3,-0.25 -0.476,-0.401 l 0.07,0.122 c -0.344,-0.121 -0.2,-0.15 -0.48,-0.238 l 0.074,-0.097 c -0.11,-0.008 -0.294,-0.187 -0.344,-0.287 l -0.122,0.005 c -0.146,-0.18 -0.224,-0.31 -0.219,-0.41 l -0.039,0.07 c -0.044,-0.077 -0.538,-0.678 -0.282,-0.538 -0.048,-0.043 -0.11,-0.07 -0.18,-0.195 l 0.053,-0.06 c -0.123,-0.158 -0.227,-0.361 -0.22,-0.43 0.067,0.09 0.112,0.106 0.157,0.121 -0.31,-0.772 -0.328,-0.042 -0.564,-0.785 l 0.05,-0.004 c -0.038,-0.058 -0.062,-0.12 -0.092,-0.182 l 0.021,-0.216 c -0.224,-0.259 -0.062,-1.101 -0.03,-1.563 0.022,-0.188 0.187,-0.388 0.312,-0.702 L 5.82,286.787 c 0.146,-0.254 0.832,-1.02 1.15,-0.981 0.155,-0.194 -0.03,0 -0.06,-0.05 0.338,-0.35 0.445,-0.247 0.673,-0.31 0.246,-0.146 -0.211,0.057 -0.095,-0.056 0.426,-0.109 0.302,-0.247 0.857,-0.302 0.059,0.033 -0.136,0.051 -0.184,0.094 0.354,-0.173 1.122,-0.134 1.62,0.097 0.58,0.27 1.23,1.07 1.255,1.822 l 0.03,0.008 c -0.015,0.299 0.045,0.644 -0.06,0.962 l 0.071,-0.15"
         inkscape:connector-curvature="0"
         style="fill:#ffffff;stroke-width:1.68751955" />
    </g>
    <g
       id="deepin"
       transform="matrix(0.59258499,0,0,0.59258499,77.11644,38.257922)"
       style="stroke-width:0.8749972">
      <g
         id="g891"
         transform="matrix(1.0385,0,0,1.0385,-0.32619,-11.098)"
         style="stroke-width:1.56484509">
        <circle
           id="circle889"
           style="fill:#00bcfb;stroke-width:1.56484509;paint-order:stroke markers fill"
           r="6.8790002"
           cy="288.53"
           cx="8.467" />
      </g>
      <path
         id="path893"
         d="m 8.2,284.83 c -0.451,0.01 -0.42,0.091 -0.611,0.48 -0.308,0.624 -0.523,1.53 -0.479,2.065 0.047,0.571 0.2,0.944 0.497,1.222 0.355,0.338 0.79,0.294 1.156,-0.099 0.329,-0.353 0.45,-0.72 0.48,-1.52 0.017,-0.506 0.027,-0.567 0.065,-0.48 0.146,0.337 0.184,1.128 0.083,1.52 -0.084,0.325 -0.294,0.721 -0.463,0.877 -0.223,0.205 -0.463,0.298 -0.793,0.313 -0.222,0.01 -0.309,0.007 -0.48,-0.049 -0.438,-0.146 -0.979,-0.564 -1.289,-0.975 -0.441,-0.583 -0.88,-1.768 -0.992,-2.71 a 1.904,1.904 0 0 0 -0.065,-0.363 c -0.079,-0.09 -0.383,0.288 -0.479,0.595 -0.062,0.197 -0.066,0.29 -0.066,2.033 v 1.835 l 0.083,0.05 c 0.117,0.075 0.627,0.228 1.043,0.313 0.316,0.065 0.443,0.083 1.19,0.083 0.747,0 0.887,-0.02 1.174,-0.083 0.468,-0.103 0.817,-0.27 1.108,-0.562 0.409,-0.41 0.56,-0.826 0.562,-1.47 0,-0.429 -0.06,-0.771 -0.233,-1.109 -0.061,-0.123 -0.122,-0.224 -0.116,-0.231 0.039,-0.039 0.466,0.471 0.563,0.677 0.612,1.295 0.32,2.351 -0.943,3.404 -0.56,0.467 -1.528,1.108 -2.083,1.388 -0.194,0.097 -0.23,0.134 -0.182,0.182 0.012,0.012 0.978,0.022 2.148,0.016 l 2.133,-0.016 0.182,-0.083 c 0.368,-0.176 0.6,-0.436 0.71,-0.794 0.064,-0.204 0.066,-0.297 0.066,-2.809 0,-2.639 -0.004,-2.866 -0.115,-2.909 -0.026,-0.009 -0.275,0.019 -0.547,0.065 -0.3,0.054 -0.724,0.097 -1.09,0.117 -0.64,0.033 -0.962,0.095 -1.34,0.248 -0.35,0.143 -0.553,0.258 -0.744,0.413 -0.17,0.14 -0.194,0.158 -0.248,0.381 -0.076,0.307 -0.123,0.444 -0.249,0.611 -0.094,0.122 -0.185,0.182 -0.184,0.116 0.005,-0.118 0.112,-0.488 0.216,-0.695 0.307,-0.61 0.707,-1.047 1.488,-1.636 0.24,-0.183 0.446,-0.34 0.446,-0.365 0,-0.036 -0.174,-0.05 -0.96,-0.05 -0.28,0 -0.494,-0.002 -0.644,0 m 0.644,1.556 c 0.05,0 0.051,0.05 -0.016,0.546 -0.072,0.522 -0.26,0.94 -0.497,1.19 -0.167,0.177 -0.348,0.224 -0.478,0.131 a 0.53,0.53 0 0 1 -0.165,-0.313 c 0,-0.042 0.015,-0.044 0.065,-0.016 0.1,0.053 0.142,0.041 0.265,-0.066 0.205,-0.181 0.42,-0.7 0.53,-1.29 0.011,-0.068 0.2,-0.184 0.296,-0.184"
         inkscape:connector-curvature="0"
         style="fill:#ffffff;stroke-width:1.68751955" />
    </g>
    <g
       id="elementary"
       transform="matrix(0.59258499,0,0,0.59258499,77.11644,64.224004)"
       style="stroke-width:0.8749972">
      <g
         id="g911"
         transform="matrix(1.0385,0,0,1.0385,-0.32619,-11.098)"
         style="stroke-width:1.56484509">
        <circle
           id="circle909"
           style="fill:#666666;stroke-width:1.56484509;paint-order:stroke markers fill"
           r="6.8790002"
           cy="288.53"
           cx="8.467" />
      </g>
      <path
         id="path913"
         d="m 8.467,284.3 a 4.2335,4.2335 0 1 0 0,8.467 4.2335,4.2335 0 0 0 0,-8.467 z m 0,0.353 a 3.882,3.882 0 0 1 3.735,2.826 6.733,6.733 0 0 1 -1.645,2.145 c -0.33,0.285 -0.689,0.54 -1.086,0.719 -0.398,0.179 -0.835,0.28 -1.27,0.255 a 2.197,2.197 0 0 1 -0.936,-0.268 7.061,7.061 0 0 0 2.004,-1.616 c 0.368,-0.43 0.69,-0.92 0.813,-1.473 a 2,2 0 0 0 0.015,-0.843 1.558,1.558 0 0 0 -0.38,-0.748 1.526,1.526 0 0 0 -0.705,-0.418 1.854,1.854 0 0 0 -0.823,-0.03 c -0.545,0.1 -1.03,0.416 -1.42,0.809 -0.688,0.692 -1.113,1.67 -1.035,2.642 0.04,0.486 0.202,0.964 0.482,1.364 0.062,0.089 0.13,0.174 0.204,0.255 a 6.348,6.348 0 0 1 -1.255,0.3 3.88,3.88 0 0 1 3.302,-5.92 z m 0.024,0.784 c 0.273,0 0.548,0.083 0.765,0.247 0.197,0.148 0.342,0.36 0.424,0.59 0.083,0.232 0.104,0.484 0.076,0.728 -0.057,0.488 -0.303,0.936 -0.6,1.327 a 5.723,5.723 0 0 1 -2.25,1.75 2.004,2.004 0 0 1 -0.425,-0.521 c -0.231,-0.41 -0.307,-0.897 -0.262,-1.365 0.044,-0.468 0.205,-0.92 0.421,-1.338 0.25,-0.485 0.592,-0.944 1.07,-1.207 0.238,-0.132 0.509,-0.212 0.781,-0.211 z m 3.821,2.577 a 3.88,3.88 0 0 1 -6.837,2.992 c 0.44,-0.1 0.87,-0.243 1.281,-0.426 0.18,0.138 0.38,0.25 0.59,0.331 0.61,0.234 1.3,0.2 1.917,-0.014 0.616,-0.213 1.163,-0.596 1.64,-1.041 a 7.056,7.056 0 0 0 1.41,-1.842 z"
         inkscape:connector-curvature="0"
         style="fill:#ffffff;stroke-width:2.20053053" />
    </g>
    <g
       id="fedora"
       transform="matrix(0.59258499,0,0,0.59258499,11.705126,77.207039)"
       style="stroke-width:0.8749972">
      <g
         id="g931"
         transform="matrix(1.0385,0,0,1.0385,-0.32619,-11.098)"
         style="stroke-width:1.56484509">
        <circle
           id="circle929"
           style="fill:#225a84;stroke-width:1.56484509;paint-order:stroke markers fill"
           r="6.8790002"
           cy="288.53"
           cx="8.467" />
      </g>
      <path
         id="path933"
         d="m 8.731,284.04 a 4.234,4.234 0 0 0 -4.233,4.231 v 3.579 c 0,0.364 0.293,0.657 0.657,0.657 H 8.733 A 4.2335001,4.2335001 0 0 0 8.731,284.04 Z m 1.276,0.928 c 0.17,0 0.291,0.02 0.448,0.06 0.23,0.06 0.417,0.249 0.417,0.468 0,0.264 -0.191,0.457 -0.479,0.457 -0.136,0 -0.186,-0.027 -0.386,-0.027 -0.591,0 -1.07,0.48 -1.071,1.07 v 0.926 c 0,0.084 0.067,0.152 0.15,0.152 h 0.705 a 0.4725,0.4725 0 1 1 0,0.945 H 8.936 v 1.081 a 2.03,2.03 0 0 1 -2.03,2.03 c -0.17,0 -0.291,-0.02 -0.448,-0.061 -0.23,-0.06 -0.418,-0.248 -0.418,-0.467 0,-0.265 0.192,-0.457 0.48,-0.457 0.136,0 0.186,0.026 0.386,0.026 0.591,0 1.07,-0.479 1.071,-1.07 v -0.93 A 0.151,0.151 0 0 0 7.826,289.019 H 7.122 a 0.47251,0.47251 0 1 1 0.005,-0.945 h 0.85 v -1.076 a 2.03,2.03 0 0 1 2.03,-2.03 z"
         inkscape:connector-curvature="0"
         style="fill:#ffffff;stroke-width:1.68751955" />
    </g>
    <g
       id="gentoo"
       transform="matrix(0.59258499,0,0,0.59258499,24.787403,77.207039)"
       style="stroke-width:0.8749972">
      <g
         id="g951"
         transform="matrix(1.0385,0,0,1.0385,-0.32619,-11.098)"
         style="stroke-width:1.56484509">
        <circle
           id="circle949"
           style="fill:#b6057c;stroke-width:1.56484509;paint-order:stroke markers fill"
           r="6.8790002"
           cy="288.53"
           cx="8.467" />
      </g>
      <path
         id="path953"
         d="m 7.592,284.3 c -1.818,0.086 -3.241,1.735 -3.168,2.631 0.07,0.873 2.281,1.639 2.255,1.665 -0.452,0.382 -0.75,0.64 -1.128,0.985 -0.908,0.83 -1.535,1.445 -1.217,2.309 0.367,0.996 1.17,0.955 2.112,0.77 2.432,-0.48 6.433,-3.556 6.23,-4.69 -0.165,-0.919 -2.402,-2.734 -3.724,-3.384 A 2.798,2.798 0 0 0 7.592,284.3 Z m 0.376,1.575 c 0.227,-0.021 0.492,0.036 0.787,0.18 0.645,0.311 1.313,1.139 0,1.61 -0.357,0.128 -1.502,-0.308 -1.467,-0.913 0.031,-0.558 0.3,-0.841 0.68,-0.877 z"
         inkscape:connector-curvature="0"
         style="fill:#ffffff;fill-rule:evenodd;stroke-width:1.68751955" />
    </g>
    <g
       id="gnu-linux"
       transform="matrix(0.30238095,0,0,0.30238095,38.048847,243.35366)"
       style="stroke-width:0.87499994">
      <circle
         id="circle969"
         style="fill:#f2f2f2;fill-rule:evenodd;stroke-width:0.87499994;paint-order:stroke fill markers"
         r="14"
         cy="16"
         cx="16" />
      <g
         id="g991"
         transform="matrix(0.35714,0,0,0.35714,6.1499,3.857)"
         style="stroke-width:2.45000005">
        <path
           id="path971"
           d="m 20.254,22.904 c 0.72001,-2.852 0.026,-5.8841 0.126,-8.8241 0.22,-6.4201 3.784,-7.8761 7.4381,-8.0661 4.192,-0.22 9.1541,2.264 9.4541,8.3201 0.142,2.898 -0.37,5.8921 0.378,8.6961 1.742,6.5401 9.2201,11.262 9.3281,18.026 0.1,6.4281 -2.86,14.004 -8.3201,17.396 -2.82,1.752 -6.6461,-0.35 -9.9601,-0.126 -3.686,0.252 -7.7861,3.526 -10.966,1.64 C 11.96,56.54 10.368,47.756 10.8,41.056 11.24,34.2479 18.5841,29.52 20.2541,22.904 Z"
           inkscape:connector-curvature="0"
           style="fill:#2f3133;stroke-width:2.45000005" />
        <ellipse
           id="ellipse973"
           ry="3.832"
           rx="2.964"
           cy="17.563999"
           cx="30.52"
           style="fill:#fcfcfc;fill-opacity:0.94100001;stroke-width:2.45000005" />
        <ellipse
           id="ellipse975"
           ry="3.1199999"
           rx="2.0940001"
           cy="17.698"
           cx="23.5"
           style="fill:#fcfcfc;fill-opacity:0.94100001;stroke-width:2.45000005" />
        <ellipse
           id="ellipse977"
           ry="2.006"
           rx="1.214"
           cy="18.188"
           cx="30.152"
           style="fill:#232629;stroke-width:2.45000005" />
        <ellipse
           id="ellipse979"
           ry="1.494"
           rx="0.92400998"
           cy="18.188"
           cx="23.51"
           style="fill:#232629;stroke-width:2.45000005" />
        <path
           id="path981"
           d="m 30.128,21.514 a 10.136,10.136 0 0 0 -1.09,0.008 c -2.46,0.144 -5.0961,1.11 -6.4281,2.28 -2.132,1.874 -0.86801,3.696 -1.786,6.3281 -0.91799,2.6321 -3.228,6.0761 -3.92,9.3601 -0.28,1.326 -0.63601,2.652 -0.88001,3.984 l 6.5861,8.0481 c 1.294,1.58 -2.082,0.99401 -5.2221,-1.04 2.228,3.134 6.6481,6.2401 11.012,5.9461 4.648,-0.312 10.136,-5.1721 11.892,-9.1461 -1.704,-0.288 -3.36,-2.852 -1.996,-4.7621 0.474,-0.66201 1.492,-0.72001 2.366,-0.58001 -0.526,-2.036 -1.574,-3.86 -2.1,-5.3921 -0.91201,-2.672 -1.972,-3.42 -2.94,-5.7921 -0.97001,-2.372 0.054,-6.7601 -2.676,-8.4681 -0.76801,-0.48 -1.75,-0.72001 -2.818,-0.77401 z"
           inkscape:connector-curvature="0"
           style="fill:#f7f7f8;stroke-width:2.45000005" />
        <g
           id="g989"
           style="fill:#f7a931;stroke-width:2.45000005">
          <path
             id="path983"
             d="m 9.6657,46.73 c 0.97401,-0.78001 1.43,-2.366 2.646,-2.648 0.95201,-0.22 2.02,0.326 2.774,0.94601 1.722,1.416 1.984,4.028 3.34,5.8001 0.90401,1.178 2.436,1.848 3.152,3.15 0.74601,1.36 1.708,3.156 1.008,4.538 -0.94401,1.862 -3.648,2.44 -5.7361,2.52 -1.268,0.05 -2.37,-0.92001 -3.592,-1.26 -1.78,-0.496 -3.834,-0.19 -5.4201,-1.134 -1.256,-0.74601 -2.744,-1.882 -2.836,-3.34 -0.038,-0.57601 0.80401,-0.89001 0.94401,-1.45 0.372,-1.472 -1.054,-3.18 -0.378,-4.54 0.72001,-1.444 2.836,-1.574 4.098,-2.582 z"
             inkscape:connector-curvature="0"
             style="stroke-width:2.45000005" />
          <path
             id="path985"
             d="m 37.86,44.538 c -0.402,0.36 -0.74201,0.81401 -0.99001,1.264 -1.076,1.954 -0.35,4.48 -0.95401,6.6261 -0.404,1.43 -1.578,2.62 -1.76,4.092 -0.19,1.54 -0.42,3.564 0.74201,4.59 1.568,1.38 4.294,0.91401 6.2621,0.216 1.198,-0.424 1.86,-1.732 2.87,-2.5 1.468,-1.12 3.49,-1.6 4.614,-3.062 0.89001,-1.16 1.854,-2.764 1.4,-4.152 -0.18,-0.54801 -1.076,-0.53001 -1.414,-0.99801 -0.89001,-1.23 -0.2,-3.34 -1.33,-4.352 -0.84001,-0.75001 -2.074,-0.66401 -3.266,-0.69601 -0.57601,1.234 -2.452,2.074 -3.742,1.716 -1.092,-0.304 -2.18,-1.546 -2.432,-2.744 z"
             inkscape:connector-curvature="0"
             style="stroke-width:2.45000005" />
          <path
             id="path987"
             d="m 26.462,18.304 c 1.318,-0.07 2.53,0.78401 3.72,1.354 1.15,0.55401 3.114,0.72001 3.276,1.986 0.186,1.438 -1.84,2.286 -3.024,3.12 -1.058,0.74601 -2.238,1.62 -3.53,1.608 -1.306,-0.014 -2.462,-0.95001 -3.53,-1.702 -0.88001,-0.62001 -2.266,-1.192 -2.3,-2.27 -0.038,-1.152 1.38,-1.886 2.3,-2.584 0.91201,-0.69201 1.944,-1.452 3.088,-1.512 z"
             inkscape:connector-curvature="0"
             style="stroke-width:2.45000005" />
        </g>
      </g>
    </g>
    <g
       id="kali"
       transform="matrix(0.592585,0,0,0.592585,50.95193,243.17446)"
       style="stroke-width:0.8749972">
      <g
         id="g1017"
         transform="matrix(1.0385,0,0,1.0385,-0.32619,-0.32516)"
         style="stroke-width:1.6250447">
        <path
           id="path1015"
           d="m 8.467,1.587 a 6.879,6.879 0 1 1 0,13.758 6.879,6.879 0 0 1 0,-13.758 z"
           inkscape:connector-curvature="0"
           style="fill:#2883b6;stroke-width:1.6250447" />
      </g>
      <path
         id="path1019"
         d="M 7.818,3.76 C 8.042,4.359 8.308,5.041 8.705,5.56 8.268,5.344 7.782,5.2 7.402,4.892 c 0.047,0.12 0.03,0.249 0.026,0.35 A 5.317,5.317 0 0 1 6.476,4.865 c 0.08,0.15 0.093,0.31 0.073,0.45 C 6.223,5.345 5.87,5.243 5.569,5.189 5.707,5.314 5.772,5.479 5.828,5.645 5.506,5.701 5.174,5.76 4.848,5.791 4.986,5.884 5.088,6.019 5.167,6.148 4.914,6.36 4.594,6.551 4.333,6.711 A 0.638,0.638 0 0 1 4.796,6.836 9.444,9.444 0 0 1 4.233,7.716 C 4.397,7.677 4.545,7.643 4.723,7.643 4.661,7.995 4.617,8.363 4.485,8.695 4.632,8.588 4.791,8.534 4.955,8.477 5.112,8.744 5.128,9.18 5.186,9.415 a 0.498,0.498 0 0 1 0.258,-0.29 c 1.78,1.748 4.71,1.442 4.967,4.034 0.08,-1.01 -0.398,-1.724 -0.952,-2.215 C 8.999,10.536 6.904,9.566 6.806,9.502 5.005,8.308 5.248,6.695 6.516,6.287 a 2.727,2.727 0 0 1 3.015,0.946 c 0.176,0.223 0.427,0.631 0.662,0.807 0.445,0.334 2.036,1.109 1.409,2.03 C 12.147,9.93 12.563,9.54 12.7,8.993 12.273,8.81 11.63,8.423 11.681,7.881 11.743,7.855 11.811,7.861 11.88,7.861 10.444,5.361 10.061,6.231 8.619,3.906 8.799,4.55 9.191,5.344 9.663,5.785 8.88,5.315 8.372,4.472 7.818,3.76 Z m 2.95,3.155 c 0.163,0.227 0.3,0.48 0.496,0.675 -0.19,-0.066 -0.945,-0.563 -0.496,-0.675 z"
         inkscape:connector-curvature="0"
         style="fill:#ffffff;stroke-width:1.68751943" />
    </g>
    <g
       id="korora"
       transform="matrix(0.592585,0,0,0.592585,64.034177,248.1916)"
       style="stroke-width:0.8749972">
      <g
         id="g1037"
         transform="matrix(1.0385,0,0,1.0385,-0.41232,-8.7922)"
         style="stroke-width:1.56484509">
        <path
           id="path1035"
           d="m 8.467,1.588 a 6.879,6.879 0 1 1 0,13.757 6.879,6.879 0 0 1 0,-13.757 z"
           inkscape:connector-curvature="0"
           style="fill:#4380b4;stroke-width:1.56484509" />
      </g>
      <path
         id="path1039"
         d="m 9.596,-4.2335 a 3.104,3.104 0 0 0 -3.01,2.355 3.104,3.104 0 0 0 -2.353,3.008 v 3.104 h 3.105 a 3.104,3.104 0 0 0 3.01,-2.354 3.104,3.104 0 0 0 2.352,-3.008 v -3.105 z m 0,0.444 h 2.66 v 2.66 a 2.661,2.661 0 0 1 -1.827,2.524 3.104,3.104 0 0 0 0.013,-0.265 3.104,3.104 0 0 0 -3.104,-3.106 3.104,3.104 0 0 0 -0.268,0.013 2.661,2.661 0 0 1 2.526,-1.827 z m -2.258,2.258 a 2.661,2.661 0 0 1 2.66,2.66 2.661,2.661 0 0 1 -0.03,0.374 2.661,2.661 0 0 1 -0.372,0.03 2.661,2.661 0 0 1 -2.661,-2.661 2.661,2.661 0 0 1 0.03,-0.374 2.661,2.661 0 0 1 0.373,-0.03 z m -0.834,0.137 a 3.104,3.104 0 0 0 -0.013,0.266 3.104,3.104 0 0 0 3.105,3.104 3.104,3.104 0 0 0 0.267,-0.013 2.661,2.661 0 0 1 -2.525,1.827 h -2.66 v -2.66 a 2.661,2.661 0 0 1 1.826,-2.524 z"
         inkscape:connector-curvature="0"
         style="fill:#ffffff;stroke-width:1.68751943" />
    </g>
    <g
       id="kubuntu"
       transform="matrix(0.592585,0,0,0.592585,64.034181,209.24247)"
       style="stroke-width:0.8749972">
      <g
         id="g1057"
         transform="matrix(1.0385,0,0,1.0385,-0.41232,-8.7922)"
         style="stroke-width:1.56484509">
        <path
           id="path1055"
           d="m 8.467,1.588 a 6.879,6.879 0 1 1 0,13.757 6.879,6.879 0 0 1 0,-13.757 z"
           inkscape:connector-curvature="0"
           style="fill:#1a87e2;stroke-width:1.56484509" />
      </g>
      <path
         id="path1059"
         d="m 8.467,-4.2335 a 4.2335,4.2335 0 1 0 0,8.467 4.2335,4.2335 0 0 0 0,-8.467 z m -0.257,0.85 c 0.02,0.002 0.037,0.014 0.046,0.032 l 0.418,0.879 c 0.203,0.006 0.408,0.041 0.607,0.105 l 0.671,-0.671 a 0.056,0.056 0 0 1 0.07,-0.008 l 0.534,0.325 a 0.057,0.057 0 0 1 0.024,0.068 l -0.324,0.914 c 0.122,0.136 0.226,0.285 0.31,0.444 h 0.997 c 0.027,0 0.05,0.019 0.056,0.044 l 0.148,0.608 a 0.057,0.057 0 0 1 -0.03,0.065 l -1.25,0.273 a 2.044,2.044 0 0 0 -2.67,-1.631 l -0.01,-0.006 -0.268,-1.236 c 0,-0.026 0.019,-0.049 0.044,-0.055 l 0.607,-0.148 c 0.007,-0.002 0.013,-0.002 0.02,-0.002 z m -1.98,0.894 a 0.056,0.056 0 0 1 0.037,0.01 l 0.95,0.865 A 2.038,2.038 0 0 0 7.08,1.4985 v 0.014 L 6.226,2.4555 A 0.058,0.058 0 0 1 6.156,2.4475 L 5.714,2.0065 A 0.057,0.057 0 0 1 5.707,1.9345 L 6.241,1.1205 A 2.21,2.21 0 0 1 6.014,0.5475 L 5.092,0.3215 A 0.057,0.057 0 0 1 5.049,0.2665 v -0.625 c 0,-0.027 0.019,-0.05 0.045,-0.056 l 0.95,-0.198 c 0.053,-0.175 0.127,-0.342 0.218,-0.496 l -0.517,-0.852 a 0.057,0.057 0 0 1 0.008,-0.07 l 0.442,-0.442 a 0.055,0.055 0 0 1 0.035,-0.017 z m 4.232,2.93 1.24,0.278 c 0.022,0.012 0.034,0.04 0.027,0.065 l -0.162,0.603 a 0.057,0.057 0 0 1 -0.059,0.043 l -0.972,-0.057 a 2.21,2.21 0 0 1 -0.383,0.483 l 0.265,0.911 a 0.057,0.057 0 0 1 -0.026,0.065 L 9.85,3.1435 A 0.057,0.057 0 0 1 9.779,3.1325 L 9.133,2.4075 c -0.178,0.042 -0.359,0.062 -0.538,0.06 l -0.48,0.873 A 0.057,0.057 0 0 1 8.05,3.3685 L 7.446,3.2055 A 0.057,0.057 0 0 1 7.404,3.1475 L 7.73,1.9125 7.736,1.9095 a 2.044,2.044 0 0 0 2.726,-1.468 z"
         inkscape:connector-curvature="0"
         style="fill:#ffffff;stroke-width:1.68751943" />
    </g>
    <g
       id="linux-mint"
       transform="matrix(0.592585,0,0,0.592585,11.705125,222.22553)"
       style="stroke-width:0.8749972">
      <g
         id="g1142"
         transform="matrix(1.0385,0,0,1.0385,-0.41232,-8.7922)"
         style="stroke-width:1.56484509">
        <path
           id="path1140"
           d="m 8.467,1.588 a 6.879,6.879 0 1 1 0,13.757 6.879,6.879 0 0 1 0,-13.757 z"
           inkscape:connector-curvature="0"
           style="fill:#78b75b;stroke-width:1.56484509" />
      </g>
      <path
         id="path1144"
         overflow="visible"
         d="m 4.233,-3.7945 v 2.426 h 0.999 v 0.487 l 10e-4,1.91 c 0,1.573 1.366,2.767 2.94,2.767 H 12.7 v -4.802 c 0,-1.575 -1.365,-2.767 -2.94,-2.767 l -1.317,-0.003 z m 0.643,0.645 3.565,0.016 v 0.003 H 9.76 c 1.27,0 2.3,0.951 2.3,2.125 v 3.513 c 0,0.39 -0.352,0.645 -0.753,0.645 H 8.174 c -1.269,0 -2.298,-0.951 -2.298,-2.125 l -0.003,-2.408 a 0.635,0.635 0 0 0 -0.597,-0.629 h -0.4 z m 1.615,0.714 v 3.49 c 0,0.37 0.135,0.695 0.399,0.957 0.225,0.223 0.496,0.367 0.8,0.4 h 0.861 v -0.685 l -0.74,-0.003 c -0.358,0 -0.666,-0.35 -0.666,-0.799 v -3.36 z m 2.468,0.574 c -0.298,0 -0.562,0.11 -0.775,0.325 a 1.087,1.087 0 0 0 -0.323,0.784 v 1.526 h 0.692 v -1.526 c 0,-0.116 0.038,-0.207 0.12,-0.29 a 0.375,0.375 0 0 1 0.286,-0.122 c 0.116,0 0.203,0.038 0.286,0.122 0.083,0.083 0.12,0.174 0.12,0.29 v 1.526 h 0.693 v -1.526 c 0,-0.116 0.038,-0.207 0.12,-0.29 a 0.374,0.374 0 0 1 0.286,-0.122 c 0.114,0 0.202,0.038 0.285,0.122 0.083,0.083 0.12,0.174 0.12,0.29 l 0.005,1.518 h 0.69 l -0.002,-1.518 c 0,-0.302 -0.11,-0.57 -0.323,-0.784 a 1.062,1.062 0 0 0 -0.775,-0.325 c -0.292,0 -0.547,0.108 -0.753,0.307 a 1.057,1.057 0 0 0 -0.752,-0.307 z"
         inkscape:connector-curvature="0"
         style="overflow:visible;fill:#ffffff;fill-rule:evenodd;stroke-width:1.68751943" />
    </g>
    <g
       id="lubuntu"
       transform="matrix(0.592585,0,0,0.592585,24.787403,217.20839)"
       style="stroke-width:0.8749972">
      <g
         id="g1162"
         transform="matrix(1.0385,0,0,1.0385,-0.41232,-0.32567)"
         style="stroke-width:1.56484509">
        <path
           id="path1160"
           d="m 8.467,1.588 a 6.879,6.879 0 1 1 0,13.757 6.879,6.879 0 0 1 0,-13.757 z"
           inkscape:connector-curvature="0"
           style="fill:#1d89db;stroke-width:1.56484509" />
      </g>
      <path
         id="path1164"
         overflow="visible"
         d="M 8.467,4.233 A 4.23,4.23 0 0 0 4.242,8.301 C 5.645,7.311 8.032,5.686 8.624,5.643 8.82,5.394 9.496,5.193 9.618,5.198 L 9.263,5.643 c 0,0 -0.006,0.45 -0.137,0.537 1.223,0.817 1.807,3.75 2.057,5.53 l -0.105,0.084 A 4.222,4.222 0 0 0 12.7,8.467 4.233,4.233 0 0 0 8.467,4.233 Z m -0.06,3.478 c -0.33,0.01 -0.998,0.993 -1.76,2.045 -0.366,0.506 -0.84,1.198 -1.19,1.678 L 5.207,11.159 C 5.923,9.985 6.816,8.552 6.773,8.499 6.763,8.494 6.752,8.486 6.738,8.489 6.496,8.525 5.52,9.74 4.823,10.614 A 4.228,4.228 0 0 0 8.467,12.7 c 0.943,0 1.81,-0.312 2.514,-0.833 C 10.46,10.274 9.453,7.729 8.441,7.723 8.431,7.721 8.417,7.711 8.407,7.711 Z M 5.95,8.123 C 5.65,8.121 4.88,8.393 4.242,8.638 4.267,9.27 4.429,9.865 4.702,10.395 4.83,10.201 5.052,9.883 5.185,9.688 5.692,8.942 6.191,8.282 6.075,8.146 6.055,8.123 6.009,8.123 5.95,8.123 Z M 4.237,8.39 c 0,0.026 -0.004,0.05 -0.004,0.077 0,0.035 0.005,0.07 0.006,0.105 z m 0.473,2.022 c 0.026,0.051 0.054,0.101 0.082,0.151 z"
         inkscape:connector-curvature="0"
         style="overflow:visible;fill:#ffffff;fill-rule:evenodd;stroke-width:1.68751943" />
    </g>
    <g
       id="mageia"
       transform="matrix(0.592585,0,0,0.592585,37.86966,222.22553)"
       style="stroke-width:0.8749972">
      <g
         id="g1182"
         transform="matrix(1.0385,0,0,1.0385,-0.41232,-8.7922)"
         style="stroke-width:1.56484509">
        <path
           id="path1180"
           d="m 8.467,1.588 a 6.879,6.879 0 1 1 0,13.757 6.879,6.879 0 0 1 0,-13.757 z"
           inkscape:connector-curvature="0"
           style="fill:#405474;stroke-width:1.56484509" />
      </g>
      <g
         id="g1186"
         transform="translate(0,-8.4665)"
         style="fill:#f9f9f9;stroke-width:1.26568341">
        <path
           id="path1184"
           d="m 6.767,7.392 a 0.465,0.465 0 0 0 -0.296,0.105 3.233,3.233 0 0 0 -1.18,2.507 c 0,1.778 1.426,3.224 3.176,3.224 1.75,0 3.175,-1.446 3.175,-3.224 0,-0.978 -0.43,-1.892 -1.18,-2.507 a 0.468,0.468 0 0 0 -0.591,0 2.187,2.187 0 0 1 -1.404,0.506 c -0.515,0 -1,-0.174 -1.403,-0.506 A 0.47,0.47 0 0 0 6.767,7.392 Z M 6.97,8.559 c 0.43,0.282 0.956,0.436 1.497,0.436 0.541,0 1.069,-0.154 1.497,-0.436 a 2.116,2.116 0 1 1 -2.994,0 z M 8.114,3.705 a 0.35350035,0.35350035 0 1 0 10e-4,0.707 0.3535,0.3535 0 0 0 0,-0.707 z M 9.208,4.41 a 0.3535,0.3535 0 1 0 0,0.707 0.3535,0.3535 0 0 0 0,-0.707 z M 8.29,4.763 a 0.53,0.53 0 0 0 0,1.058 0.53,0.53 0 0 0 0,-1.058 z m 1.06,1.058 a 0.53,0.53 0 0 0 0,1.059 0.53,0.53 0 0 0 0,-1.059 z M 7.586,6.174 a 0.53,0.53 0 0 0 0,1.058 0.53,0.53 0 0 0 0,-1.058 z"
           inkscape:connector-curvature="0"
           style="stroke-width:1.26568341" />
      </g>
    </g>
    <g
       id="manjaro"
       transform="matrix(0.59263518,0,0,0.59257804,50.951932,222.22543)"
       style="stroke-width:0.87500745">
      <g
         id="g1212"
         transform="matrix(1.0384,0,0,1.0385,-0.32571,-8.7917)"
         style="stroke-width:1.56486344">
        <path
           id="path1210"
           d="M 27,-5 C 41.36,-5 53,6.64 53,21 53,35.36 41.36,47 27,47 12.64,47 1,35.36 1,21 1,6.64 12.64,-5 27,-5 Z"
           transform="matrix(0.26458,0,0,0.26458,1.323,2.91)"
           inkscape:connector-curvature="0"
           style="fill:url(#b);stroke-width:1.56486344" />
      </g>
      <path
         id="path1214"
         d="m 4.7624,-4.2335 v 2.513 H 4.76357 L 4.7624,-0.79373 H 6.879 v -1.0583 h 2.6458 v -2.3812 l -4.7624,0.00675 m 5.2916,-0.00675 v 8.4665 h 2.1166 v -8.4665 m -4.7624,2.9104 v 5.5561 h 2.1166 v -5.5561 m -4.7624,1.0583 0.00117,4.4981 2.1155,-2.5e-4 v -4.4978"
         inkscape:connector-curvature="0"
         style="fill:#ffffff;fill-rule:evenodd;stroke-width:1.26561081" />
    </g>
    <g
       id="opensuse"
       transform="matrix(0.592585,0,0,0.592585,64.03418,222.22553)"
       style="stroke-width:0.8749972">
      <g
         id="g1233"
         transform="matrix(1.0385,0,0,1.0385,-0.41232,-8.7922)"
         style="stroke-width:1.6250447">
        <path
           id="path1231"
           d="m 8.467,1.588 a 6.879,6.879 0 1 1 0,13.757 6.879,6.879 0 0 1 0,-13.757 z"
           inkscape:connector-curvature="0"
           style="fill:#49bf3d;stroke-width:1.6250447" />
      </g>
      <path
         id="path1235"
         overflow="visible"
         d="m 8.467,-4.2335 a 4.2335,4.2335 0 1 0 0,8.467 4.2335,4.2335 0 0 0 0,-8.467 z m 0,0.941 a 3.293,3.293 0 1 1 0,6.585 3.268,3.268 0 0 1 -2.235,-0.882 c 0.19,-0.026 0.49,-0.03 0.882,0.015 0.573,0.065 0.887,0.087 1.264,0.059 0.86,-0.065 1.428,-0.207 2.058,-0.515 0.33,-0.16 0.4,-0.233 0.47,-0.426 0.069,-0.183 0.094,-0.353 0.06,-0.353 -0.013,0 -0.121,0.042 -0.25,0.103 -0.485,0.23 -0.91,0.343 -1.28,0.324 C 9.053,1.5975 8.434,1.3735 7.688,1.0145 L 7.335,0.8525 7.07,0.1915 7.32,0.3525 a 7.425,7.425 0 0 0 1.544,0.75 c 0.642,0.203 1.143,0.175 1.66,-0.088 0.183,-0.093 0.53,-0.32 0.53,-0.353 0,-0.06 -0.178,-0.656 -0.28,-0.926 -0.254,-0.674 -0.433,-0.902 -0.852,-1.102 -0.466,-0.222 -0.982,-0.373 -1.926,-0.588 -0.45,-0.096 -0.894,-0.193 -1.352,-0.25 l -0.015,0.558 a 15.22,15.22 0 0 0 -0.867,-0.235 3.3,3.3 0 0 1 2.705,-1.41 z m 0.779,2.381 a 0.7,0.7 0 0 1 0.69,0.544 c 0.045,0.175 0.031,0.3 -0.058,0.485 A 0.676,0.676 0 0 1 9.143,0.4855 0.687,0.687 0 0 1 8.628,0.0885 c -0.122,-0.265 -0.065,-0.617 0.147,-0.809 a 0.727,0.727 0 0 1 0.47,-0.19 z m 0.161,0.368 c -0.246,0 -0.4,0.18 -0.264,0.308 0.11,0.104 0.294,0.12 0.44,0.045 0.096,-0.049 0.128,-0.123 0.104,-0.22 -0.018,-0.073 -0.16,-0.133 -0.28,-0.133 z"
         inkscape:connector-curvature="0"
         style="overflow:visible;fill:#ffffff;stroke-width:1.68751943" />
    </g>
    <g
       id="siduction"
       transform="matrix(0.592585,0,0,0.592585,64.034182,230.19142)"
       style="stroke-width:0.8749972">
      <g
         id="g1253"
         transform="matrix(1.0385,0,0,1.0385,-0.41232,-0.32567)"
         style="stroke-width:1.56484509">
        <path
           id="path1251"
           d="m 8.467,1.588 a 6.879,6.879 0 1 1 0,13.757 6.879,6.879 0 0 1 0,-13.757 z"
           inkscape:connector-curvature="0"
           style="fill:#364b7b;stroke-width:1.56484509" />
      </g>
      <g
         id="g1273"
         style="fill:#fbfdfc;fill-rule:evenodd;stroke-width:1.68751943">
        <circle
           id="circle1255"
           style="stroke-width:1.68751943;paint-order:fill markers stroke"
           r="0.79373002"
           cy="5.5560999"
           cx="8.4665003" />
        <circle
           id="circle1257"
           style="stroke-width:1.68751943;paint-order:fill markers stroke"
           r="0.79373002"
           cy="8.4665003"
           cx="8.4665003" />
        <circle
           id="circle1259"
           style="stroke-width:1.68751943;paint-order:fill markers stroke"
           r="0.79373002"
           cy="11.377"
           cx="8.4665003" />
        <circle
           id="circle1261"
           style="stroke-width:1.68751943;paint-order:fill markers stroke"
           r="0.79373002"
           cy="8.4665003"
           cx="5.2916002" />
        <circle
           id="circle1263"
           style="stroke-width:1.68751943;paint-order:fill markers stroke"
           r="0.79373002"
           cy="8.4665003"
           cx="11.641" />
        <circle
           id="circle1265"
           style="stroke-width:1.68751943;paint-order:fill markers stroke"
           r="0.79373002"
           cy="7.0058999"
           cx="6.8790002" />
        <circle
           id="circle1267"
           style="stroke-width:1.68751943;paint-order:fill markers stroke"
           r="0.79373002"
           cy="9.9117002"
           cx="6.8790002" />
        <circle
           id="circle1269"
           style="stroke-width:1.68751943;paint-order:fill markers stroke"
           r="0.79373002"
           cy="7.0058999"
           cx="10.054" />
        <circle
           id="circle1271"
           style="stroke-width:1.68751943;paint-order:fill markers stroke"
           r="0.79373002"
           cy="9.9117002"
           cx="10.054" />
      </g>
    </g>
    <g
       id="solus"
       transform="matrix(1.0666855,0,0,1.0666855,12.205987,230.9056)"
       style="stroke-width:0.93750197">
      <g
         id="g1304"
         transform="matrix(0.63633,0,0,0.63602,10.606,-179.78)"
         style="stroke-width:1.59347188">
        <circle
           id="circle1298"
           r="5.8210001"
           cy="289.32001"
           cx="-10.015"
           style="fill:#4c5263;stroke-width:1.59347188" />
        <path
           id="path1300"
           style="color:#000000;font-weight:400;text-indent:0;text-decoration:none;text-decoration-line:none;text-decoration-style:solid;text-decoration-color:#000000;text-transform:none;white-space:normal;overflow:visible;isolation:auto;mix-blend-mode:normal;solid-color:#000000;fill:#ffffff;fill-rule:evenodd;stroke-width:1.59347188"
           overflow="visible"
           font-weight="400"
           d="m -4.331,290.52 c -0.85,1.145 -2.418,1.757 -4.286,2.029 -1.95,0.283 -4.21,0.199 -6.226,0.027 0.096,0.144 0.202,0.284 0.311,0.419 1.942,0.154 3.964,0.755 5.854,0.48 1.577,-0.23 3.119,-1.232 4.096,-2.096 a 5.61,5.61 0 0 0 0.25,-0.86 z"
           inkscape:connector-curvature="0" />
        <path
           id="path1302"
           d="m -8.561,292.94 c -1.976,0.279 -3.988,0.21 -5.97,0.058 1.275,1.627 3.493,2.447 5.54,2.052 1.978,-0.34 3.71,-1.788 4.408,-3.666 -1.174,0.833 -2.56,1.338 -3.978,1.556 z"
           inkscape:connector-curvature="0"
           style="fill:#5294e2;stroke-width:1.59347188" />
      </g>
      <path
         id="path1306"
         d="M 2.6925,0.12808 C 2.26603,1.86918 1.0381,4.00998 0.2654,5.37618 1.6126,5.70027 3.1079,5.79483 4.2667,5.90049 4.246485,5.63769 4.05151,2.77819 4.0039,2.22719 3.52721,1.36316 3.13987,0.91649 2.6926,0.12809 Z m 1.6394,2.2302 c 0.63251,1.3023 0.63251,2.5908 0.2628,3.5422 C 5.1164,5.90374 5.9674,5.961779 6.8901,5.50661 6.13172,3.77461 4.3319,2.35831 4.3319,2.35831 Z M 5.5787,3.14602 C 5.97061,3.40882 6.34491,3.64815 6.6279,3.93246 7.01133,4.3172 7.20762,4.83694 7.15286,5.37616 7.66673,5.11728 8.0071,4.68689 8.20276,4.32626 7.86041,4.0113 7.26702,3.70022 6.62796,3.47398 6.27582,3.34878 5.90416,3.23531 5.57806,3.14598 Z"
         inkscape:connector-curvature="0"
         style="fill:#ffffff;fill-rule:evenodd;stroke-width:1.02065837" />
    </g>
    <g
       id="steamos"
       transform="matrix(1.1428777,0,0,1.1428777,24.966649,230.37062)"
       style="stroke-width:0.87500149">
      <path
         id="path1323"
         d="m 4.2332,0.52916 c 2.0458,0 3.7041,1.6583 3.7041,3.7041 0,2.0458 -1.6583,3.7041 -3.7041,3.7041 -2.0458,0 -3.7041,-1.6583 -3.7041,-3.7041 0,-2.0458 1.6583,-3.7041 3.7041,-3.7041 z"
         inkscape:connector-curvature="0"
         style="fill:#4d4d4d;stroke-width:0.25165042" />
      <g
         id="g1333"
         transform="matrix(0.16282,0,0,0.16282,0.32563,0.48845)"
         style="fill:#ffffff;stroke-width:1.42187738">
        <path
           id="path1325"
           d="m 26,18 v 9.625 l 3.684,0.957 4.287,-6.742 H 30.346 L 26,18"
           inkscape:connector-curvature="0"
           style="stroke-width:1.42187738" />
        <path
           id="path1327"
           d="m 31,11 a 6,6 0 0 0 -6,6 6,6 0 0 0 6,6 6,6 0 0 0 6,-6 6,6 0 0 0 -6,-6 z m 0,2 a 4,4 0 0 1 4,4 4,4 0 0 1 -4,4 4,4 0 0 1 -4,-4 4,4 0 0 1 4,-4 z m 0,2 a 2,2 0 0 0 -2,2 2,2 0 0 0 2,2 2,2 0 0 0 2,-2 2,2 0 0 0 -2,-2 z m -16,6 a 4,4 0 0 0 -4,4 4,4 0 0 0 4,4 4,4 0 0 0 4,-4 4,4 0 0 0 -4,-4 z m 0,1 a 3,3 0 0 1 3,3 3,3 0 0 1 -3,3 3,3 0 0 1 -3,-3 3,3 0 0 1 3,-3 z"
           inkscape:connector-curvature="0"
           style="stroke-width:1.42187738" />
        <rect
           id="rect1329"
           rx="1.982"
           height="3.964"
           width="17.423"
           y="13.579"
           x="22.784"
           transform="matrix(0.8931,0.44985,-0.45815,0.88887,0,0)"
           style="stroke-width:1.42187738" />
        <path
           id="path1331"
           d="m 27,27 a 4,4 0 0 0 -4,4 4,4 0 0 0 4,4 4,4 0 0 0 4,-4 4,4 0 0 0 -4,-4 z m 0,1 a 3,3 0 0 1 3,3 3,3 0 0 1 -3,3 3,3 0 0 1 -3,-3 3,3 0 0 1 3,-3 z"
           inkscape:connector-curvature="0"
           style="stroke-width:1.42187738" />
      </g>
    </g>
    <g
       id="ubuntu"
       transform="matrix(1.1428881,0,0,1.1428881,37.14166,231.27721)"
       style="stroke-width:0.8749935">
      <g
         id="g1353"
         transform="matrix(0.53846,0,0,0.53846,0.42321,-1.1189)"
         style="stroke-width:1.56483841">
        <path
           id="path1351"
           d="m 8.467,1.588 a 6.879,6.879 0 1 1 0,13.757 6.879,6.879 0 0 1 0,-13.757 z"
           inkscape:connector-curvature="0"
           style="fill:#f63f33;stroke-width:1.56483841" />
      </g>
      <path
         id="path1355"
         d="m 5.0272,1.2448 a 2.1951,2.1951 0 1 0 0,4.3902 2.1951,2.1951 0 0 0 0,-4.3902 z M 5.80962,1.85663 A 0.29243,0.29243 0 0 1 6.02739,2.29373 0.29295,0.29295 0 1 1 5.80962,1.85663 Z M 5.02668,2.16669 c 0.11822,0 0.23229,0.016074 0.34066,0.046147 a 0.41117,0.41117 0 0 0 0.55117,0.3194 c 0.21673,0.2131 0.35777,0.50295 0.37851,0.82597 l -0.41739,0.0057 A 0.85605,0.85605 0 0 0 4.66633,2.663937 L 4.46256,2.298397 a 1.2688,1.2688 0 0 1 0.56465,-0.1317 z m -0.7062,0.21362 0.21466,0.35932 a 0.85501,0.85501 0 0 0 0,1.4005 l -0.21466,0.3588 a 1.2745,1.2745 0 0 1 -0.52576,-0.7399 0.41013,0.41013 0 0 0 0,-0.63828 1.2755,1.2755 0 0 1 0.52576,-0.74042 z M 3.53443,3.14666 a 0.293215,0.293215 0 1 1 0,0.58643 0.292955,0.292955 0 0 1 0,-0.58591 z m 2.3452,0.36865 0.41739,0.00674 A 1.2693,1.2693 0 0 1 5.91851,4.3475 0.40962,0.40962 0 0 0 5.36734,4.66638 1.2724,1.2724 0 0 1 4.46255,4.581346 l 0.20377,-0.36503 a 0.85553,0.85553 0 0 0 1.2133,-0.70101 z M 5.73704,4.44135 A 0.29359,0.29359 0 1 1 5.808593,5.02415 0.29359,0.29359 0 0 1 5.73704,4.44135 Z"
         inkscape:connector-curvature="0"
         style="fill:#ffffff;stroke-width:0.8749935" />
    </g>
    <g
       id="windows"
       transform="matrix(0.61539237,0,0,0.61539237,50.759212,235.2051)"
       style="stroke-width:0.87500376">
      <g
         id="g1373"
         style="stroke-width:1.56328154;paint-order:markers stroke fill"
         transform="matrix(1.04,0,0,1.04,-0.339,-300.07)">
        <path
           id="path1371"
           d="m 8.4665,281.92 c 3.6644,0 6.6145,2.9501 6.6145,6.6145 0,3.6644 -2.9501,6.6145 -6.6145,6.6145 -3.6644,0 -6.6145,-2.9501 -6.6145,-6.6145 0,-3.6644 2.9501,-6.6145 6.6145,-6.6145 z"
           inkscape:connector-curvature="0"
           style="fill:#2196f3;stroke-width:1.56328154" />
      </g>
      <path
         id="path1375"
         d="m 4.852,-0.2645 -0.003,-2.58 2.894,-0.431 v 3.011 z m 3.374,-3.088 3.857,-0.616 v 3.704 H 8.226 Z m 3.858,3.617 -10e-4,3.704 -3.857,-0.595 v -3.109 z m -4.34,3.042 -2.892,-0.435 v -2.608 h 2.891 v 3.042 z"
         inkscape:connector-curvature="0"
         style="fill:#ffffff;stroke-width:1.62505698" />
    </g>
    <g
       id="xubuntu"
       transform="matrix(0.592585,0,0,0.592585,77.116439,222.22553)"
       style="stroke-width:0.8749972">
      <g
         id="g1393"
         transform="matrix(1.0385,0,0,1.0385,-0.41232,-8.7922)"
         style="stroke-width:1.56484509">
        <path
           id="path1391"
           d="m 8.467,1.588 a 6.879,6.879 0 1 1 0,13.757 6.879,6.879 0 0 1 0,-13.757 z"
           inkscape:connector-curvature="0"
           style="fill:#0044aa;stroke-width:1.56484509" />
      </g>
      <g
         id="g1399"
         transform="translate(0,-8.4665)"
         style="fill:#ffffff;stroke-width:1.68751943">
        <path
           id="path1395"
           d="m 10.69,4.22 c -0.02,0.013 -0.03,0.024 -0.024,0.016 -0.23,0.39 -0.233,0.901 -0.337,1.36 a 0.17,0.17 0 0 1 0,0.023 c -0.051,0.502 -0.215,1.013 -0.084,1.495 a 0.17,0.17 0 0 1 0.014,0.03 c 0.024,0.032 0.055,0.06 0.073,0.065 0.014,0.002 0.034,-0.004 0.082,-0.037 0.051,-0.036 0.084,-0.101 0.1,-0.196 a 0.17,0.17 0 0 1 0.029,-0.07 C 10.748,6.089 10.895,5.232 10.84,4.393 a 0.17,0.17 0 0 1 0,-0.009 C 10.833,4.345 10.821,4.322 10.784,4.277 A 0.385,0.385 0 0 0 10.736,4.226 C 10.73,4.221 10.736,4.22 10.712,4.222 A 0.17,0.17 0 0 1 10.69,4.221 Z m 1.892,0.398 a 0.159,0.159 0 0 1 -0.017,0 c -0.354,0.173 -0.536,0.59 -0.78,0.924 a 0.159,0.159 0 0 1 -0.019,0.047 c -0.308,0.546 -0.7,1.088 -0.742,1.72 0.002,0.1 0.059,0.157 0.118,0.17 a 0.228,0.228 0 0 0 0.2,-0.087 c 0.003,-0.01 0,-0.018 0.006,-0.026 A 0.159,0.159 0 0 1 11.352,7.36 C 11.911,6.592 12.333,5.68 12.68,4.795 A 0.159,0.159 0 0 1 12.681,4.793 C 12.705,4.734 12.706,4.712 12.685,4.668 12.679,4.655 12.616,4.613 12.582,4.618 Z"
           inkscape:connector-curvature="0"
           style="stroke-width:1.68751943" />
        <path
           id="path1397"
           d="M 7.084,4.873 C 7.027,4.883 6.943,4.934 6.882,4.958 6.669,5.038 6.552,5.222 6.5,5.435 c -0.051,0.22 -0.034,0.463 0,0.712 0.035,0.248 0.084,0.504 0.138,0.7 0.047,0.17 0.08,0.252 0.096,0.308 v 0.042 c 0,0.019 -0.009,0.017 -0.021,0.032 -0.007,0.004 0.006,0.021 0,0.021 A 0.09,0.09 0 0 1 6.66,7.272 C 6.622,7.274 6.592,7.26 6.553,7.25 6.527,7.244 6.493,7.223 6.5,7.23 6.488,7.222 6.466,7.22 6.458,7.208 c 0,0.005 0.007,0.005 0,-0.01 C 6.449,7.181 6.44,7.141 6.426,7.112 6.396,7.048 6.372,6.973 6.331,6.879 A 8.48,8.48 0 0 0 6.023,6.242 2.048,2.048 0 0 0 5.609,5.69 0.696,0.696 0 0 0 5.344,5.531 0.43,0.43 0 0 0 5.057,5.573 0.866,0.866 0 0 0 4.632,6.147 C 4.58,6.375 4.605,6.639 4.643,6.868 c 0.039,0.23 0.1,0.418 0.138,0.573 0.017,0.066 0.037,0.127 0.042,0.16 a 0.932,0.932 0 0 1 -0.02,0.148 c -0.04,0.14 -0.139,0.372 -0.139,0.372 0,0 -1.852,4.919 2.123,4.574 0.033,-0.002 0.107,-0.021 0.138,-0.021 0.78,-0.157 1.52,-0.393 2.176,-0.658 0.129,-0.062 0.298,-0.123 0.488,-0.212 0.38,-0.178 0.857,-0.407 1.316,-0.658 0.459,-0.253 0.885,-0.521 1.21,-0.807 0.326,-0.286 0.564,-0.6 0.52,-0.913 C 12.565,8.922 12.231,8.548 11.786,8.259 11.339,7.969 10.782,7.768 10.226,7.622 A 15.933,15.933 0 0 0 8.719,7.292 C 8.513,7.261 8.319,7.252 8.199,7.229 8.163,7.223 8.144,7.214 8.124,7.208 8.114,7.207 8.113,7.203 8.104,7.198 8.091,7.19 8.068,7.189 8.061,7.176 c -0.007,-0.012 0,-0.028 0,-0.042 V 6.805 A 6.685,6.685 0 0 0 7.986,5.902 C 7.933,5.588 7.851,5.288 7.679,5.085 a 0.602,0.602 0 0 0 -0.425,-0.212 0.58,0.58 0 0 0 -0.17,0 z"
           inkscape:connector-curvature="0"
           style="stroke-width:1.68751943" />
      </g>
    </g>
    <g
       id="kaos"
       transform="matrix(0.69565219,0,0,0.69565219,43.275066,46.231228)">
      <path
         id="path17"
         style="fill:url(#linearGradient3764);fill-opacity:1;stroke-width:0.26458332"
         d="m 55.859331,284.23283 c 3.361003,0 6.085417,2.72441 6.085417,6.08542 0,3.361 -2.724414,6.08541 -6.085417,6.08541 -3.361002,0 -6.085416,-2.72441 -6.085416,-6.08541 0,-3.36101 2.724414,-6.08542 6.085416,-6.08542 z"
         inkscape:connector-curvature="0" />
      <path
         id="path27"
         style="opacity:1;fill:#144b70;fill-opacity:1;stroke:none;stroke-width:0.26458332"
         d="m 53.478081,287.937 c 0.417513,0 0.529167,0.12409 0.529167,0.52916 0,0.52917 -0.264583,1.05834 -0.264583,1.85209 0,0.79375 0,2.11666 0.79375,3.43958 -1.058334,-1.05833 -2.116667,-2.64583 -2.116667,-4.23333 0,-0.79375 0.264583,-1.5875 1.058333,-1.5875 z"
         inkscape:connector-curvature="0" />
      <path
         id="path29"
         style="opacity:1;fill:#2b93d9;fill-opacity:1;stroke:none;stroke-width:0.26458332"
         d="m 57.182248,287.40783 c 0.529167,0 0.79375,0.26458 0.79375,0.52917 0,0.79375 -1.852083,1.05833 -2.38125,1.32291 -0.529167,0.26459 -1.5875,0.79375 -1.719792,2.38125 -0.132291,-2.11666 0.926042,-4.23333 3.307292,-4.23333 z"
         inkscape:connector-curvature="0" />
      <path
         id="path31"
         style="opacity:1;fill:#6eb6e6;fill-opacity:1;stroke:none;stroke-width:0.26458332"
         d="m 54.007248,291.48241 c 0,-0.52916 0.529167,-1.16416 1.5875,-1.16416 1.5875,0 2.910417,1.05833 3.704167,2.11666 -0.826294,-0.42068 -1.852084,-0.79375 -2.645834,-0.79375 -1.322916,0 -1.723231,0.26459 -2.116666,0.26459 -0.264584,0 -0.529167,0 -0.529167,-0.42334 z"
         inkscape:connector-curvature="0" />
    </g>
    <g
       id="macosx"
       transform="translate(-30.466986,-21.245246)">
      <path
         style="fill:#333333;stroke-width:0.28760564"
         inkscape:connector-curvature="0"
         d="m 60.271319,278.1867 c 2.338099,0 4.233333,1.89523 4.233333,4.23333 0,2.3381 -1.895234,4.23333 -4.233333,4.23333 -2.338099,0 -4.233333,-1.89523 -4.233333,-4.23333 0,-2.3381 1.895234,-4.23333 4.233333,-4.23333 z"
         id="path955" />
      <path
         inkscape:connector-curvature="0"
         id="path121"
         style="display:inline;fill:#ffffff;fill-opacity:1;fill-rule:evenodd;stroke-width:0.0647677;enable-background:new"
         d="m 61.128374,280.44345 c 0.20078,-0.24998 0.336908,-0.58961 0.299349,-0.93383 -0.28918,0.0122 -0.649477,0.20085 -0.858211,0.44356 -0.184379,0.21533 -0.348178,0.5673 -0.305755,0.89907 0.324526,0.0242 0.656894,-0.16421 0.864603,-0.40877 z m 0.731666,2.16273 c -0.0069,-0.73615 0.602341,-1.09356 0.629932,-1.11061 -0.344694,-0.50308 -0.879157,-0.57125 -1.067604,-0.57747 -0.449171,-0.0458 -0.883976,0.26987 -1.113111,0.26987 -0.233196,-2e-5 -0.585364,-0.26441 -0.964644,-0.25688 -0.48888,0.007 -0.946676,0.29037 -1.197295,0.72873 -0.515952,0.89596 -0.131317,2.21188 0.36424,2.93435 0.248241,0.35564 0.537416,0.75147 0.916702,0.73583 0.370957,-0.0141 0.509249,-0.23552 0.957609,-0.23552 0.443667,0 0.573629,0.23552 0.960707,0.22795 0.398347,-0.006 0.648874,-0.35627 0.888516,-0.71339 0.285405,-0.40737 0.400646,-0.80675 0.405244,-0.82803 -0.0089,-0.004 -0.772134,-0.29356 -0.780296,-1.17483 z" />
    </g>
    <g
       id="cancel"
       transform="translate(-24.817164,-1.9400715)">
      <path
         style="fill:#4d4d4d;stroke-width:0.28760564"
         inkscape:connector-curvature="0"
         d="m 41.539583,271.86456 c 2.338099,0 4.233333,1.89523 4.233333,4.23333 0,2.3381 -1.895234,4.23333 -4.233333,4.23333 -2.338099,0 -4.233333,-1.89523 -4.233333,-4.23333 0,-2.3381 1.895234,-4.23333 4.233333,-4.23333 z"
         id="path1000" />
      <path
         inkscape:connector-curvature="0"
         style="fill:#ffffff;stroke-width:0.26458332"
         d="m 41.010417,274.51039 -1.322917,0.79375 1.322917,0.79375 v -0.52917 h 0.79375 c 0.4445,0 0.793751,0.34951 0.793751,0.79375 0,0.44424 -0.34925,0.79375 -0.793751,0.79375 h -1.322916 v 0.52917 h 1.322916 c 0.727604,0 1.322916,-0.59452 1.322916,-1.32292 0,-0.7284 -0.595312,-1.32292 -1.322916,-1.32292 h -0.79375 z"
         id="path989" />
    </g>
    <g
       id="driver"
       transform="translate(-11.734902,-0.3525815)">
      <path
         id="path1050"
         d="m 41.539583,270.27707 c 2.338099,0 4.233333,1.89523 4.233333,4.23333 0,2.3381 -1.895234,4.23333 -4.233333,4.23333 -2.338099,0 -4.233333,-1.89523 -4.233333,-4.23333 0,-2.3381 1.895234,-4.23333 4.233333,-4.23333 z"
         inkscape:connector-curvature="0"
         style="fill:#4d4d4d;stroke-width:0.28760564" />
      <path
         inkscape:connector-curvature="0"
         style="color:#565656;fill:#ffffff;stroke-width:0.26458332"
         class="ColorScheme-Text"
         d="m 40.530595,272.53585 -0.343648,0.19843 0.0894,0.18966 a 0.62364937,0.62364937 0 0 0 -0.104903,0.18241 l -0.20929,0.0176 v 0.39688 l 0.20929,0.0176 a 0.62364937,0.62364937 0 0 0 0.04444,0.0961 0.62364937,0.62364937 0 0 0 0.06046,0.0868 l -0.0894,0.18914 0.343648,0.19895 0.11989,-0.1726 a 0.62364937,0.62364937 0 0 0 0.210323,-5.1e-4 l 0.119889,0.17311 0.343648,-0.19843 -0.0894,-0.19017 a 0.62364937,0.62364937 0 0 0 0.10542,-0.18242 l 0.20929,-0.0176 v -0.39688 l -0.20929,-0.0171 a 0.62364937,0.62364937 0 0 0 -0.04444,-0.0961 0.62364937,0.62364937 0 0 0 -0.06098,-0.0868 l 0.0894,-0.18966 -0.343648,-0.19843 -0.119373,0.17208 a 0.62364937,0.62364937 0 0 0 -0.21084,5.2e-4 z m 0.219625,0.56017 a 0.22678496,0.22678496 0 0 1 0.202055,0.11317 0.22678496,0.22678496 0 0 1 -0.0832,0.30954 0.22678496,0.22678496 0 0 1 -0.309542,-0.0827 0.22678496,0.22678496 0 0 1 0.08268,-0.31006 0.22678496,0.22678496 0 0 1 0.108004,-0.03 z m 0.725021,0.74311 -0.02894,0.34881 a 1.0394421,1.0394421 0 0 0 -0.303858,0.1757 l -0.316776,-0.14934 -0.330729,0.57309 0.28732,0.19947 a 1.0394421,1.0394421 0 0 0 -0.0155,0.17518 1.0394421,1.0394421 0 0 0 0.01499,0.17622 l -0.286804,0.19895 0.330729,0.57311 0.315743,-0.14883 a 1.0394421,1.0394421 0 0 0 0.304891,0.17466 l 0.02894,0.34882 h 0.661459 l 0.02894,-0.3483 a 1.0394421,1.0394421 0 0 0 0.303857,-0.1757 l 0.316777,0.14935 0.330729,-0.5731 -0.287321,-0.19947 a 1.0394421,1.0394421 0 0 0 0.01602,-0.1757 1.0394421,1.0394421 0 0 0 -0.0155,-0.1757 l 0.286804,-0.19896 -0.330729,-0.57308 -0.315743,0.14882 a 1.0394421,1.0394421 0 0 0 -0.304374,-0.17467 l -0.02946,-0.34933 z m 0.330729,0.94516 a 0.37798375,0.37798375 0 0 1 0.378271,0.37775 0.37798375,0.37798375 0 0 1 -0.378271,0.37827 0.37798375,0.37798375 0 0 1 -0.377755,-0.37827 0.37798375,0.37798375 0 0 1 0.377755,-0.37775 z"
         id="path1040" />
    </g>
    <g
       id="edit"
       transform="translate(-11.352644,-0.3525815)">
      <path
         style="fill:#4d4d4d;stroke-width:0.28760564"
         inkscape:connector-curvature="0"
         d="m 54.239583,270.27707 c 2.338099,0 4.233333,1.89523 4.233333,4.23333 0,2.3381 -1.895234,4.23333 -4.233333,4.23333 -2.338099,0 -4.233333,-1.89523 -4.233333,-4.23333 0,-2.3381 1.895234,-4.23333 4.233333,-4.23333 z"
         id="path1058" />
      <g
         style="fill:#ffffff"
         transform="matrix(0.26458333,0,0,0.26458333,52.122916,272.52603)"
         id="g1073">
        <path
           inkscape:connector-curvature="0"
           class="ColorScheme-Text"
           d="M 8,0 A 2,2 0 0 0 6,2 H 3 C 2.446,2 2,2.446 2,3 v 11 c 0,0.554 0.446,1 1,1 h 10 c 0.554,0 1,-0.446 1,-1 V 3 C 14,2.446 13.554,2 13,2 H 10 A 2,2 0 0 0 8,0 Z M 8,1 A 1,1 0 0 1 9,2 1,1 0 0 1 8,3 1,1 0 0 1 7,2 1,1 0 0 1 8,1 Z M 4,4 h 1 v 1 h 6 V 4 h 1 v 9 H 4 Z"
           style="color:#565656;fill:#ffffff"
           id="path1071" />
      </g>
    </g>
    <g
       id="efi"
       transform="translate(-11.499527,-0.3525815)">
      <path
         id="path1060"
         d="m 67.46875,270.27707 c 2.338099,0 4.233333,1.89523 4.233333,4.23333 0,2.3381 -1.895234,4.23333 -4.233333,4.23333 -2.338099,0 -4.233333,-1.89523 -4.233333,-4.23333 0,-2.3381 1.895234,-4.23333 4.233333,-4.23333 z"
         inkscape:connector-curvature="0"
         style="fill:#4d4d4d;stroke-width:0.28760564" />
      <path
         inkscape:connector-curvature="0"
         style="color:#565656;fill:#ffffff;stroke-width:0.26458332"
         class="ColorScheme-Text"
         d="m 67.204166,272.65832 v 0.28732 a 1.5875,1.5875 0 0 0 -0.653707,0.27233 l -0.204122,-0.20412 -0.374137,0.37414 0.203605,0.2036 a 1.5875,1.5875 0 0 0 -0.270784,0.65423 h -0.288355 v 0.52916 h 0.287321 a 1.5875,1.5875 0 0 0 0.272335,0.65371 l -0.204122,0.20412 0.374138,0.37414 0.203605,-0.20361 a 1.5875,1.5875 0 0 0 0.654223,0.27079 v 0.28835 h 0.529167 v -0.28732 a 1.5875,1.5875 0 0 0 0.653707,-0.27233 l 0.204122,0.20412 0.374137,-0.37414 -0.203604,-0.2036 a 1.5875,1.5875 0 0 0 0.270784,-0.65423 h 0.288355 v -0.52916 h -0.287322 a 1.5875,1.5875 0 0 0 -0.272334,-0.65371 l 0.204121,-0.20412 -0.374137,-0.37414 -0.203605,0.20361 a 1.5875,1.5875 0 0 0 -0.654224,-0.27079 v -0.28835 z m -0.264583,1.32291 1.058333,0.52917 -1.058333,0.52917 z"
         id="path1092" />
    </g>
    <g
       id="find.efi"
       transform="translate(-11.646447,-0.3525815)">
      <path
         style="fill:#4d4d4d;stroke-width:0.28760564"
         inkscape:connector-curvature="0"
         d="m 80.697917,270.27707 c 2.338099,0 4.233333,1.89523 4.233333,4.23333 0,2.3381 -1.895234,4.23333 -4.233333,4.23333 -2.338099,0 -4.233333,-1.89523 -4.233333,-4.23333 0,-2.3381 1.895234,-4.23333 4.233333,-4.23333 z"
         id="path1062" />
      <g
         style="fill:#ffffff"
         transform="matrix(0.26458333,0,0,0.26458333,78.58125,272.39373)"
         id="g1111">
        <path
           inkscape:connector-curvature="0"
           class="ColorScheme-Text"
           d="M 6.5,1 A 5.5,5.5 0 0 0 1,6.5 5.5,5.5 0 0 0 6.5,12 5.5,5.5 0 0 0 9.6172,11.031 l 3.6618,3.662 A 1,1 0 0 0 14,15 1,1 0 0 0 15,14 1,1 0 0 0 14.697,13.283 L 11.027,9.6133 A 5.5,5.5 0 0 0 12,6.5 5.5,5.5 0 0 0 6.5,1 Z m 0,2 A 3.5,3.5 0 0 1 10,6.5 3.5,3.5 0 0 1 6.5,10 3.5,3.5 0 0 1 3,6.5 3.5,3.5 0 0 1 6.5,3 Z"
           style="color:#565656;fill:#ffffff"
           id="path1109" />
      </g>
    </g>
    <g
       id="find.none"
       transform="translate(52.814591,-12.986431)">
      <path
         id="path1141"
         d="m 29.319141,282.91092 c 2.338099,0 4.233333,1.89523 4.233333,4.23333 0,2.3381 -1.895234,4.23333 -4.233333,4.23333 -2.338099,0 -4.233333,-1.89523 -4.233333,-4.23333 0,-2.3381 1.895234,-4.23333 4.233333,-4.23333 z"
         inkscape:connector-curvature="0"
         style="fill:#4d4d4d;stroke-width:0.28760564" />
      <path
         inkscape:connector-curvature="0"
         style="color:#565656;fill:#ffffff;stroke-width:0.26458332"
         class="ColorScheme-Text"
         d="m 29.319141,285.29217 c -1.022086,0 -1.852083,0.82999 -1.852083,1.85208 0,1.02209 0.829997,1.85208 1.852083,1.85208 1.022086,0 1.852084,-0.82999 1.852084,-1.85208 0,-1.02209 -0.829998,-1.85208 -1.852084,-1.85208 z m 0,0.52916 c 0.269717,0 0.518318,0.0761 0.727605,0.21498 l -1.835548,1.83554 c -0.138872,-0.20929 -0.214974,-0.45788 -0.214974,-0.7276 0,-0.73006 0.592878,-1.32292 1.322917,-1.32292 z m 1.107942,0.59532 c 0.138872,0.20929 0.214975,0.45788 0.214975,0.7276 0,0.73004 -0.592878,1.32292 -1.322917,1.32292 -0.269716,0 -0.518319,-0.0761 -0.727604,-0.21498 z"
         id="path1130" />
    </g>
    <g
       id="help"
       transform="translate(-24.287998,-0.00339967)">
      <path
         style="fill:#4d4d4d;stroke-width:0.28760564"
         inkscape:connector-curvature="0"
         d="m 41.010417,282.91092 c 2.338099,0 4.233333,1.89523 4.233333,4.23333 0,2.3381 -1.895234,4.23333 -4.233333,4.23333 -2.338099,0 -4.233333,-1.89523 -4.233333,-4.23333 0,-2.3381 1.895234,-4.23333 4.233333,-4.23333 z"
         id="path1149" />
      <path
         inkscape:connector-curvature="0"
         style="color:#565656;fill:#ffffff;stroke-width:0.26458332"
         class="ColorScheme-Text"
         d="m 41.010417,285.29217 c -0.584729,0 -1.058333,0.4736 -1.058333,1.05833 h 0.529166 c 0,-0.29104 0.238125,-0.52917 0.529167,-0.52917 0.291042,0 0.529167,0.23813 0.529167,0.52917 0,0.14552 -0.05817,0.27785 -0.156063,0.3731 l -0.328145,0.33332 c -0.1905,0.19314 -0.309542,0.45775 -0.309542,0.74879 V 287.938 H 41.275 c 0,-0.39687 0.119042,-0.55565 0.309542,-0.74879 l 0.238229,-0.2434 c 0.150812,-0.15081 0.245979,-0.36248 0.245979,-0.59531 0,-0.58473 -0.473604,-1.05833 -1.058333,-1.05833 z m -0.264583,3.175 v 0.52916 H 41.275 v -0.52916 z"
         id="path1160-6" />
    </g>
    <g
       id="kbd"
       transform="translate(-23.111985,-0.00339967)">
      <path
         id="path1151"
         d="m 52.916667,282.91092 c 2.338099,0 4.233333,1.89523 4.233333,4.23333 0,2.3381 -1.895234,4.23333 -4.233333,4.23333 -2.338099,0 -4.233333,-1.89523 -4.233333,-4.23333 0,-2.3381 1.895234,-4.23333 4.233333,-4.23333 z"
         inkscape:connector-curvature="0"
         style="fill:#4d4d4d;stroke-width:0.28760564" />
      <path
         inkscape:connector-curvature="0"
         style="color:#565656;fill:#ffffff;stroke-width:0.26458332"
         class="ColorScheme-Text"
         d="m 51.461459,285.55675 c 0,0 -0.529167,0 -0.529167,0.52917 v 2.11666 c 0,0.52917 0.529167,0.52917 0.529167,0.52917 h 2.910416 c 0,0 0.529167,0 0.529167,-0.52917 v -2.11666 c 0,-0.52917 -0.529167,-0.52917 -0.529167,-0.52917 z m 0.06615,0.52917 h 0.396875 c 0.03664,0 0.06615,0.0295 0.06615,0.0661 v 0.39688 c 0,0.0366 -0.0295,0.0661 -0.06615,0.0661 h -0.396875 c -0.03665,0 -0.06615,-0.0295 -0.06615,-0.0661 v -0.39688 c 0,-0.0366 0.0295,-0.0661 0.06615,-0.0661 z m 0.79375,0 h 0.396875 c 0.03664,0 0.06615,0.0295 0.06615,0.0661 v 0.39688 c 0,0.0366 -0.0295,0.0661 -0.06615,0.0661 h -0.396875 c -0.03664,0 -0.06615,-0.0295 -0.06615,-0.0661 v -0.39688 c 0,-0.0366 0.0295,-0.0661 0.06615,-0.0661 z m 0.79375,0 h 0.396875 c 0.03664,0 0.06615,0.0295 0.06615,0.0661 v 0.39688 c 0,0.0366 -0.0295,0.0661 -0.06615,0.0661 h -0.396875 c -0.03664,0 -0.06615,-0.0295 -0.06615,-0.0661 v -0.39688 c 0,-0.0366 0.0295,-0.0661 0.06615,-0.0661 z m 0.79375,0 h 0.396875 c 0.03665,0 0.06615,0.0295 0.06615,0.0661 v 0.39688 c 0,0.0366 -0.0295,0.0661 -0.06615,0.0661 h -0.396875 c -0.03665,0 -0.06615,-0.0295 -0.06615,-0.0661 v -0.39688 c 0,-0.0366 0.0295,-0.0661 0.06615,-0.0661 z m -2.38125,0.79375 h 0.396875 c 0.03664,0 0.06615,0.0295 0.06615,0.0661 v 0.39688 c 0,0.0366 -0.0295,0.0661 -0.06615,0.0661 h -0.396875 c -0.03665,0 -0.06615,-0.0295 -0.06615,-0.0661 v -0.39688 c 0,-0.0366 0.0295,-0.0661 0.06615,-0.0661 z m 0.79375,0 h 0.396875 c 0.03664,0 0.06615,0.0295 0.06615,0.0661 v 0.39688 c 0,0.0366 -0.0295,0.0661 -0.06615,0.0661 h -0.396875 c -0.03664,0 -0.06615,-0.0295 -0.06615,-0.0661 v -0.39688 c 0,-0.0366 0.0295,-0.0661 0.06615,-0.0661 z m 0.79375,0 h 0.396875 c 0.03664,0 0.06615,0.0295 0.06615,0.0661 v 0.39688 c 0,0.0366 -0.0295,0.0661 -0.06615,0.0661 h -0.396875 c -0.03664,0 -0.06615,-0.0295 -0.06615,-0.0661 v -0.39688 c 0,-0.0366 0.0295,-0.0661 0.06615,-0.0661 z m 0.79375,0 h 0.396875 c 0.03665,0 0.06615,0.0295 0.06615,0.0661 v 0.39688 c 0,0.0366 -0.0295,0.0661 -0.06615,0.0661 h -0.396875 c -0.03665,0 -0.06615,-0.0295 -0.06615,-0.0661 v -0.39688 c 0,-0.0366 0.0295,-0.0661 0.06615,-0.0661 z m -1.852084,0.79375 h 1.719792 c 0.03665,0 0.06615,0.0295 0.06615,0.0661 v 0.39688 c 0,0.0366 -0.0295,0.0661 -0.06615,0.0661 h -1.719792 c -0.03664,0 -0.06615,-0.0295 -0.06615,-0.0661 v -0.39688 c 0,-0.0366 0.0295,-0.0661 0.06615,-0.0661 z"
         id="path1173" />
    </g>
    <g
       id="lang"
       transform="translate(-21.935977,0.45962033)">
      <path
         style="fill:#4d4d4d;stroke-width:0.28760564"
         inkscape:connector-curvature="0"
         d="m 64.822917,282.4479 c 2.338099,0 4.233333,1.89523 4.233333,4.23333 0,2.3381 -1.895234,4.23333 -4.233333,4.23333 -2.338099,0 -4.233333,-1.89523 -4.233333,-4.23333 0,-2.3381 1.895234,-4.23333 4.233333,-4.23333 z"
         id="path1153" />
      <path
         inkscape:connector-curvature="0"
         style="color:#565656;fill:#f9f9f9;stroke-width:0.26458332"
         class="ColorScheme-Text"
         d="m 64.822918,284.82915 c -1.02288,0 -1.852084,0.82921 -1.852084,1.85209 0,1.02288 0.829204,1.85208 1.852084,1.85208 1.022879,0 1.852082,-0.8292 1.852082,-1.85208 0,-1.02288 -0.829204,-1.85209 -1.852082,-1.85209 z m -0.132293,0.51263 c 0.0177,-0.002 0.04002,10e-4 0.05788,0 0.0021,0.008 -0.01288,0.0386 -0.03307,0.0827 -0.12855,0.28082 -0.135841,0.60969 -0.01654,0.78548 0.02159,0.0319 0.04134,0.0622 0.04134,0.0661 0,0.004 -0.02328,0.008 -0.04961,0.008 -0.0618,0 -0.120285,-0.0377 -0.239779,-0.13229 -0.05308,-0.042 -0.122091,-0.0773 -0.148827,-0.0827 -0.04198,-0.008 -0.05317,-0.005 -0.107488,0.0496 -0.05053,0.0505 -0.06615,0.0778 -0.06615,0.12402 0,0.1754 0.208248,0.31483 0.595313,0.39688 0.525648,0.1114 0.655227,0.21142 0.669726,0.48782 0.0182,0.34661 -0.16633,0.60796 -0.570508,0.81029 -0.04824,0.0241 -0.07898,0.0335 -0.09922,0.0413 -0.009,-8e-4 -0.01586,7.9e-4 -0.02481,0 -0.0034,-0.0107 -0.0083,-0.0356 -0.0083,-0.0827 0,-0.1841 -0.07256,-0.3736 -0.181901,-0.47956 -0.02935,-0.0284 -0.111528,-0.0887 -0.181902,-0.13229 -0.07037,-0.0436 -0.141273,-0.0942 -0.157095,-0.11576 -0.02622,-0.0358 -0.02841,-0.0578 -0.0083,-0.12402 0.03671,-0.12088 0.08041,-0.18821 0.165365,-0.26458 0.04454,-0.04 0.08935,-0.0736 0.09922,-0.0744 0.0099,-7.8e-4 -0.05693,-0.0208 -0.157097,-0.0413 -0.100166,-0.0205 -0.246701,-0.0635 -0.322461,-0.0909 -0.13853,-0.0501 -0.325569,-0.15535 -0.396875,-0.23151 -0.003,-0.003 -0.0057,-0.005 -0.0083,-0.008 0.102164,-0.40695 0.388873,-0.7405 0.768946,-0.90124 0.07953,-0.0336 0.161507,-0.0567 0.248047,-0.0744 0.04311,-0.009 0.08778,-0.012 0.132291,-0.0165 z m 1.240234,0.62012 c 0.03108,0.0192 0.148408,0.27305 0.181901,0.39688 0.04324,0.15985 0.04011,0.43651 0,0.59531 -0.01527,0.0604 -0.03483,0.11698 -0.04134,0.12402 -0.0065,0.007 -0.03011,-0.0335 -0.05788,-0.0827 -0.02777,-0.0492 -0.116459,-0.15374 -0.190169,-0.23151 -0.212762,-0.22451 -0.246219,-0.34172 -0.157096,-0.5209 0.04494,-0.0904 0.240532,-0.29596 0.264583,-0.28112 z"
         id="path1186" />
    </g>
    <g
       id="restart"
       transform="translate(32.686776,-55.999666)">
      <path
         style="fill:#5ea0d5;fill-opacity:1;stroke-width:0.28760564"
         inkscape:connector-curvature="0"
         d="m 23.282557,312.94112 c 2.338099,0 4.233333,1.89523 4.233333,4.23333 0,2.3381 -1.895234,4.23333 -4.233333,4.23333 -2.338099,0 -4.233333,-1.89523 -4.233333,-4.23333 0,-2.3381 1.895234,-4.23333 4.233333,-4.23333 z"
         id="path1209" />
      <path
         inkscape:connector-curvature="0"
         style="color:#565656;fill:#ffffff;stroke-width:0.26458332"
         class="ColorScheme-Text"
         d="m 23.281782,315.32237 c -1.022879,0 -1.852083,0.8292 -1.852083,1.85208 0,1.02288 0.829204,1.85209 1.852083,1.85209 0.839999,0 1.550842,-0.55647 1.777669,-1.32292 h -0.570508 c -0.204859,0.46554 -0.665903,0.79375 -1.207161,0.79375 -0.73062,0 -1.322917,-0.5923 -1.322917,-1.32292 0,-0.73062 0.592297,-1.32291 1.322917,-1.32291 0.365548,0 0.692024,0.15214 0.930176,0.39274 l -0.664042,0.66559 h 1.587499 v -1.5875 l -0.543119,0.54312 c -0.336021,-0.3347 -0.798835,-0.54312 -1.309481,-0.54312 z"
         id="path1199" />
    </g>
    <g
       id="recovery"
       transform="translate(-32.254333,-42.770506)">
      <path
         id="path1155"
         d="m 75.141666,299.71196 c 2.338099,0 4.233333,1.89523 4.233333,4.23333 0,2.3381 -1.895234,4.23333 -4.233333,4.23333 -2.338099,0 -4.233333,-1.89523 -4.233333,-4.23333 0,-2.3381 1.895234,-4.23333 4.233333,-4.23333 z"
         inkscape:connector-curvature="0"
         style="fill:#66dc6d;fill-opacity:1;stroke-width:0.28760564" />
      <path
         style="color:#dfdfdf;fill:#ffffff;stroke-width:0.30868053"
         inkscape:connector-curvature="0"
         d="m 75.141666,302.0932 a 0.30868055,0.30868055 0 0 0 -0.30868,0.30868 0.30868055,0.30868055 0 0 0 0.30868,0.30868 1.2347222,1.2347222 0 0 1 1.234723,1.23473 h -0.617362 l 0.926042,1.23472 0.926042,-1.23472 h -0.617362 a 1.8520833,1.8520833 0 0 0 -1.852083,-1.85209 z m -1.543403,0.61736 -0.926042,1.23473 h 0.61736 a 1.8520833,1.8520833 0 0 0 1.852085,1.85208 0.30868055,0.30868055 0 0 0 0.308681,-0.30869 0.30868055,0.30868055 0 0 0 -0.308681,-0.30868 1.2347222,1.2347222 0 0 1 -1.234723,-1.23471 h 0.617362 z"
         id="path1222" />
    </g>
    <g
       id="shutdown"
       transform="translate(28.040916,-38.735606)">
      <path
         id="path1211"
         d="m 41.010417,295.67706 c 2.338099,0 4.233333,1.89523 4.233333,4.23333 0,2.3381 -1.895234,4.23333 -4.233333,4.23333 -2.338099,0 -4.233333,-1.89523 -4.233333,-4.23333 0,-2.3381 1.895234,-4.23333 4.233333,-4.23333 z"
         inkscape:connector-curvature="0"
         style="fill:#ff5555;stroke-width:0.28760564" />
      <path
         style="color:#5294e2;fill:#ffffff;stroke-width:0.30870682"
         inkscape:connector-curvature="0"
         d="m 41.010404,297.90421 c -0.171023,0 -0.308707,0.13769 -0.308707,0.30872 v 1.54476 c 0,0.17102 0.137684,0.30871 0.308707,0.30871 0.171024,0 0.308707,-0.13769 0.308707,-0.30871 v -1.54476 c 0,-0.17103 -0.137683,-0.30872 -0.308707,-0.30872 z m 0.937542,0.61372 a 0.30870682,0.30870682 0 0 0 -0.05959,0.003 0.30870682,0.30870682 0 0 0 -0.135213,0.55969 1.2286532,1.2286532 0 0 1 0.250979,1.72659 c -0.41058,0.5492 -1.187595,0.65199 -1.736476,0.2411 -0.54919,-0.41057 -0.651989,-1.17771 -0.2411,-1.72659 0.06668,-0.0895 0.142931,-0.16362 0.23153,-0.23154 a 0.30983294,0.30983294 0 0 0 -0.376622,-0.49207 c -0.132127,0.10244 -0.256227,0.22289 -0.356557,0.35686 -0.610622,0.81622 -0.440216,1.98468 0.376005,2.59531 0.816221,0.61031 1.984676,0.4399 2.595299,-0.37664 0.610313,-0.8159 0.439907,-1.98436 -0.376623,-2.59467 a 0.30870682,0.30870682 0 0 0 -0.171641,-0.0617 z"
         id="path1235-9" />
    </g>
    <g
       id="type"
       transform="translate(3.0525556,-12.76954)">
      <path
         style="fill:#4d4d4d;stroke-width:0.28760564"
         inkscape:connector-curvature="0"
         d="m 52.916667,295.67706 c 2.338099,0 4.233333,1.89523 4.233333,4.23333 0,2.3381 -1.895234,4.23333 -4.233333,4.23333 -2.338099,0 -4.233333,-1.89523 -4.233333,-4.23333 0,-2.3381 1.895234,-4.23333 4.233333,-4.23333 z"
         id="path1213" />
      <path
         inkscape:connector-curvature="0"
         style="color:#565656;fill:#ffffff;stroke-width:0.26458332"
         class="ColorScheme-Text"
         d="m 51.593751,298.0583 c 0,0 -0.264584,0 -0.264584,0.26459 v 3.175 c 0,0.26458 0.264584,0.26458 0.264584,0.26458 h 1.058333 v -0.52917 h -0.79375 v -2.6448 h 2.116667 v 1.3193 h 0.529166 v -1.5849 c 0,-0.26459 -0.264583,-0.26459 -0.264583,-0.26459 z m 2.38125,2.11667 -1.058334,1.05833 v 0.52917 h 0.529167 l 1.058333,-1.05833 z"
         id="path1248" />
    </g>
    <g
       id="tz"
       transform="translate(4.2285538,-12.76954)">
      <path
         id="path1215"
         d="m 64.822917,295.67706 c 2.338099,0 4.233333,1.89523 4.233333,4.23333 0,2.3381 -1.895234,4.23333 -4.233333,4.23333 -2.338099,0 -4.233333,-1.89523 -4.233333,-4.23333 0,-2.3381 1.895234,-4.23333 4.233333,-4.23333 z"
         inkscape:connector-curvature="0"
         style="fill:#4d4d4d;stroke-width:0.28760564" />
      <path
         sodipodi:nodetypes="scsscsccccccccccccccccc"
         inkscape:connector-curvature="0"
         style="color:#565656;fill:#ffffff;stroke-width:0.26458332"
         class="ColorScheme-Text"
         d="m 64.822917,298.05838 c -0.473988,0 -0.947835,0.18095 -1.309481,0.5426 -0.723292,0.72329 -0.723292,1.89567 0,2.61896 0.723291,0.72329 1.89567,0.72329 2.618962,0 0.723291,-0.72329 0.723291,-1.89567 0,-2.61896 -0.361646,-0.36165 -0.835494,-0.5426 -1.309481,-0.5426 z m -0.01912,0.52916 c 0.357453,-0.005 0.701745,0.13473 0.954463,0.38758 0.516493,0.51661 0.516493,1.35407 0,1.87068 -0.516608,0.5165 -1.354078,0.5165 -1.870686,0 -0.516493,-0.51661 -0.516493,-1.35407 0,-1.87068 0.243349,-0.24348 0.572021,-0.38251 0.916223,-0.38758 z m -0.246497,0.26459 v 0.0351 1.13274 l 0.451652,0.45166 0.162781,0.16278 0.02429,0.0243 0.187069,-0.18706 -0.560175,-0.56125 v -1.02314 -0.0351 z"
         id="path1265" />
    </g>
    <g
       id="unset"
       transform="translate(1.4358154,-12.76954)">
      <path
         style="fill:#4d4d4d;stroke-width:0.28760564"
         inkscape:connector-curvature="0"
         d="m 80.697917,295.67706 c 2.338099,0 4.233333,1.89523 4.233333,4.23333 0,2.3381 -1.895234,4.23333 -4.233333,4.23333 -2.338099,0 -4.233333,-1.89523 -4.233333,-4.23333 0,-2.3381 1.895234,-4.23333 4.233333,-4.23333 z"
         id="path1217" />
      <path
         inkscape:connector-curvature="0"
         style="fill:#ffffff;stroke-width:0.26458332"
         d="m 79.904167,298.32289 -1.322916,1.5875 1.322916,1.5875 h 2.910417 v -3.175 z m 0.529167,0.79375 h 0.264583 c 0.07408,0 0.140229,0.0291 0.187854,0.0767 l 0.341313,0.34395 0.341312,-0.34395 c 0.04762,-0.0476 0.113771,-0.0767 0.187855,-0.0767 h 0.264583 v 0.26458 c 0,0.0741 -0.0291,0.14023 -0.07673,0.18785 l -0.343958,0.34132 0.343958,0.34131 c 0.04762,0.0476 0.07673,0.11377 0.07673,0.18785 v 0.26459 h -0.264583 c -0.07408,0 -0.14023,-0.0291 -0.187855,-0.0767 l -0.341312,-0.34396 -0.341313,0.34396 c -0.04762,0.0476 -0.11377,0.0767 -0.187854,0.0767 h -0.264583 v -0.26459 c 0,-0.0741 0.0291,-0.14023 0.07673,-0.18785 l 0.343958,-0.34131 -0.343958,-0.34132 c -0.04762,-0.0476 -0.07673,-0.11377 -0.07673,-0.18785 z"
         id="path1275" />
    </g>
    <path
       style="fill:#008000;stroke-width:0.26280099"
       id="path3927"
       sodipodi:type="arc"
       sodipodi:cx="174.54041"
       sodipodi:cy="-20.143456"
       sodipodi:rx="55.18821"
       sodipodi:ry="57.816219"
       sodipodi:start="0"
       sodipodi:end="3.1483748"
       sodipodi:open="true"
       d="m 229.72861,-20.143456 a 55.18821,57.816219 0 0 1 -27.70222,50.13554 55.18821,57.816219 0 0 1 -55.29591,-0.196442 55.18821,57.816219 0 0 1 -27.37702,-50.331213"
       transform="rotate(38.849685)" />
    <g
       id="void"
       inkscape:label="#void">
      <circle
         r="4.2335"
         cy="261.22461"
         cx="16.7225"
         id="path3929"
         style="fill:#f2f2f2;stroke-width:0.30917111;fill-opacity:1" />
      <circle
         r="0.81629127"
         style="fill:#abc2ab;stroke-width:0.01360485;fill-opacity:1"
         cy="261.3515"
         cx="16.72451"
         id="path3923" />
      <path
         transform="matrix(0.26458333,0,0,0.26458333,0,201.74998)"
         inkscape:connector-curvature="0"
         id="path4834"
         d="m 62.686956,234.95564 c -1.02503,-0.0768 -1.735452,-0.20855 -2.556948,-0.47423 -3.31272,-1.07134 -5.83037,-3.8959 -6.498107,-7.29023 -0.117194,-0.59575 -0.144302,-0.80854 -0.17812,-1.39821 -0.103996,-1.81339 0.342148,-3.71834 1.233937,-5.26867 0.201118,-0.34963 0.599044,-0.96199 0.615445,-0.9471 0.0051,0.005 0.505714,0.50224 1.112473,1.10579 l 1.103198,1.09736 -0.226269,0.44944 c -0.483864,0.96109 -0.713875,1.92466 -0.713875,2.9906 0,3.57614 2.816007,6.49238 6.3924,6.61993 1.161815,0.0414 2.160782,-0.17671 3.231644,-0.70569 l 0.485321,-0.23974 1.085151,1.08481 c 0.596833,0.59664 1.085151,1.09919 1.085151,1.11678 0,0.0176 -0.06037,0.0708 -0.134161,0.11827 -0.604742,0.38903 -0.794065,0.49943 -1.22568,0.71472 -1.049444,0.52346 -2.07721,0.83112 -3.21943,0.96372 -0.407756,0.0473 -1.317558,0.083 -1.59213,0.0624 z"
         style="fill:#478061;fill-opacity:1;stroke-width:0.03156727" />
      <path
         transform="matrix(0.26458333,0,0,0.26458333,0,201.74998)"
         inkscape:connector-curvature="0"
         id="path4836"
         d="m 69.910189,229.82353 -1.065342,-1.06568 0.07097,-0.11934 c 0.431853,-0.72617 0.738495,-1.58349 0.878209,-2.45532 0.07752,-0.48376 0.07678,-1.41362 -0.0015,-1.92561 -0.466277,-3.04801 -2.91385,-5.35156 -5.988719,-5.63632 -1.301392,-0.12052 -2.707402,0.1776 -3.822944,0.81058 l -0.256107,0.14532 -1.102349,-1.11099 -1.102349,-1.11099 0.121411,-0.0893 c 0.654311,-0.48119 1.847573,-1.04963 2.743252,-1.30683 0.986415,-0.28325 1.687265,-0.37956 2.760004,-0.37928 0.966019,2.5e-4 1.316041,0.0386 2.288626,0.25051 0.400042,0.0872 1.059463,0.28778 1.191236,0.36239 0.03015,0.0171 0.07135,0.031 0.09156,0.031 0.0655,0 1.236312,0.56657 1.253112,0.6064 0.0058,0.0137 0.02585,0.0249 0.04458,0.0249 0.03385,0 0.593425,0.33727 0.623592,0.37586 0.0087,0.0111 0.05803,0.0471 0.109665,0.0801 0.05164,0.0329 0.108456,0.0718 0.126269,0.0864 0.01781,0.0146 0.110517,0.0865 0.206008,0.15995 0.09549,0.0734 0.188876,0.14785 0.207524,0.16544 0.01865,0.0176 0.082,0.0675 0.140792,0.11091 0.148753,0.10982 1.10155,1.0617 1.215473,1.21429 0.05142,0.0689 0.1148,0.14762 0.140843,0.17499 0.02604,0.0274 0.07576,0.0891 0.110486,0.1372 0.193348,0.26777 0.302786,0.41844 0.324292,0.44647 0.107116,0.1396 0.438197,0.71038 0.622553,1.07329 0.268108,0.52777 0.397561,0.83405 0.540352,1.27847 0.106872,0.33262 0.12804,0.40479 0.212981,0.72605 0.02525,0.0955 0.06011,0.22689 0.07747,0.292 0.02846,0.10673 0.02558,0.11837 -0.02922,0.11837 -0.04682,0 -0.05703,0.0163 -0.04447,0.071 0.217856,0.9485 0.231381,2.50844 0.03161,3.64602 -0.01434,0.0816 -0.0074,0.10259 0.03419,0.10259 0.04157,0 0.04744,0.0177 0.02884,0.0868 -0.01285,0.0477 -0.03492,0.13653 -0.04905,0.1973 -0.0986,0.42409 -0.166791,0.66461 -0.313259,1.10485 -0.04186,0.12583 -0.05041,0.14728 -0.220104,0.55243 -0.132882,0.31726 -0.504387,1.03402 -0.545389,1.05224 -0.01302,0.006 -0.02368,0.0259 -0.02368,0.0446 0,0.0342 -0.175791,0.32478 -0.236093,0.39026 -0.01773,0.0192 -0.07484,0.10684 -0.126931,0.19465 -0.05902,0.0995 -0.115108,0.15815 -0.148861,0.15566 -0.02979,-0.002 -0.533563,-0.48355 -1.119501,-1.06968 z"
         style="fill:#abc2ab;fill-opacity:1;stroke-width:0.03156727" />
      <path
         transform="matrix(0.26458333,0,0,0.26458333,0,201.74998)"
         inkscape:connector-curvature="0"
         id="path4838"
         d="m 53.386511,227.07496 c -0.0487,-0.0918 -0.204561,-0.37908 -0.304006,-0.56032 -0.04287,-0.0781 -0.136377,-0.25569 -0.207794,-0.39459 -0.07142,-0.13889 -0.13731,-0.25964 -0.14643,-0.26832 -0.0091,-0.009 -0.07513,-0.12942 -0.146684,-0.26832 -0.07156,-0.1389 -0.165071,-0.31646 -0.20781,-0.39459 -0.04274,-0.0781 -0.131696,-0.24149 -0.197683,-0.36302 -0.06599,-0.12154 -0.158584,-0.292 -0.20577,-0.37881 -0.09274,-0.17062 -0.396886,-0.73973 -0.463935,-0.8681 -0.05589,-0.10701 -0.05221,-0.21015 0.0083,-0.23338 0.02746,-0.0105 0.614267,-0.0192 1.304009,-0.0192 0.954605,0 1.266437,0.009 1.305844,0.0395 0.02847,0.0217 0.111136,0.1531 0.183697,0.292 0.134239,0.25696 0.527991,1.01986 0.806485,1.56258 0.08464,0.16494 0.164542,0.30462 0.177564,0.31041 0.01302,0.006 0.02389,0.0271 0.02416,0.0473 2.52e-4,0.0203 0.0126,0.0559 0.02741,0.0793 0.02145,0.0338 0.05455,0.025 0.16277,-0.0433 0.07472,-0.0472 0.151166,-0.0986 0.169889,-0.11426 0.03994,-0.0335 0.233748,-0.16658 0.775873,-0.53296 0.217025,-0.14666 0.401693,-0.27537 0.410374,-0.28601 0.0087,-0.0106 0.07971,-0.0591 0.157837,-0.10769 0.07813,-0.0486 0.149155,-0.0974 0.157836,-0.10835 0.0087,-0.011 0.09391,-0.0688 0.189404,-0.12841 0.09549,-0.0596 0.180722,-0.11764 0.189403,-0.12893 0.0087,-0.0113 0.09586,-0.0715 0.19373,-0.13388 0.09787,-0.0624 0.197307,-0.13202 0.220971,-0.1548 0.02366,-0.0228 0.121154,-0.0904 0.216645,-0.15022 0.09549,-0.0598 0.180722,-0.11779 0.189403,-0.12878 0.0087,-0.011 0.07971,-0.0598 0.157837,-0.10835 0.07813,-0.0486 0.149155,-0.0981 0.157836,-0.11004 0.03939,-0.0541 0.252545,-0.0952 0.494003,-0.0952 0.144986,0 0.263611,0.008 0.263611,0.0179 0,0.0613 -0.08716,0.15236 -0.244968,0.25579 -0.09965,0.0653 -0.188292,0.12778 -0.196973,0.13881 -0.0087,0.011 -0.07971,0.0598 -0.157837,0.1084 -0.07813,0.0486 -0.149155,0.0971 -0.157836,0.10782 -0.0087,0.0107 -0.141299,0.10446 -0.294707,0.20836 -0.153408,0.10389 -0.323871,0.22091 -0.378808,0.26004 -0.05494,0.0391 -0.156704,0.10872 -0.226152,0.15466 -0.06945,0.0459 -0.133372,0.0925 -0.142053,0.10352 -0.0087,0.011 -0.09391,0.0688 -0.189404,0.1284 -0.09549,0.0596 -0.180722,0.11765 -0.189403,0.12893 -0.0087,0.0113 -0.09586,0.0715 -0.19373,0.13389 -0.09787,0.0623 -0.197519,0.13171 -0.221441,0.15414 -0.02392,0.0224 -0.171131,0.126 -0.327131,0.23017 -0.155999,0.10417 -0.290737,0.19793 -0.299418,0.20836 -0.0087,0.0104 -0.07971,0.0587 -0.157836,0.10731 -0.07813,0.0486 -0.149156,0.0973 -0.157837,0.10811 -0.0087,0.0109 -0.122323,0.0904 -0.252538,0.17679 -0.130215,0.0864 -0.243857,0.16558 -0.252538,0.176 -0.0087,0.0104 -0.07859,0.0583 -0.155361,0.10641 -0.07677,0.0481 -0.154897,0.0999 -0.17362,0.1152 -0.04418,0.036 -0.468381,0.33204 -0.650314,0.45383 -0.07774,0.052 -0.148446,0.10208 -0.157127,0.11121 -0.09425,0.0991 -0.203624,0.12563 -0.518638,0.12563 -0.311525,0 -0.333722,-0.004 -0.36913,-0.071 z"
         style="fill:#000000;fill-opacity:1;stroke-width:0.03156727" />
      <path
         transform="matrix(0.26458333,0,0,0.26458333,0,201.74998)"
         inkscape:connector-curvature="0"
         id="path4840"
         d="m 58.965291,227.12405 c -0.193594,-0.0519 -0.506472,-0.293 -0.626879,-0.48314 -0.164524,-0.25981 -0.223173,-0.7251 -0.135285,-1.07328 0.08157,-0.32315 0.231853,-0.69726 0.304339,-0.75762 0.01043,-0.009 0.05894,-0.0797 0.107812,-0.15783 0.07775,-0.1243 0.331837,-0.41593 0.45085,-0.51747 0.02254,-0.0192 0.06515,-0.0571 0.0947,-0.0842 0.326831,-0.29958 1.030825,-0.62267 1.505822,-0.69107 0.313388,-0.0451 3.343479,-0.0431 3.555553,0.002 0.530906,0.11386 0.848081,0.54765 0.848081,1.15989 0,0.19031 -0.04726,0.51165 -0.09116,0.61981 -0.07003,0.17253 -0.300796,0.618 -0.346353,0.66859 -0.02848,0.0316 -0.09009,0.10883 -0.136909,0.17155 -0.09621,0.12889 -0.470748,0.50147 -0.504101,0.50147 -0.012,0 -0.04059,0.0187 -0.06353,0.0415 -0.138357,0.13761 -0.529439,0.34511 -0.957164,0.50785 l -0.252539,0.0961 -1.846685,0.006 c -1.015677,0.003 -1.873623,-0.001 -1.906547,-0.0102 z m 2.892602,-0.7429 c 0.177071,-0.11511 0.46604,-0.45531 0.46604,-0.54867 0,-0.0241 0.01065,-0.044 0.02368,-0.0443 0.01302,-1.9e-4 0.05058,-0.0606 0.08346,-0.13416 0.03288,-0.0736 0.09446,-0.21192 0.136836,-0.30741 0.04238,-0.0955 0.103414,-0.23045 0.135634,-0.29989 0.197336,-0.42534 0.229311,-0.5188 0.243871,-0.71283 0.01483,-0.19763 0.01135,-0.21109 -0.07145,-0.27621 -0.08303,-0.0653 -0.117598,-0.0685 -0.751508,-0.0685 -0.609282,0 -0.675781,0.005 -0.800625,0.0659 -0.240787,0.11657 -0.444057,0.41718 -0.745201,1.10208 -0.02672,0.0608 -0.08382,0.18862 -0.12689,0.28411 -0.184337,0.40868 -0.253006,0.70227 -0.204959,0.87628 0.04927,0.17844 0.138503,0.19879 0.830246,0.18938 l 0.599778,-0.008 z"
         style="fill:#000000;fill-opacity:1;stroke-width:0.03156727" />
      <path
         transform="matrix(0.26458333,0,0,0.26458333,0,201.74998)"
         inkscape:connector-curvature="0"
         id="path4842"
         d="m 64.596776,227.116 c 0,-0.0513 0.160589,-0.43935 0.346832,-0.83811 0.06756,-0.14466 0.244372,-0.53755 0.284119,-0.63135 0.01471,-0.0347 0.06237,-0.14126 0.105903,-0.23675 0.07062,-0.15491 0.128967,-0.28553 0.29612,-0.66291 0.02692,-0.0608 0.09672,-0.21402 0.15511,-0.34056 0.0584,-0.12653 0.106174,-0.23752 0.106174,-0.24663 0,-0.0151 0.05252,-0.13087 0.274371,-0.60466 0.04273,-0.0912 0.10408,-0.18003 0.136337,-0.19729 0.08275,-0.0443 2.104198,-0.0423 2.131634,0.002 0.02144,0.0347 -0.0047,0.11348 -0.135535,0.40847 -0.04235,0.0955 -0.0957,0.21624 -0.118543,0.26832 -0.13711,0.31261 -0.215455,0.48824 -0.267552,0.59978 -0.06823,0.14609 -0.218644,0.47994 -0.298669,0.66291 -0.03037,0.0695 -0.08223,0.18665 -0.115236,0.26043 -0.08955,0.2002 -0.179125,0.40199 -0.24523,0.55243 -0.03242,0.0738 -0.08091,0.18388 -0.107759,0.24465 -0.02685,0.0608 -0.08618,0.19571 -0.131852,0.29989 -0.04567,0.10417 -0.116074,0.25332 -0.156449,0.33145 l -0.07341,0.14206 -1.093183,0.008 c -0.695446,0.005 -1.093184,-0.003 -1.093184,-0.0225 z"
         style="fill:#000000;fill-opacity:1;stroke-width:0.03156727" />
      <path
         transform="matrix(0.26458333,0,0,0.26458333,0,201.74998)"
         inkscape:connector-curvature="0"
         id="path4844"
         d="m 67.374695,227.09941 c 0,-0.0269 0.01365,-0.0737 0.03034,-0.10379 0.01669,-0.0301 0.0664,-0.1365 0.110486,-0.23633 0.09655,-0.21867 0.226262,-0.50965 0.28495,-0.63924 0.02359,-0.0521 0.0807,-0.17993 0.126905,-0.2841 0.04621,-0.10417 0.110379,-0.24623 0.1426,-0.31567 0.03222,-0.0695 0.09617,-0.21151 0.142103,-0.31568 0.04594,-0.10417 0.102542,-0.23202 0.12579,-0.2841 0.02325,-0.0521 0.07669,-0.17283 0.118761,-0.26832 0.380697,-0.86411 0.576847,-1.26972 0.626998,-1.29656 0.03801,-0.0203 0.936684,-0.0283 2.544718,-0.0225 2.385717,0.009 2.491691,0.0115 2.628016,0.0706 0.07813,0.0339 0.156258,0.0723 0.17362,0.0852 0.360276,0.26904 0.521813,0.59032 0.519735,1.03372 -0.0029,0.62604 -0.31242,1.25139 -0.876447,1.77094 -0.274288,0.25267 -0.268462,0.24802 -0.480192,0.38298 -0.219621,0.13999 -0.456603,0.25379 -0.757243,0.36365 l -0.236755,0.0865 -2.612191,0.0108 c -2.344226,0.01 -2.612192,0.006 -2.612192,-0.0382 z m 4.068075,-0.69015 c 0.07587,-0.0493 0.178505,-0.13108 0.228071,-0.18179 0.147708,-0.1511 0.382951,-0.54379 0.527662,-0.88081 0.08784,-0.20459 0.228778,-0.53944 0.265729,-0.63135 0.01745,-0.0434 0.04613,-0.10656 0.06374,-0.14035 0.01761,-0.0338 0.03901,-0.14857 0.04756,-0.25508 0.01464,-0.18233 0.01046,-0.19764 -0.07152,-0.26213 -0.08355,-0.0657 -0.116122,-0.0685 -0.806535,-0.0685 h -0.719469 l -0.07696,0.16573 c -0.04233,0.0911 -0.120509,0.26517 -0.173734,0.3867 -0.08979,0.20502 -0.181538,0.40964 -0.349546,0.77956 -0.03702,0.0815 -0.06731,0.1557 -0.06731,0.16486 0,0.009 -0.03415,0.0916 -0.07588,0.18325 -0.04174,0.0916 -0.113316,0.25182 -0.159066,0.35599 -0.04575,0.10417 -0.09857,0.21684 -0.117367,0.25038 -0.0188,0.0335 -0.046,0.10217 -0.06044,0.15251 l -0.02625,0.0915 0.716688,-0.0105 0.716688,-0.0105 z"
         style="fill:#000000;fill-opacity:1;stroke-width:0.03156727" />
    </g>
  </g>
</svg>
